<svg id="Layer_1" data-name="Layer 1" xmlns="http://www.w3.org/2000/svg" xmlns:xlink="http://www.w3.org/1999/xlink" viewBox="0 0 216 216"><defs><style>.cls-1{fill:none;}.cls-2{clip-path:url(#clip-path);}.cls-3{fill:url(#linear-gradient);}.cls-4{fill:url(#linear-gradient-2);}.cls-5{fill:url(#linear-gradient-3);}.cls-6{fill:url(#linear-gradient-4);}.cls-7{fill:url(#linear-gradient-5);}.cls-8{fill:url(#linear-gradient-6);}</style><clipPath id="clip-path"><circle class="cls-1" cx="108" cy="108" r="108"/></clipPath><linearGradient id="linear-gradient" x1="117.41" y1="0.4" x2="98.59" y2="215.6" gradientUnits="userSpaceOnUse"><stop offset="0" stop-color="#04ccfe"/><stop offset="0.05" stop-color="#1ed1fe"/><stop offset="0.15" stop-color="#51dcfe"/><stop offset="0.25" stop-color="#7fe5fe"/><stop offset="0.36" stop-color="#a5edfe"/><stop offset="0.47" stop-color="#c5f3fe"/><stop offset="0.59" stop-color="#ddf8fe"/><stop offset="0.71" stop-color="#eefbfe"/><stop offset="0.84" stop-color="#f9fdfe"/><stop offset="1" stop-color="#fcfefe"/></linearGradient><linearGradient id="linear-gradient-2" x1="-211.9" y1="-204.14" x2="-94.96" y2="-204.14" gradientTransform="translate(178.71 327.27) rotate(6.12)" gradientUnits="userSpaceOnUse"><stop offset="0" stop-color="#3e8c9e"/><stop offset="1" stop-color="#316f7c"/></linearGradient><linearGradient id="linear-gradient-3" x1="63.18" y1="-187.4" x2="-222.81" y2="-187.4" gradientTransform="translate(178.71 327.27) rotate(6.12)" gradientUnits="userSpaceOnUse"><stop offset="0" stop-color="#325c63"/><stop offset="0.48" stop-color="#325960"/><stop offset="0.77" stop-color="#325158"/><stop offset="1" stop-color="#32434a"/></linearGradient><linearGradient id="linear-gradient-4" x1="-227.11" y1="-163.6" x2="42.56" y2="-163.6" xlink:href="#linear-gradient-2"/><linearGradient id="linear-gradient-5" x1="34.49" y1="-124.53" x2="-199.48" y2="-124.53" xlink:href="#linear-gradient-3"/><linearGradient id="linear-gradient-6" x1="-182.68" y1="-105.41" x2="31.17" y2="-105.41" xlink:href="#linear-gradient-2"/></defs><g class="cls-2"><circle class="cls-3" cx="108" cy="108" r="108"/><polygon class="cls-4" points="104.96 124.25 39.12 138.8 -5.73 114.29 -8.71 87.56 46.79 76.04 104.96 124.25"/><polygon class="cls-5" points="258.19 141.44 213.1 175.57 151.73 150.15 95.26 167.29 -29.72 181.21 -21.29 102.53 53.15 132.34 119.75 101.37 171.35 127.27 268.36 83.67 258.19 141.44"/><line class="cls-1" x1="1.74" y1="145.41" x2="-10.22" y2="141.89"/><line class="cls-1" x1="15.9" y1="209.56" x2="7.23" y2="213.03"/><line class="cls-1" x1="204.71" y1="218.61" x2="191.58" y2="212.7"/><polygon class="cls-6" points="216.34 201.29 106.86 184.1 3.81 199.98 -32.75 169.14 19.26 142.5 91.9 152.03 163.54 105.12 238.94 164.65 207.59 183 216.34 201.29"/><polygon class="cls-7" points="224.97 219.34 178.15 221.82 117.05 209.31 24.12 223.52 6.21 221.6 -7.96 197.09 74.51 164.59 124.98 179.37 167.7 162.79 216.34 201.29 216.33 201.34 224.97 219.34"/><polygon class="cls-8" points="219.97 234.77 63.99 227.79 7.23 213.03 87.69 192.68 219.97 234.77"/></g></svg>