<svg id="Layer_1" data-name="Layer 1" xmlns="http://www.w3.org/2000/svg" xmlns:xlink="http://www.w3.org/1999/xlink" viewBox="0 0 216 216"><defs><style>.cls-1{fill:none;}.cls-2{clip-path:url(#clip-path);}.cls-3{fill:url(#linear-gradient);}.cls-4{fill:url(#linear-gradient-2);}.cls-5{fill:url(#linear-gradient-3);}.cls-6{fill:url(#linear-gradient-4);}.cls-7{fill:url(#linear-gradient-5);}.cls-8{fill:url(#linear-gradient-6);}.cls-9{clip-path:url(#clip-path-2);}.cls-10{fill:url(#linear-gradient-7);}</style><clipPath id="clip-path"><circle class="cls-1" cx="108" cy="108" r="108"/></clipPath><linearGradient id="linear-gradient" x1="117.41" y1="0.4" x2="98.59" y2="215.6" gradientUnits="userSpaceOnUse"><stop offset="0" stop-color="#04ccfe"/><stop offset="0.01" stop-color="#08cdfe"/><stop offset="0.08" stop-color="#3bd7fe"/><stop offset="0.16" stop-color="#68e0fe"/><stop offset="0.25" stop-color="#90e8fe"/><stop offset="0.34" stop-color="#b2effe"/><stop offset="0.43" stop-color="#cdf4fe"/><stop offset="0.54" stop-color="#e2f9fe"/><stop offset="0.65" stop-color="#f1fcfe"/><stop offset="0.79" stop-color="#f9fdfe"/><stop offset="1" stop-color="#fcfefe"/></linearGradient><linearGradient id="linear-gradient-2" x1="22.94" y1="82.38" x2="199.88" y2="184.53" gradientUnits="userSpaceOnUse"><stop offset="0" stop-color="#228254"/><stop offset="0" stop-color="#3fb27e"/><stop offset="0" stop-color="#3eb07c"/><stop offset="0" stop-color="#39a775"/><stop offset="0" stop-color="#309968"/><stop offset="0" stop-color="#248557"/><stop offset="0" stop-color="#228254"/><stop offset="0.43" stop-color="#217d54"/><stop offset="0.98" stop-color="#1d6d54"/><stop offset="1" stop-color="#1d6c54"/></linearGradient><linearGradient id="linear-gradient-3" x1="-8.79" y1="108.77" x2="152.46" y2="108.77" gradientUnits="userSpaceOnUse"><stop offset="0" stop-color="#3fb27e"/><stop offset="0.42" stop-color="#3db07e"/><stop offset="0.66" stop-color="#37a77e"/><stop offset="0.86" stop-color="#2d997e"/><stop offset="1" stop-color="#228a7e"/></linearGradient><linearGradient id="linear-gradient-4" x1="-0.17" y1="172.42" x2="206.84" y2="172.42" gradientUnits="userSpaceOnUse"><stop offset="0" stop-color="#3fb27e"/><stop offset="0.31" stop-color="#3aab7e"/><stop offset="0.78" stop-color="#2b967e"/><stop offset="1" stop-color="#228a7e"/></linearGradient><linearGradient id="linear-gradient-5" x1="10.05" y1="194.69" x2="193.26" y2="194.69" gradientUnits="userSpaceOnUse"><stop offset="0" stop-color="#228254"/><stop offset="0" stop-color="#3fb27e"/><stop offset="0" stop-color="#3eb07c"/><stop offset="0" stop-color="#39a775"/><stop offset="0" stop-color="#309968"/><stop offset="0" stop-color="#248557"/><stop offset="0" stop-color="#228254"/><stop offset="0.56" stop-color="#228054"/><stop offset="0.81" stop-color="#207954"/><stop offset="1" stop-color="#1d6c54"/><stop offset="1" stop-color="#1d6c54"/></linearGradient><linearGradient id="linear-gradient-6" x1="28.18" y1="208.65" x2="159.17" y2="208.65" gradientUnits="userSpaceOnUse"><stop offset="0" stop-color="#3fb27e"/><stop offset="0.31" stop-color="#3cae7e"/><stop offset="0.64" stop-color="#33a17e"/><stop offset="0.96" stop-color="#248d7e"/><stop offset="1" stop-color="#228a7e"/></linearGradient><clipPath id="clip-path-2"><circle class="cls-1" cx="-131.9" cy="108" r="108"/></clipPath><linearGradient id="linear-gradient-7" x1="-176.72" y1="-187.4" x2="-462.7" y2="-187.4" gradientTransform="translate(177.35 352.84) rotate(6.12)" gradientUnits="userSpaceOnUse"><stop offset="0" stop-color="#325c63"/><stop offset="0.48" stop-color="#325960"/><stop offset="0.77" stop-color="#325158"/><stop offset="1" stop-color="#32434a"/></linearGradient></defs><g class="cls-2"><circle class="cls-3" cx="108" cy="108" r="108"/><path class="cls-1" d="M212.48,199.5a100.22,100.22,0,0,1-19.22,3.95"/><path class="cls-1" d="M10.05,177.5c-9,6-12,12.34-12,12.34"/><path class="cls-1" d="M212.48,177.28a63.74,63.74,0,0,0-5.64-4.81"/><path class="cls-4" d="M226.67,127.24l-19.83,45.23c-12.94-10-47.73-31.31-100.25-22.71-59.27,9.71-93.32,3-106.76-8.6l-1.31-16.49c19.06,8.48,74.23,9.67,137.5-4.35q8.58-1.89,16.44-2.9h0C188.47,112.74,213.35,120.79,226.67,127.24Z"/><path class="cls-1" d="M163.35,214c1.36.43,2.71.87,4.07,1.33,42.72,14.32,80.22,28.14,80.22,28.14"/><path class="cls-1" d="M-21.48,201.8-2,199.18Q8.2,197.82,18.44,197"/><path class="cls-5" d="M152.46,117.42q-7.87,1-16.44,2.9c-63.27,14-118.44,12.83-137.5,4.35l-7.31-20.25C4.45,99.89,14.75,81.66,56.12,87.83,79.31,91.28,119.71,118.34,152.46,117.42Z"/><path class="cls-6" d="M206.84,172.47l-13.58,31c-19.6,1.72-34.13-6.37-82.85-23.82-56.46-20.23-86-11.7-100.36-2.13l-9-20.87L-.17,141.16c13.44,11.59,47.49,18.31,106.76,8.6C159.11,141.16,193.9,162.5,206.84,172.47Z"/><path class="cls-7" d="M193.26,203.45l-4.14,9.45L163.35,214l-10.24,3.8c-46.77-15.09-73.76.46-122.66,4.33L10.05,177.5c14.37-9.57,43.9-18.1,100.36,2.13C159.13,197.08,173.66,205.17,193.26,203.45Z"/><path class="cls-8" d="M159.17,216l-131,3.66,33.93-13.87C94.07,194.55,106.91,192.35,159.17,216Z"/></g><g class="cls-9"><polygon class="cls-10" points="18.29 141.44 -26.79 175.57 -88.16 150.15 -144.63 167.29 -269.62 181.21 -261.18 102.53 -186.75 132.34 -120.14 101.37 -68.55 127.27 28.46 83.67 18.29 141.44"/></g></svg>