<svg id="Layer_1" data-name="Layer 1" xmlns="http://www.w3.org/2000/svg" xmlns:xlink="http://www.w3.org/1999/xlink" viewBox="0 0 216 216"><defs><style>.cls-1{fill:none;}.cls-2{fill:url(#linear-gradient);}.cls-3{fill:url(#linear-gradient-2);}.cls-4{fill:url(#linear-gradient-3);}.cls-5{fill:url(#linear-gradient-4);}.cls-6{fill:url(#linear-gradient-5);}.cls-7{fill:url(#linear-gradient-6);}.cls-8{clip-path:url(#clip-path);}.cls-9{fill:url(#linear-gradient-7);}.cls-10{fill:url(#linear-gradient-8);}</style><linearGradient id="linear-gradient" x1="113.87" y1="74.72" x2="102.66" y2="138.29" gradientUnits="userSpaceOnUse"><stop offset="0" stop-color="#5585e5"/><stop offset="0.33" stop-color="#5582e5"/><stop offset="0.6" stop-color="#5577e5"/><stop offset="0.81" stop-color="#556ae5"/><stop offset="1" stop-color="#5566e5"/></linearGradient><linearGradient id="linear-gradient-2" x1="117.78" y1="0.44" x2="107.78" y2="114.79" gradientUnits="userSpaceOnUse"><stop offset="0" stop-color="#04ccfe"/><stop offset="0.11" stop-color="#18d0fe"/><stop offset="0.34" stop-color="#4cdbfe"/><stop offset="0.67" stop-color="#a0ebfe"/><stop offset="1" stop-color="#fcfefe"/></linearGradient><linearGradient id="linear-gradient-3" x1="0.56" y1="144.86" x2="213.66" y2="144.86" gradientUnits="userSpaceOnUse"><stop offset="0" stop-color="#1d54a3"/><stop offset="1" stop-color="#2639a2"/></linearGradient><linearGradient id="linear-gradient-4" x1="99.05" y1="136.98" x2="111.94" y2="210.11" xlink:href="#linear-gradient"/><linearGradient id="linear-gradient-5" x1="122.59" y1="161.13" x2="65.5" y2="218.22" xlink:href="#linear-gradient-3"/><linearGradient id="linear-gradient-6" x1="92.82" y1="195.39" x2="80.45" y2="216.82" xlink:href="#linear-gradient"/><clipPath id="clip-path"><circle class="cls-1" cx="353.06" cy="108" r="108"/></clipPath><linearGradient id="linear-gradient-7" x1="308.24" y1="-187.4" x2="22.25" y2="-187.4" gradientTransform="translate(180.11 301.16) rotate(6.12)" gradientUnits="userSpaceOnUse"><stop offset="0" stop-color="#325c63"/><stop offset="0.48" stop-color="#325960"/><stop offset="0.77" stop-color="#325158"/><stop offset="1" stop-color="#32434a"/></linearGradient><linearGradient id="linear-gradient-8" x1="17.94" y1="-163.6" x2="287.61" y2="-163.6" gradientTransform="translate(180.11 301.16) rotate(6.12)" gradientUnits="userSpaceOnUse"><stop offset="0" stop-color="#3e8c9e"/><stop offset="1" stop-color="#316f7c"/></linearGradient></defs><path class="cls-2" d="M216,108a108.49,108.49,0,0,1-2.34,22.45c-11.47,2.58-25.47,5.66-43.8,9.13C108.34,151.23,55.73,120.18.56,119A108,108,0,0,1,6.42,71.28c9.89,5.08,20,12.1,29.82,17.91,82.41,48.51,124,17.29,178.65,3.34A106.67,106.67,0,0,1,216,108Z"/><path class="cls-3" d="M36.24,89.19C26.37,83.38,16.31,76.36,6.42,71.28A108,108,0,0,1,214.89,92.53C160.29,106.48,118.65,137.7,36.24,89.19Z"/><path class="cls-4" d="M213.66,130.44a108,108,0,0,1-17,39.19h0c-70.1,8.48-135.42-33.93-186.54-16A106.54,106.54,0,0,1,.56,119c55.17,1.23,107.78,32.28,169.3,20.62C188.19,136.1,202.19,133,213.66,130.44Z"/><path class="cls-5" d="M196.67,169.63a108.19,108.19,0,0,1-34,31.54C119.32,188,78.79,161.57,25.72,177.93a106.83,106.83,0,0,1-15.59-24.27C61.25,135.7,126.57,178.11,196.67,169.63Z"/><path class="cls-6" d="M162.63,201.17a106.46,106.46,0,0,1-38.91,13.67c-15.59-15.2-51.21-23.45-74.78-16.41a107.09,107.09,0,0,1-23.22-20.5C78.79,161.57,119.32,188,162.63,201.17Z"/><path class="cls-7" d="M123.72,214.84A106,106,0,0,1,108,216a107.56,107.56,0,0,1-59-17.57C72.51,191.39,108.13,199.64,123.72,214.84Z"/><g class="cls-8"><polygon class="cls-9" points="503.24 141.44 458.16 175.57 396.79 150.15 340.32 167.29 215.34 181.21 223.77 102.53 298.21 132.34 364.81 101.37 416.4 127.27 513.42 83.67 503.24 141.44"/><polygon class="cls-10" points="461.39 201.29 351.92 184.1 248.87 199.98 212.3 169.14 264.31 142.5 336.95 152.03 408.6 105.12 484 164.65 452.65 183 461.39 201.29"/></g></svg>