<svg width="599" height="182" viewBox="0 0 599 182" fill="none" xmlns="http://www.w3.org/2000/svg">
<path fill-rule="evenodd" clip-rule="evenodd" d="M352 1.88042C347.325 2.88142 340.888 4.69142 337.696 5.90142C334.504 7.11242 328.59 10.3114 324.553 13.0114C320.517 15.7114 314.709 20.6264 311.647 23.9334C308.584 27.2414 304.466 32.6994 302.495 36.0624C300.524 39.4264 297.763 44.9324 296.36 48.2984C294.956 51.6644 292.944 58.2434 291.888 62.9184C290.831 67.5934 289.691 76.5934 289.354 82.9184C289.014 89.2894 289.232 98.8784 289.843 104.418C290.449 109.918 291.84 117.909 292.934 122.175C294.027 126.442 296.928 134.092 299.379 139.175C302.033 144.679 306.196 151.154 309.668 155.181C312.876 158.9 317.975 163.788 321 166.044C324.025 168.299 329.519 171.664 333.209 173.523C336.898 175.381 343.423 177.918 347.709 179.16C354.474 181.121 357.739 181.412 372.5 181.376C385.199 181.344 391.271 180.893 396.5 179.592C400.35 178.634 407.55 175.852 412.5 173.409C418.046 170.672 423.649 166.942 427.099 163.692C430.178 160.792 434.619 155.551 436.967 152.048C439.316 148.544 442.292 143.082 443.581 139.91C444.87 136.737 446.686 130.829 447.616 126.78C448.794 121.65 449.336 114.567 449.403 103.418L449.5 87.4184H412.5H375.5V98.9184V110.418L397 110.918L418.5 111.418L418.244 117.882C418.06 122.534 417.173 126.089 415.08 130.562C413.48 133.98 410.236 138.876 407.872 141.441C405.508 144.006 400.895 147.457 397.622 149.109C394.348 150.761 389.247 152.744 386.286 153.516C383.325 154.287 377.181 154.918 372.633 154.918C368.061 154.918 361.934 154.212 358.932 153.34C355.944 152.472 350.575 150.025 347 147.903C342.851 145.44 338.828 141.942 335.877 138.231C333.335 135.034 330.125 130.168 328.744 127.418C327.363 124.668 325.204 118.818 323.946 114.418C322.019 107.682 321.65 103.97 321.608 90.9184C321.572 79.6354 322.01 73.6364 323.218 68.8684C324.132 65.2654 325.837 59.7564 327.008 56.6254C328.18 53.4944 331.095 48.3414 333.486 45.1754C335.876 42.0094 340.159 37.6934 343.002 35.5854C345.845 33.4764 350.72 30.8174 353.836 29.6754C358.319 28.0324 362.001 27.5804 371.5 27.5084C380.858 27.4384 384.711 27.8354 389 29.3144C392.025 30.3584 396.3 32.4534 398.5 33.9724C400.7 35.4914 404.221 38.5164 406.325 40.6954C408.429 42.8744 411.617 47.5284 413.41 51.0374L416.669 57.4184H432.084H447.5L447.233 54.9184C447.085 53.5434 446.312 50.1684 445.513 47.4184C444.715 44.6684 442.399 39.6204 440.366 36.2004C438.333 32.7804 434.899 27.8304 432.733 25.2004C430.568 22.5704 425.48 17.9434 421.427 14.9184C417.374 11.8934 411.008 8.12242 407.28 6.53942C403.552 4.95542 396.451 2.82442 391.501 1.80242C385.744 0.614422 378.536 -0.0345784 371.5 0.00142164C364.855 0.0364216 357.135 0.780421 352 1.88042ZM10.972 4.66842C10.956 5.63042 10.29 14.2934 9.492 23.9184C8.694 33.5434 7.347 49.9684 6.499 60.4184C5.652 70.8684 4.521 84.3684 3.988 90.4184C3.454 96.4684 3.013 102.205 3.009 103.168C3.001 104.653 3.967 104.918 9.383 104.918C14.732 104.918 15.844 104.621 16.246 103.085C16.51 102.077 16.497 79.1274 16.219 52.0854L15.712 2.91842H13.356C11.79 2.91842 10.991 3.50542 10.972 4.66842ZM54.556 4.11842C54.324 4.83342 53.413 14.1934 52.531 24.9184C51.648 35.6434 50.287 52.2934 49.507 61.9184C48.727 71.5434 47.828 83.2434 47.51 87.9184C47.192 92.5934 46.672 98.3304 46.353 100.668L45.773 104.918H55.411C64.861 104.918 65.069 104.867 66.034 102.328C66.645 100.722 66.92 81.4314 66.76 51.5784L66.5 3.41842L60.738 3.11842C56.677 2.90642 54.852 3.20142 54.556 4.11842ZM101.584 5.13642C101.325 6.39142 100.835 12.3684 100.495 18.4184C100.155 24.4684 99.213 37.0684 98.402 46.4184C97.592 55.7684 96.275 71.0684 95.477 80.4184C94.679 89.7684 94.02 99.1064 94.013 101.168L94 104.918H109.455H124.909L125.491 101.668C125.811 99.8814 125.944 77.0434 125.787 50.9184L125.5 3.41842L113.777 3.13642C102.273 2.86042 102.045 2.89842 101.584 5.13642ZM161.979 4.15942C161.968 4.85242 161.305 13.5184 160.506 23.4184C159.707 33.3184 158.362 49.9684 157.517 60.4184C156.672 70.8684 155.543 84.5934 155.007 90.9184C154.471 97.2434 154.025 102.981 154.016 103.668C154.004 104.605 157.26 104.918 167.008 104.918H180.017L186.258 98.5654C189.691 95.0714 194.035 91.4224 195.912 90.4564C197.788 89.4904 202.934 88.0694 207.348 87.2994C213.462 86.2314 216.75 86.1474 221.157 86.9464C224.338 87.5234 228.641 88.7054 230.72 89.5734C232.799 90.4414 236.151 92.4574 238.169 94.0544C240.187 95.6514 243.207 99.0254 244.881 101.552C246.555 104.08 248.667 108.683 249.575 111.783C250.735 115.744 251.061 119.421 250.671 124.162C250.331 128.309 249.08 133.218 247.423 136.91C245.811 140.501 242.946 144.557 240.29 147.005C237.848 149.256 233.321 152.255 230.23 153.67C226.483 155.386 222.231 156.396 217.475 156.701C212.545 157.018 208.545 156.637 204.528 155.469C201.331 154.54 196.476 152.271 193.738 150.428C191.001 148.584 187.234 144.927 185.366 142.301C183.499 139.675 181.511 135.814 180.947 133.722L179.923 129.918H165.461H151L151.021 133.168C151.033 134.955 152.113 139.452 153.422 143.161C154.731 146.87 156.931 151.82 158.31 154.161C159.689 156.502 163.361 161.013 166.468 164.185C169.898 167.686 174.79 171.298 178.916 173.376C182.655 175.259 188.816 177.838 192.607 179.109C198.649 181.133 201.414 181.414 215 181.387C227.11 181.363 231.812 180.956 236.5 179.524C239.8 178.517 245.65 176.075 249.5 174.099C254.121 171.727 259.084 167.942 264.103 162.962C269.823 157.286 272.591 153.561 275.278 147.918C277.242 143.793 279.333 137.748 279.924 134.484C280.516 131.221 281 124.382 281 119.286C281 112.195 280.419 108.191 278.524 102.22C277.162 97.9294 274.403 91.9434 272.393 88.9184C270.382 85.8934 267.334 81.8964 265.619 80.0374C263.903 78.1774 259.866 74.9294 256.646 72.8204C253.426 70.7104 248.427 68.0994 245.538 67.0184C242.648 65.9374 236.543 64.5404 231.971 63.9144C225.78 63.0664 221.493 63.0644 215.181 63.9044C210.057 64.5864 204.198 66.1684 200.365 67.9074C196.79 69.5274 191.562 73.1014 188.377 76.1004L182.73 81.4184L183.463 71.4184C183.866 65.9184 184.939 53.9934 185.848 44.9184L187.5 28.4184L229 27.9184L270.5 27.4184V15.4184V3.41842L216.25 3.15942C173.19 2.95442 161.996 3.16042 161.979 4.15942ZM475.472 12.1304C475.19 12.8654 475.081 23.3554 475.23 35.4424L475.5 57.4184L492.335 57.6934L509.17 57.9674L508.461 54.6934C508.071 52.8924 506.876 49.1684 505.806 46.4184C504.736 43.6684 502.239 38.5064 500.258 34.9474C498.265 31.3684 493.478 25.3354 489.544 21.4474C485.633 17.5814 480.982 13.6034 479.209 12.6074C476.64 11.1644 475.88 11.0674 475.472 12.1304ZM534.228 38.6684L534.5 57.4184L544.913 57.7054C550.64 57.8634 555.688 57.6304 556.129 57.1894C556.571 56.7474 555.662 52.7184 554.11 48.2354C552.557 43.7524 550.137 38.1214 548.731 35.7224C547.325 33.3234 544.055 28.7864 541.465 25.6394C538.874 22.4924 536.125 19.9184 535.355 19.9184C534.196 19.9184 534.003 23.1364 534.228 38.6684ZM584.267 43.9184L584.5 57.4184L590.386 57.7224L596.272 58.0264L595.628 54.7224C595.274 52.9054 593.633 48.0434 591.98 43.9184C590.328 39.7934 587.864 35.0684 586.505 33.4184L584.034 30.4184L584.267 43.9184ZM475.689 87.5624C475.31 87.9414 475 107.076 475 130.085C475 165.744 475.212 171.918 476.434 171.918C477.222 171.918 480.572 169.747 483.878 167.094C487.184 164.441 491.746 160.053 494.015 157.344C496.284 154.635 499.524 149.718 501.213 146.418C502.903 143.118 505.302 137.431 506.545 133.779C507.788 130.128 509.331 122.253 509.975 116.279C510.618 110.306 510.999 101.368 510.822 96.4184L510.5 87.4184L493.439 87.1454C484.056 86.9954 476.069 87.1834 475.689 87.5624ZM534.667 87.5854C534.3 87.9514 534 105.025 534 125.526C534 146.042 534.398 163.046 534.884 163.346C535.371 163.647 537.554 161.955 539.737 159.587C541.92 157.219 545.259 152.838 547.157 149.85C549.055 146.862 551.595 141.718 552.801 138.418C554.008 135.118 555.671 128.818 556.497 124.418C557.404 119.588 558 110.573 558 101.668V86.9184H546.667C540.433 86.9184 535.033 87.2184 534.667 87.5854ZM584 119.418C584 141.436 584.338 151.918 585.049 151.918C585.626 151.918 587.644 148.656 589.533 144.668C591.423 140.68 593.926 133.818 595.098 129.418C596.724 123.309 597.348 117.34 597.74 104.168L598.252 86.9184H591.126H584V119.418ZM0 132.708C0 134.242 0.689 138.145 1.532 141.38C2.375 144.615 4.622 149.772 6.526 152.84C8.43 155.908 11.094 159.656 12.446 161.168C13.798 162.68 15.151 163.918 15.452 163.918C15.753 163.918 16 156.268 16 146.918V129.918H8H0V132.708ZM43 132.281C43 133.615 43.94 137.792 45.088 141.563C46.236 145.333 48.34 150.443 49.763 152.918C51.187 155.393 55.044 160.231 58.334 163.668C61.625 167.106 64.93 169.918 65.68 169.918C66.793 169.918 66.993 166.305 66.771 150.168L66.5 130.418L54.75 130.136L43 129.855V132.281ZM91.268 135.144C91.572 138.045 92.79 142.995 93.974 146.146C95.158 149.296 98.466 154.921 101.325 158.646C104.871 163.265 109.008 167.087 114.337 170.668C118.635 173.555 122.905 175.916 123.826 175.914C125.342 175.91 125.5 173.767 125.5 153.164V130.418L108.108 130.144L90.715 129.87L91.268 135.144Z" fill="#BEFDA6"/>
</svg>
