<?xml version="1.0" encoding="utf-8"?>
<!-- Generator: Adobe Illustrator 24.2.1, SVG Export Plug-In . SVG Version: 6.00 Build 0)  -->
<svg version="1.1" id="Ebene_1" xmlns="http://www.w3.org/2000/svg" xmlns:xlink="http://www.w3.org/1999/xlink" x="0px" y="0px"
	 viewBox="0 0 24 28" style="enable-background:new 0 0 24 28;" xml:space="preserve">
<style type="text/css">
	.st0{fill:#304351;}
</style>
<path class="st0" d="M12.2,8.3c-1.1,0-2.8-1.2-4.6-1.2c-2.4,0-4.5,1.3-5.7,3.4C-0.6,14.6,1.2,20.7,3.6,24c1.2,1.6,2.5,3.5,4.4,3.4
	c1.8-0.1,2.4-1.1,4.6-1.1c2.1,0,2.7,1.1,4.6,1.1s3.1-1.7,4.2-3.3c1.3-1.9,1.9-3.7,1.9-3.8c0,0-3.7-1.4-3.7-5.4c0-3.4,2.9-5,3-5.1
	c-1.6-2.3-4.2-2.6-5.1-2.7C15.2,6.9,13.3,8.3,12.2,8.3z M16.1,4.8c1-1.1,1.6-2.7,1.4-4.3c-1.4,0.1-3.1,0.9-4.1,2
	c-0.9,1-1.7,2.6-1.5,4.2C13.5,6.9,15.1,6,16.1,4.8z"/>
</svg>
