<?xml version="1.0" encoding="utf-8"?>
<!-- Generator: Adobe Illustrator 24.2.1, SVG Export Plug-In . SVG Version: 6.00 Build 0)  -->
<svg version="1.1" id="Ebene_1" xmlns="http://www.w3.org/2000/svg" xmlns:xlink="http://www.w3.org/1999/xlink" x="0px" y="0px"
	 viewBox="0 0 20 20" style="enable-background:new 0 0 20 20;" xml:space="preserve">
<style type="text/css">
	.st0{fill:#FFFFFF;}
</style>
<path class="st0" d="M1.2,10c0,4.9,3.9,8.8,8.8,8.8c4.9,0,8.8-3.9,8.8-8.8c0-4.9-3.9-8.8-8.8-8.8C5.1,1.2,1.2,5.1,1.2,10z M10.4,6.3
	l3.3,3.3c0.1,0.1,0.1,0.2,0.1,0.4s0,0.3-0.1,0.4l-3.3,3.3c-0.2,0.2-0.5,0.2-0.7,0s-0.2-0.5,0-0.7l2.4-2.4H6.7
	c-0.3,0-0.5-0.2-0.5-0.5s0.2-0.5,0.5-0.5h5.4L9.6,7.1c-0.2-0.2-0.2-0.5,0-0.7S10.2,6.2,10.4,6.3z"/>
</svg>
