<svg id="Layer_1" data-name="Layer 1" xmlns="http://www.w3.org/2000/svg" viewBox="0 0 951.25 812.72"><defs><style>.cls-1{fill:#fff;}</style></defs><rect width="619.66" height="215.19"/><rect y="298.76" width="837.65" height="215.19"/><rect y="597.53" width="951.25" height="215.19"/><path class="cls-1" d="M591.44,304.63V281.25l46.16-41.73a44.24,44.24,0,0,0,7-8.52,18.11,18.11,0,0,0,2.68-9.68,13.72,13.72,0,0,0-4-10.27q-4-3.93-10.7-3.93a14.71,14.71,0,0,0-11.46,4.94q-4.43,4.94-5.27,13l-26.92-3.68a42.37,42.37,0,0,1,4.93-16.09,41.83,41.83,0,0,1,9.95-12,43.07,43.07,0,0,1,13.8-7.58A51.43,51.43,0,0,1,634.08,183a58.23,58.23,0,0,1,15.9,2.18,41.35,41.35,0,0,1,13.7,6.68,33.49,33.49,0,0,1,9.62,11.38,34,34,0,0,1,3.6,16.05,36.82,36.82,0,0,1-1.67,11.46,38.33,38.33,0,0,1-4.6,9.45,54.29,54.29,0,0,1-6.69,8.11q-3.77,3.77-7.78,7.44l-27.43,24.42h48.34v24.42Z" transform="translate(-483.92 -134)"/><path class="cls-1" d="M791.79,245.09A110.24,110.24,0,0,1,789.28,269a61,61,0,0,1-8,20A41.6,41.6,0,0,1,767,302.7q-8.79,5.1-21.32,5.1t-21.41-5.1A42,42,0,0,1,709.76,289a59.78,59.78,0,0,1-8.11-20,110.87,110.87,0,0,1-2.51-23.91,109.72,109.72,0,0,1,2.51-23.83,58,58,0,0,1,8.11-19.74,41.77,41.77,0,0,1,14.47-13.46q8.87-5,21.41-5t21.32,5a41.34,41.34,0,0,1,14.3,13.46,59.13,59.13,0,0,1,8,19.74A109.11,109.11,0,0,1,791.79,245.09Zm-28.76,0q0-5.52-.67-12.21a61.64,61.64,0,0,0-2.51-12.46,27,27,0,0,0-5.27-9.7,11.3,11.3,0,0,0-8.94-3.93,11.53,11.53,0,0,0-9,3.93,27.11,27.11,0,0,0-5.44,9.7,57.17,57.17,0,0,0-2.6,12.46q-.66,6.69-.66,12.21,0,5.68.66,12.46a57.29,57.29,0,0,0,2.6,12.54,27.11,27.11,0,0,0,5.44,9.7,11.53,11.53,0,0,0,9,3.93,11.3,11.3,0,0,0,8.94-3.93,27,27,0,0,0,5.27-9.7,61.75,61.75,0,0,0,2.51-12.54Q763,250.77,763,245.09Z" transform="translate(-483.92 -134)"/><path class="cls-1" d="M814.2,304.63V281.25l46.17-41.73a44.24,44.24,0,0,0,7-8.52,18.11,18.11,0,0,0,2.68-9.68,13.72,13.72,0,0,0-4-10.27c-2.67-2.62-6.25-3.93-10.7-3.93a14.68,14.68,0,0,0-11.46,4.94q-4.42,4.94-5.27,13l-26.92-3.68a42.37,42.37,0,0,1,4.93-16.09,41.83,41.83,0,0,1,10-12,43.07,43.07,0,0,1,13.8-7.58A51.43,51.43,0,0,1,856.85,183a58.11,58.11,0,0,1,15.89,2.18,41.3,41.3,0,0,1,13.71,6.68,33.49,33.49,0,0,1,9.62,11.38,34,34,0,0,1,3.6,16.05A36.82,36.82,0,0,1,898,230.79a38.33,38.33,0,0,1-4.6,9.45,54.29,54.29,0,0,1-6.69,8.11q-3.76,3.77-7.78,7.44L851.5,280.21h48.34v24.42Z" transform="translate(-483.92 -134)"/><path class="cls-1" d="M961.55,304.63v-87l-22.08,17.06-14.55-19.9,39-28.6h25.61V304.63Z" transform="translate(-483.92 -134)"/><path class="cls-1" d="M592.27,599.65V481.24h79.61v24.08h-52v22.41H669v22.91H619.87v24.59h55v24.42Z" transform="translate(-483.92 -134)"/><path class="cls-1" d="M755.84,599.65h-28.6L682.42,481.24h32.11l27.42,84h.68l27.26-84h31.6Z" transform="translate(-483.92 -134)"/><path class="cls-1" d="M936,539.94a66.07,66.07,0,0,1-4.85,25.67,58.32,58.32,0,0,1-13.46,19.9,60,60,0,0,1-20.49,12.8,75.57,75.57,0,0,1-51.43,0,60,60,0,0,1-20.4-12.8,58.34,58.34,0,0,1-13.47-19.9A66.07,66.07,0,0,1,807,539.94a65.29,65.29,0,0,1,4.84-25.67,56.28,56.28,0,0,1,13.47-19.49,60,60,0,0,1,20.4-12.37,78.18,78.18,0,0,1,51.43,0,59.91,59.91,0,0,1,20.49,12.37,56.26,56.26,0,0,1,13.46,19.49A65.29,65.29,0,0,1,936,539.94Zm-30.61,0a40.66,40.66,0,0,0-2.5-14.38,34.51,34.51,0,0,0-6.94-11.46,31.94,31.94,0,0,0-10.71-7.52,33.88,33.88,0,0,0-13.8-2.76A32.92,32.92,0,0,0,847,514.1a32.66,32.66,0,0,0-7,11.46,44.41,44.41,0,0,0,.09,29.18,35,35,0,0,0,6.94,11.63A31.89,31.89,0,0,0,857.69,574a35.58,35.58,0,0,0,27.43,0,32.84,32.84,0,0,0,10.7-7.61,34.51,34.51,0,0,0,7-11.63A42.34,42.34,0,0,0,905.35,539.94Z" transform="translate(-483.92 -134)"/><path class="cls-1" d="M958.2,599.65V481.24H987v93.49h45.82v24.92Z" transform="translate(-483.92 -134)"/><path class="cls-1" d="M1099.19,599.65h-28.6l-44.82-118.41h32.11l27.43,84h.67l27.26-84h31.6Z" transform="translate(-483.92 -134)"/><path class="cls-1" d="M1157.89,599.65V481.24h79.6v24.08h-52v22.41h49.17v22.91h-49.17v24.59h55v24.42Z" transform="translate(-483.92 -134)"/><path class="cls-1" d="M672.55,894.67l-9.2-23.25H617.53l-8.7,23.25h-31.1l49.66-118.41h27.77l49.17,118.41Zm-31.77-86.8-15.06,40.64h29.77Z" transform="translate(-483.92 -134)"/><path class="cls-1" d="M841,894.67H812.7l-23.41-80.11h-.5l-23.42,80.11H736.94L703.32,776.26H734.1L752.83,855h.5l21.07-78.77h29.77L825.41,855h.5L845,776.26h29.77Z" transform="translate(-483.92 -134)"/><path class="cls-1" d="M968.57,894.67l-9.2-23.25H913.55l-8.7,23.25h-31.1l49.67-118.41h27.76l49.17,118.41Zm-31.77-86.8-15,40.64h29.77Z" transform="translate(-483.92 -134)"/><path class="cls-1" d="M1076.94,894.67l-25.7-47h-9.75v47h-27.93V776.26h45.15a78.45,78.45,0,0,1,16.64,1.75,43.29,43.29,0,0,1,14.56,5.94,31.15,31.15,0,0,1,10.28,11q3.84,6.85,3.85,17.06,0,12-6.52,20.23T1079.45,844l30.94,50.68Zm-1.17-82.12a11.85,11.85,0,0,0-1.76-6.77,12.11,12.11,0,0,0-4.54-4,19.86,19.86,0,0,0-6.22-1.92,45.34,45.34,0,0,0-6.64-.5h-15.29v27.59h13.61a46.22,46.22,0,0,0,7.23-.58,23.27,23.27,0,0,0,6.72-2.09,12.13,12.13,0,0,0,6.89-11.71Z" transform="translate(-483.92 -134)"/><path class="cls-1" d="M1238.33,835.13q0,15.55-5.77,26.84a54,54,0,0,1-15.22,18.56A63.5,63.5,0,0,1,1196,891.24a86.61,86.61,0,0,1-24.08,3.43h-44.15V776.26h42.81a105.87,105.87,0,0,1,24.75,2.92,62.14,62.14,0,0,1,21.74,9.7A49.66,49.66,0,0,1,1232.48,807Q1238.33,818.4,1238.33,835.13Zm-29.76,0q0-10-3.27-16.64a28,28,0,0,0-8.69-10.54,34.83,34.83,0,0,0-12.38-5.6,60.56,60.56,0,0,0-14.3-1.68h-14.21v69.24h13.54a61.52,61.52,0,0,0,14.8-1.75,35.15,35.15,0,0,0,12.55-5.77,28.62,28.62,0,0,0,8.69-10.71Q1208.57,845,1208.57,835.13Z" transform="translate(-483.92 -134)"/><path class="cls-1" d="M1323.12,807a25.81,25.81,0,0,0-9.62-7.44,27.07,27.07,0,0,0-11.45-2.76,34.52,34.52,0,0,0-5.77.5,15,15,0,0,0-5.27,1.92,13.14,13.14,0,0,0-3.93,3.68,9.8,9.8,0,0,0-1.59,5.77,9.28,9.28,0,0,0,1.26,5,11,11,0,0,0,3.68,3.51,32.26,32.26,0,0,0,5.76,2.76q3.35,1.26,7.53,2.59,6,2,12.55,4.44a47,47,0,0,1,11.87,6.43,33.8,33.8,0,0,1,8.86,10q3.51,5.93,3.52,14.8a38.63,38.63,0,0,1-3.77,17.64,35.15,35.15,0,0,1-10.12,12.29,43.18,43.18,0,0,1-14.55,7.19,61.18,61.18,0,0,1-16.89,2.35,69.6,69.6,0,0,1-24.58-4.44,52,52,0,0,1-19.74-12.62l18.73-19.07a34.64,34.64,0,0,0,11.46,9,31.05,31.05,0,0,0,14.13,3.59,28.84,28.84,0,0,0,6.19-.66,15.42,15.42,0,0,0,5.27-2.18,10.88,10.88,0,0,0,3.59-4,12.56,12.56,0,0,0,1.34-6,9.57,9.57,0,0,0-1.67-5.69,16.3,16.3,0,0,0-4.77-4.26,37.79,37.79,0,0,0-7.69-3.52q-4.6-1.57-10.46-3.43a98.68,98.68,0,0,1-11.11-4.34,37.26,37.26,0,0,1-9.7-6.44,29.64,29.64,0,0,1-6.86-9.53,32.3,32.3,0,0,1-2.6-13.63q0-9.87,4-16.9a34.85,34.85,0,0,1,10.54-11.54,45.09,45.09,0,0,1,14.71-6.6,66.41,66.41,0,0,1,16.56-2.09,61.31,61.31,0,0,1,20.49,3.68,52.74,52.74,0,0,1,18.31,10.87Z" transform="translate(-483.92 -134)"/></svg>