<svg id="Layer_1" data-name="Layer 1" xmlns="http://www.w3.org/2000/svg" viewBox="0 0 619.66 690.74"><defs><style>.cls-1{fill:none;}.cls-2{fill:#3ebecf;}</style></defs><path class="cls-1" d="M954.28,297.1c-.72,0-1.43,0-2.14,0v8.78c.71,0,1.42,0,2.14,0,115.23,0,209,93.75,209,209q0,3.23-.11,6.42h8.79c.06-2.13.1-4.27.1-6.42C1172,394.79,1074.35,297.1,954.28,297.1Z" transform="translate(-684.67 -245.06)"/><path class="cls-1" d="M954.28,281.9c-.72,0-1.43,0-2.14,0v8.78c.71,0,1.42,0,2.14,0,123.62,0,224.19,100.57,224.19,224.19,0,2.15,0,4.29-.1,6.42h8.78c.06-2.13.1-4.27.1-6.42C1187.25,386.41,1082.74,281.9,954.28,281.9Z" transform="translate(-684.67 -245.06)"/><path class="cls-1" d="M954.28,312.31c-.72,0-1.43,0-2.14,0v8.78c.71,0,1.42,0,2.14,0,106.85,0,193.78,86.93,193.78,193.78,0,2.15,0,4.29-.12,6.42h8.78c.07-2.13.12-4.27.12-6.42C1156.84,403.18,1066,312.31,954.28,312.31Z" transform="translate(-684.67 -245.06)"/><path class="cls-1" d="M954.28,266.69c-.72,0-1.43,0-2.14,0v8.78c.71,0,1.42,0,2.14,0,132,0,239.39,107.4,239.39,239.4q0,3.23-.09,6.42h8.79q.08-3.19.08-6.42C1202.45,378,1091.12,266.69,954.28,266.69Z" transform="translate(-684.67 -245.06)"/><path class="cls-1" d="M954.28,327.52l-2.14,0v8.78c.71,0,1.42,0,2.14,0,98.46,0,178.57,80.11,178.57,178.58,0,2.15,0,4.29-.13,6.42h8.79c.07-2.13.12-4.27.12-6.42C1141.63,411.56,1057.58,327.52,954.28,327.52Z" transform="translate(-684.67 -245.06)"/><path class="cls-1" d="M954.28,251.49c-.72,0-1.43,0-2.14,0v8.78c.71,0,1.42,0,2.14,0,140.38,0,254.6,114.21,254.6,254.6q0,3.23-.08,6.42h8.78q.08-3.19.08-6.42C1217.66,369.64,1099.51,251.49,954.28,251.49Z" transform="translate(-684.67 -245.06)"/><path class="cls-2" d="M954.28,336.29c-.72,0-1.43,0-2.14,0v6.43c.71,0,1.42,0,2.14,0,94.92,0,172.14,77.23,172.14,172.15,0,2.15-.05,4.29-.13,6.42h6.43c.08-2.13.13-4.27.13-6.42C1132.85,416.4,1052.74,336.29,954.28,336.29Z" transform="translate(-684.67 -245.06)"/><path class="cls-2" d="M954.28,321.09c-.72,0-1.43,0-2.14,0v6.42l2.14,0c103.3,0,187.35,84,187.35,187.35,0,2.15-.05,4.29-.12,6.42h6.43c.07-2.13.12-4.27.12-6.42C1148.06,408,1061.13,321.09,954.28,321.09Z" transform="translate(-684.67 -245.06)"/><path class="cls-2" d="M954.28,305.88c-.72,0-1.43,0-2.14,0v6.43c.71,0,1.42,0,2.14,0,111.69,0,202.56,90.87,202.56,202.56,0,2.15,0,4.29-.12,6.42h6.43q.11-3.19.11-6.42C1163.26,399.63,1069.51,305.88,954.28,305.88Z" transform="translate(-684.67 -245.06)"/><path class="cls-2" d="M954.28,290.68c-.72,0-1.43,0-2.14,0v6.42c.71,0,1.42,0,2.14,0,120.07,0,217.76,97.69,217.76,217.77,0,2.15,0,4.29-.1,6.42h6.43c.06-2.13.1-4.27.1-6.42C1178.47,391.25,1077.9,290.68,954.28,290.68Z" transform="translate(-684.67 -245.06)"/><path class="cls-2" d="M954.28,275.47c-.72,0-1.43,0-2.14,0v6.43c.71,0,1.42,0,2.14,0,128.46,0,233,104.51,233,233,0,2.15,0,4.29-.1,6.42h6.43q.09-3.19.09-6.42C1193.67,382.87,1086.28,275.47,954.28,275.47Z" transform="translate(-684.67 -245.06)"/><path class="cls-2" d="M954.28,260.27c-.72,0-1.43,0-2.14,0v6.42c.71,0,1.42,0,2.14,0,136.84,0,248.17,111.33,248.17,248.18q0,3.23-.08,6.42h6.43q.08-3.19.08-6.42C1208.88,374.48,1094.66,260.27,954.28,260.27Z" transform="translate(-684.67 -245.06)"/><path class="cls-2" d="M954.28,245.06c-.72,0-1.43,0-2.14,0v6.43c.71,0,1.42,0,2.14,0,145.23,0,263.38,118.15,263.38,263.38q0,3.23-.08,6.42H1224q.07-3.19.08-6.42C1224.08,366.1,1103.05,245.06,954.28,245.06Z" transform="translate(-684.67 -245.06)"/><path class="cls-1" d="M1096.69,928.6c0,2.41.06,4.81.14,7.21h9.85c-.09-2.4-.15-4.8-.15-7.21,0-109.58,88.51-198.87,197.8-200.16V718.6C1189.62,719.89,1096.69,813.59,1096.69,928.6Z" transform="translate(-684.67 -245.06)"/><path class="cls-1" d="M1079.64,928.6c0,2.41.06,4.81.13,7.21h9.85c-.08-2.4-.13-4.8-.13-7.21,0-119,96.15-215.91,214.84-217.2v-9.84C1180.22,702.85,1079.64,804.19,1079.64,928.6Z" transform="translate(-684.67 -245.06)"/><path class="cls-1" d="M1045.55,928.6q0,3.61.11,7.21h9.85q-.1-3.6-.11-7.21c0-137.78,111.44-250,248.93-251.29v-9.85C1161.42,668.76,1045.55,785.39,1045.55,928.6Z" transform="translate(-684.67 -245.06)"/><path class="cls-1" d="M1062.6,928.6q0,3.61.11,7.21h9.85c-.07-2.4-.12-4.8-.12-7.21,0-128.38,103.81-233,231.89-234.25v-9.84C1170.82,685.8,1062.6,794.79,1062.6,928.6Z" transform="translate(-684.67 -245.06)"/><path class="cls-1" d="M1011.46,928.6c0,2.41,0,4.81.09,7.21h9.84c0-2.4-.09-4.8-.09-7.21,0-156.58,126.75-284.09,283-285.38v-9.85C1142.62,634.67,1011.46,766.6,1011.46,928.6Z" transform="translate(-684.67 -245.06)"/><path class="cls-1" d="M1028.51,928.6q0,3.61.09,7.21h9.85c-.06-2.4-.1-4.8-.1-7.21,0-147.18,119.1-267.05,266-268.34v-9.84C1152,651.71,1028.51,776,1028.51,928.6Z" transform="translate(-684.67 -245.06)"/><path class="cls-2" d="M1106.53,928.6c0,2.41.06,4.81.15,7.21h7.21c-.09-2.4-.15-4.79-.15-7.21,0-105.61,85.28-191.66,190.59-193v-7.21C1195,729.73,1106.53,819,1106.53,928.6Z" transform="translate(-684.67 -245.06)"/><path class="cls-2" d="M1089.49,928.6c0,2.41,0,4.81.13,7.21h7.21c-.08-2.4-.14-4.8-.14-7.21,0-115,92.93-208.71,207.64-210v-7.2C1185.64,712.69,1089.49,809.62,1089.49,928.6Z" transform="translate(-684.67 -245.06)"/><path class="cls-2" d="M1072.44,928.6c0,2.41,0,4.81.12,7.21h7.21c-.07-2.4-.13-4.8-.13-7.21,0-124.41,100.58-225.75,224.69-227v-7.21C1176.25,695.64,1072.44,800.22,1072.44,928.6Z" transform="translate(-684.67 -245.06)"/><path class="cls-2" d="M1055.4,928.6q0,3.61.11,7.21h7.2q-.11-3.6-.11-7.21c0-133.81,108.22-242.8,241.73-244.09v-7.2C1166.84,678.6,1055.4,790.82,1055.4,928.6Z" transform="translate(-684.67 -245.06)"/><path class="cls-2" d="M1038.35,928.6c0,2.41,0,4.81.1,7.21h7.21q-.11-3.6-.11-7.21c0-143.21,115.87-259.84,258.78-261.14v-7.2C1157.45,661.55,1038.35,781.42,1038.35,928.6Z" transform="translate(-684.67 -245.06)"/><path class="cls-2" d="M1021.3,928.6c0,2.41,0,4.81.09,7.21h7.21q-.09-3.6-.09-7.21c0-152.6,123.51-276.89,275.82-278.18v-7.2C1148.05,644.51,1021.3,772,1021.3,928.6Z" transform="translate(-684.67 -245.06)"/><path class="cls-2" d="M1004.26,928.6q0,3.61.09,7.21h7.2c0-2.4-.09-4.8-.09-7.21,0-162,131.16-293.93,292.87-295.23v-7.2C1138.65,627.46,1004.26,762.62,1004.26,928.6Z" transform="translate(-684.67 -245.06)"/><path class="cls-1" d="M805.84,849.13v-4A115.41,115.41,0,0,1,691.55,732.79h-4A119.4,119.4,0,0,0,805.84,849.13Z" transform="translate(-684.67 -245.06)"/><path class="cls-1" d="M805.84,814.7v-4A81,81,0,0,1,726,732.79h-4A84.93,84.93,0,0,0,805.84,814.7Z" transform="translate(-684.67 -245.06)"/><path class="cls-1" d="M805.84,842.24v-4a108.54,108.54,0,0,1-107.4-105.48h-4A112.51,112.51,0,0,0,805.84,842.24Z" transform="translate(-684.67 -245.06)"/><path class="cls-1" d="M805.84,821.59v-4a87.84,87.84,0,0,1-86.73-84.82h-4A91.83,91.83,0,0,0,805.84,821.59Z" transform="translate(-684.67 -245.06)"/><path class="cls-1" d="M805.84,828.47v-4a94.73,94.73,0,0,1-93.62-91.71h-4A98.72,98.72,0,0,0,805.84,828.47Z" transform="translate(-684.67 -245.06)"/><path class="cls-1" d="M805.84,835.36v-4a101.63,101.63,0,0,1-100.51-98.59h-4A105.61,105.61,0,0,0,805.84,835.36Z" transform="translate(-684.67 -245.06)"/><path class="cls-2" d="M805.84,810.73v-2.91a78,78,0,0,1-76.93-75H726A81,81,0,0,0,805.84,810.73Z" transform="translate(-684.67 -245.06)"/><path class="cls-2" d="M805.84,817.61V814.7A84.93,84.93,0,0,1,722,732.79h-2.91A87.84,87.84,0,0,0,805.84,817.61Z" transform="translate(-684.67 -245.06)"/><path class="cls-2" d="M805.84,824.5v-2.91a91.83,91.83,0,0,1-90.71-88.8h-2.91A94.73,94.73,0,0,0,805.84,824.5Z" transform="translate(-684.67 -245.06)"/><path class="cls-2" d="M805.84,831.38v-2.91a98.72,98.72,0,0,1-97.6-95.68h-2.91A101.63,101.63,0,0,0,805.84,831.38Z" transform="translate(-684.67 -245.06)"/><path class="cls-2" d="M805.84,838.27v-2.91A105.61,105.61,0,0,1,701.35,732.79h-2.91A108.54,108.54,0,0,0,805.84,838.27Z" transform="translate(-684.67 -245.06)"/><path class="cls-2" d="M805.84,845.15v-2.91A112.51,112.51,0,0,1,694.46,732.79h-2.91A115.41,115.41,0,0,0,805.84,845.15Z" transform="translate(-684.67 -245.06)"/><path class="cls-2" d="M805.84,852v-2.91A119.4,119.4,0,0,1,687.58,732.79h-2.91A122.32,122.32,0,0,0,805.84,852Z" transform="translate(-684.67 -245.06)"/></svg>