<svg width="292" height="130" viewBox="0 0 292 130" fill="none" xmlns="http://www.w3.org/2000/svg">
<path d="M261.443 110.889V19.1116C261.443 11.8706 252.312 6.00055 241.048 6.00055L52.395 6.00055C41.1311 6.00055 32 11.8706 32 19.1116V110.889C32 118.13 41.1311 124 52.395 124L241.048 124C252.312 124 261.443 118.13 261.443 110.889Z" stroke="#3E3E3E" stroke-width="12" stroke-linecap="round" stroke-linejoin="round"/>
<path d="M286 38.7782V91.2224" stroke="#3E3E3E" stroke-width="12" stroke-linecap="round" stroke-linejoin="round"/>
<path d="M150 35L150 70" stroke="#3E3E3E" stroke-width="12" stroke-linecap="round" stroke-linejoin="round"/>
<path d="M150 98C153.866 98 157 94.866 157 91C157 87.134 153.866 84 150 84C146.134 84 143 87.134 143 91C143 94.866 146.134 98 150 98Z" fill="#3E3E3E"/>
</svg>
