<?xml version="1.0" encoding="UTF-8"?>
<svg width="18px" height="18px" viewBox="0 0 18 18" version="1.1" xmlns="http://www.w3.org/2000/svg" xmlns:xlink="http://www.w3.org/1999/xlink">
    <!-- Generator: Sketch 61 (89581) - https://sketch.com -->
    <title>02 Icons/Checkmark Circle</title>
    <desc>Created with Sketch.</desc>
    <g id="Pricing-Page" stroke="none" stroke-width="1" fill="none" fill-rule="evenodd">
        <g id="Pricing-Page-V2" transform="translate(-973.000000, -801.000000)" fill="#FFFFFF">
            <g id="3-Boxes" transform="translate(140.000000, 548.000000)">
                <g id="enterprise" transform="translate(800.000000, 0.000000)">
                    <g id="card">
                        <g id="price" transform="translate(30.000000, 150.000000)">
                            <g id="features" transform="translate(0.000000, 100.000000)">
                                <g id="feature">
                                    <g id="02-Icons/Checkmark-Circle">
                                        <path d="M12,21 C7.02943725,21 3,16.9705627 3,12 C3,7.02943725 7.02943725,3 12,3 C16.9705627,3 21,7.02943725 21,12 C21,16.9705627 16.9705627,21 12,21 Z M12,19.3636364 C16.0668241,19.3636364 19.3636364,16.0668241 19.3636364,12 C19.3636364,7.93317593 16.0668241,4.63636364 12,4.63636364 C7.93317593,4.63636364 4.63636364,7.93317593 4.63636364,12 C4.63636364,16.0668241 7.93317593,19.3636364 12,19.3636364 Z M9.73756645,11.8541345 L10.9728755,13.192386 L14.2191398,9.04142516 C14.4975075,8.68547951 15.0117201,8.6225902 15.3676658,8.90095795 C15.7236114,9.17932569 15.7865007,9.69353829 15.508133,10.0494839 L11.6689721,14.9585748 C11.3582209,15.3559289 10.7654222,15.3801639 10.4232727,15.0095019 L8.53516082,12.9640474 C8.22866684,12.6320122 8.24937204,12.1143821 8.58140719,11.8078881 C8.91344234,11.5013941 9.43107247,11.5220993 9.73756645,11.8541345 Z" id="checkmark-circle"></path>
                                    </g>
                                </g>
                            </g>
                        </g>
                    </g>
                </g>
            </g>
        </g>
    </g>
</svg>