<?xml version="1.0" encoding="utf-8"?>
<!-- Generator: Adobe Illustrator 24.2.1, SVG Export Plug-In . SVG Version: 6.00 Build 0)  -->
<svg version="1.1" id="Ebene_1" xmlns="http://www.w3.org/2000/svg" xmlns:xlink="http://www.w3.org/1999/xlink" x="0px" y="0px"
	 viewBox="0 0 18 18" style="enable-background:new 0 0 18 18;" xml:space="preserve">
<style type="text/css">
	.st0{fill-rule:evenodd;clip-rule:evenodd;fill:#FFFFFF;}
	.st1{fill:#FFFFFF;}
</style>
<desc>Created with Sketch.</desc>
<g id="Pricing-Page">
	<g id="Pricing-Page-V2" transform="translate(-973.000000, -801.000000)">
		<g id="_x33_-Boxes" transform="translate(140.000000, 548.000000)">
			<g id="enterprise" transform="translate(800.000000, 0.000000)">
				<g id="card">
					<g id="price" transform="translate(30.000000, 150.000000)">
						<g id="features" transform="translate(0.000000, 100.000000)">
							<g id="feature">
								<g id="_x30_2-Icons_x2F_Checkmark-Circle">
									<path id="checkmark-circle" class="st0" d="M12,21c-5,0-9-4-9-9s4-9,9-9s9,4,9,9S17,21,12,21z M12,19.4
										c4.1,0,7.4-3.3,7.4-7.4S16.1,4.6,12,4.6S4.6,7.9,4.6,12S7.9,19.4,12,19.4z"/>
								</g>
							</g>
						</g>
					</g>
				</g>
			</g>
		</g>
	</g>
</g>
<g>
	<g>
		<path class="st1" d="M6.8,12.1c-0.2,0-0.4-0.1-0.6-0.2c-0.3-0.3-0.3-0.9,0-1.2l4.4-4.4c0.3-0.3,0.9-0.3,1.2,0
			c0.3,0.3,0.3,0.9,0,1.2l-4.4,4.4C7.2,12,7,12.1,6.8,12.1z"/>
	</g>
	<g>
		<path class="st1" d="M11.2,12.1c-0.2,0-0.4-0.1-0.6-0.2L6.2,7.4C5.9,7,5.9,6.5,6.2,6.2c0.3-0.3,0.9-0.3,1.2,0l4.4,4.4
			c0.3,0.3,0.3,0.9,0,1.2C11.6,12,11.4,12.1,11.2,12.1z"/>
	</g>
</g>
</svg>
