<svg id="Layer_1" data-name="Layer 1" xmlns="http://www.w3.org/2000/svg" xmlns:xlink="http://www.w3.org/1999/xlink" viewBox="0 0 711 625.83"><defs><style>.cls-1,.cls-2{fill:#efc296;}.cls-1{isolation:isolate;opacity:0.44;}.cls-3{fill:#f1c398;}.cls-4{fill:#3fb27e;}.cls-5{fill:#228254;}.cls-6{fill:url(#linear-gradient);}.cls-7{fill:none;}</style><linearGradient id="linear-gradient" x1="1084.08" y1="774.9" x2="1069.45" y2="607.63" gradientTransform="matrix(1, 0, 0, -1, -111.39, 1050.33)" gradientUnits="userSpaceOnUse"><stop offset="0" stop-color="#04ccfe"/><stop offset="0.35" stop-color="#0bcefe"/><stop offset="0.4" stop-color="#0ccefe"/><stop offset="0.52" stop-color="#43d9fe"/><stop offset="0.76" stop-color="#a6edfe"/><stop offset="0.92" stop-color="#e4f9fe"/><stop offset="1" stop-color="#fcfefe"/></linearGradient></defs><path class="cls-1" d="M740.21,611.57c-4.34,31-10.07,59.5-17.22,83.93h0c24.43-7.15,53-12.88,83.93-17.22A272.23,272.23,0,0,1,740.21,611.57Z" transform="translate(-604 -228.17)"/><path class="cls-2" d="M1173.11,312.1c4.34-31,10.06-59.51,17.22-83.93-24.43,7.15-53,12.87-83.94,17.21A272.48,272.48,0,0,1,1173.11,312.1Z" transform="translate(-604 -228.17)"/><path class="cls-1" d="M806.92,245.38c-31-4.34-59.5-10.06-83.93-17.21,7.15,24.42,12.88,53,17.22,83.93A272.27,272.27,0,0,1,806.92,245.38Z" transform="translate(-604 -228.17)"/><path class="cls-1" d="M1106.39,678.28c31,4.34,59.51,10.07,83.94,17.22h0c-7.16-24.43-12.88-53-17.22-83.93A272.44,272.44,0,0,1,1106.39,678.28Z" transform="translate(-604 -228.17)"/><path class="cls-3" d="M932.6,427.72H979V441.6H947.64v12.72H977.3v13.87H947.64v13.88h33.08v13.87H932.6Z" transform="translate(-604 -228.17)"/><path class="cls-4" d="M892,576a132.26,132.26,0,0,1-43.58-40q-17,9.91-42.13,18.65c-3.38,1.18-6.73,2.28-10,3.33a188.78,188.78,0,0,0,31.46,39.21c10.33-3,22.72-7,38.29-12.82C874.94,581,883.68,578.28,892,576Z" transform="translate(-604 -228.17)"/><path class="cls-5" d="M828.36,489.5c-18.61,8-38,12.1-54,14.13a185.81,185.81,0,0,0,14.43,40.65c18.12-5.63,36.94-12.81,51.77-21.32A130,130,0,0,1,828.36,489.5Z" transform="translate(-604 -228.17)"/><path class="cls-5" d="M1044.06,570.65c-3-1.48-5.79-2.82-8.44-4a130.93,130.93,0,0,1-120.79,19.61,314.69,314.69,0,0,0-43.53,12.46C859.84,603,850,606.31,841.38,609a186.94,186.94,0,0,0,46.08,26.58c63.33-38.57,128.35-31.82,173.28-18.4a189.63,189.63,0,0,0,31.69-26.87,213.12,213.12,0,0,1-23.35-8.19C1058.66,577.79,1050.91,574,1044.06,570.65Z" transform="translate(-604 -228.17)"/><path class="cls-4" d="M774.07,421.25a185,185,0,0,0-2.57,67.16c16.13-2,36-6.18,54.46-14.72-.35-3.91-.56-7.86-.56-11.86a130.32,130.32,0,0,1,7.27-43C807.81,414.38,788.55,416.57,774.07,421.25Z" transform="translate(-604 -228.17)"/><path class="cls-4" d="M907.06,642.19a186.32,186.32,0,0,0,135.14-14.06C1004.48,619.26,955.63,617.24,907.06,642.19Z" transform="translate(-604 -228.17)"/><path class="cls-5" d="M1134.3,520.5a186.34,186.34,0,0,0,9.47-58.68c0-4.34-.2-8.63-.49-12.9a181.26,181.26,0,0,0-25.41,9.77,206,206,0,0,1-30.19,11.36,130.48,130.48,0,0,1-9.18,40.62A234,234,0,0,0,1134.3,520.5Z" transform="translate(-604 -228.17)"/><path class="cls-6" d="M838.71,404.31A131.22,131.22,0,0,1,1087.65,454a198.07,198.07,0,0,0,23.72-9.25,189,189,0,0,1,30.19-11.36c-13.72-89.73-91.42-158.68-184.93-158.68-83,0-153.46,54.32-177.87,129.25C794.7,400.37,814.5,399.5,838.71,404.31Z" transform="translate(-604 -228.17)"/><path class="cls-4" d="M1071.84,524.73a132.67,132.67,0,0,1-23.54,30.94l2.49,1.21c6.65,3.25,14.19,6.94,24.19,11.1a192.56,192.56,0,0,0,28.58,9.47,187.49,187.49,0,0,0,25-41.85A245.62,245.62,0,0,1,1071.84,524.73Z" transform="translate(-604 -228.17)"/><path class="cls-4" d="M681.13,797.29h35.23l-1.2,8.56H689.39l-1.8,13.08H712l-1.21,8.57H686.38l-2,14.43H711.5l-1.2,8.57H673.69Z" transform="translate(-604 -228.17)"/><path class="cls-4" d="M749.57,797.29h12.55l20.18,39.52h.15L788,797.29h9.47l-7.41,53.21h-12l-20.59-40.79h-.18l-5.7,40.79h-9.46Z" transform="translate(-604 -228.17)"/><path class="cls-4" d="M831.92,797.29h21a30.19,30.19,0,0,1,9.92,1.61,19.67,19.67,0,0,1,12.78,13.23,26.55,26.55,0,0,1,.6,11.76,28.59,28.59,0,0,1-4.29,11.83,31.81,31.81,0,0,1-7.81,8.26,33.58,33.58,0,0,1-9.73,4.89,34.3,34.3,0,0,1-10.09,1.63H824.48Zm10.29,44.63a34.84,34.84,0,0,0,8.5-1,23.12,23.12,0,0,0,7.28-3.15,18.51,18.51,0,0,0,5.41-5.56,20.5,20.5,0,0,0,2.86-8.3,19.89,19.89,0,0,0-.34-8.27,12,12,0,0,0-3.38-5.6,14.72,14.72,0,0,0-5.86-3.15,28.14,28.14,0,0,0-7.85-1h-8.64l-5,36.07Z" transform="translate(-604 -228.17)"/><path class="cls-4" d="M911.49,797.29h35.24l-1.21,8.56H919.75L918,818.93h24.42l-1.2,8.56H916.75l-2,14.43h27.12l-1.2,8.56H904.05Z" transform="translate(-604 -228.17)"/><path class="cls-4" d="M997.14,797.29h8.16l15.51,53.21H1010l-3.31-12.17H983.62l-6.46,12.17h-10.6Zm7.37,32.91-5.11-21.64L988,830.2Z" transform="translate(-604 -228.17)"/><path class="cls-4" d="M1045.9,797.29h10.9l8.86,40.19,20.64-40.19h10.22l-29,53.21h-8.19Z" transform="translate(-604 -228.17)"/><path class="cls-4" d="M1118.11,824.11a34,34,0,0,1,3.72-11.61,31.24,31.24,0,0,1,7.06-8.9,30.69,30.69,0,0,1,9.69-5.67,33.29,33.29,0,0,1,11.61-2,29.52,29.52,0,0,1,11.16,1.84,20.5,20.5,0,0,1,8.15,5.59,21.45,21.45,0,0,1,4.58,8.87,29.29,29.29,0,0,1,.45,11.57,33.69,33.69,0,0,1-3.68,11.35,31.44,31.44,0,0,1-7.06,8.79,32.41,32.41,0,0,1-9.77,5.74,34.53,34.53,0,0,1-11.72,2.15,29.1,29.1,0,0,1-11-2,21.16,21.16,0,0,1-8.08-5.64,21.67,21.67,0,0,1-4.58-8.75A27.58,27.58,0,0,1,1118.11,824.11Zm10-.6a22,22,0,0,0,.19,7.89,15.43,15.43,0,0,0,2.82,6.24,14.1,14.1,0,0,0,5.18,4.13,16.75,16.75,0,0,0,7.29,1.5,20,20,0,0,0,7.74-1.5,21.14,21.14,0,0,0,6.38-4.13,22.34,22.34,0,0,0,4.59-6.24,25.67,25.67,0,0,0,2.4-7.89,20.9,20.9,0,0,0-.26-7.44,15.28,15.28,0,0,0-2.82-6.05,13.67,13.67,0,0,0-5.22-4,17.29,17.29,0,0,0-7.33-1.47,20.09,20.09,0,0,0-7.7,1.47,20.44,20.44,0,0,0-6.35,4,22.4,22.4,0,0,0-6.92,13.48Z" transform="translate(-604 -228.17)"/><path class="cls-4" d="M1209.9,797.29h18.48a36.87,36.87,0,0,1,7.33.71,16.57,16.57,0,0,1,6,2.44,10.5,10.5,0,0,1,3.77,4.66,13.86,13.86,0,0,1,.57,7.44,18.1,18.1,0,0,1-1.55,5.34,15.93,15.93,0,0,1-3,4.35,15.64,15.64,0,0,1-4.32,3.08,18.78,18.78,0,0,1-5.48,1.66l10.88,23.53h-11.42L1222,828h-6.91l-3.16,22.54h-9.46Zm13.62,22.54c1.35,0,2.72-.06,4.1-.19a13.7,13.7,0,0,0,3.83-.9,8.09,8.09,0,0,0,3-2.18,7.88,7.88,0,0,0,1.65-4.1,6.13,6.13,0,0,0-.48-3.75,5,5,0,0,0-2.26-2.14,10.36,10.36,0,0,0-3.34-.94,30.17,30.17,0,0,0-3.68-.23h-8.19l-2,14.43Z" transform="translate(-604 -228.17)"/><rect class="cls-7" y="0.83" width="711" height="625"/></svg>