<svg id="Layer_1" data-name="Layer 1" xmlns="http://www.w3.org/2000/svg" viewBox="0 0 472.51 249.12"><defs><style>.cls-1{fill:#fff;}</style></defs><polygon class="cls-1" points="101.24 245.77 89.83 220.64 89.75 220.47 86.67 220.47 99.88 249.12 102.48 249.12 115.69 220.47 112.73 220.47 101.24 245.77"/><path class="cls-1" d="M223.25,517.52H220.6l-13.12,28.65h2.87l4.37-9.68H229l4.37,9.68h3l-13-28.48Zm4.69,16.64H215.79l6.1-13.46Z" transform="translate(-65.34 -297.05)"/><polygon class="cls-1" points="207.49 220.47 204.76 220.47 204.76 249.12 225.61 249.12 225.61 246.61 207.49 246.61 207.49 220.47"/><polygon class="cls-1" points="260.28 220.47 257.56 220.47 257.56 249.12 278.4 249.12 278.4 246.61 260.28 246.61 260.28 220.47"/><polygon class="cls-1" points="311.28 235.14 323.3 235.14 323.3 232.64 311.28 232.64 311.28 222.97 331.1 222.97 331.1 220.47 308.56 220.47 308.56 249.12 332 249.12 332 246.61 311.28 246.61 311.28 235.14"/><polygon class="cls-1" points="382.58 220.47 372.87 232.94 363.29 220.58 363.2 220.47 359.77 220.47 371.45 235.47 371.45 249.12 374.17 249.12 374.17 235.47 385.84 220.47 382.58 220.47"/><path class="cls-1" d="M477.23,376.32c-.43-3-.83-5.77-3-7.79l0,0c-2.79-2.93-7.4-3.91-13.71-2.91l-.62.12-.48.12-.05.39v.07c-.93,8.91,6.71,13.33,7.61,13.82a16.5,16.5,0,0,0,7.16,1.58,17.27,17.27,0,0,0,2.59-.19l1.08-.19.5-.11-.18-.56A27.5,27.5,0,0,1,477.23,376.32Z" transform="translate(-65.34 -297.05)"/><path class="cls-1" d="M420.91,435h-1.4c-6.92,27.24-40.7,41.51-67.33,27.28-14.65-8-10.66-22.83.21-31.7,6.85-6.14,15.3-9.77,23.62-13.86,9.29-4.45,19.89-9.8,22.28-20,3-16.38-11.56-29.59-27.37-31.13-40.72-4.75-67.83,37.77-57.67,74.67,13.66,53.17,83.58,52.92,104.35,4.75A47.67,47.67,0,0,0,421,435h-.07A.25.25,0,0,0,420.91,435Zm-89.41,7.37c-8.76-12.66-10.05-29.77-6.81-44.73,3.05-13.86,13.59-26.77,27-28.91a35.56,35.56,0,0,1,7.49-.6,26.86,26.86,0,0,1,24.91,19.44c2.8,9.91-.7,20.09-10.76,27.7C362.6,423.47,335.92,430.86,331.5,442.32Z" transform="translate(-65.34 -297.05)"/><path class="cls-1" d="M292.75,472.07l0-156.69v-5.22a12.18,12.18,0,0,0-12.31-12.31h-9c5.53,4,3.72,11.52,4,16.89h0l0,74.2c-6-15.36-21.75-24-38.7-23.74-36.57-1.11-61.56,42-50.52,76.42h0a56.05,56.05,0,0,0,15.53,25.13c19,17.5,54.07,18.88,73.69,1.36a12.18,12.18,0,0,0,12.3,12.53h9l-1.08-1C293.37,477.65,292.75,473.81,292.75,472.07Zm-17.32-19.76c0,7.61-3.42,14-10.15,19.1S250.44,479,241,479c-39.19.07-39.86-54.87-32.95-84.64,9.2-35.82,49.52-36.07,62.93-3.4,2.85,6.79,3.3,7.15,4.41,12.66Z" transform="translate(-65.34 -297.05)"/><path class="cls-1" d="M251.58,313.85a16.59,16.59,0,0,0,7.3-1.65h0c.9-.48,8.69-5,7.68-14.13l0-.41-.5-.09c-.2,0-.43-.07-.69-.13-6.37-1-11.05,0-13.88,3l0,0c-2.23,2.06-2.64,4.91-3.08,7.94a27.62,27.62,0,0,1-.87,4.4l-.18.57.59.13A18.57,18.57,0,0,0,251.58,313.85Z" transform="translate(-65.34 -297.05)"/><path class="cls-1" d="M175.14,435h-1.39c-6.92,27.24-40.7,41.51-67.33,27.28-14.65-8-10.66-22.83.2-31.7,6.86-6.14,15.31-9.77,23.62-13.86,9.3-4.45,19.9-9.8,22.28-20,3-16.38-11.56-29.59-27.36-31.13-40.73-4.75-67.84,37.77-57.68,74.67,13.66,53.17,83.59,52.92,104.35,4.75a46.55,46.55,0,0,0,3.36-10h-.06S175.14,435,175.14,435Zm-89.41,7.37c-8.75-12.66-10-29.77-6.8-44.73,3-13.86,13.59-26.77,27-28.91a35.51,35.51,0,0,1,7.49-.6,26.87,26.87,0,0,1,24.91,19.44c2.8,9.91-.71,20.09-10.77,27.7C116.83,423.47,90.15,430.86,85.73,442.32Z" transform="translate(-65.34 -297.05)"/><path class="cls-1" d="M457.66,382.38l-.37-.28-.33.33a45.2,45.2,0,0,0-4.17,4.61,41.22,41.22,0,0,0-2.61,3.81l-1,1.75V374.31a13,13,0,0,1,.48-3.27,8.64,8.64,0,0,1,4.13-5.21l-9.53,0a12,12,0,0,0-12.09,11.92v93.79c-.15,1.89-.86,5-2.85,6.73l-1.07.94h8.88a12,12,0,0,0,12.09-12.09l0-53.14c0-18.86,11.17-29.75,11.17-29.75l-.74-.55A22.29,22.29,0,0,1,457.66,382.38Z" transform="translate(-65.34 -297.05)"/><path class="cls-1" d="M536.79,478.3c-2.28-2-2.89-5.78-2.89-7.49V447.49h0V392c0-7.9-3.12-14.08-9.55-18.91h0c-6.39-4.79-16-7.22-25.3-7.22a45.05,45.05,0,0,0-14.19,2.31h0a16.63,16.63,0,0,0-1.81.72l-.67.3,1,1.58,1.28-.62a28.74,28.74,0,0,1,11.57-2.65c6.49,0,11.93,2.09,15.14,5.48,3.65,3.86,5.55,9.33,5.55,16.36v62.88h0v14.9A12,12,0,0,0,529,479.24h8.88Z" transform="translate(-65.34 -297.05)"/></svg>