<svg id="Layer_1" data-name="Layer 1" xmlns="http://www.w3.org/2000/svg" viewBox="0 0 90 109.41"><defs><style>.cls-1{fill:#6e9790;}</style></defs><path class="cls-1" d="M47.12.18A24.38,24.38,0,0,0,44.19,0,23,23,0,0,0,26.52,8.35a30,30,0,0,0-6.15,27.13c2.77,11,11.11,18.26,21.77,19.07.66.05,1.31.07,2,.07a27,27,0,0,0,24.7-16.84h0a22.72,22.72,0,0,0,1.56-4.73l.06-.27H69.33l0,.16A20,20,0,0,1,57.68,46.34a21.55,21.55,0,0,1-19.08-.75c-2.56-1.42-4-3.43-4.25-5.8-.28-2.93,1.4-6.28,4.38-8.77,2.69-2.46,5.87-4,9.23-5.68l1.58-.78c3.89-1.9,9.21-4.5,10.36-9.52a11.4,11.4,0,0,0-2.24-9A15.28,15.28,0,0,0,47.12.18Zm-.47,24.08A49.13,49.13,0,0,1,40,28l-.06,0c-4.65,2.34-9.46,4.76-11.25,8.07l-.14.24-.14-.24C25.08,30.59,24.27,23,26.15,15.34c1.75-7,7.1-12.52,13-13.3a11.71,11.71,0,0,1,1.77-.13,10.83,10.83,0,0,1,9.42,5.26,16.06,16.06,0,0,1,1.69,4.2C53.25,16.23,51.28,20.93,46.65,24.26Z"/><path class="cls-1" d="M23.53,77.66A34.48,34.48,0,0,0,8.81,73,36.85,36.85,0,0,0,3.35,73l-2.29.21L0,73.28.27,74.5a57.92,57.92,0,0,1,1,9.2c.34,6.29.67,12.23,4.89,16.86l0,.07c5.31,6.65,14.78,9.55,28.17,8.6.43,0,.91-.09,1.34-.12l1-.16.17-.83,0-.13C40.51,89.5,25.31,78.84,23.53,77.66Z"/><path class="cls-1" d="M88.94,73.15l-2.29-.21a38.22,38.22,0,0,0-5.46.07,34.75,34.75,0,0,0-14.72,4.64c-1.78,1.19-17,11.85-13.41,30.34l0,.13.16.83,1,.16c.43,0,.91.07,1.33.12,13.4,1,22.86-2,28.18-8.61l0-.06C88.06,95.93,88.39,90,88.73,83.7a58,58,0,0,1,1-9.21L90,73.28Z"/></svg>