<svg id="Layer_1" data-name="Layer 1" xmlns="http://www.w3.org/2000/svg" viewBox="0 0 579.54 211.57"><defs><style>.cls-1{fill:#fff;}</style></defs><path class="cls-1" d="M304.11,454.39a20.62,20.62,0,0,0,9-2l0,0c1.1-.6,10.72-6.19,9.48-17.45l-.06-.5-.61-.11-.86-.16c-7.86-1.25-13.64,0-17.13,3.66l-.05.05c-2.76,2.53-3.27,6.06-3.8,9.79a34.91,34.91,0,0,1-1.08,5.44l-.22.71.73.15A22.68,22.68,0,0,0,304.11,454.39Z" transform="translate(-70.46 -433.65)"/><path class="cls-1" d="M336.43,434.64h-9.16l1.34,1.18c2.87,2.52,3.63,7.26,3.63,9.41v10.26h-.05l0,76.49-2.58-5.68A34.36,34.36,0,0,0,325,520a63.49,63.49,0,0,0-8.36-7.86c-3.23-2.57-7.77-4.81-13.49-6.67a61,61,0,0,0-18.73-2.78A64,64,0,0,0,261.5,507c-15.36,5.87-27.49,18.46-36.05,37.41a76.39,76.39,0,0,0-6.19,39.3,68.74,68.74,0,0,0,2.51,12.42l.28.92h0A69.23,69.23,0,0,0,241,627.83l.26.24c5.67,5.29,13.05,9.6,21.93,12.82,10.23,3.7,21.74,5,34.27,3.94,7.72-1.25,13.76-2.83,18-4.69a70.46,70.46,0,0,0,8.62-4.57c2.7-1.69,4.49-2.88,5.31-3.53.61-.49,1-.85,1.31-1.1l.23-.2v-.06h1.35c0,1.88.08,7,.18,13.87v.67h19.19V583h0V449.83a15,15,0,0,0-15.19-15.19ZM243,574.7c0-13.83,1.39-25.86,4.13-35.76s7.5-18.18,14.14-24.38,15.22-9.4,25.42-9.4a36.48,36.48,0,0,1,18.65,5A46,46,0,0,1,318.5,521a67,67,0,0,1,8.15,13.7A110.77,110.77,0,0,1,331,545.43s1,3.59,1.18,4.81v60.31c0,9.39-4.31,17.33-12.82,23.58s-18.74,9.35-30.61,9.35c-15,0-26.55-6.1-34.24-18.11S243,596.4,243,574.7Z" transform="translate(-70.46 -433.65)"/><path class="cls-1" d="M638,511.75h0c-8-6-18.06-9.08-29.8-9.08a56.45,56.45,0,0,0-17.84,2.91l-1.24.42-.68.25.29.66c.07.15.13.3.19.44l.26.65.64-.28a36.05,36.05,0,0,1,14.54-3.33c8.17,0,14.66,2.44,19.3,7.25s7,11.73,7,20.56v113H650V535.53C650,525.6,646.07,517.82,638,511.75Z" transform="translate(-70.46 -433.65)"/><path class="cls-1" d="M556.14,523.42l-.47-.36-.42.42a57,57,0,0,0-5.24,5.8,51.57,51.57,0,0,0-3.28,4.79l-1.26,2.2v-23c0-2.16.76-6.93,3.65-9.45l1.38-1.21-9.22,0a15.06,15.06,0,0,0-15.2,15l.69,126.91h0v.68h18.71v-90c0-6.75,2.66-14.2,7.92-22.13a67.12,67.12,0,0,1,5.34-7l.53-.61-.68-.41A28.41,28.41,0,0,1,556.14,523.42Z" transform="translate(-70.46 -433.65)"/><path class="cls-1" d="M583.62,521.07a36.08,36.08,0,0,1-1.07-5.44c-.53-3.73-1-7.25-3.79-9.79l0,0c-3.51-3.68-9.3-4.92-17.24-3.65l-.78.14-.61.15-.05.5V503c-1.17,11.2,8.44,16.76,9.57,17.37a20.61,20.61,0,0,0,9,2,22.25,22.25,0,0,0,3.26-.24l.11.33,1.29-.39,0-.18.63-.13Z" transform="translate(-70.46 -433.65)"/><path class="cls-1" d="M193.33,610.15c-11.85,14.27-42.27,28-72,12.33-.08-.05-.17-.08-.25-.12a20.43,20.43,0,0,1-9.64-26.4,26.32,26.32,0,0,1,3.68-6.36,68.08,68.08,0,0,1,10.78-10.18c7.58-5.7,30.9-16.65,31.89-17.12,11.83-5.79,18.83-13,20.78-21.31,2.17-9.26-2.26-18.22-6.36-24.1-3.36-4.83-16.8-16.64-39-14.88-.57,0-1.14.1-1.72.16-17.65,1.92-33.68,10.94-45.13,25.4a73.54,73.54,0,0,0-15.63,51.25c1.44,19.43,8.17,38,22.32,50.5,14.54,12.84,34.77,17.65,53.6,15.34a64.69,64.69,0,0,0,24.17-8.18l.13-.08A71.59,71.59,0,0,0,186.81,624l.14-.15c.31-.31.61-.62.91-.94s.43-.46.64-.7c.42-.46.84-.93,1.25-1.4,7.58-8.72,14.64-20.93,17-32.25H205C203.05,597,199,603.35,193.33,610.15Zm-89.41-16.68c-3.24,4.31-5.24,7.37-5.24,7.37-14.66-18.75-16.93-49.7-5.62-73.61,8.74-18.49,32.9-27.84,49.71-19.24a31.49,31.49,0,0,1,7.6,5.73,32.13,32.13,0,0,1,5.61,7.17c4.9,8.85,6.45,16.57,4.72,23.59-3.13,12.77-17,22-33.56,31.95C114.21,584.2,106.93,589.47,103.92,593.47Z" transform="translate(-70.46 -433.65)"/><path class="cls-1" d="M500.52,610.15c-11.86,14.27-42.27,28-72,12.33l-.25-.12A20.43,20.43,0,0,1,418.6,596a26.63,26.63,0,0,1,3.67-6.36,68,68,0,0,1,10.79-10.18c7.57-5.7,30.9-16.65,31.89-17.12,11.83-5.79,18.83-13,20.78-21.31,2.17-9.26-2.26-18.22-6.36-24.1-3.37-4.83-16.81-16.64-39-14.88-.57,0-1.14.1-1.73.16-17.65,1.92-33.68,10.94-45.13,25.4a73.58,73.58,0,0,0-15.62,51.25c1.43,19.43,8.16,38,22.32,50.5,14.54,12.84,34.76,17.65,53.6,15.34a64.69,64.69,0,0,0,24.17-8.18l.13-.08A71.53,71.53,0,0,0,494,624l.15-.15c.3-.31.61-.62.91-.94l.64-.7c.42-.46.84-.93,1.25-1.4,7.57-8.72,14.63-20.93,16.95-32.25h-1.73C510.23,597,506.17,603.35,500.52,610.15ZM411.1,593.47c-3.23,4.31-5.24,7.37-5.24,7.37-14.66-18.75-16.92-49.7-5.62-73.61C409,508.74,433.15,499.39,450,508a35.87,35.87,0,0,1,13.2,12.9c4.91,8.85,6.46,16.57,4.73,23.59-3.14,12.77-17.06,22-33.57,31.95C421.4,584.2,414.12,589.47,411.1,593.47Z" transform="translate(-70.46 -433.65)"/></svg>