<svg id="Layer_1" data-name="Layer 1" xmlns="http://www.w3.org/2000/svg" viewBox="0 0 147.98 74.77"><defs><style>.cls-1{fill:#658c77;}</style></defs><path class="cls-1" d="M76.2,85.36l-4.57,9.78h-.79l-4.57-9.78h.87l4.08,8.85h.1l4.08-8.85Z" transform="translate(-40.25 -20.37)"/><path class="cls-1" d="M83.94,95.14l4.54-9.78h.81l4.53,9.78H93l-1.54-3.37H86.26l-1.54,3.37Zm2.62-4h4.6l-2.24-4.93h-.11Z" transform="translate(-40.25 -20.37)"/><path class="cls-1" d="M104.73,85.36v9.11h6.4v.65H104V85.34Z" transform="translate(-40.25 -20.37)"/><path class="cls-1" d="M121.19,85.36v9.11h6.4v.65h-7.18V85.34Z" transform="translate(-40.25 -20.37)"/><path class="cls-1" d="M142,90.27h-4.23v4.2h7.3v.65H137V85.34h7.77V86h-7v3.64H142Z" transform="translate(-40.25 -20.37)"/><path class="cls-1" d="M162.16,85.36l-4,5.09v4.69h-.76V90.45l-4-5.09h1l3.46,4.41,3.48-4.41Z" transform="translate(-40.25 -20.37)"/><path class="cls-1" d="M99.89,25.64a5.1,5.1,0,0,0,2.3-.52h0a4.64,4.64,0,0,0,2.42-4.45v-.13h-.16l-.22-.05c-2-.31-3.47,0-4.37.94h0a3.9,3.9,0,0,0-1,2.5,8.32,8.32,0,0,1-.27,1.39l-.1.19.19,0A5.18,5.18,0,0,0,99.89,25.64Z" transform="translate(-40.25 -20.37)"/><path class="cls-1" d="M108.14,20.6H105.8l.34.3a3.46,3.46,0,0,1,.93,2.4v2.59h0V45.41L106.42,44a8.5,8.5,0,0,0-1.18-1.62,16.12,16.12,0,0,0-2.13-2,10.84,10.84,0,0,0-3.44-1.7,15.52,15.52,0,0,0-4.78-.72A16.14,16.14,0,0,0,89.06,39c-3.92,1.49-7,4.7-9.2,9.54a19.54,19.54,0,0,0-1.59,10,19.08,19.08,0,0,0,.65,3.18L79,62h0a17.68,17.68,0,0,0,4.84,7.86l.06.06a16,16,0,0,0,5.6,3.27,20.44,20.44,0,0,0,8.75,1A15.81,15.81,0,0,0,105,71.86c.69-.44,1.15-.74,1.36-.91s.26-.21.33-.28l.06,0h.35c0,.48,0,1.78,0,3.54v.17h4.9V58.46h0v-34a3.84,3.84,0,0,0-3.8-3.88h-.12ZM84.3,56.35a35.17,35.17,0,0,1,1-9.13A13.12,13.12,0,0,1,89,41a9.21,9.21,0,0,1,6.48-2.4,9.47,9.47,0,0,1,4.76,1.26,12,12,0,0,1,3.35,2.8,16.86,16.86,0,0,1,2.08,3.49,29.5,29.5,0,0,1,1.12,2.73s.25.92.29,1.23V65.5a7.26,7.26,0,0,1-3.27,6A12.93,12.93,0,0,1,96,73.91a9.76,9.76,0,0,1-8.74-4.62c-2-3.07-2.92-7.4-2.92-12.94Z" transform="translate(-40.25 -20.37)"/><path class="cls-1" d="M185.11,40.29h0A12.23,12.23,0,0,0,177.54,38a14.25,14.25,0,0,0-4.54.74l-.32.11-.17.06.07.17a.54.54,0,0,1,0,.11l.07.17.16-.07a9.15,9.15,0,0,1,3.71-.85,6.54,6.54,0,0,1,4.93,1.85,7.29,7.29,0,0,1,1.78,5.25V74.35h4.95v-28A7.14,7.14,0,0,0,185.11,40.29Z" transform="translate(-40.25 -20.37)"/><path class="cls-1" d="M164.22,43.26l-.12-.09-.11.11a14.43,14.43,0,0,0-1.34,1.48,12.48,12.48,0,0,0-.83,1.22l-.33.56V40.67a3.48,3.48,0,0,1,.94-2.41l.35-.31h-2.36a3.84,3.84,0,0,0-3.88,3.81h0l.17,32.39h0v.17h4.78V51.41a10.18,10.18,0,0,1,2-5.65A16.75,16.75,0,0,1,164.87,44l.14-.16-.18-.1Z" transform="translate(-40.25 -20.37)"/><path class="cls-1" d="M171.23,42.66a8,8,0,0,1-.27-1.38,3.77,3.77,0,0,0-1-2.5h0c-.9-1-2.38-1.26-4.4-.94l-.2,0-.15,0V38h0a4.67,4.67,0,0,0,2.44,4.44A5.36,5.36,0,0,0,170,43a5.69,5.69,0,0,0,.83-.06V43l.33-.1v0l.17,0Z" transform="translate(-40.25 -20.37)"/><path class="cls-1" d="M71.61,65.4a15.36,15.36,0,0,1-18.38,3.15l-.07,0a5.23,5.23,0,0,1-2.46-6.74,6.72,6.72,0,0,1,.94-1.62,17.42,17.42,0,0,1,2.76-2.6,73.3,73.3,0,0,1,8.14-4.37c3-1.47,4.8-3.31,5.3-5.44.55-2.36-.58-4.65-1.62-6.15-.87-1.23-4.29-4.24-10-3.8l-.44,0a17,17,0,0,0-11.52,6.48,18.82,18.82,0,0,0-4,13.08c.37,5,2.09,9.72,5.7,12.89a17.7,17.7,0,0,0,13.68,3.92,16.49,16.49,0,0,0,6.17-2.09h0A18.55,18.55,0,0,0,70,69l0,0,.24-.24.16-.18.32-.36A19.54,19.54,0,0,0,75,59.92h-.47A12.85,12.85,0,0,1,71.61,65.4ZM48.79,61.13C48,62.22,47.45,63,47.45,63,43.71,58.22,43.13,50.32,46,44.22c2.23-4.72,8.42-7.12,12.69-4.91a9.08,9.08,0,0,1,3.37,3.29,8.23,8.23,0,0,1,1.21,6c-.8,3.24-4.35,5.62-8.56,8.15C51.42,58.78,49.56,60.12,48.79,61.13Z" transform="translate(-40.25 -20.37)"/><path class="cls-1" d="M150,65.4a15.36,15.36,0,0,1-18.38,3.15l-.07,0a5.22,5.22,0,0,1-2.46-6.74,6.72,6.72,0,0,1,.94-1.62,17.36,17.36,0,0,1,2.75-2.6,74.21,74.21,0,0,1,8.14-4.37c3-1.47,4.81-3.31,5.31-5.44.55-2.36-.58-4.65-1.63-6.15-.85-1.23-4.29-4.24-10-3.8l-.44,0a17,17,0,0,0-11.52,6.48,18.77,18.77,0,0,0-4,13.08c.37,5,2.08,9.72,5.7,12.89a17.69,17.69,0,0,0,13.68,3.92,16.55,16.55,0,0,0,6.17-2.09h0A18.37,18.37,0,0,0,148.36,69l0-.06.23-.24.17-.18.32-.36a19.65,19.65,0,0,0,4.33-8.22H153A12.92,12.92,0,0,1,150,65.4ZM127.2,61.13c-.83,1.09-1.34,1.88-1.34,1.88-3.74-4.79-4.32-12.69-1.43-18.79,2.23-4.72,8.42-7.12,12.68-4.91a8.22,8.22,0,0,1,1.95,1.46,8.44,8.44,0,0,1,1.43,1.83,8.26,8.26,0,0,1,1.2,6c-.8,3.24-4.35,5.62-8.56,8.15C129.83,58.78,128,60.12,127.2,61.13Z" transform="translate(-40.25 -20.37)"/></svg>