<svg id="Layer_1" data-name="Layer 1" xmlns="http://www.w3.org/2000/svg" viewBox="0 0 228.4 115.48"><defs><style>.cls-1{fill:#fff;}</style></defs><path class="cls-1" d="M301.54,582.42l-7.06,15.1h-1.22l-7.06-15.1h1.35l6.29,13.66H294l6.3-13.66Z" transform="translate(-246.03 -482.04)"/><path class="cls-1" d="M313.49,597.52l7-15.1h1.25l7,15.1h-1.29l-2.38-5.21h-8l-2.38,5.21Zm4.05-6.15h7.1l-3.47-7.61H321Z" transform="translate(-246.03 -482.04)"/><path class="cls-1" d="M345.59,582.42v14.06h9.88v1H344.41v-15.1Z" transform="translate(-246.03 -482.04)"/><path class="cls-1" d="M371,582.42v14.06h9.88v1H369.8v-15.1Z" transform="translate(-246.03 -482.04)"/><path class="cls-1" d="M403.12,590h-6.54v6.48h11.28v1H395.4v-15.1h12v1h-10.8V589h6.54Z" transform="translate(-246.03 -482.04)"/><path class="cls-1" d="M434.26,582.42l-6.2,7.86v7.24h-1.18v-7.24l-6.2-7.86h1.48l5.34,6.8,5.37-6.8Z" transform="translate(-246.03 -482.04)"/><path class="cls-1" d="M338.11,490.21a8.14,8.14,0,0,0,3.56-.8h0c.43-.24,4.22-2.44,3.73-6.88l0-.2-.24,0-.34-.07c-3.1-.49-5.37,0-6.75,1.45l0,0c-1.09,1-1.29,2.38-1.5,3.86a13.06,13.06,0,0,1-.42,2.14L336,490l.29.06A9.13,9.13,0,0,0,338.11,490.21Z" transform="translate(-246.03 -482.04)"/><path class="cls-1" d="M350.85,482.43h-3.61l.53.46a5.42,5.42,0,0,1,1.43,3.71v4h0v30.14l-1-2.23a13.16,13.16,0,0,0-1.82-2.5,25.46,25.46,0,0,0-3.29-3.09,17,17,0,0,0-5.32-2.63,23.93,23.93,0,0,0-7.38-1.1,25.15,25.15,0,0,0-9,1.7c-6.05,2.31-10.83,7.27-14.21,14.74a30.19,30.19,0,0,0-2.44,15.49,28.2,28.2,0,0,0,1,4.9l.11.36h0a27.31,27.31,0,0,0,7.46,12.14l.1.09a24.79,24.79,0,0,0,8.64,5.05,31.44,31.44,0,0,0,13.51,1.55,30.37,30.37,0,0,0,7.08-1.84,29.59,29.59,0,0,0,3.4-1.8c1.06-.67,1.77-1.14,2.09-1.4s.4-.33.51-.43l.1-.08v0h.53c0,.74,0,2.74.07,5.47v.26h7.57V540.88h0V488.42a5.94,5.94,0,0,0-6-6Zm-36.8,55.2a53.71,53.71,0,0,1,1.62-14.1,20.27,20.27,0,0,1,5.57-9.6,14.15,14.15,0,0,1,10-3.71,14.43,14.43,0,0,1,7.35,1.95,18.19,18.19,0,0,1,5.17,4.31,25.89,25.89,0,0,1,3.22,5.4,43.67,43.67,0,0,1,1.72,4.21s.39,1.42.46,1.9v23.76c0,3.71-1.7,6.83-5.06,9.3a19.9,19.9,0,0,1-12.06,3.68c-5.92,0-10.46-2.4-13.49-7.13S314.05,546.18,314.05,537.63Z" transform="translate(-246.03 -482.04)"/><path class="cls-1" d="M469.69,512.82h0A19,19,0,0,0,458,509.24a22.22,22.22,0,0,0-7,1.15l-.49.16-.27.1.11.26a1.42,1.42,0,0,1,.08.18l.1.25.25-.11a14.26,14.26,0,0,1,5.73-1.31,10.11,10.11,0,0,1,7.61,2.86c1.82,1.89,2.75,4.62,2.75,8.1v44.54h7.64V522.19A11.07,11.07,0,0,0,469.69,512.82Z" transform="translate(-246.03 -482.04)"/><path class="cls-1" d="M437.44,517.42l-.19-.14-.16.16a22.33,22.33,0,0,0-2.07,2.29,19.11,19.11,0,0,0-1.29,1.89l-.5.86v-9.06a5.38,5.38,0,0,1,1.44-3.73l.54-.48-3.63,0a5.94,5.94,0,0,0-6,5.91l.27,50h0v.27h7.37V530c0-2.66,1-5.6,3.12-8.72a25.57,25.57,0,0,1,2.11-2.76l.21-.24-.27-.16C438.07,517.87,437.74,517.65,437.44,517.42Z" transform="translate(-246.03 -482.04)"/><path class="cls-1" d="M448.27,516.49a13.06,13.06,0,0,1-.42-2.14c-.21-1.47-.41-2.86-1.5-3.86h0c-1.39-1.46-3.67-1.94-6.8-1.45l-.31.06-.23.06,0,.2v0c-.46,4.41,3.33,6.6,3.77,6.85a8.27,8.27,0,0,0,3.55.78,9.32,9.32,0,0,0,1.29-.09l0,.13.51-.16,0-.07.25-.05Z" transform="translate(-246.03 -482.04)"/><path class="cls-1" d="M294.45,551.6c-4.67,5.62-16.65,11-28.38,4.86l-.1-.05a8.05,8.05,0,0,1-3.8-10.4,10,10,0,0,1,1.45-2.51,26.73,26.73,0,0,1,4.25-4c3-2.25,12.18-6.57,12.57-6.75,4.66-2.28,7.42-5.11,8.19-8.4.85-3.65-.9-7.18-2.51-9.5-1.33-1.9-6.62-6.55-15.38-5.86l-.69.06a26.29,26.29,0,0,0-17.78,10,29,29,0,0,0-6.16,20.2c.57,7.66,3.22,15,8.8,19.9s13.7,7,21.12,6.05a25.56,25.56,0,0,0,9.53-3.23l.05,0a28,28,0,0,0,6.27-4.88l.06-.06.36-.37.25-.27.49-.56a30.21,30.21,0,0,0,6.69-12.7H299A19.86,19.86,0,0,1,294.45,551.6ZM259.22,545c-1.28,1.69-2.07,2.9-2.07,2.9-5.78-7.39-6.67-19.59-2.21-29,3.44-7.29,13-11,19.59-7.58a12.38,12.38,0,0,1,3,2.25,12.55,12.55,0,0,1,2.21,2.83c1.94,3.49,2.55,6.53,1.87,9.3-1.24,5-6.73,8.68-13.23,12.59C263.27,541.37,260.4,543.45,259.22,545Z" transform="translate(-246.03 -482.04)"/><path class="cls-1" d="M415.52,551.6c-4.67,5.62-16.66,11-28.39,4.86l-.1-.05a8.05,8.05,0,0,1-3.8-10.4,10.35,10.35,0,0,1,1.45-2.51,26.73,26.73,0,0,1,4.25-4c3-2.25,12.18-6.57,12.57-6.75,4.66-2.28,7.42-5.11,8.19-8.4.85-3.65-.89-7.18-2.51-9.5-1.32-1.9-6.62-6.55-15.38-5.86l-.68.06a26.29,26.29,0,0,0-17.79,10,29,29,0,0,0-6.16,20.2c.57,7.66,3.22,15,8.8,19.9s13.7,7,21.12,6.05a25.5,25.5,0,0,0,9.53-3.23l.05,0a28.26,28.26,0,0,0,6.28-4.88L413,557l.36-.37.25-.27.5-.56a30.3,30.3,0,0,0,6.68-12.7h-.68A20,20,0,0,1,415.52,551.6ZM380.28,545c-1.28,1.69-2.07,2.9-2.07,2.9-5.77-7.39-6.67-19.59-2.21-29,3.45-7.29,13-11,19.59-7.58a12.61,12.61,0,0,1,3,2.25,12.84,12.84,0,0,1,2.21,2.83c1.93,3.49,2.54,6.53,1.86,9.3-1.24,5-6.72,8.68-13.23,12.59C384.34,541.37,381.47,543.45,380.28,545Z" transform="translate(-246.03 -482.04)"/></svg>