<svg width="80" height="80" viewBox="0 0 80 80" fill="none" xmlns="http://www.w3.org/2000/svg">
<rect width="80" height="80" rx="15" fill="#4A3AFF"/>
<path d="M25.7712 30.5156C22.6275 30.5156 20.0796 33.0636 20.0796 36.2072V43.796C20.0796 46.9396 22.6275 49.4875 25.7712 49.4875H33.3599V30.5156H25.7712Z" fill="white"/>
<path opacity="0.35" d="M53.785 21.3177C52.3621 20.7277 50.7362 21.054 49.6491 22.1411C47.3194 24.4689 39.852 30.5153 33.3598 30.5153C31.2653 30.5153 29.5654 32.2152 29.5654 34.3097V45.6928C29.5654 47.7873 31.2653 49.4872 33.3598 49.4872C39.8103 49.4872 47.308 55.5354 49.6491 57.8614C50.3757 58.588 51.3433 58.9732 52.3317 58.9732C52.8212 58.9732 53.3145 58.8783 53.785 58.6848C55.2022 58.0967 56.1261 56.7136 56.1261 55.1788V24.8237C56.1261 23.2889 55.2022 21.9058 53.785 21.3177Z" fill="white"/>
<path d="M33.3598 41.8984H25.771C25.771 41.8984 27.6682 55.7935 27.6682 56.1274C27.6682 57.6982 28.9431 58.9732 30.514 58.9732C32.0848 58.9732 33.3598 57.6982 33.3598 56.1274C33.3598 55.7935 33.3598 41.8984 33.3598 41.8984Z" fill="white"/>
<path d="M56.126 34.6582V45.3451C58.3324 44.5615 59.9204 42.4765 59.9204 40.0026C59.9204 37.5287 58.3324 35.4417 56.126 34.6582Z" fill="white"/>
</svg>
