<svg id="Layer_1" data-name="Layer 1" xmlns="http://www.w3.org/2000/svg" viewBox="0 0 140.72 13.74"><defs><style>.cls-1{fill:#3fb27e;}</style></defs><path class="cls-1" d="M891.24,533.13h8.66l-.3,2.1h-6.33l-.44,3.21h6l-.3,2.11h-6l-.49,3.54h6.66l-.29,2.11h-9Z" transform="translate(-889.41 -532.79)"/><path class="cls-1" d="M908.06,533.13h3.09l5,9.71h0l1.37-9.71h2.32L918,546.2h-3l-5.06-10h0l-1.4,10h-2.33Z" transform="translate(-889.41 -532.79)"/><path class="cls-1" d="M928.3,533.13h5.15a7.56,7.56,0,0,1,2.44.39,5,5,0,0,1,1.94,1.21,4.94,4.94,0,0,1,1.2,2,6.64,6.64,0,0,1,.14,2.89,7,7,0,0,1-1,2.91,7.61,7.61,0,0,1-1.92,2,7.9,7.9,0,0,1-2.39,1.2,8.21,8.21,0,0,1-2.47.4h-4.87Zm2.53,11a8.35,8.35,0,0,0,2.08-.25,5.6,5.6,0,0,0,1.8-.77A4.55,4.55,0,0,0,936,541.7a5.13,5.13,0,0,0,.71-2,4.78,4.78,0,0,0-.09-2,2.85,2.85,0,0,0-.83-1.37,3.71,3.71,0,0,0-1.44-.78,6.74,6.74,0,0,0-1.93-.25h-2.12l-1.24,8.86Z" transform="translate(-889.41 -532.79)"/><path class="cls-1" d="M947.85,533.13h8.66l-.3,2.1h-6.33l-.44,3.21h6l-.3,2.11h-6l-.5,3.54h6.67l-.3,2.11h-9Z" transform="translate(-889.41 -532.79)"/><path class="cls-1" d="M968.9,533.13h2l3.81,13.07h-2.66l-.82-3h-5.66l-1.59,3h-2.61Zm1.81,8.08-1.26-5.31-2.8,5.31Z" transform="translate(-889.41 -532.79)"/><path class="cls-1" d="M980.88,533.13h2.68l2.18,9.87,5.06-9.87h2.51L986.2,546.2h-2Z" transform="translate(-889.41 -532.79)"/><path class="cls-1" d="M998.63,539.72a8.35,8.35,0,0,1,.91-2.86,7.61,7.61,0,0,1,1.74-2.18,7.37,7.37,0,0,1,2.38-1.4,8.36,8.36,0,0,1,2.85-.49,7.16,7.16,0,0,1,2.74.46,5,5,0,0,1,2,1.37,5.32,5.32,0,0,1,1.12,2.18,7.2,7.2,0,0,1,.11,2.84,8.39,8.39,0,0,1-.9,2.79,7.73,7.73,0,0,1-4.14,3.57,8.32,8.32,0,0,1-2.88.53,7,7,0,0,1-2.71-.49,5.27,5.27,0,0,1-2-1.38,5.33,5.33,0,0,1-1.12-2.15A6.77,6.77,0,0,1,998.63,539.72Zm2.45-.15a5.43,5.43,0,0,0,0,1.94,3.83,3.83,0,0,0,.69,1.53,3.54,3.54,0,0,0,1.27,1,4.25,4.25,0,0,0,1.8.37,5,5,0,0,0,1.9-.37,5.31,5.31,0,0,0,1.57-1,5.4,5.4,0,0,0,1.12-1.53,5.93,5.93,0,0,0,.59-1.94,5.06,5.06,0,0,0-.06-1.83,3.74,3.74,0,0,0-.69-1.48,3.38,3.38,0,0,0-1.29-1,4.25,4.25,0,0,0-1.8-.36,5,5,0,0,0-1.89.36,5.14,5.14,0,0,0-1.56,1,5.42,5.42,0,0,0-1.7,3.31Z" transform="translate(-889.41 -532.79)"/><path class="cls-1" d="M1021.18,533.13h4.54a8.73,8.73,0,0,1,1.8.17,4,4,0,0,1,1.48.6,2.51,2.51,0,0,1,.93,1.15,3.42,3.42,0,0,1,.14,1.82,4.47,4.47,0,0,1-.38,1.32,4,4,0,0,1-.74,1.07,3.74,3.74,0,0,1-1.07.75,4.37,4.37,0,0,1-1.34.41l2.67,5.78h-2.8l-2.25-5.54h-1.7l-.78,5.54h-2.33Zm3.35,5.54c.33,0,.67,0,1,0a3.49,3.49,0,0,0,.94-.22,2,2,0,0,0,.75-.54,1.87,1.87,0,0,0,.4-1,1.51,1.51,0,0,0-.12-.93,1.2,1.2,0,0,0-.55-.52,2.37,2.37,0,0,0-.82-.23,7.07,7.07,0,0,0-.91-.06h-2l-.5,3.55Z" transform="translate(-889.41 -532.79)"/></svg>