<svg id="Layer_1" data-name="Layer 1" xmlns="http://www.w3.org/2000/svg" xmlns:xlink="http://www.w3.org/1999/xlink" viewBox="0 0 88.5 88.5"><defs><style>.cls-1,.cls-2{fill:#efc296;}.cls-1{opacity:0.44;}.cls-3{fill:#f1c398;}.cls-4{fill:#3fb27e;}.cls-5{fill:#228254;}.cls-6{fill:url(#linear-gradient);}</style><linearGradient id="linear-gradient" x1="962.84" y1="504.36" x2="960.07" y2="536.03" gradientUnits="userSpaceOnUse"><stop offset="0" stop-color="#04ccfe"/><stop offset="0.35" stop-color="#0bcefe"/><stop offset="0.4" stop-color="#0ccefe"/><stop offset="0.52" stop-color="#43d9fe"/><stop offset="0.76" stop-color="#a6edfe"/><stop offset="0.92" stop-color="#e4f9fe"/><stop offset="1" stop-color="#fcfefe"/></linearGradient></defs><path class="cls-1" d="M918.8,568a112.71,112.71,0,0,1-3.26,15.9h0a112.71,112.71,0,0,1,15.9-3.26A51.63,51.63,0,0,1,918.8,568Z" transform="translate(-915.54 -495.4)"/><path class="cls-2" d="M1000.79,511.3a112.71,112.71,0,0,1,3.26-15.9,112.71,112.71,0,0,1-15.9,3.26A51.63,51.63,0,0,1,1000.79,511.3Z" transform="translate(-915.54 -495.4)"/><path class="cls-1" d="M931.44,498.66a112.71,112.71,0,0,1-15.9-3.26,112.71,112.71,0,0,1,3.26,15.9A52,52,0,0,1,931.44,498.66Z" transform="translate(-915.54 -495.4)"/><path class="cls-1" d="M988.15,580.65a112.71,112.71,0,0,1,15.9,3.26h0a114.15,114.15,0,0,1-3.26-15.9A51.28,51.28,0,0,1,988.15,580.65Z" transform="translate(-915.54 -495.4)"/><path class="cls-3" d="M955.24,533.2H964v2.62h-5.93v2.41h5.61v2.63h-5.61v2.63h6.26v2.63h-9.11Z" transform="translate(-915.54 -495.4)"/><path class="cls-4" d="M947.55,561.28a25.07,25.07,0,0,1-8.25-7.58,46.35,46.35,0,0,1-8,3.53l-1.9.63a35.58,35.58,0,0,0,6,7.43c2-.57,4.31-1.34,7.25-2.43C944.32,562.23,946,561.71,947.55,561.28Z" transform="translate(-915.54 -495.4)"/><path class="cls-5" d="M935.5,544.9a38.12,38.12,0,0,1-10.23,2.67,35.39,35.39,0,0,0,2.73,7.7,49.63,49.63,0,0,0,9.81-4A24.58,24.58,0,0,1,935.5,544.9Z" transform="translate(-915.54 -495.4)"/><path class="cls-5" d="M976.35,560.26l-1.6-.76a24.8,24.8,0,0,1-22.87,3.71,60.85,60.85,0,0,0-8.25,2.37c-2.17.8-4,1.44-5.66,1.95a35.31,35.31,0,0,0,8.72,5c12-7.3,24.31-6,32.82-3.48a35.61,35.61,0,0,0,6-5.09,38.73,38.73,0,0,1-4.42-1.55C979.11,561.62,977.65,560.9,976.35,560.26Z" transform="translate(-915.54 -495.4)"/><path class="cls-4" d="M925.22,532a35.46,35.46,0,0,0-.85,7.69,36.32,36.32,0,0,0,.36,5A35.09,35.09,0,0,0,935,541.9c-.06-.74-.1-1.49-.1-2.24a24.72,24.72,0,0,1,1.38-8.15A22.71,22.71,0,0,0,925.22,532Z" transform="translate(-915.54 -495.4)"/><path class="cls-4" d="M950.4,573.81a35.23,35.23,0,0,0,25.6-2.66C968.85,569.47,959.6,569.09,950.4,573.81Z" transform="translate(-915.54 -495.4)"/><path class="cls-5" d="M993.43,550.77a35.24,35.24,0,0,0,1.8-11.11c0-.83,0-1.64-.1-2.45a35.3,35.3,0,0,0-4.81,1.85,39.62,39.62,0,0,1-5.72,2.16,24.7,24.7,0,0,1-1.74,7.69A44.81,44.81,0,0,0,993.43,550.77Z" transform="translate(-915.54 -495.4)"/><path class="cls-6" d="M937.46,528.76a24.85,24.85,0,0,1,47.15,9.42,38.19,38.19,0,0,0,4.49-1.75,35.31,35.31,0,0,1,5.72-2.15,35.43,35.43,0,0,0-68.71-5.58A27.15,27.15,0,0,1,937.46,528.76Z" transform="translate(-915.54 -495.4)"/><path class="cls-4" d="M981.61,551.57a25,25,0,0,1-4.46,5.86l.48.23c1.25.61,2.68,1.31,4.58,2.1a35.81,35.81,0,0,0,5.41,1.79,35.57,35.57,0,0,0,4.73-7.92A46.85,46.85,0,0,1,981.61,551.57Z" transform="translate(-915.54 -495.4)"/></svg>