<svg id="Layer_1" data-name="Layer 1" xmlns="http://www.w3.org/2000/svg" viewBox="0 0 221.09 220.75"><defs><style>.cls-1,.cls-2{fill:#eec296;}.cls-1{opacity:0.44;}</style></defs><path class="cls-1" d="M335.94,556.27A66.7,66.7,0,0,1,334,565.6h0a67.38,67.38,0,0,1,9.33-1.91A30.19,30.19,0,0,1,335.94,556.27Z" transform="translate(-249.45 -429.25)"/><path class="cls-2" d="M384.06,523a66.7,66.7,0,0,1,1.92-9.33,67.38,67.38,0,0,1-9.33,1.91A30.19,30.19,0,0,1,384.06,523Z" transform="translate(-249.45 -429.25)"/><path class="cls-1" d="M343.35,515.56a67.38,67.38,0,0,1-9.33-1.91,66.7,66.7,0,0,1,1.92,9.33A30.19,30.19,0,0,1,343.35,515.56Z" transform="translate(-249.45 -429.25)"/><path class="cls-1" d="M376.65,563.69A67.38,67.38,0,0,1,386,565.6h0a66.7,66.7,0,0,1-1.92-9.33A30.19,30.19,0,0,1,376.65,563.69Z" transform="translate(-249.45 -429.25)"/><path class="cls-2" d="M467.66,514.56l1.66,8.51-1.49.3-1.35-6.91-4.25.83,1.26,6.45L462,524l-1.26-6.45-4.82.94,1.42,7.25-1.5.3-1.73-8.87Z" transform="translate(-249.45 -429.25)"/><path class="cls-2" d="M470.55,535l0,1.85-11.4,4.1v0l11.29,4.54,0,1.73-13.73-5.58,0-1.58Z" transform="translate(-249.45 -429.25)"/><path class="cls-2" d="M468.72,559.58l-1.89,8.47-1.48-.33,1.53-6.87-4.22-.94-1.43,6.41-1.49-.33,1.43-6.41-4.8-1.07-1.6,7.21-1.49-.33,2-8.81Z" transform="translate(-249.45 -429.25)"/><path class="cls-2" d="M462.43,581.15,461,584.37a17.33,17.33,0,0,1-.92,1.76,5.47,5.47,0,0,1-1.19,1.4,3.25,3.25,0,0,1-1.56.69,3.75,3.75,0,0,1-2.06-.39A3.4,3.4,0,0,1,453.4,586a4.36,4.36,0,0,1,0-2.8l-7.4,1,.82-1.83,7.19-.88.87-1.92L449.17,577l.67-1.49Zm-6.22-1-.6,1.33c-.18.42-.37.85-.54,1.31a4.77,4.77,0,0,0-.32,1.33,2.31,2.31,0,0,0,.2,1.2,1.91,1.91,0,0,0,1,.9,2.15,2.15,0,0,0,1.21.23,2.09,2.09,0,0,0,.95-.42,3.59,3.59,0,0,0,.73-.85,8.24,8.24,0,0,0,.56-1.06l.95-2.1Z" transform="translate(-249.45 -429.25)"/><path class="cls-2" d="M443.9,598.71l9.38.39-1.21,1.7-7.33-.48,2.75,6.89-1.15,1.6-3.4-8.76-4.83-3.46.95-1.34Z" transform="translate(-249.45 -429.25)"/><path class="cls-2" d="M439.08,617.32l-1.37,1.18-9.86-6.65,0,0,4.89,10.91-1.39,1.2-10-6.5,0,0,5.05,10.78L425,629.4l-5.92-13.12,1.34-1.15,10.22,6.65,0,0-5-11.12,1.37-1.17Z" transform="translate(-249.45 -429.25)"/><path class="cls-2" d="M413.76,636.25l-1.46.73-2.6-5.25L403.09,635l2.6,5.25-1.47.72L398.1,628.6l1.47-.73,2.85,5.77,6.61-3.27-2.86-5.77,1.47-.72Z" transform="translate(-249.45 -429.25)"/><path class="cls-2" d="M390.62,645.83l-8.42,2.1-.36-1.47,6.83-1.71-1.05-4.2-6.38,1.59-.37-1.47,6.38-1.6-1.19-4.76-7.17,1.79-.37-1.48,8.76-2.19Z" transform="translate(-249.45 -429.25)"/><path class="cls-2" d="M368.54,649.85,365,650a18.69,18.69,0,0,1-2,0,5.29,5.29,0,0,1-1.79-.44,3.21,3.21,0,0,1-1.31-1.09,3.81,3.81,0,0,1-.57-2,3.39,3.39,0,0,1,.82-2.49,4.45,4.45,0,0,1,2.49-1.29l-4.17-6.2,2-.07,4,6,2.1-.09-.24-6.19,1.63-.07Zm-1.88-6-1.46.06c-.46,0-.93.05-1.41.1a4.69,4.69,0,0,0-1.34.3,2.37,2.37,0,0,0-1,.71,1.93,1.93,0,0,0-.35,1.33,2.12,2.12,0,0,0,.34,1.18,2,2,0,0,0,.79.66,3.18,3.18,0,0,0,1.09.28,8,8,0,0,0,1.2,0l2.3-.09Z" transform="translate(-249.45 -429.25)"/><path class="cls-2" d="M345.74,649.25l-8.56-1.45.25-1.5,6.95,1.17.72-4.27-6.48-1.09.25-1.5,6.48,1.09.82-4.84-7.29-1.23.25-1.5,8.91,1.5Z" transform="translate(-249.45 -429.25)"/><path class="cls-2" d="M252.35,564.69l-1.67-8.52,1.5-.29,1.34,6.91,4.25-.83-1.26-6.45,1.5-.29,1.26,6.45,4.82-.94-1.42-7.25,1.5-.3,1.73,8.87Z" transform="translate(-249.45 -429.25)"/><path class="cls-2" d="M249.45,544.29l0-1.85,11.4-4.1v0l-11.29-4.54,0-1.73,13.73,5.58,0,1.58Z" transform="translate(-249.45 -429.25)"/><path class="cls-2" d="M251.28,519.67l1.89-8.47,1.48.33-1.53,6.87,4.22.94,1.44-6.41,1.48.33-1.43,6.41,4.8,1.07,1.61-7.21,1.48.33-2,8.81Z" transform="translate(-249.45 -429.25)"/><path class="cls-2" d="M257.56,498.12,259,494.9a18.35,18.35,0,0,1,.92-1.76,5.47,5.47,0,0,1,1.19-1.4,3.16,3.16,0,0,1,1.56-.69,3.73,3.73,0,0,1,2.06.39,3.37,3.37,0,0,1,1.86,1.85,4.35,4.35,0,0,1,.05,2.8l7.41-1-.83,1.83-7.19.87-.86,1.92,5.65,2.55-.67,1.49Zm6.22,1,.6-1.33c.19-.42.37-.86.54-1.31a4.51,4.51,0,0,0,.32-1.33,2.42,2.42,0,0,0-.19-1.2,2,2,0,0,0-1-.91,2.22,2.22,0,0,0-1.21-.22,2.06,2.06,0,0,0-.94.42,3.41,3.41,0,0,0-.74.85,9.71,9.71,0,0,0-.56,1.06l-.94,2.1Z" transform="translate(-249.45 -429.25)"/><path class="cls-2" d="M276.1,480.53l-9.38-.38,1.21-1.7,7.33.48L272.52,472l1.14-1.6,3.4,8.76,4.83,3.46-.95,1.34Z" transform="translate(-249.45 -429.25)"/><path class="cls-2" d="M280.92,461.93l1.37-1.18,9.85,6.65,0,0-4.89-10.91,1.39-1.2,10,6.5,0,0L293.68,451l1.3-1.11L300.9,463l-1.34,1.16-10.22-6.65,0,0,5,11.12L293,469.77Z" transform="translate(-249.45 -429.25)"/><path class="cls-2" d="M306.24,443l1.46-.73,2.6,5.25,6.61-3.27-2.6-5.25,1.47-.72,6.12,12.37-1.46.73-2.86-5.77L311,448.88l2.86,5.77-1.47.72Z" transform="translate(-249.45 -429.25)"/><path class="cls-2" d="M329.36,433.43l8.42-2.11.37,1.48-6.83,1.71,1.05,4.2,6.37-1.6.37,1.48-6.38,1.59,1.2,4.77,7.17-1.79.37,1.47-8.76,2.19Z" transform="translate(-249.45 -429.25)"/><path class="cls-2" d="M351.46,429.4l3.53-.14a18.69,18.69,0,0,1,2,0,5.29,5.29,0,0,1,1.79.44,3.21,3.21,0,0,1,1.31,1.09,3.81,3.81,0,0,1,.57,2,3.39,3.39,0,0,1-.82,2.49,4.39,4.39,0,0,1-2.49,1.29l4.17,6.19-2,.08-4-6-2.1.09.24,6.19-1.63.07Zm1.88,6,1.46-.06,1.41-.09a5.06,5.06,0,0,0,1.34-.31,2.37,2.37,0,0,0,1-.71,1.93,1.93,0,0,0,.35-1.33,2.12,2.12,0,0,0-.34-1.18,2,2,0,0,0-.79-.66,3.18,3.18,0,0,0-1.09-.28,8,8,0,0,0-1.2,0l-2.3.09Z" transform="translate(-249.45 -429.25)"/><path class="cls-2" d="M374.26,430l8.56,1.45-.25,1.5-6.94-1.17-.73,4.27,6.49,1.09-.26,1.5-6.48-1.09-.82,4.84,7.29,1.23-.25,1.5-8.9-1.5Z" transform="translate(-249.45 -429.25)"/><path class="cls-2" d="M360,521.51a18.12,18.12,0,1,0,18.12,18.12A18.14,18.14,0,0,0,360,521.51Zm0,30.83a12.72,12.72,0,1,1,12.71-12.71A12.73,12.73,0,0,1,360,552.34Z" transform="translate(-249.45 -429.25)"/></svg>