<svg id="Layer_1" data-name="Layer 1" xmlns="http://www.w3.org/2000/svg" xmlns:xlink="http://www.w3.org/1999/xlink" viewBox="0 0 294.94 40.13"><defs><style>.cls-1{fill:#fff;}.cls-2{fill:url(#linear-gradient);}</style><linearGradient id="linear-gradient" x1="1076.08" y1="524.26" x2="1076.08" y2="556.8" gradientUnits="userSpaceOnUse"><stop offset="0" stop-color="#3fbdce"/><stop offset="1" stop-color="#023147"/></linearGradient></defs><path class="cls-1" d="M812.65,520.57h27.12v8.12H821.45v7.44h17.3v8.12h-17.3v8.12h19.33v8.11H812.65Z" transform="translate(-812.65 -520.44)"/><path class="cls-1" d="M844.53,520.57h10l9.86,26.16h.12l10-26.16H884l-16.46,39.91h-7Z" transform="translate(-812.65 -520.44)"/><path class="cls-1" d="M929.42,520.57h8.8v31.79h16.29v8.12H929.42Z" transform="translate(-812.65 -520.44)"/><path class="cls-1" d="M948.86,520.57h10l9.87,26.16h.11l10-26.16h9.41l-16.46,39.91h-7.05Z" transform="translate(-812.65 -520.44)"/><path class="cls-1" d="M993,520.57h27.12v8.12h-18.32v7.44h17.3v8.12h-17.3v8.11h19.33v8.12H993Z" transform="translate(-812.65 -520.44)"/><path class="cls-1" d="M903.61,520.44a20.06,20.06,0,1,0,20.06,20.06A20.07,20.07,0,0,0,903.61,520.44Zm0,31.49A11.43,11.43,0,1,1,915,540.5,11.43,11.43,0,0,1,903.61,551.93Z" transform="translate(-812.65 -520.44)"/><path class="cls-2" d="M1047.87,533.22h4.55l-.29,2.11h.07a4.93,4.93,0,0,1,.89-.87,7.7,7.7,0,0,1,1.23-.81,6.86,6.86,0,0,1,1.47-.6,5.67,5.67,0,0,1,1.65-.23,7.6,7.6,0,0,1,3.15.6,6,6,0,0,1,2.27,1.71,6.35,6.35,0,0,1,1.24,2.63,9,9,0,0,1,.09,3.33,11,11,0,0,1-1,3.22,10.36,10.36,0,0,1-1.83,2.73,8.67,8.67,0,0,1-2.56,1.9,7.12,7.12,0,0,1-3.16.72,8.12,8.12,0,0,1-2.85-.48,3.65,3.65,0,0,1-1.95-1.63h-.06l-1.31,9.25h-5Zm3.44,8a3.73,3.73,0,0,0,.62,2.94,3.27,3.27,0,0,0,2.76,1.12,4.33,4.33,0,0,0,3.08-1.13,4.88,4.88,0,0,0,1.47-2.94,3.73,3.73,0,0,0-.63-2.94,3.33,3.33,0,0,0-2.78-1.11,4.33,4.33,0,0,0-3.07,1.12A4.91,4.91,0,0,0,1051.31,541.23Zm18.2-17h5l-3.46,25h-5ZM1090,549.2h-4.75l.29-2.18h-.06a6.73,6.73,0,0,1-.81.93,5.71,5.71,0,0,1-1.12.83,6.68,6.68,0,0,1-1.44.59,5.78,5.78,0,0,1-1.68.24,6.29,6.29,0,0,1-3-.58,3.47,3.47,0,0,1-1.59-1.6,5.73,5.73,0,0,1-.53-2.4,17.82,17.82,0,0,1,.19-3l1.24-8.85h5l-1.11,7.86c-.06.46-.12.94-.16,1.44a4.09,4.09,0,0,0,.1,1.37,1.93,1.93,0,0,0,.63,1,2.11,2.11,0,0,0,1.42.4,3.47,3.47,0,0,0,1.6-.35,2.92,2.92,0,0,0,1-.93,4.93,4.93,0,0,0,.61-1.31,10.35,10.35,0,0,0,.31-1.51l1.11-8h5Zm14.15-11.35a3,3,0,0,0-2.71-1.35,2.91,2.91,0,0,0-1.26.3,1.24,1.24,0,0,0-.72,1,.76.76,0,0,0,.5.88,8,8,0,0,0,1.48.49l1.93.46a6.27,6.27,0,0,1,1.9.77,3.58,3.58,0,0,1,1.34,1.44,4,4,0,0,1,.29,2.42,4.89,4.89,0,0,1-1,2.56,6.34,6.34,0,0,1-2,1.62,8.55,8.55,0,0,1-2.49.87,15.3,15.3,0,0,1-2.65.25,11.87,11.87,0,0,1-3.33-.48,5.33,5.33,0,0,1-2.68-1.69l3.46-3.34a4.42,4.42,0,0,0,1.37,1.3,3.76,3.76,0,0,0,1.9.44,4.78,4.78,0,0,0,1.59-.25,1.09,1.09,0,0,0,.82-.91.83.83,0,0,0-.48-.94,5.88,5.88,0,0,0-1.48-.52l-2-.46a7.37,7.37,0,0,1-1.92-.74,3.55,3.55,0,0,1-1.37-1.4,3.88,3.88,0,0,1-.27-2.43,5.43,5.43,0,0,1,.92-2.44,6.06,6.06,0,0,1,1.77-1.69,7.7,7.7,0,0,1,2.29-1,10.47,10.47,0,0,1,5.64.14,5,5,0,0,1,2.52,1.65Z" transform="translate(-812.65 -520.44)"/></svg>