<svg id="Layer_1" data-name="Layer 1" xmlns="http://www.w3.org/2000/svg" viewBox="0 0 160.21 13.74"><defs><style>.cls-1{fill:#5585e5;}</style></defs><path class="cls-1" d="M881.52,533.13h8.66l-.3,2.1h-6.33l-.44,3.21h6l-.3,2.11h-6l-.5,3.54H889l-.3,2.11h-9Z" transform="translate(-879.69 -532.79)"/><path class="cls-1" d="M900.67,539.37l-3.49-6.24h2.93l2.4,4.83,3.73-4.83h2.83l-5.15,6.24,3.78,6.83h-3l-2.68-5.52-4.21,5.52h-2.81Z" transform="translate(-879.69 -532.79)"/><path class="cls-1" d="M916.53,533.13h4.39a8.55,8.55,0,0,1,1.79.18,3.75,3.75,0,0,1,1.45.62,2.67,2.67,0,0,1,.9,1.16,3.64,3.64,0,0,1,.14,1.82,4.42,4.42,0,0,1-.7,2,3.76,3.76,0,0,1-1.31,1.17,5.56,5.56,0,0,1-1.74.56,13.2,13.2,0,0,1-2,.15h-1.66L917,546.2H914.7Zm2.93,5.66,1,0a3.63,3.63,0,0,0,1-.22,2.11,2.11,0,0,0,.81-.56,1.81,1.81,0,0,0,.44-1,1.61,1.61,0,0,0-.13-1,1.42,1.42,0,0,0-.58-.56,2.59,2.59,0,0,0-.87-.24,7.82,7.82,0,0,0-1-.06h-1.66l-.52,3.67Z" transform="translate(-879.69 -532.79)"/><path class="cls-1" d="M933.35,533.13H942l-.3,2.1h-6.33l-.44,3.21h6l-.3,2.11h-6l-.5,3.54h6.67l-.3,2.11h-9Z" transform="translate(-879.69 -532.79)"/><path class="cls-1" d="M950.17,533.13h5.15a7.56,7.56,0,0,1,2.44.39,5,5,0,0,1,1.94,1.21,4.94,4.94,0,0,1,1.2,2,6.64,6.64,0,0,1,.14,2.89,7,7,0,0,1-1,2.91,7.61,7.61,0,0,1-1.92,2,8,8,0,0,1-2.39,1.2,8.21,8.21,0,0,1-2.47.4h-4.87Zm2.53,11a8.35,8.35,0,0,0,2.08-.25,5.45,5.45,0,0,0,1.79-.77,4.46,4.46,0,0,0,1.33-1.37,5.13,5.13,0,0,0,.71-2,4.79,4.79,0,0,0-.09-2,2.85,2.85,0,0,0-.83-1.37,3.71,3.71,0,0,0-1.44-.78,6.74,6.74,0,0,0-1.93-.25H952.2L951,544.09Z" transform="translate(-879.69 -532.79)"/><path class="cls-1" d="M969.67,533.13H972l-1.83,13.07h-2.32Z" transform="translate(-879.69 -532.79)"/><path class="cls-1" d="M982.78,535.23h-4l.29-2.1H989.4l-.29,2.1h-4l-1.53,11h-2.33Z" transform="translate(-879.69 -532.79)"/><path class="cls-1" d="M996.47,533.13h2.33L997,546.2h-2.32Z" transform="translate(-879.69 -532.79)"/><path class="cls-1" d="M1005.58,539.72a8.44,8.44,0,0,1,.91-2.85,7.6,7.6,0,0,1,4.12-3.59,8.36,8.36,0,0,1,2.85-.49,7.16,7.16,0,0,1,2.74.46,5,5,0,0,1,2,1.37,5.2,5.2,0,0,1,1.12,2.18,7.2,7.2,0,0,1,.11,2.84,8.17,8.17,0,0,1-.9,2.79,7.49,7.49,0,0,1-1.74,2.16,7.6,7.6,0,0,1-2.4,1.41,8.32,8.32,0,0,1-2.88.53,7,7,0,0,1-2.71-.49,5.27,5.27,0,0,1-2-1.38,5.46,5.46,0,0,1-1.12-2.15A6.77,6.77,0,0,1,1005.58,539.72Zm2.45-.15a5.43,5.43,0,0,0,.05,1.94,3.83,3.83,0,0,0,.69,1.53,3.49,3.49,0,0,0,1.28,1,4.17,4.17,0,0,0,1.79.37,5,5,0,0,0,1.9-.37,5.31,5.31,0,0,0,1.57-1,5.4,5.4,0,0,0,1.12-1.53,6.19,6.19,0,0,0,.6-1.94,5.29,5.29,0,0,0-.07-1.83,3.74,3.74,0,0,0-.69-1.48,3.31,3.31,0,0,0-1.29-1,4.25,4.25,0,0,0-1.8-.36,5,5,0,0,0-1.89.36,5.14,5.14,0,0,0-1.56,1,5.45,5.45,0,0,0-1.12,1.48A5.52,5.52,0,0,0,1008,539.57Z" transform="translate(-879.69 -532.79)"/><path class="cls-1" d="M1028.12,533.13h3.09l5,9.71h0l1.37-9.71h2.32l-1.83,13.07h-3l-5.06-10h0l-1.4,10h-2.33Z" transform="translate(-879.69 -532.79)"/></svg>