<svg id="Layer_1" data-name="Layer 1" xmlns="http://www.w3.org/2000/svg" xmlns:xlink="http://www.w3.org/1999/xlink" viewBox="0 0 199.18 199.32"><defs><style>.cls-1,.cls-2{fill:#efc296;}.cls-1{opacity:0.44;}.cls-3{fill:#f1c398;}.cls-4{fill:url(#linear-gradient);}.cls-5{fill:#325c63;}.cls-6{fill:#3e8c9e;}.cls-7{fill:#f8bf8e;}.cls-8{fill:#4a9cb2;}</style><linearGradient id="linear-gradient" x1="963.33" y1="504.46" x2="960.52" y2="536.59" gradientUnits="userSpaceOnUse"><stop offset="0" stop-color="#04ccfe"/><stop offset="0.35" stop-color="#0bcefe"/><stop offset="0.4" stop-color="#0ccefe"/><stop offset="0.52" stop-color="#43d9fe"/><stop offset="0.76" stop-color="#a6edfe"/><stop offset="0.92" stop-color="#e4f9fe"/><stop offset="1" stop-color="#fcfefe"/></linearGradient></defs><path class="cls-1" d="M918.89,567.94a113.89,113.89,0,0,1-3.25,15.86h0a113.58,113.58,0,0,1,15.86-3.25A51.73,51.73,0,0,1,918.89,567.94Z" transform="translate(-860.21 -439.98)"/><path class="cls-2" d="M1000.7,511.34a113.89,113.89,0,0,1,3.25-15.86,113.21,113.21,0,0,1-15.86,3.26A51.17,51.17,0,0,1,1000.7,511.34Z" transform="translate(-860.21 -439.98)"/><path class="cls-1" d="M931.5,498.74a113.51,113.51,0,0,1-15.86-3.26,113.89,113.89,0,0,1,3.25,15.86A51.51,51.51,0,0,1,931.5,498.74Z" transform="translate(-860.21 -439.98)"/><path class="cls-1" d="M988.09,580.55A113.28,113.28,0,0,1,1004,583.8h0a113.89,113.89,0,0,1-3.25-15.86A51.38,51.38,0,0,1,988.09,580.55Z" transform="translate(-860.21 -439.98)"/><path class="cls-3" d="M955.25,533.19H964v2.63h-5.93v2.4h5.6v2.62h-5.6v2.63h6.25v2.62h-9.09Z" transform="translate(-860.21 -439.98)"/><path class="cls-4" d="M932.85,526l4.26,3.6a24.8,24.8,0,0,1,47.47,9.07l5.82-2.93,4.71,2.11a35.35,35.35,0,0,0-68.48-10.46Z" transform="translate(-860.21 -439.98)"/><path class="cls-5" d="M979.72,559.25c2.8.93,5.51,1.7,7.8,2.29A35.26,35.26,0,0,0,993.61,550c-4.41,1.23-9.54,2.25-12.8,2.84a25,25,0,0,1-4.42,5.25C977.45,558.46,978.56,558.86,979.72,559.25Z" transform="translate(-860.21 -439.98)"/><path class="cls-6" d="M995.12,541.06,990.47,539l-6,3a24.43,24.43,0,0,1-2,7.54c3.57-.69,8.23-1.69,11.9-2.81A35.16,35.16,0,0,0,995.12,541.06Z" transform="translate(-860.21 -439.98)"/><path class="cls-6" d="M939,553.08a48.4,48.4,0,0,1-10.1,3.66,35.39,35.39,0,0,0,5.26,7.17,74.49,74.49,0,0,0,12.13-3.5A25.09,25.09,0,0,1,939,553.08Z" transform="translate(-860.21 -439.98)"/><path class="cls-5" d="M955.44,564.05a24.48,24.48,0,0,1-6-1.89,63.19,63.19,0,0,1-12.76,4.17,35.24,35.24,0,0,0,33.55,7.1A32.83,32.83,0,0,1,955.44,564.05Z" transform="translate(-860.21 -439.98)"/><path class="cls-6" d="M973.75,560.14a24.61,24.61,0,0,1-13.86,4.3,33.89,33.89,0,0,0,14.88,7.22A35.72,35.72,0,0,0,985.4,564,105.22,105.22,0,0,1,973.75,560.14Z" transform="translate(-860.21 -439.98)"/><path class="cls-6" d="M935,539.64a24.62,24.62,0,0,1,1-7.12l-4-3.35-6.45,1.44a35.58,35.58,0,0,0-1.08,6.58,85.4,85.4,0,0,0,11,7.55A25.21,25.21,0,0,1,935,539.64Z" transform="translate(-860.21 -439.98)"/><path class="cls-5" d="M937.54,550.58c-.3-.62-.58-1.25-.83-1.9a80.11,80.11,0,0,1-12.23-7.84,35.32,35.32,0,0,0,3.06,13.25A48.17,48.17,0,0,0,937.54,550.58Z" transform="translate(-860.21 -439.98)"/><path class="cls-7" d="M862.81,562l-1.5-7.67,1.35-.27,1.21,6.23,3.83-.75-1.13-5.81,1.34-.26,1.14,5.81,4.34-.85-1.28-6.53,1.35-.27,1.56,8Z" transform="translate(-860.21 -439.98)"/><path class="cls-7" d="M860.21,543.61l0-1.67,10.27-3.69v0l-10.17-4.09,0-1.57,12.37,5V539Z" transform="translate(-860.21 -439.98)"/><path class="cls-7" d="M861.85,521.43l1.7-7.63,1.34.3-1.38,6.19,3.8.85,1.29-5.78,1.34.3-1.29,5.78,4.32,1,1.45-6.5,1.34.3L874,524.14Z" transform="translate(-860.21 -439.98)"/><path class="cls-7" d="M867.51,502l1.3-2.9a14.82,14.82,0,0,1,.83-1.58,4.78,4.78,0,0,1,1.07-1.27,2.92,2.92,0,0,1,1.4-.62A3.37,3.37,0,0,1,874,496a3,3,0,0,1,1.68,1.66,4,4,0,0,1,0,2.52l6.67-.87-.74,1.65-6.48.78-.78,1.73,5.1,2.29-.61,1.35Zm5.6.9.54-1.2c.17-.37.33-.77.49-1.18a4.19,4.19,0,0,0,.29-1.2,2.17,2.17,0,0,0-.18-1.08,1.73,1.73,0,0,0-.93-.81,2,2,0,0,0-1.09-.2,1.69,1.69,0,0,0-.85.38,2.9,2.9,0,0,0-.66.76,8,8,0,0,0-.51,1l-.85,1.89Z" transform="translate(-860.21 -439.98)"/><path class="cls-7" d="M884.21,486.18l-8.45-.35,1.09-1.53,6.61.43-2.48-6.2,1-1.44,3.06,7.89,4.36,3.12-.86,1.2Z" transform="translate(-860.21 -439.98)"/><path class="cls-7" d="M888.55,469.42l1.24-1.06,8.87,6,0,0-4.41-9.83,1.25-1.08,9,5.86,0,0-4.54-9.72,1.17-1,5.33,11.81-1.21,1-9.2-6,0,0,4.53,10-1.23,1.06Z" transform="translate(-860.21 -439.98)"/><path class="cls-7" d="M911.36,452.37l1.32-.66,2.34,4.73,6-2.95-2.34-4.72,1.32-.66,5.52,11.15-1.32.66-2.57-5.2-6,2.94,2.57,5.2-1.32.65Z" transform="translate(-860.21 -439.98)"/><path class="cls-7" d="M932.18,443.75l7.59-1.9.33,1.33L934,444.72l.94,3.78,5.75-1.43.33,1.32-5.75,1.44,1.08,4.3,6.46-1.62.33,1.33-7.89,2Z" transform="translate(-860.21 -439.98)"/><path class="cls-7" d="M952.1,440.12l3.17-.13a15.23,15.23,0,0,1,1.79,0,5.07,5.07,0,0,1,1.61.39,3,3,0,0,1,1.18,1,3.3,3.3,0,0,1,.51,1.81,3.06,3.06,0,0,1-.74,2.25,4,4,0,0,1-2.24,1.16l3.75,5.58-1.8.07-3.59-5.45-1.9.08.22,5.58-1.47.06Zm1.69,5.42,1.31-.05,1.27-.09a4.56,4.56,0,0,0,1.21-.27,2.17,2.17,0,0,0,.89-.65,1.78,1.78,0,0,0,.31-1.19,2,2,0,0,0-.31-1.07,1.7,1.7,0,0,0-.71-.59,2.83,2.83,0,0,0-1-.25,6.5,6.5,0,0,0-1.08,0l-2.07.08Z" transform="translate(-860.21 -439.98)"/><path class="cls-7" d="M972.63,440.66l7.71,1.3-.23,1.35-6.25-1.05-.65,3.84,5.84,1-.23,1.35-5.84-1-.73,4.36,6.56,1.11-.22,1.35-8-1.35Z" transform="translate(-860.21 -439.98)"/><path class="cls-8" d="M1057,517.81l1.63,8.29-2.07.11-1.19-6.06-3.16.18,1.13,5.75-2.07.11-1.13-5.74-3.49.19,1.26,6.38-2.07.12-1.7-8.61Z" transform="translate(-860.21 -439.98)"/><path class="cls-8" d="M1053.22,541l6.17-3.26-.07,2.87-4.78,2.23,4.64,3.75-.07,2.75-6-5.17-6.75,3.54.07-2.89,5.45-2.48-5.29-4.23.06-2.74Z" transform="translate(-860.21 -439.98)"/><path class="cls-8" d="M1056.94,561.28l-1,4.16a8.34,8.34,0,0,1-.59,1.66,3.76,3.76,0,0,1-.93,1.22,2.57,2.57,0,0,1-1.31.58,3.55,3.55,0,0,1-1.76-.29,4.33,4.33,0,0,1-1.72-1.13,3.81,3.81,0,0,1-.81-1.52,5.27,5.27,0,0,1-.12-1.79,13.44,13.44,0,0,1,.33-1.93l.4-1.57-5-2,.55-2.21Zm-6.06,1.45c-.08.31-.15.65-.21,1a3.12,3.12,0,0,0,0,1,2.14,2.14,0,0,0,.33.9,1.8,1.8,0,0,0,.88.65,1.5,1.5,0,0,0,1,.11,1.3,1.3,0,0,0,.66-.42,2.45,2.45,0,0,0,.44-.76,8.16,8.16,0,0,0,.27-.89l.4-1.58-3.36-1.35Z" transform="translate(-860.21 -439.98)"/><path class="cls-8" d="M1050.13,581.31l-3.74,7.58-1.71-1.16,2.73-5.55-2.62-1.77-2.59,5.25-1.71-1.16,2.59-5.26-2.89-2-2.88,5.83L1035.6,582l3.88-7.87Z" transform="translate(-860.21 -439.98)"/><path class="cls-8" d="M1039.24,599.44l-2.76,3.47a8.73,8.73,0,0,1-1.23,1.27,4,4,0,0,1-1.36.76,2.4,2.4,0,0,1-1.43,0,3.17,3.17,0,0,1-1.48-1,4.08,4.08,0,0,1-.77-1.09,3.6,3.6,0,0,1-.37-1.21,3.64,3.64,0,0,1,.07-1.27,4.18,4.18,0,0,1,.51-1.28l-6-1.47,1.7-2.14,5.6,1.65,1-1.3-3.76-4,1.42-1.77Zm-6.27-.81c-.2.26-.39.52-.57.8a3.12,3.12,0,0,0-.4.85,1.83,1.83,0,0,0,0,.9,1.89,1.89,0,0,0,.52.92,1.43,1.43,0,0,0,.78.47,1.26,1.26,0,0,0,.74-.1,2.5,2.5,0,0,0,.67-.49,5.17,5.17,0,0,0,.59-.66l1.23-1.53-2.41-2.54Z" transform="translate(-860.21 -439.98)"/><path class="cls-8" d="M1024.77,614.83l-1.71,1.5-7-10.78,1.71-1.49Z" transform="translate(-860.21 -439.98)"/><path class="cls-8" d="M1012.82,623.71l-7.25,4.34-.81-1.91,5.31-3.18-1.24-2.91-5,3-.81-1.91,5-3-1.36-3.21-5.58,3.34-.81-1.91,7.53-4.51Z" transform="translate(-860.21 -439.98)"/><path class="cls-8" d="M993.69,633.13l-2.87.91-7.48-7.57h0l1.6,9.44-2.17.69-2.15-12.7,2.74-.87,7.67,7.83h0l-1.65-9.74,2.16-.69Z" transform="translate(-860.21 -439.98)"/><path class="cls-8" d="M961,636.13a3,3,0,0,0,2.59,1.09,5,5,0,0,0,1.82-.48,5.1,5.1,0,0,0,1.45-1.07,5.57,5.57,0,0,0,1-1.52,5.38,5.38,0,0,0,.43-1.82,5.49,5.49,0,0,0-.17-1.89,3.53,3.53,0,0,0-.78-1.44,3.36,3.36,0,0,0-1.3-.91,4.18,4.18,0,0,0-1.77-.24,3.51,3.51,0,0,0-1.52.48,5.12,5.12,0,0,0-1.45,1.28l-1.78-1.22a6.22,6.22,0,0,1,2.24-1.88,7.18,7.18,0,0,1,2.68-.73,7,7,0,0,1,2.67.3,4.92,4.92,0,0,1,2,1.22,5.07,5.07,0,0,1,1.24,2,6.51,6.51,0,0,1,.3,2.7,8,8,0,0,1-.7,2.84,7.36,7.36,0,0,1-3.77,3.76,8,8,0,0,1-2.74.66,5.64,5.64,0,0,1-2.36-.3,4.65,4.65,0,0,1-2-1.43Z" transform="translate(-860.21 -439.98)"/><path class="cls-8" d="M947.05,638.2l-8.36-1.26.59-2,6.11.92.9-3L940.5,632l.59-2,5.79.88,1-3.35-6.43-1,.59-2,8.68,1.31Z" transform="translate(-860.21 -439.98)"/></svg>