<svg id="Layer_1" data-name="Layer 1" xmlns="http://www.w3.org/2000/svg" xmlns:xlink="http://www.w3.org/1999/xlink" viewBox="0 0 88.32 88.32"><defs><style>.cls-1,.cls-2{fill:#efc296;}.cls-1{opacity:0.44;}.cls-3{fill:#f1c398;}.cls-4{fill:url(#linear-gradient);}.cls-5{fill:#325c63;}.cls-6{fill:#3e8c9e;}</style><linearGradient id="linear-gradient" x1="963.33" y1="504.47" x2="960.52" y2="536.61" gradientUnits="userSpaceOnUse"><stop offset="0" stop-color="#04ccfe"/><stop offset="0.35" stop-color="#0bcefe"/><stop offset="0.4" stop-color="#0ccefe"/><stop offset="0.52" stop-color="#43d9fe"/><stop offset="0.76" stop-color="#a6edfe"/><stop offset="0.92" stop-color="#e4f9fe"/><stop offset="1" stop-color="#fcfefe"/></linearGradient></defs><path class="cls-1" d="M918.89,568a113.28,113.28,0,0,1-3.25,15.86h0a113.58,113.58,0,0,1,15.86-3.25A51.56,51.56,0,0,1,918.89,568Z" transform="translate(-915.64 -495.5)"/><path class="cls-2" d="M1000.7,511.36A113.58,113.58,0,0,1,1004,495.5a113.28,113.28,0,0,1-15.86,3.25A51.38,51.38,0,0,1,1000.7,511.36Z" transform="translate(-915.64 -495.5)"/><path class="cls-1" d="M931.5,498.75a113.58,113.58,0,0,1-15.86-3.25,113.58,113.58,0,0,1,3.25,15.86A51.73,51.73,0,0,1,931.5,498.75Z" transform="translate(-915.64 -495.5)"/><path class="cls-1" d="M988.09,580.56a113.28,113.28,0,0,1,15.86,3.25h0A113.28,113.28,0,0,1,1000.7,568,51.21,51.21,0,0,1,988.09,580.56Z" transform="translate(-915.64 -495.5)"/><path class="cls-3" d="M955.25,533.21H964v2.62h-5.93v2.41h5.6v2.62h-5.6v2.62h6.25v2.62h-9.09Z" transform="translate(-915.64 -495.5)"/><path class="cls-4" d="M932.85,526l4.26,3.6a24.8,24.8,0,0,1,47.47,9.07l5.82-2.93,4.71,2.11a35.35,35.35,0,0,0-68.48-10.46Z" transform="translate(-915.64 -495.5)"/><path class="cls-5" d="M979.72,559.26c2.8.94,5.51,1.7,7.8,2.3A35.26,35.26,0,0,0,993.61,550c-4.41,1.22-9.54,2.24-12.8,2.84a25.29,25.29,0,0,1-4.42,5.25C977.45,558.48,978.56,558.87,979.72,559.26Z" transform="translate(-915.64 -495.5)"/><path class="cls-6" d="M995.12,541.07,990.47,539l-6,3a24.49,24.49,0,0,1-2,7.55c3.57-.7,8.23-1.7,11.9-2.82A35.16,35.16,0,0,0,995.12,541.07Z" transform="translate(-915.64 -495.5)"/><path class="cls-6" d="M939,553.1a48.4,48.4,0,0,1-10.1,3.66,35.67,35.67,0,0,0,5.26,7.17,73.53,73.53,0,0,0,12.13-3.51A24.93,24.93,0,0,1,939,553.1Z" transform="translate(-915.64 -495.5)"/><path class="cls-5" d="M955.44,564.07a24.5,24.5,0,0,1-6-1.9,62.57,62.57,0,0,1-12.76,4.17,35.3,35.3,0,0,0,33.55,7.11A32.91,32.91,0,0,1,955.44,564.07Z" transform="translate(-915.64 -495.5)"/><path class="cls-6" d="M973.75,560.16a24.77,24.77,0,0,1-13.86,4.3,33.75,33.75,0,0,0,14.88,7.21A35.54,35.54,0,0,0,985.4,564,103,103,0,0,1,973.75,560.16Z" transform="translate(-915.64 -495.5)"/><path class="cls-6" d="M935,539.66a24.69,24.69,0,0,1,1-7.13l-4-3.35-6.45,1.45a35.62,35.62,0,0,0-1.08,6.57,84.39,84.39,0,0,0,11,7.55A25.11,25.11,0,0,1,935,539.66Z" transform="translate(-915.64 -495.5)"/><path class="cls-5" d="M937.54,550.59c-.3-.61-.58-1.25-.83-1.89a81.67,81.67,0,0,1-12.23-7.84,35.31,35.31,0,0,0,3.06,13.24A47,47,0,0,0,937.54,550.59Z" transform="translate(-915.64 -495.5)"/></svg>