<svg id="Layer_1" data-name="Layer 1" xmlns="http://www.w3.org/2000/svg" viewBox="0 0 88.51 88.51"><defs><style>.cls-1,.cls-2{fill:#efc296;}.cls-1{opacity:0.44;}.cls-3{fill:#5585e5;}.cls-4{fill:#2ee1ff;}.cls-5{fill:#f1c398;}</style></defs><path class="cls-1" d="M918.8,568a114,114,0,0,1-3.26,15.89h0a114.15,114.15,0,0,1,15.9-3.26A51.41,51.41,0,0,1,918.8,568Z" transform="translate(-915.54 -495.4)"/><path class="cls-2" d="M1000.79,511.3a114.15,114.15,0,0,1,3.26-15.9,114,114,0,0,1-15.89,3.26A51.41,51.41,0,0,1,1000.79,511.3Z" transform="translate(-915.54 -495.4)"/><path class="cls-1" d="M931.44,498.66a114.15,114.15,0,0,1-15.9-3.26,114.15,114.15,0,0,1,3.26,15.9A51.28,51.28,0,0,1,931.44,498.66Z" transform="translate(-915.54 -495.4)"/><path class="cls-1" d="M988.16,580.65a114,114,0,0,1,15.89,3.26h0a114,114,0,0,1-3.26-15.89A51.54,51.54,0,0,1,988.16,580.65Z" transform="translate(-915.54 -495.4)"/><path class="cls-3" d="M942.54,569.43c6-.53,10.49,2.23,14.9,5.66a35.22,35.22,0,0,1-16.59-5.4,12,12,0,0,1,1.5-.24Z" transform="translate(-915.54 -495.4)"/><path class="cls-3" d="M994.61,546.54a35,35,0,0,1-1.71,5.89c-2.23.67-4.88,1.56-8.17,2.76a58.59,58.59,0,0,1-7.22,2.18,24.72,24.72,0,0,0,5.7-8.89l2.23-.56A44.37,44.37,0,0,1,994.61,546.54Z" transform="translate(-915.54 -495.4)"/><path class="cls-3" d="M927.76,554.92a35,35,0,0,1-3-9.41c3.77-.92,6.05-.68,10.79.51a24.33,24.33,0,0,0,2.12,5.45A19.4,19.4,0,0,0,927.76,554.92Z" transform="translate(-915.54 -495.4)"/><path class="cls-3" d="M944.54,562.77c7.58.25,12.29,3.1,16.86,5.85,3.2,1.93,6.33,3.81,10.09,4.58a35.24,35.24,0,0,1-7.43,1.72l-1.37-1.1c-5.45-4.42-11.63-9.43-20.53-8.64l-.26,0a16.75,16.75,0,0,0-5.24,1.41c-.57-.49-1.1-1-1.63-1.52A16.51,16.51,0,0,1,944.54,562.77Z" transform="translate(-915.54 -495.4)"/><path class="cls-4" d="M984.16,532.39l-.43.06a25,25,0,0,0-47-2.53c-.39-.32-.76-.65-1.12-1-2.62-2.28-4.85-4.08-7.62-5a35.47,35.47,0,0,1,66.52,8.61A37.46,37.46,0,0,0,984.16,532.39Z" transform="translate(-915.54 -495.4)"/><path class="cls-3" d="M962.86,564.53a25,25,0,0,0,7.85-2.31,22.49,22.49,0,0,0,4-.07,48.47,48.47,0,0,0,11.49-3c1.54-.56,2.91-1,4.17-1.47a35.67,35.67,0,0,1-9.65,10.63c-7.53,2.38-11.69-.11-17.11-3.38Z" transform="translate(-915.54 -495.4)"/><path class="cls-3" d="M935.38,534.31c-.92-.75-1.77-1.47-2.53-2.14-2.33-2-4.12-3.57-6.5-4.26a35.35,35.35,0,0,0-2.05,11.37c0,.66.05,1.3.08,1.94,3.7-.86,6.22-.73,10.47.24A24.92,24.92,0,0,1,935.38,534.31Z" transform="translate(-915.54 -495.4)"/><path class="cls-3" d="M984.66,536.62l.57-.06a32.5,32.5,0,0,1,9.94.44c.08,1,.13,2.09.12,3.15,0,.71-.08,1.41-.13,2.11a48,48,0,0,0-10.7,1.51,24.76,24.76,0,0,0,.14-7.14Z" transform="translate(-915.54 -495.4)"/><path class="cls-3" d="M932.08,561.89a36.27,36.27,0,0,1-2.26-3.21c2.41-1.81,5.39-3.11,10.65-3.09a21.37,21.37,0,0,0,1.42,1.6c.46.48,1,.91,1.44,1.34A20,20,0,0,0,932.08,561.89Z" transform="translate(-915.54 -495.4)"/><path class="cls-5" d="M955.24,533.2H964v2.62h-5.94v2.41h5.61v2.63h-5.61v2.63h6.26v2.63h-9.11Z" transform="translate(-915.54 -495.4)"/></svg>