<svg id="Layer_1" data-name="Layer 1" xmlns="http://www.w3.org/2000/svg" viewBox="0 0 162.22 13.74"><defs><style>.cls-1{fill:#4a9cb2;}</style></defs><path class="cls-1" d="M880.51,533.12h8.66l-.29,2.1h-6.34l-.44,3.22h6l-.29,2.1h-6l-.5,3.55H888l-.29,2.1h-9Z" transform="translate(-878.69 -532.79)"/><path class="cls-1" d="M899.66,539.36l-3.49-6.24h2.94l2.4,4.84,3.73-4.84h2.82l-5.15,6.24,3.78,6.83h-3l-2.68-5.52-4.21,5.52h-2.8Z" transform="translate(-878.69 -532.79)"/><path class="cls-1" d="M915.52,533.12h4.4a8.69,8.69,0,0,1,1.79.18,4,4,0,0,1,1.45.62,2.62,2.62,0,0,1,.89,1.17,3.48,3.48,0,0,1,.15,1.81,4.54,4.54,0,0,1-.7,2,3.94,3.94,0,0,1-1.31,1.17,5.14,5.14,0,0,1-1.75.56,13,13,0,0,1-2,.15h-1.66l-.76,5.41h-2.33Zm2.94,5.67c.33,0,.68,0,1,0a3.44,3.44,0,0,0,1-.22,2.24,2.24,0,0,0,.81-.55,1.84,1.84,0,0,0,.43-1,1.55,1.55,0,0,0-.13-1,1.34,1.34,0,0,0-.58-.55,2.53,2.53,0,0,0-.87-.25,7.69,7.69,0,0,0-.95-.06h-1.66l-.52,3.68Z" transform="translate(-878.69 -532.79)"/><path class="cls-1" d="M932.34,533.12H941l-.29,2.1h-6.34l-.44,3.22h6l-.3,2.1h-6l-.49,3.55h6.66l-.29,2.1h-9Z" transform="translate(-878.69 -532.79)"/><path class="cls-1" d="M949.17,533.12h4.55a8.86,8.86,0,0,1,1.8.18,3.74,3.74,0,0,1,1.47.6,2.49,2.49,0,0,1,.93,1.14,3.35,3.35,0,0,1,.14,1.83,4.41,4.41,0,0,1-.38,1.31,3.81,3.81,0,0,1-1.8,1.83,4.82,4.82,0,0,1-1.35.4l2.68,5.78H954.4l-2.25-5.54h-1.7l-.78,5.54h-2.32Zm3.35,5.54c.33,0,.67,0,1,0a3.15,3.15,0,0,0,.94-.22,2,2,0,0,0,.75-.53,1.9,1.9,0,0,0,.4-1,1.47,1.47,0,0,0-.12-.92,1.23,1.23,0,0,0-.55-.53,2.53,2.53,0,0,0-.82-.23,7.07,7.07,0,0,0-.91-.06h-2l-.5,3.55Z" transform="translate(-878.69 -532.79)"/><path class="cls-1" d="M966.28,533.12h2.32l-1.82,13.07h-2.33Z" transform="translate(-878.69 -532.79)"/><path class="cls-1" d="M977,533.12h8.65l-.29,2.1H979l-.45,3.22h6l-.29,2.1h-6l-.5,3.55h6.66l-.29,2.1h-9Z" transform="translate(-878.69 -532.79)"/><path class="cls-1" d="M993.83,533.12h3.08l5,9.71h0l1.37-9.71h2.33l-1.83,13.07h-3l-5.06-10h0l-1.41,10H992Z" transform="translate(-878.69 -532.79)"/><path class="cls-1" d="M1022.61,536.19a3.31,3.31,0,0,0-1.26-1,3.4,3.4,0,0,0-1.31-.26,5,5,0,0,0-1.89.36,5.14,5.14,0,0,0-1.56,1,5.64,5.64,0,0,0-1.7,3.31,5.42,5.42,0,0,0,.05,1.94,3.94,3.94,0,0,0,.69,1.54,3.47,3.47,0,0,0,1.28,1,4,4,0,0,0,1.79.37,3.66,3.66,0,0,0,1.58-.38,5.11,5.11,0,0,0,1.57-1.21l1.74,1.37a6.5,6.5,0,0,1-2.42,1.77,7.61,7.61,0,0,1-5.5.07,5.09,5.09,0,0,1-3.11-3.54,6.77,6.77,0,0,1-.12-2.79,8.29,8.29,0,0,1,.91-2.85,7.53,7.53,0,0,1,4.12-3.58,8.13,8.13,0,0,1,2.85-.49,5.73,5.73,0,0,1,2.39.47,4.65,4.65,0,0,1,1.89,1.6Z" transform="translate(-878.69 -532.79)"/><path class="cls-1" d="M1032.25,533.12h8.66l-.3,2.1h-6.33l-.44,3.22h6l-.3,2.1h-6l-.5,3.55h6.67l-.3,2.1h-9Z" transform="translate(-878.69 -532.79)"/></svg>