<svg width="80" height="80" viewBox="0 0 80 80" fill="none" xmlns="http://www.w3.org/2000/svg">
<rect width="80" height="80" rx="15" fill="#4A3AFF"/>
<path d="M39.5009 47.6308H39.4753C36.6214 47.6308 34.417 45.1686 34.9054 42.4844C36.3963 34.2974 43.0735 34.0119 43.0735 28.9289C43.0735 27.516 42.8177 24.3559 39.2528 24.3559C37.3246 24.3559 36.1917 25.5321 35.5345 26.7839C34.6446 28.4775 32.591 29.312 30.6347 28.9826C27.6682 28.4848 25.8474 25.4467 27.1056 22.8357C28.9059 19.1094 32.5885 15.2051 39.8794 15.2051C51.7121 15.2051 53.2976 24.046 53.2976 28.2017C53.2976 38.0285 45.6282 38.3945 44.0401 44.0559C43.4673 46.0983 41.7155 47.6308 39.5009 47.6308Z" fill="white"/>
<path opacity="0.35" d="M45.6489 59.0395C45.6489 60.6576 45.1067 62.0213 44.0199 63.133C42.9254 64.24 41.5009 64.7959 39.7441 64.7959C37.9795 64.7959 36.5551 64.24 35.4682 63.133C34.3814 62.0213 33.8315 60.6576 33.8315 59.0395C33.8315 57.4591 34.3814 56.0954 35.4682 54.9389C36.5551 53.7895 37.9795 53.2148 39.7441 53.2148C41.5009 53.2148 42.9279 53.7895 44.0199 54.9389C45.1042 56.0954 45.6489 57.4567 45.6489 59.0395Z" fill="white"/>
</svg>
