<?xml version="1.0" encoding="utf-8"?>
<!-- Generator: Adobe Illustrator 24.2.1, SVG Export Plug-In . SVG Version: 6.00 Build 0)  -->
<svg version="1.1" id="Ebene_1" xmlns="http://www.w3.org/2000/svg" xmlns:xlink="http://www.w3.org/1999/xlink" x="0px" y="0px"
	 viewBox="0 0 26 26" style="enable-background:new 0 0 26 26;" xml:space="preserve">
<style type="text/css">
	.st0{fill:#304351;}
</style>
<path class="st0" d="M21,4H5C4.4,4,4,4.4,4,5v16c0,0.5,0.4,1,1,1h8.6v-7h-2.3v-2.7h2.3v-2c0-2.3,1.4-3.6,3.5-3.6
	c1,0,1.8,0.1,2.1,0.1v2.4h-1.4c-1.1,0-1.3,0.5-1.3,1.3v1.7h2.7L18.8,15h-2.3v7H21c0.5,0,1-0.4,1-1V5C22,4.4,21.6,4,21,4z"/>
</svg>
