<svg id="Layer_1" data-name="Layer 1" xmlns="http://www.w3.org/2000/svg" viewBox="0 0 704.17 359.22"><defs><style>.cls-1{fill:#658a77;}</style></defs><path class="cls-1" d="M961.26,719.43h255.41l25.08-79.58H961.26Z" transform="translate(-608.29 -360.21)"/><path class="cls-1" d="M961.26,608.9l290,.06c8.25-26.36,26.25-83.91,26.25-83.91H961.26Z" transform="translate(-608.29 -360.21)"/><path class="cls-1" d="M961.26,414.45V494l326.17.05,25-79.63Z" transform="translate(-608.29 -360.21)"/><path class="cls-1" d="M752,518.12h49.23V480.58H785.64c-11.76,0-23.92,0-35.89.08-8,.08-14.11,5.34-15.46,13.41a30.41,30.41,0,0,0-.26,7.34C734.87,512.33,741.09,518.1,752,518.12Z" transform="translate(-608.29 -360.21)"/><path class="cls-1" d="M608.29,680h319.3V360.21H608.29Zm115.55-148.1c-13.15-9.14-18.5-22.08-16.36-39.55s15.23-29.76,34.18-32.27a93.81,93.81,0,0,1,12.09-.71l73,0,0,112.66H801.39v-32.7l-49-.06s-7,13.19-9.76,18.38C740.34,562,735,572.08,735,572.08L706,572l20.39-38.32S725.66,533.21,723.84,531.93Z" transform="translate(-608.29 -360.21)"/></svg>