<svg width="80" height="80" viewBox="0 0 80 80" fill="none" xmlns="http://www.w3.org/2000/svg">
<rect width="80" height="80" rx="15" fill="#4A3AFF"/>
<path opacity="0.35" d="M55.7715 58.0248H24.2285C20.4951 58.0248 17.4692 54.9989 17.4692 51.2656V28.7348C17.4692 25.0015 20.4951 21.9756 24.2285 21.9756H55.7715C59.5049 21.9756 62.5308 25.0015 62.5308 28.7348V51.2656C62.5308 54.9989 59.5049 58.0248 55.7715 58.0248Z" fill="white"/>
<path d="M35.3632 39.4707L17.4692 28.7348C17.4692 25.0015 20.4951 21.9756 24.2285 21.9756H55.7715C59.5049 21.9756 62.5308 25.0015 62.5308 28.7348L44.6368 39.4707C41.7822 41.1831 38.2178 41.1831 35.3632 39.4707Z" fill="white"/>
</svg>
