<svg width="24" height="24" viewBox="0 0 24 24" fill="none" xmlns="http://www.w3.org/2000/svg">
<path d="M12.1947 14.292C14.4576 14.292 16.292 12.4576 16.292 10.1947C16.292 7.93184 14.4576 6.09741 12.1947 6.09741C9.93184 6.09741 8.09741 7.93184 8.09741 10.1947C8.09741 12.4576 9.93184 14.292 12.1947 14.292Z" stroke="#F85757" stroke-width="1.4" stroke-linecap="round" stroke-linejoin="round"/>
<path d="M20.3893 10.1946C20.3893 17.3877 14.0776 21.4222 12.5324 22.3045C12.4294 22.3633 12.3128 22.3943 12.1942 22.3943C12.0755 22.3943 11.9589 22.3633 11.8559 22.3045C10.3108 21.4213 4 17.3859 4 10.1946C4 8.02128 4.86336 5.93695 6.40015 4.40015C7.93695 2.86336 10.0213 2 12.1946 2C14.368 2 16.4523 2.86336 17.9891 4.40015C19.5259 5.93695 20.3893 8.02128 20.3893 10.1946Z" stroke="#F85757" stroke-width="1.4" stroke-linecap="round" stroke-linejoin="round"/>
</svg>
