<svg width="108" height="108" viewBox="0 0 108 108" fill="none" xmlns="http://www.w3.org/2000/svg">
<g clip-path="url(#clip0_1148_42285)">
<rect width="108" height="108" fill="#F85757" fill-opacity="0.12"/>
<g filter="url(#filter0_d_1148_42285)">
<circle cx="53.5471" cy="53.547" r="32.8634" fill="white"/>
</g>
<circle opacity="0.5" cx="53.5471" cy="53.5153" r="29.5616" fill="white"/>
<path opacity="0.5" d="M66.6924 59.6664C64.5393 61.1396 60.743 58.0799 59.0998 60.3463C57.5133 62.5561 65.8425 69.2987 68.6189 67.9955C73.3218 65.7858 76.3815 61.1962 76.3815 59.4964C76.4381 57.8532 74.2283 54.5102 66.6924 59.6664Z" fill="white"/>
<path d="M64.6526 22.6101C61.0829 21.3069 57.3433 20.6836 53.547 20.6836C35.4155 20.6836 20.6836 35.4155 20.6836 53.547C20.6836 71.6785 35.4155 86.4104 53.547 86.4104C71.6785 86.4104 86.4104 71.6785 86.4104 53.547C86.4104 39.7217 77.6846 27.2563 64.6526 22.6101ZM53.547 83.0107C51.2239 83.0107 48.9574 82.7274 46.8043 82.2175V78.4212C46.8043 78.4212 46.8043 78.4212 45.3878 77.0047C43.9713 75.5881 46.861 73.2084 47.6542 70.2053C49.864 61.7062 42.4981 61.3662 42.2714 59.4964C42.0448 57.3999 44.7645 55.8134 46.4077 54.1703C48.0509 52.5271 48.5608 49.9773 47.7109 48.5042C45.0478 43.5746 38.5885 46.1811 37.9652 51.3372C37.6252 54.4536 35.7554 57.6266 34.1689 59.2698C32.5824 60.8563 29.4661 60.0063 28.6161 57.6832C27.6529 55.0768 30.9959 54.1136 30.486 50.7706C30.3726 49.864 29.4094 49.4107 28.2195 49.2408L24.3099 49.3541C26.4064 35.0755 38.7018 24.0833 53.547 24.0833C56.9467 24.0833 60.2897 24.6499 63.5193 25.7831C63.6893 25.8397 63.8593 25.8964 63.9726 25.9531L64.0859 30.0893C64.0859 31.6192 63.1794 33.0357 61.7628 33.659C58.6465 35.0188 55.5301 34.2822 54.2269 37.8519C53.1504 40.5716 55.9834 47.8809 59.4397 47.8809C63.8026 47.8809 65.8991 39.0984 67.2023 39.0984C68.0522 39.0984 69.3554 41.7615 70.8853 43.7446C71.9052 45.1045 73.4917 45.8411 75.1915 45.8411H78.0812L82.2175 46.8043C82.7274 49.0141 83.0107 51.2805 83.0107 53.547C83.0107 69.8087 69.8087 83.0107 53.547 83.0107Z" fill="#F85757"/>
</g>
<defs>
<filter id="filter0_d_1148_42285" x="1.19601" y="6.32423" width="104.702" height="104.702" filterUnits="userSpaceOnUse" color-interpolation-filters="sRGB">
<feFlood flood-opacity="0" result="BackgroundImageFix"/>
<feColorMatrix in="SourceAlpha" type="matrix" values="0 0 0 0 0 0 0 0 0 0 0 0 0 0 0 0 0 0 127 0" result="hardAlpha"/>
<feOffset dy="5.12834"/>
<feGaussianBlur stdDeviation="9.74385"/>
<feComposite in2="hardAlpha" operator="out"/>
<feColorMatrix type="matrix" values="0 0 0 0 0.8625 0 0 0 0 0.100625 0 0 0 0 0.100625 0 0 0 0.1 0"/>
<feBlend mode="normal" in2="BackgroundImageFix" result="effect1_dropShadow_1148_42285"/>
<feBlend mode="normal" in="SourceGraphic" in2="effect1_dropShadow_1148_42285" result="shape"/>
</filter>
<clipPath id="clip0_1148_42285">
<rect width="108" height="108" fill="white"/>
</clipPath>
</defs>
</svg>
