<svg id="Layer_1" data-name="Layer 1" xmlns="http://www.w3.org/2000/svg" viewBox="0 0 159.07 96.88"><defs><style>.cls-1{fill:#fff;}</style></defs><path class="cls-1" d="M929,492.06a48.44,48.44,0,1,0,48.44,48.44A48.44,48.44,0,0,0,929,492.06Zm0,76a27.59,27.59,0,1,1,27.59-27.59A27.59,27.59,0,0,1,929,568.09Z" transform="translate(-880.59 -492.06)"/><polygon class="cls-1" points="159.07 42.91 143.24 42.91 144.17 27.39 133.12 27.39 132.19 42.91 116.96 42.91 115.7 53.97 131.53 53.97 130.6 69.5 141.66 69.5 142.58 53.97 157.81 53.97 159.07 42.91"/></svg>