<svg width="108" height="108" viewBox="0 0 108 108" fill="none" xmlns="http://www.w3.org/2000/svg">
<rect width="108" height="108" fill="#F85757" fill-opacity="0.12"/>
<path d="M59.7395 62.5356L65.1249 57.1502L71.7988 63.8256L81.3138 73.342C82.8009 74.8291 82.8009 77.2401 81.3138 78.7271C79.8266 80.2143 77.4154 80.2141 75.9284 78.7268L66.4149 69.2095L59.7395 62.5356Z" fill="#222223"/>
<rect x="60.6368" y="63.4149" width="7.60116" height="6.32064" transform="rotate(-45 60.6368 63.4149)" fill="#616066"/>
<g filter="url(#filter0_d_1148_42278)">
<path d="M47.4563 69.2354C60.9146 69.2354 71.8248 58.3253 71.8248 44.867C71.8248 31.4087 60.9146 20.4985 47.4563 20.4985C33.998 20.4985 23.0879 31.4087 23.0879 44.867C23.0879 58.3253 33.998 69.2354 47.4563 69.2354Z" fill="#F85757"/>
</g>
<circle cx="47.4563" cy="44.867" r="20.8828" fill="white"/>
<defs>
<filter id="filter0_d_1148_42278" x="0.437616" y="3.80886" width="94.0374" height="94.0374" filterUnits="userSpaceOnUse" color-interpolation-filters="sRGB">
<feFlood flood-opacity="0" result="BackgroundImageFix"/>
<feColorMatrix in="SourceAlpha" type="matrix" values="0 0 0 0 0 0 0 0 0 0 0 0 0 0 0 0 0 0 127 0" result="hardAlpha"/>
<feOffset dy="5.9606"/>
<feGaussianBlur stdDeviation="11.3251"/>
<feComposite in2="hardAlpha" operator="out"/>
<feColorMatrix type="matrix" values="0 0 0 0 0.132391 0 0 0 0 0.13228 0 0 0 0 0.137836 0 0 0 0.07 0"/>
<feBlend mode="normal" in2="BackgroundImageFix" result="effect1_dropShadow_1148_42278"/>
<feBlend mode="normal" in="SourceGraphic" in2="effect1_dropShadow_1148_42278" result="shape"/>
</filter>
</defs>
</svg>
