<svg width="489" height="502" viewBox="0 0 489 502" fill="none" xmlns="http://www.w3.org/2000/svg">
<g clip-path="url(#clip0_1159_43338)">
<circle opacity="0.1" cx="249.309" cy="286.826" r="214.29" fill="#F85757"/>
<path d="M467.45 155.319C505.136 264.395 391.673 318.498 387.84 267.419C385.413 235.066 426.997 239.819 436.258 264.14C471.634 357.036 372.498 369.598 328.962 358.591" stroke="#B7B7B7" stroke-width="4.86" stroke-linecap="round" stroke-linejoin="round" stroke-dasharray="14.28 14.28"/>
<path d="M442.075 113.43L452.638 140.46L346 22.8965L442.075 113.43Z" fill="#E9E9E9"/>
<path d="M386.38 146.606C388.055 151.163 393.702 152.74 397.495 149.71L486.146 78.8994C490.277 75.5997 489.491 69.1064 484.692 66.8871L342.633 1.19035C338.32 -0.804411 333.748 3.41154 335.387 7.87197L386.38 146.606Z" fill="white"/>
<path d="M442.077 113.433L452.639 140.463L462.064 98.1326L344.832 8.85742L442.077 113.433Z" fill="#F6F6F6"/>
<path d="M441.833 113.518L452.395 140.548L345.758 22.9844L441.833 113.518Z" fill="#FF8383"/>
<path d="M386.138 146.694C387.813 151.251 393.46 152.828 397.253 149.798L485.904 78.9873C490.035 75.6876 489.249 69.1943 484.45 66.975L342.391 1.27824C338.078 -0.716521 333.506 3.49943 335.145 7.95986L386.138 146.694Z" fill="#F85757"/>
<path d="M441.834 113.521L452.397 140.551L461.822 98.2205L344.59 8.94531L441.834 113.521Z" fill="#FFA9A9"/>
<path d="M467.149 155.365C504.836 264.441 391.372 318.544 387.539 267.464C385.112 235.112 426.696 239.865 435.958 264.186C471.333 357.081 372.197 369.643 328.661 358.637" stroke="#F85757" stroke-width="4.86" stroke-linecap="round" stroke-linejoin="round" stroke-dasharray="14.28 14.28"/>
<path d="M237.735 149.235C243.877 144.047 252.864 144.038 259.016 149.215L379.568 250.654L362.972 295.336C361.638 298.929 358.209 301.313 354.375 301.313H144.494C140.766 301.313 137.409 299.057 136.002 295.605L117.672 250.654L237.735 149.235Z" fill="#FFA9A9"/>
<rect x="140.16" y="178.57" width="223.301" height="190.175" rx="22.0105" fill="white"/>
<path d="M117.445 250.801L143.048 251.221L248.389 353.721L356.547 250.801L379.333 250.801V417.808C379.333 426.418 372.353 433.399 363.743 433.399H133.036C124.426 433.399 117.445 426.418 117.445 417.808V250.801Z" fill="#FF7878"/>
<path d="M235.215 322.56C241.034 318.07 249.12 317.967 255.051 322.308L370.594 406.884C382.043 415.264 376.115 433.398 361.927 433.398H134.619C120.619 433.398 114.571 415.661 125.654 407.108L235.215 322.56Z" fill="#F85757"/>
<rect x="177.336" y="210.214" width="92.6246" height="13.0783" rx="6.53914" fill="#E9E9E9"/>
<rect x="177.336" y="235.355" width="148.935" height="13.0783" rx="6.53914" fill="#E9E9E9"/>
<rect x="177.336" y="262.349" width="113.941" height="13.0783" rx="6.53914" fill="#E9E9E9"/>
<g filter="url(#filter0_d_1159_43338)">
<circle cx="42.9026" cy="192.992" r="42.2159" transform="rotate(-9.99564 42.9026 192.992)" fill="#F85757"/>
<path d="M63.944 201.253C63.1044 201.401 62.2403 201.209 61.5419 200.72C60.8436 200.231 60.3681 199.485 60.2201 198.645L58.4115 188.383C57.8269 184.354 55.82 180.666 52.7536 177.988C49.6872 175.309 45.7636 173.816 41.6922 173.779L40.921 169.403C40.8224 168.844 40.5054 168.346 40.0398 168.02C39.5742 167.694 38.9982 167.566 38.4384 167.665C37.8786 167.763 37.381 168.08 37.0549 168.546C36.7288 169.012 36.6011 169.588 36.6997 170.147L37.4709 174.523C33.6577 175.95 30.4809 178.694 28.515 182.26C26.549 185.825 25.9237 189.977 26.7519 193.963L28.5606 204.225C28.7086 205.065 28.5169 205.929 28.0278 206.627C27.5388 207.325 26.7923 207.801 25.9526 207.949C25.3928 208.048 24.8952 208.365 24.5691 208.83C24.2431 209.296 24.1153 209.872 24.214 210.432C24.3126 210.991 24.6296 211.489 25.0952 211.815C25.5608 212.141 26.1368 212.269 26.6966 212.17L64.688 205.474C65.2478 205.376 65.7455 205.059 66.0715 204.593C66.3976 204.127 66.5253 203.551 66.4267 202.992C66.328 202.432 66.011 201.934 65.5454 201.608C65.0799 201.282 64.5038 201.154 63.944 201.253Z" fill="white"/>
<path d="M50.9686 211.156L41.5299 212.82C41.4004 212.843 41.2839 212.913 41.2026 213.016C41.1213 213.12 41.0808 213.249 41.089 213.381C41.1003 213.579 41.1236 213.777 41.1587 213.973C41.4053 215.373 42.1978 216.617 43.3618 217.432C44.5257 218.247 45.9658 218.567 47.3653 218.32C48.7647 218.073 50.0088 217.281 50.824 216.117C51.6391 214.953 51.9585 213.513 51.7119 212.113C51.6778 211.917 51.632 211.723 51.5747 211.533C51.5383 211.406 51.4562 211.297 51.3442 211.228C51.2322 211.158 51.0983 211.133 50.9686 211.156Z" fill="white"/>
</g>
</g>
<defs>
<filter id="filter0_d_1159_43338" x="-9.32031" y="144.769" width="104.445" height="104.446" filterUnits="userSpaceOnUse" color-interpolation-filters="sRGB">
<feFlood flood-opacity="0" result="BackgroundImageFix"/>
<feColorMatrix in="SourceAlpha" type="matrix" values="0 0 0 0 0 0 0 0 0 0 0 0 0 0 0 0 0 0 127 0" result="hardAlpha"/>
<feOffset dy="4"/>
<feGaussianBlur stdDeviation="5"/>
<feComposite in2="hardAlpha" operator="out"/>
<feColorMatrix type="matrix" values="0 0 0 0 0.974479 0 0 0 0 0.208854 0 0 0 0 0.208854 0 0 0 0.08 0"/>
<feBlend mode="normal" in2="BackgroundImageFix" result="effect1_dropShadow_1159_43338"/>
<feBlend mode="normal" in="SourceGraphic" in2="effect1_dropShadow_1159_43338" result="shape"/>
</filter>
<clipPath id="clip0_1159_43338">
<rect width="489" height="502" fill="white"/>
</clipPath>
</defs>
</svg>
