<svg id="Layer_1" data-name="Layer 1" xmlns="http://www.w3.org/2000/svg" xmlns:xlink="http://www.w3.org/1999/xlink" viewBox="0 0 1470.38 1470.38"><defs><style>.cls-1{fill:none;}.cls-2{opacity:0.1;}.cls-3{clip-path:url(#clip-path);}</style><clipPath id="clip-path" transform="translate(-215.62 76.83)"><rect class="cls-1" x="427.7" y="-194.13" width="1064.6" height="1452" transform="translate(1491.87 -428.13) rotate(90)"/></clipPath></defs><g class="cls-2"><g class="cls-3"><path d="M470.69,528.13c24-16.58,34.91-60.19,34.91-93.69A135.63,135.63,0,0,0,502.82,406c-6.79-31.51-12.89-58.39-18.27-82.1-14.42-63.51-23.12-101.84-23.12-133.71,0-26.52,5.92-49.26,21.13-81.09,15.87-33.23,31-57.62,43.12-77.22,19-30.73,31.61-51,31.61-78.82A118.68,118.68,0,0,0,553-76.83h-2.35A117.33,117.33,0,0,1,555-46.95c0,27.14-12.44,47.22-31.27,77.62-12.17,19.64-27.31,44.09-43.23,77.43-15.37,32.17-21.36,55.19-21.36,82.08,0,32.13,8.73,70.55,23.18,134.22,5.38,23.7,11.48,50.58,18.27,82.07a133.74,133.74,0,0,1,2.73,28c0,32.92-10.62,75.69-33.93,91.81-10.28,7.11-22,8.27-34.72,3.45-25.48-9.62-48-54.55-67.84-94.2-12-24-23.34-46.6-33.86-58.23-30.75-34-72.42-25.86-117.35-12v2.39c44.46-13.7,85.67-22,115.66,11.19,10.31,11.41,21.58,33.9,33.5,57.73,20.05,40,42.77,85.38,69.08,95.31C447.37,536.94,459.76,535.69,470.69,528.13Z" transform="translate(-215.62 76.83)"/><path d="M732.21-66.45C833-61.8,906.46,2.44,965.5,54.07l4.18,3.67c6.31,6,23.17,19.8,43.54,18.71,12.4-.66,23.62-6.8,33.35-18.24C1052.4,51.34,1057.85,45,1063,39c22.92-26.7,41-47.79,63.74-80.54,8.29-12,16.14-23.74,23.52-35.24h-1.16q-10.91,17-23.17,34.68c-22.68,32.71-40.77,53.78-63.68,80.47-5.18,6-10.64,12.39-16.47,19.25-9.55,11.24-20.53,17.26-32.65,17.91-20,1.06-36.6-12.55-42.82-18.47l-4.21-3.68C907,1.6,833.37-62.77,732.25-67.43c-10.77-.49-17.36-4.68-19.59-9.4h-1.17C713.58-71.73,720.26-67,732.21-66.45Z" transform="translate(-215.62 76.83)"/><path d="M317.67,505.89c4.31-4.3,6.5-9.88,6.5-16.6,0-20.53-20.31-46.23-29.58-54.8-34.14-31.58-53.25-35.21-79-28.89v1.7c25.39-6.27,44.21-2.74,77.86,28.39,9.1,8.42,29,33.6,29,53.6,0,6.27-2,11.46-6,15.44-6.85,6.81-19.54,10.22-37.73,10.14-22.1-.1-42.5-3.9-63.17-8.72v1.67c20.64,4.81,41,8.58,63.16,8.68C297.42,516.59,310.5,513,317.67,505.89Z" transform="translate(-215.62 76.83)"/><path d="M731.15-43.6C824-39.32,894.09,22,950.44,71.29L954.65,75a380.93,380.93,0,0,0,31.19,24.92c11,7.67,31.38,21.94,63.92-11.76a938.77,938.77,0,0,0,95.81-116.69q17.43-25.13,31.5-48.27h-1.14q-14,22.83-31.16,47.71a936.91,936.91,0,0,1-95.72,116.57c-31.95,33.09-51.92,19.14-62.65,11.64a381,381,0,0,1-31.1-24.85l-4.22-3.69C894.61,21.17,824.34-40.29,731.2-44.58c-43.2-2-68.34-9.66-79.12-24.13a16.85,16.85,0,0,1-3.56-8.12h-1a17.5,17.5,0,0,0,3.77,8.7C662.26-53.4,687.63-45.61,731.15-43.6Z" transform="translate(-215.62 76.83)"/><path d="M1394.91,355.23c25.08-6.35,31.78-57.59,39.55-116.91,1.91-14.66,3.9-29.82,6.22-44.54,10.27-65,42.92-124.59,74.5-182.17,15.81-28.83,32-58.29,45.24-88.44h-2.5c-13.16,29.75-29.12,58.85-44.75,87.34-31.67,57.76-64.42,117.48-74.75,182.91-2.32,14.76-4.31,29.93-6.23,44.6-7.34,56.07-14.27,109-37.84,115-18.37,4.65-46.23-19.27-85.18-73.13-54.66-75.57-80.11-139-80.11-199.56,0-34.42,8.55-68.56,25.4-101.45,10.49-20.47,23.25-38.49,36.12-55.7h-2.85c-12.59,16.87-25,34.57-35.3,54.66-17,33.22-25.66,67.7-25.66,102.49h0c0,61.08,25.6,124.91,80.54,200.89C1347.43,336.69,1375.26,360.2,1394.91,355.23Z" transform="translate(-215.62 76.83)"/><path d="M879.15-68.35c15.49,8.8,29.54,20.22,43.12,31.26C941.87-21.17,962.13-4.7,987,4.16c43.9,15.63,64.19-15,85.66-47.43q3-4.48,6-9c3.62-5.34,7-10.39,10.47-15.36,1.7-2.45,3.87-5.46,6.58-9.18h-1.22c-2.5,3.45-4.55,6.3-6.16,8.62-3.45,5-6.87,10-10.5,15.4-2,3-4,6-6,9-21.25,32.1-41.33,62.42-84.51,47.05C962.62-5.57,942.42-22,922.89-37.85c-13.62-11.07-27.7-22.51-43.26-31.35-4.65-2.65-10.71-5.07-17.14-7.63h-2.64l2,.8C868.34-73.45,874.48-71,879.15-68.35Z" transform="translate(-215.62 76.83)"/><path d="M312.4,957c11.06-1.26,20.64-8.21,28.49-20.67,14.18-22.53,20.53-69.65,20.53-106.35,0-7.17-.24-13.74-.72-19.52-3-35.83-10-73.15-21.62-114.08-1.65-5.86-3.44-11.68-5.31-17.32-22.66-68.26-58.52-107.72-118.15-126.66v1.73c58.79,18.88,94.2,58,116.6,125.45,1.86,5.61,3.64,11.41,5.29,17.25,11.55,40.82,18.6,78,21.56,113.76.48,5.74.72,12.26.72,19.39,0,36.47-6.28,83.22-20.29,105.48-7.57,12-16.75,18.72-27.29,19.92-26.48,3-57.56-27.89-82.53-52.72-5-5-9.73-9.67-14.06-13.75v2.26c4,3.81,8.3,8.08,12.91,12.65C253.75,928.85,285.14,960.05,312.4,957Z" transform="translate(-215.62 76.83)"/><path d="M395.5,332.87c3.32,5.28,3.77,11.39,3.77,16.67,0,2.49-.11,5-.23,7.63s-.25,5.36-.25,8.06c0,6.09.58,14,5,21.22,11.5,18.58,24.85,24.73,32.39,22.58,5-1.41,7.83-6.24,7.83-13.24,0-6.24-2.23-14.16-6.45-22.91-2.7-5.6-7.53-10.63-12.21-15.5-5.65-5.88-11.49-12-13.4-18.95a24.23,24.23,0,0,1-.88-6.49c0-4.42,1.13-8.37,2.33-12.55s2.42-8.41,2.42-13.12a26.72,26.72,0,0,0-.45-4.89c-1.55-8.28-6.81-14-11.9-19.44-4.24-4.57-8.62-9.3-10.79-15.5-2.45-7-3.65-16.56-3.65-29.13,0-16.34,2.06-34.46,3.71-49,.47-4.2.91-8.09,1.26-11.54,3-30.24,12.51-61.68,29-96.12,17.41-36.45,33.57-62.54,46.57-83.53C476.66-14.34,480.26-26,480.26-37.7c0-14.8-5.64-27.95-14.3-39.13h-1.21c8.79,11.15,14.52,24.31,14.52,39.13,0,11.47-3.54,23-10.55,34.32-13,21-29.17,47.1-46.61,83.6-16.5,34.55-26,66.09-29.05,96.44-.34,3.45-.78,7.34-1.26,11.53-1.65,14.58-3.71,32.72-3.71,49.12,0,12.69,1.22,22.32,3.71,29.45,2.23,6.4,6.69,11.2,11,15.85,5.23,5.63,10.16,10.95,11.65,18.95a24.8,24.8,0,0,1,.44,4.71c0,4.57-1.21,8.78-2.38,12.85s-2.37,8.27-2.37,12.82a25.36,25.36,0,0,0,.91,6.75c2,7.22,7.91,13.4,13.65,19.37,4.62,4.81,9.39,9.79,12,15.24,4.15,8.63,6.35,16.4,6.35,22.49,0,6.62-2.53,11-7.12,12.3-7.19,2.05-20.05-4-31.29-22.16-4.33-7-4.89-14.73-4.89-20.7,0-2.68.13-5.39.25-8s.23-5.16.23-7.67c0-5.42-.46-11.69-3.92-17.19-3.8-6.06-13.4-10.65-22.69-15.1-5.61-2.68-10.9-5.21-14.57-7.91C328.61,287,295.82,285.62,256,290.45a319.21,319.21,0,0,0-40.33,7.79v1a319,319,0,0,1,40.45-7.83c39.63-4.8,72.22-3.46,102.42,18.72,3.74,2.74,9.08,5.3,14.73,8C382.38,322.52,391.85,327.05,395.5,332.87Z" transform="translate(-215.62 76.83)"/><path d="M1486.92,435.34c0-5.63-3.59-13.56-20.67-19.4-19.21-6.56-23.67,6.08-28.39,19.47-.83,2.34-1.69,4.77-2.63,7.12-2.12,5.28-3.2,9.71-3.2,13.18,0,3.85,1.3,6.62,3.86,8.24,7.93,5,25.47-3,32.65-6.7C1480.05,451.3,1486.92,443.11,1486.92,435.34Zm-50.16,27.23c-4.14-2.62-4.13-9.21,0-19.43,1-2.39,1.82-4.83,2.66-7.19,4.64-13.15,8.65-24.5,26.32-18.46,12.8,4.37,19.56,10.55,19.56,17.85s-6.54,14.8-17.49,20.46C1453.37,463.19,1441.77,465.72,1436.76,462.57Z" transform="translate(-215.62 76.83)"/><path d="M951.09,11.48c1.74,1.46,3.48,2.95,5.24,4.44,24.74,21,50.33,42.78,80.92,18.06,23.66-19.12,43.18-48,60.39-73.43,3.57-5.28,6.94-10.26,10.34-15.17,2.29-3.3,5.54-7.76,9.31-12.92,2.08-2.84,4.35-6,6.76-9.29h-1.21c-2.25,3.11-4.39,6-6.34,8.71-3.77,5.17-7,9.64-9.32,12.94-3.41,4.91-6.78,9.9-10.35,15.18-17.18,25.4-36.65,54.19-60.2,73.22-30,24.21-55.23,2.73-79.66-18-1.76-1.5-3.51-3-5.26-4.45-21.77-18.26-50.91-41.59-83.38-60a347.06,347.06,0,0,0-61.67-27.51h-3.21a345.3,345.3,0,0,1,64.4,28.36C900.24-30,929.35-6.76,951.09,11.48Z" transform="translate(-215.62 76.83)"/><path d="M221.09,454.58c5.24-1.43,8.94-3.88,12.52-6.25,5.46-3.61,10.19-6.74,19.12-5.49,12.2,1.7,42.31,16.45,42.31,32.4,0,.16,0,.32,0,.47-.31,8-2.32,13-6,15.05-6.71,3.68-18.07-3-27.19-8.29-4.93-2.89-9.2-5.38-12-5.83-5.51-.89-8.67,1.56-11.73,3.93-2.43,1.88-4.72,3.66-8.09,3.58-7.09-.17-10.42-3.32-14-6.64l-.48-.46v1.34c3.59,3.4,7.06,6.56,14.41,6.74,3.72.09,6.26-1.88,8.72-3.79,2.88-2.23,5.87-4.55,11-3.73,2.59.41,6.79,2.87,11.64,5.7,9.33,5.47,20.95,12.26,28.15,8.31,4.05-2.22,6.18-7.41,6.5-15.87,0-.17,0-.34,0-.51,0-16.46-30.71-31.64-43.16-33.37-9.3-1.3-14.39,2.08-19.79,5.65-3.52,2.32-7.15,4.72-12.24,6.12a31.29,31.29,0,0,1-5.21,1v1A31.54,31.54,0,0,0,221.09,454.58Z" transform="translate(-215.62 76.83)"/><path d="M1281.8-7.13c-12.73,24.84-18.65,45.94-18.65,66.41,0,21.42,6.43,40.47,13.89,62.54,4.23,12.51,9,26.7,13,42.78a80.57,80.57,0,0,1,2.29,19.9c0,3.12-.12,6.11-.24,9s-.21,5.33-.21,7.89c0,13.25,3.13,23.77,18.72,35.32,10.52,7.78,18.65,10.7,25.81,13.27,10.73,3.85,19.19,6.9,31.31,23.84,3.11,4.34,5.55,10.56,7.92,16.58,3.81,9.69,7.1,18.05,12.67,18.4,4.52.28,9.56-5,15.86-16.56,7.53-13.87,8.55-33.66,8.55-51.19,0-7.82-.24-16-.48-24s-.47-16.23-.47-24.12c0-17.6,1.21-29.94,4-40,15.44-56.86,44.68-110.18,70.47-157.22,13.54-24.69,26.66-48.65,37.94-72.57h-1.81c-11.18,23.65-24.16,47.36-37.56,71.79-25.84,47.11-55.13,100.52-70.62,157.57-2.77,10.21-4,22.68-4,40.43,0,7.92.24,16.18.48,24.17s.47,16.12.47,23.92c0,17.32-1,36.86-8.34,50.41-5.8,10.65-10.62,15.94-14.32,15.71-4.54-.28-7.8-8.58-11.26-17.37-2.4-6.11-4.89-12.42-8.11-16.93-12.41-17.36-21.53-20.63-32.08-24.42-7.07-2.54-15.07-5.41-25.4-13.06-15-11.13-18.06-21.26-18.06-34,0-2.53.1-5.1.21-7.82.12-2.91.24-5.91.24-9.07a82.28,82.28,0,0,0-2.33-20.3c-4-16.14-8.86-30.36-13.09-42.91-7.41-21.92-13.81-40.86-13.81-62,0-20.2,5.87-41.07,18.47-65.67,11.52-22.48,26.86-42.7,41.68-62.27q3.09-4.07,6.18-8.17h-2l-5.44,7.19C1308.76-50,1293.39-29.74,1281.8-7.13Z" transform="translate(-215.62 76.83)"/><path d="M261.11,788a19.74,19.74,0,0,0,1-7.26c0-19-11.3-59.12-11.42-59.53-1.27-4.49-2.65-9-4.09-13.29-7.37-22.22-17.24-38.66-31-50.63v1.29c13.3,11.82,22.88,28,30.07,49.64,1.44,4.32,2.81,8.78,4.08,13.26.11.4,11.38,40.44,11.38,59.26a18.79,18.79,0,0,1-.94,6.87c-3.12,7.26-11.39,4.6-29.51-1.25-4.34-1.4-9.44-3-15.08-4.72v1c5.52,1.66,10.52,3.26,14.78,4.64C248.54,793.17,257.64,796.11,261.11,788Z" transform="translate(-215.62 76.83)"/><path d="M231.69,743.69a61.76,61.76,0,0,0-2.67-16.3c-1.19-4.19-2.46-8.33-3.79-12.34a122.67,122.67,0,0,0-9.61-22v3.41a126.5,126.5,0,0,1,8.06,19.15c1.32,4,2.59,8.1,3.77,12.26a60.2,60.2,0,0,1,2.61,15.86c0,8.15-3,13.09-8.86,14.68a18.85,18.85,0,0,1-5.58.47v1.63a20.29,20.29,0,0,0,6-.53C226.22,758.7,231.69,754.87,231.69,743.69Z" transform="translate(-215.62 76.83)"/><path d="M285.69,846.33c5.72-2.85,7.76-12.65,6.3-30.22-2.6-31.37-8.9-64.41-19.25-101-1.38-4.89-2.87-9.72-4.4-14.35-11-33.22-28-56.41-52.72-71.48v1.15c24.29,15,40.92,37.9,51.78,70.64,1.54,4.62,3,9.43,4.39,14.31,10.34,36.55,16.63,69.53,19.22,100.83.3,3.59.45,6.9.45,9.83,0,11-2,17.35-6.21,19.43-7.33,3.65-20.94-6.63-34.09-16.57-2.33-1.76-4.67-3.52-7-5.24a305.81,305.81,0,0,0-28.54-18.54v1.13a302.14,302.14,0,0,1,28,18.21c2.32,1.7,4.66,3.46,7,5.22C264.58,840.25,277.81,850.25,285.69,846.33Z" transform="translate(-215.62 76.83)"/><path d="M268.89,879.3c14.15,15.07,25.35,21.12,33.29,18,9.42-3.73,14.2-20.35,14.2-49.39,0-9.68-.52-20.69-1.6-33.66-2.72-32.84-9.27-67.3-20-105.35-1.46-5.16-3-10.32-4.71-15.33-14.46-43.58-38.57-73-74.42-90.32v1.11c35.37,17.23,59.18,46.4,73.49,89.51,1.66,5,3.24,10.15,4.7,15.29,10.74,38,17.28,72.39,20,105.17,1.07,12.94,1.59,23.93,1.59,33.58,0,28.6-4.57,44.91-13.58,48.48-7.53,3-18.37-3-32.22-17.73-2.78-3-5.48-5.82-7.9-8.22-11.35-11.29-21.14-21-31-28.31-4.92-3.62-10-7-15-10.35v1.16c4.88,3.2,9.72,6.5,14.45,10,9.85,7.24,19.62,17,30.95,28.21C263.42,873.49,266.11,876.35,268.89,879.3Z" transform="translate(-215.62 76.83)"/><path d="M1311.17,7.92c-12.37,24.14-18.39,47.82-18.39,72.38,0,13.76,5.61,43.45,15,69.34,8.23,22.68,21.89,49.72,40.26,49.79,21.64.07,33.66-41.71,40.84-66.67,1.56-5.43,2.91-10.12,4-13.25,16.19-44.7,36.65-89.07,64.37-139.63,10.59-19.3,20.91-38.14,30.19-56.71h-1.1c-9.21,18.42-19.45,37.1-30,56.24-27.75,50.6-48.22,95-64.43,139.76-1.15,3.17-2.5,7.87-4.07,13.31-7.11,24.7-19,66-39.89,66-31.76-.11-54.29-89.64-54.29-118.16,0-24.39,6-47.92,18.28-71.92,10.23-20,24.69-39,38.67-57.48,6.77-8.93,13.73-18.12,20.49-27.72H1370c-6.63,9.39-13.44,18.38-20.07,27.12C1335.92-31.23,1321.44-12.12,1311.17,7.92Z" transform="translate(-215.62 76.83)"/><path d="M1331.53,18.35c-10.67,20.82-15.87,41.07-15.88,62,0,18.13,5.38,41.79,17.18,50.9,5.13,4,11.14,5.08,17.88,3.32,15.84-4.13,27-37.31,35.23-61.54,2.64-7.83,4.93-14.6,6.85-18.75,13-28,28.19-55.7,42.89-82.49l1.64-3c8.49-15.48,16.8-30.66,24.5-45.58h-1.1c-7.63,14.77-15.86,29.79-24.26,45.11l-1.64,3c-14.71,26.81-29.91,54.52-42.92,82.55-1.94,4.2-4.24,11-6.89,18.84-7.65,22.67-19.22,56.91-34.55,60.92-6.42,1.67-12.16.61-17-3.16-11.54-8.91-16.8-32.23-16.8-50.17,0-20.67,5.17-40.77,15.77-61.46,9.31-18.17,23.15-36.43,36.54-54.09,9.69-12.78,20.07-26.49,29.89-41.53h-1.18C1388-62,1377.71-48.5,1368.16-35.89,1354.75-18.2,1340.88.1,1331.53,18.35Z" transform="translate(-215.62 76.83)"/><path d="M1666.43,503.08c6.59,1.63,13.09,3.24,19.57,4.74v-1.67c-6.35-1.49-12.72-3.06-19.18-4.65-12.12-3-24.65-6.11-37.44-8.62-42.63-8.37-98.53-15.59-152.79,3.08-22,7.58-40.07,26.48-56,43.16-14.14,14.84-26.36,27.65-36.62,26.5-4.72-.53-8.92-4-12.83-10.55-1.81-3-2.72-8.21-2.72-15.39,0-25.08,11.07-69.34,22-102.07,11.94-35.6,31-79.47,53.75-86.27,7.27-2.17,14.6-.39,21.81,5.29,9.24,7.28,17.36,15.1,25.22,22.65,15.46,14.87,30.06,28.92,51.74,38.22,30.91,13.26,63.15,14.87,95.82,4.78,7.91-2.44,15.21-4.9,21.64-7.07,9.51-3.21,17.82-6,25.52-7.91v-1.7c-7.86,1.93-16.33,4.78-26,8.06-6.42,2.17-13.71,4.63-21.6,7.06-32.29,10-64.15,8.38-94.7-4.72-21.4-9.18-35.9-23.13-51.25-37.89a338.62,338.62,0,0,0-25.34-22.76c-7.65-6-15.48-7.91-23.28-5.58-23.48,7-42.78,51.35-54.83,87.32-11,32.86-22.14,77.32-22.14,102.59,0,7.48,1,12.94,3,16.23,4.2,7,8.79,10.74,14,11.33,11.08,1.25,23.55-11.84,38-27,15.77-16.54,33.64-35.29,55.31-42.75,53.89-18.54,109.51-11.35,152-3C1641.82,497,1654.33,500.09,1666.43,503.08Z" transform="translate(-215.62 76.83)"/><path d="M902.2,232.39c-2.7-1.63-5.26-3.17-7.14-4.51-23.3-16.53-44-36.1-66.63-58.12-3-3-6.12-6-9.24-9.09-18.37-18.18-37.36-37-59.81-48.23-8.7-4.36-15.49-5.7-19.63-3.89a6.4,6.4,0,0,0-3.71,4.28,10,10,0,0,0-.36,2.76c0,4,1.94,9.39,5.63,15.46,7.31,12.09,16.35,23.58,25.09,34.68,7.16,9.1,14.56,18.51,21,28.21,25.92,39.11,43.05,65,91.38,77,10,2.5,32.85,4,42.76-3.76a11.91,11.91,0,0,0,4.82-10.5C925.84,246.65,912.18,238.41,902.2,232.39Zm23.19,25.09a10.92,10.92,0,0,1-4.46,9C911.29,274,888.87,272.49,879,270c-48-12-65-37.71-90.81-76.64-6.45-9.73-13.86-19.15-21-28.26-8.72-11.09-17.74-22.55-25-34.58-4.43-7.33-6.29-13.58-5.16-17.45a5.46,5.46,0,0,1,3.16-3.65c3.81-1.67,10.49-.3,18.8,3.87,22.31,11.17,41.25,29.92,59.56,48.05,3.12,3.08,6.2,6.13,9.25,9.1,22.7,22,43.39,41.64,66.74,58.21,1.92,1.36,4.48,2.91,7.2,4.55,9.79,5.91,23.2,14,23.69,23.54C925.39,257,925.39,257.25,925.39,257.48Z" transform="translate(-215.62 76.83)"/><path d="M1351.6,28.61c-3.34,6.52-9.31,24.82-9.31,38.12,0,4.74.79,8.36,2.34,10.74,3.36,5.18,6.52,7.47,9.63,7,6.89-1.06,11-16,14.39-28.06a95.14,95.14,0,0,1,3.69-11.66C1385.65,16.06,1401-12,1415.91-39.1l1.65-3c6.45-11.76,12.78-23.34,18.82-34.73h-1.85c-5.91,11.14-12.11,22.46-18.42,34l-1.63,3c-14.89,27.14-30.29,55.2-43.62,83.94a92.47,92.47,0,0,0-3.78,11.9c-3,11-7.22,26-13.06,26.88-2.39.37-5.08-1.74-8-6.26-1.37-2.11-2.07-5.43-2.07-9.85,0-12.85,5.94-31.16,9.12-37.37,8.38-16.35,21.58-33.76,34.38-50.64,12.2-16.1,26.08-34.42,38.71-55.55h-1.92c-12.46,20.73-26.1,38.74-38.13,54.6C1373.29-5.33,1360,12.14,1351.6,28.61Z" transform="translate(-215.62 76.83)"/><path d="M730.08-20.43c84.7,3.91,151.45,62.28,205.08,109.18l4.23,3.69c63.84,55.78,86.14,53.51,112,27.35,28.31-28.7,70.85-73.92,113.29-135.13,14.48-20.89,27.72-41.55,39.51-61.49h-1.9c-11.64,19.64-24.69,40-39,60.56-42.37,61.1-84.85,106.26-113.11,134.91-25.08,25.41-46.87,27.48-109.73-27.43l-4.22-3.69C882.41,40.45,815.43-18.13,730.16-22.06c-80-3.69-103.53-33.83-110.13-54.77h-1.71C624.85-55.41,648.47-24.19,730.08-20.43Z" transform="translate(-215.62 76.83)"/><path d="M314.36,926.49c20.46-9.6,24.75-48.4,24.75-79.26,0-10.84-.51-22.59-1.53-34.9-2.84-34.32-9.65-70.19-20.82-109.69-1.57-5.52-3.25-11-5-16.31-11.28-34-27.59-60.12-49.88-79.9a158.31,158.31,0,0,0-46.25-28.31v1c46.65,18.91,77.37,53.77,95.2,107.49,1.75,5.29,3.44,10.76,5,16.27,11.15,39.43,17.94,75.25,20.78,109.5,1,12.29,1.53,24,1.53,34.82,0,30.57-4.19,69-24.19,78.37-21.91,10.28-45.42-14.72-61-31.27-2.64-2.81-5.15-5.47-7.39-7.7-10.69-10.63-19.93-19.81-28.48-26.1-.49-.37-1-.71-1.48-1.07v1.21c.3.22.6.42.9.65,8.49,6.24,17.7,15.4,28.37,26,2.23,2.21,4.73,4.87,7.37,7.68C268,911.76,291.8,937.07,314.36,926.49Z" transform="translate(-215.62 76.83)"/><path d="M367.13,253.34c3.73-14.54,4-30.16,4.21-45.27.13-8.72.27-17.73,1.09-26.34,3.92-41.14,13.43-76.4,29.93-110.95,17.95-37.58,34.48-64.27,47.76-85.71,4.82-7.78,7.26-15.44,7.26-22.77,0-13.67-8.94-27.8-23.89-39.13h-1.63C447.19-65.56,456.4-51.38,456.4-37.7c0,7.14-2.39,14.63-7.11,22.25C436,6,419.45,32.73,401.47,70.36c-16.55,34.66-26.08,70-30,111.27-.83,8.66-1,17.69-1.1,26.43-.24,15.05-.48,30.61-4.18,45-5.77,22.46-22.17,21.65-41.42,18.47-23-3.81-45.71-7-71.55-3.83a329.1,329.1,0,0,0-37.59,7v1a333.66,333.66,0,0,1,37.7-7c25.72-3.11,48.39,0,71.28,3.82C343.6,275.68,361.16,276.58,367.13,253.34Z" transform="translate(-215.62 76.83)"/><path d="M1657.74,340.23c-69.74,22.4-107.63,31.5-139.76-24.08a105,105,0,0,1-11.57-30.78,151,151,0,0,1-3.08-31.31c0-103.31,86.34-245.21,132.71-321.45l1.58-2.6c1.42-2.34,2.8-4.6,4.15-6.84h-1.91l-3.64,6-1.58,2.6c-46.45,76.37-132.93,218.53-132.94,322.3a152.89,152.89,0,0,0,3.11,31.65A106.61,106.61,0,0,0,1516.57,317c32.75,56.66,71.1,47.48,141.67,24.82,8.93-2.87,18.24-5.85,27.76-8.59v-1.7C1676.31,334.28,1666.83,337.31,1657.74,340.23Z" transform="translate(-215.62 76.83)"/><path d="M1667.69,209.81c-2.46.65-5.48,1.57-8.88,2.61-9.66,3-16.18,2.42-19.37-1.57-1.6-2-2.41-4.91-2.41-8.67,0-16,14.22-42.5,18.9-51.22,2.28-4.26,4-7.48,5.26-10l6.61-13.41q9-18.42,18.2-35.88v-2.1q-9.6,18.21-19.08,37.55l-6.61,13.4c-1.25,2.5-3,5.71-5.24,10-4.71,8.77-19,35.48-19,51.68,0,4,.88,7.11,2.62,9.28,3.47,4.34,10.34,5,20.42,1.9,3.4-1,6.41-2,8.88-2.61,5.9-1.57,11.89-3.16,18-4.64v-1C1679.77,206.6,1673.68,208.21,1667.69,209.81Z" transform="translate(-215.62 76.83)"/><path d="M1647.85,309.43c-28.24,9.07-63.65,17.74-87,4.18-11.59-6.71-19.25-18.48-22.76-35a118.87,118.87,0,0,1-2.37-24.58c0-94.25,83.27-231.11,128-304.64l8.24-13.57q3.76-6.22,7.07-12.68h-1.11q-3.2,6.18-6.8,12.18l-8.24,13.56c-44.78,73.61-128.12,210.63-128.14,305.15a120,120,0,0,0,2.39,24.78c3.58,16.78,11.39,28.76,23.23,35.62,23.72,13.75,59.4,5,87.83-4.09,12.19-3.92,24.85-7.8,37.85-11.12v-1C1672.89,301.58,1660.13,305.49,1647.85,309.43Z" transform="translate(-215.62 76.83)"/><path d="M1673.57,231.91c-2.22.6-4.94,1.43-8.09,2.39-15.55,4.74-39,11.91-49.89,5.13-4.43-2.77-7.31-7.05-8.58-12.72a35.2,35.2,0,0,1-.77-7.61c0-23.87,19.21-59.7,29.53-79,2-3.73,3.74-7,5-9.38l.83-1.67c.94-1.9,1.82-3.67,2.62-5.3l3.1-6.3C1660,91.47,1673,66.76,1686,44V42c-13.25,23.19-26.59,48.42-39.61,75l-3.1,6.3c-.8,1.63-1.68,3.4-2.62,5.29l-.83,1.67c-1.2,2.41-2.93,5.63-4.93,9.36-10.36,19.33-29.65,55.3-29.65,79.42a35.89,35.89,0,0,0,.79,7.82c1.33,5.94,4.36,10.43,9,13.34,11.21,7,35-.23,50.69-5,3.14-.95,5.86-1.78,8.07-2.37q6-1.61,12.17-3.19v-1Q1679.72,230.27,1673.57,231.91Z" transform="translate(-215.62 76.83)"/><path d="M1679.46,254c-17.43,4.65-35.46,9.45-54.06,9.95-24.05.66-37.82-8.71-40.92-27.84a58.09,58.09,0,0,1-.7-9.23c0-33.22,23.72-80.78,36.46-106.33q1.88-3.75,3.41-6.86l3.09-6.29C1646.2,67.66,1666.4,30.82,1686-.81V-2.67c-19.88,32-40.39,69.31-60.14,109.65l-3.09,6.29-3.4,6.85c-12.78,25.62-36.57,73.32-36.57,106.77a58.93,58.93,0,0,0,.71,9.39c3.2,19.69,17.3,29.34,41.92,28.66,18.71-.51,36.8-5.32,54.28-10l6.29-1.66v-1Z" transform="translate(-215.62 76.83)"/><path d="M1640.85,287.66l-4.49,1.46c-15.9,5.23-32.33,10.63-48.19,1.91-13.24-7.28-24-22-27.35-37.57-.34-1.59-.61-3.19-.79-4.76a103.83,103.83,0,0,1-.68-12.14c0-43.88,25.29-95.34,43.76-132.92l3.08-6.29c23.65-48.29,52-94.91,77-136l2.78-4.58v-1.89l-3.62,6C1657.35,2,1629,48.59,1605.31,96.92l-3.09,6.29c-18.5,37.66-43.85,89.25-43.85,133.35a108,108,0,0,0,.68,12.25c.19,1.6.46,3.24.82,4.86,3.43,15.81,14.35,30.81,27.82,38.21,16.24,8.93,32.88,3.46,49-1.83l4.49-1.46c14.33-4.6,29.33-9.13,44.85-12.88v-1C1670.37,278.47,1655.27,283,1640.85,287.66Z" transform="translate(-215.62 76.83)"/><path d="M956.58,252.08c-3.54-14.32-23.39-26.86-39.33-36.94-5.58-3.52-10.85-6.85-14.62-9.77-20.94-16.22-39.79-34.52-58-52.23-4.75-4.61-10.12-10.41-15.81-16.55-16.9-18.23-37.93-40.92-57.17-47.82C755.45,83,740,86.39,725.1,89.7,712.85,92.41,700.18,95.22,687,93c-8.17-1.38-16.21-6.32-24.71-11.56C652.13,75.18,641.6,68.7,630.27,68.3A30.51,30.51,0,0,0,619,70.07c-12.11,4.33-17.75,8.84-17.75,14.19s5.51,11.07,19,19.62c12.9,8.16,27.84,11.37,42.3,14.47s29.51,6.34,42.49,14.57c24.71,15.68,42.92,43.32,59,67.72,1.35,2.05,2.7,4.08,4,6.11,26.84,40.49,48,72.47,105.1,86.74,15.11,3.77,53.58,2.78,73.25-12.58C956,273.44,959.43,263.64,956.58,252.08Zm-11.19,27.54c-17.64,13.77-54.93,16.51-71.85,12.28C817.08,277.79,796,246,769.4,205.83l-4-6.09c-16.16-24.53-34.47-52.34-59.48-68.2-13.22-8.38-28.37-11.64-43-14.79-14.31-3.07-29.11-6.25-41.76-14.25-9-5.72-18.27-12.35-18.27-18.24,0-4.51,5.45-8.64,16.66-12.65a28.41,28.41,0,0,1,10.71-1.67c10.89.37,21.24,6.74,31.24,12.89,8.65,5.32,16.82,10.35,25.29,11.78,13.47,2.27,26.3-.57,38.7-3.32,15.37-3.4,29.9-6.62,45.64-1,18.86,6.76,39.74,29.29,56.52,47.39,5.7,6.16,11.09,12,15.87,16.61,18.26,17.74,37.14,36.08,58.15,52.35,3.83,3,9.13,6.32,14.75,9.86,15.69,9.92,35.23,22.26,38.61,36a30.17,30.17,0,0,1,.92,7.19C955.91,267.45,952.37,274.17,945.39,279.62Z" transform="translate(-215.62 76.83)"/><path d="M1027.52,267.12c11.21-7.79,12.66-14.56,14.18-21.72,1.06-5,2.15-10.06,6.56-15.9l.54-.48c18.65-16.68,79.49-72.56,79.49-91.48a6.17,6.17,0,0,0-2.34-5.17c-3.3-2.52-9.94-2.4-20.3.4-6.16,1.66-14.65,17.48-23.64,34.23-7.49,14-15.24,28.4-21,33.29-5.22,4.38-12.44,10.16-14.94,9.64-.68-.14-1.07-.88-1.71-2.17-1.45-2.92-3.65-7.33-14-5-7.12,1.63-14.21,6-21.06,10.31-6.38,4-12.41,7.73-18.27,9.25-16.06,4.2-45.57-22.14-65.09-39.56-6.44-5.75-12-10.71-16.2-13.87-16.84-12.7-32.43-28.52-47.51-43.81C832.9,95.34,802.57,64.57,760.69,53.75c-62.57-16.17-117.82-19.4-164.22-9.59-24.76,5.24-59.29,23.27-59.29,40.75,0,10.89,13.08,18.83,38.89,23.58,99.4,18.29,132.47,68.2,164.46,116.47,28.34,42.77,55.1,83.16,124.61,100.54,26.23,6.55,66.55-3.53,88.88-16.62,10-5.85,15.56-13.21,21-20.33,4.76-6.25,9.26-12.16,16.43-16.73,5.08-3.23,11-2.66,17.26-2.05C1015.15,270.4,1021.85,271.05,1027.52,267.12Zm-37.33,2.77c-7.51,4.79-12.13,10.85-17,17.28-5.28,6.94-10.74,14.12-20.31,19.73-21.94,12.87-61.5,22.79-87.16,16.38-68.65-17.16-95.18-57.19-123.26-99.58-32.25-48.67-65.6-99-166-117.46-24.21-4.46-37-11.83-37-21.33,0-14.85,30.9-32.89,57.48-38.51,46-9.74,100.95-6.52,163.18,9.56,41.26,10.67,71.37,41.21,100.47,70.74,15.14,15.36,30.79,31.24,47.77,44,4.11,3.11,9.64,8,16,13.75,21.07,18.81,49.94,44.58,67.19,40.08,6.2-1.62,12.37-5.46,18.9-9.53,6.69-4.17,13.61-8.48,20.36-10,8.56-1.95,10.07,1.09,11.4,3.77.74,1.48,1.5,3,3.3,3.39,2.39.49,6-1,16.87-10.14,6.14-5.17,14-19.8,21.59-33.95,8-14.86,17-31.7,22.23-33.11,11.82-3.18,16.48-2.18,18.31-.78a3.94,3.94,0,0,1,1.45,3.35c0,14.28-40.67,55.74-78.73,89.77-.47.42-.71.66-.72.68-4.84,6.37-6,12-7.09,16.93-1.5,7-2.78,13.05-13.25,20.32-5,3.45-11,2.87-17.32,2.26S995.93,266.24,990.19,269.89Z" transform="translate(-215.62 76.83)"/><path d="M1239.63-76.83c-62.35,110.19-161.55,228.94-210.86,250.56-29.62,13-65-18.49-109.8-58.34C868.07,70.11,804.71,13.76,728.67,10.26,636,6,597.91-40,586.4-76.83H584c11.49,37.72,50,85,144.56,89.37C803.8,16,866.82,72.06,917.45,117.1c45.41,40.39,81.28,72.29,112.24,58.72C1079.37,154,1179.43,34.16,1242.08-76.83Z" transform="translate(-215.62 76.83)"/><path d="M1685.82,478.22l.18.17v-1.34a26.14,26.14,0,0,0-7.82-5.54c-9.54-4.07-19.48-2.91-29.09-1.8a100,100,0,0,1-16.32,1c-8.51-.41-17.35-2.14-25.9-3.82-7.06-1.39-14.35-2.82-21.46-3.51-43.21-4.18-82.3-.4-116.16,11.25-7,2.42-17.84,11.89-29.28,21.92-14.63,12.82-29.77,26.07-39,26.6a6.28,6.28,0,0,1-4.94-1.61c-3.67-3.46-4.35-12.75-2-27.6,1.71-10.8,6.22-21.18,10.58-31.21,2.55-5.86,5.18-11.92,7.21-18q.86-2.56,1.76-5.3c7.17-21.72,17-51.48,34.19-55.74,8.21-2,17.58,1.95,27.87,11.85,16.21,15.59,33,31.72,58.43,42.64,24.39,10.46,71.87,22.51,97.57,17.89,5.27-.94,8.82-3.14,12.26-5.26,4.6-2.85,9-5.54,16.82-4.31a28,28,0,0,1,12.2,5.16c3.6,2.39,6.86,4.47,13,3.89v-1c-5.86.58-8.89-1.36-12.47-3.74a28.81,28.81,0,0,0-12.6-5.31c-8.23-1.28-12.73,1.5-17.49,4.44-3.35,2.08-6.83,4.23-11.91,5.14-25.51,4.58-72.74-7.42-97-17.83-25.28-10.85-42-26.91-58.13-42.45-10.55-10.14-20.23-14.21-28.78-12.09-17.73,4.39-27.65,34.44-34.89,56.38-.6,1.82-1.19,3.6-1.76,5.3-2,6-4.64,12.05-7.18,17.89-4.38,10.09-8.92,20.52-10.65,31.44a98.21,98.21,0,0,0-1.4,15c0,6.73,1.21,11.13,3.69,13.47a7.29,7.29,0,0,0,5.66,1.88c9.53-.55,24.79-13.92,39.55-26.85,11.37-10,22.11-19.37,29-21.72,33.73-11.61,72.67-15.37,115.74-11.2,7.06.68,14.34,2.11,21.37,3.49,8.58,1.68,17.46,3.43,26,3.84a102.71,102.71,0,0,0,16.47-1c9.92-1.15,19.3-2.24,28.59,1.72A26.92,26.92,0,0,1,1685.82,478.22Z" transform="translate(-215.62 76.83)"/><path d="M1667.63,371c-64.4,20.68-131,42.06-177.65-38.69a137.17,137.17,0,0,1-15.21-40.23,183.53,183.53,0,0,1-3.78-38.05c0-109.17,81.18-245.73,132.93-330.89h-2.68c-51.9,85.44-132.54,221.6-132.54,330.89a185.93,185.93,0,0,0,3.83,38.52,140,140,0,0,0,15.46,40.9c47.6,82.35,115.08,60.68,180.34,39.73,5.93-1.91,11.83-3.8,17.67-5.6v-2.39C1679.93,367.08,1673.8,369.05,1667.63,371Z" transform="translate(-215.62 76.83)"/><path d="M336.15,236.43c11-11.89,11.93-29.67,12.75-45.36.21-4,.41-7.84.76-11.52C353.84,135.66,364,98,381.72,60.93c15.22-31.87,29.1-56.56,43.69-77.69,4-5.79,6-11.71,6-17.6,0-13.4-10.5-26-28.1-33.72-6.65-2.92-13.18-5.8-19.65-8.75h-2.35c7.1,3.27,14.28,6.43,21.6,9.64,17.23,7.57,27.52,19.84,27.52,32.83,0,5.69-2,11.42-5.84,17C410,3.86,396.08,28.59,380.84,60.51c-17.75,37.14-28,74.94-32.15,119-.35,3.7-.56,7.52-.77,11.56-.81,15.52-1.73,33.11-12.49,44.74-12.47,13.49-36.16,11.59-57.05,9.91-10.28-.82-20-1.6-27.92-.64-11.79,1.43-23.46,4.27-34.84,7.26v1c11.43-3,23.14-5.86,34.95-7.29,7.85-.95,17.5-.18,27.73.64C299.42,248.35,323.35,250.27,336.15,236.43Z" transform="translate(-215.62 76.83)"/><path d="M279.44-69c1.15-2.87,2.21-5.5,3.43-7.87h-1.1c-1.16,2.31-2.17,4.83-3.24,7.5-.55,1.38-1.12,2.8-1.73,4.25-8.87,21-17.22,37.07-26.28,50.52C239.16,2.31,227.42,21.36,215.62,42v2c12.08-21.22,24.09-40.76,35.71-58,9.1-13.5,17.48-29.61,26.38-50.69C278.32-66.16,278.89-67.58,279.44-69Z" transform="translate(-215.62 76.83)"/><path d="M231.55-27.34C226.3-19.55,221-11.29,215.62-2.67V-.81c5.64-9.1,11.23-17.8,16.74-26,7.77-11.52,17.78-30.94,25.62-50h-1.05C249.14-57.92,239.24-38.75,231.55-27.34Z" transform="translate(-215.62 76.83)"/><path d="M1005.76-46.29c10.53-1.62,20-8.88,28.79-22.23,1.81-2.73,3.63-5.48,5.53-8.31h-1.17q-2.64,3.93-5.18,7.77c-8.68,13.1-17.87,20.23-28.12,21.8-16.94,2.59-34.42-10.29-53.87-26.09-1.31-1.07-2.93-2.25-4.67-3.48h-1.7c2.19,1.53,4.18,3,5.75,4.24C970.76-56.63,988.42-43.64,1005.76-46.29Z" transform="translate(-215.62 76.83)"/><path d="M221.06-52.29l0,0a230.82,230.82,0,0,0,12.83-24.56h-1.08a226.09,226.09,0,0,1-12.59,24c0,.08-2.43,4-4.62,7.62v1.89C219.7-50,220.78-51.78,221.06-52.29Z" transform="translate(-215.62 76.83)"/><path d="M1682.76,146c-3.1,6.13-7.35,14.53-7.35,21.94a13.92,13.92,0,0,0,2.27,8l.4.54a15.78,15.78,0,0,0,7.92,4.95V179.7a13.74,13.74,0,0,1-6.64-4.25q-.18-.22-.33-.45a12.29,12.29,0,0,1-2-7.08c0-7,4.15-15.22,7.18-21.2l1.26-2.52.52-1.06v-3.71l-2,4C1683.64,144.25,1683.21,145.09,1682.76,146Z" transform="translate(-215.62 76.83)"/><path d="M245,161.35c4.22,1.2,7.9.82,10.92-1.14,7.41-4.8,9.3-17.74,10.68-27.19.23-1.58.44-3.05.66-4.33.08-.43.22-1.15.41-2.1,1-4.94,3.06-15.23,3.06-22.93,0-4.61-.74-7.55-2.26-9a3.67,3.67,0,0,0-2.8-1c-8.44.45-13.64,13.4-16.75,21.14-.49,1.21-.93,2.3-1.32,3.2-.91,2.09-2.08,4.45-3.33,7-4,8-8.47,17-8.47,24.77a17.44,17.44,0,0,0,.23,2.86C236.79,156.92,239.81,159.88,245,161.35Zm-7.11-9.09a16,16,0,0,1-.2-2.55c0-7.3,4.39-16.14,8.27-23.93,1.25-2.53,2.44-4.91,3.37-7,.4-.91.84-2,1.33-3.24,2.95-7.33,7.88-19.58,15.11-20a1.77,1.77,0,0,1,1.4.5c.77.73,1.68,2.64,1.68,7.63,0,7.52-2,17.68-3,22.56-.19,1-.34,1.71-.41,2.15-.23,1.3-.44,2.78-.68,4.37-1.25,8.59-3.14,21.56-9.84,25.89-2.58,1.67-5.65,2-9.38.91C241,158.26,238.53,155.88,237.91,152.26Z" transform="translate(-215.62 76.83)"/><path d="M288.7,225c9.61,1.56,19.54,3.17,27.09-3.17,9-7.58,9.65-19.94,10.21-30.85l.06-1.12c.2-3.88.43-8.27.83-12.49,4.44-46.64,15.31-86.78,34.19-126.32,5.95-12.45,12.73-24.68,19.28-36.51,3.6-6.5,7.33-13.22,10.87-19.9l.24-.46c4.16-7.84,8.47-15.94,8.47-24.29a21.58,21.58,0,0,0-3.65-12.13c-8.65-13.31-25.45-19.69-41.7-25.86a184.25,184.25,0,0,1-20.45-8.75h-2.05c6.52,3.66,14.1,6.6,22.16,9.66C370.34-61,387-54.72,395.47-41.69A20.66,20.66,0,0,1,399-30.09c0,8.1-4.25,16.1-8.35,23.83l-.24.46C386.83.87,383.1,7.59,379.5,14.08c-6.56,11.84-13.34,24.09-19.3,36.57-18.94,39.65-29.83,79.89-34.28,126.64-.41,4.25-.64,8.65-.84,12.54L325,191c-.55,10.71-1.17,22.85-9.86,30.15-7.2,6.05-16.91,4.47-26.3,3-3-.49-5.87-1-8.69-1.18-10.94-.87-22.25-1.78-32.46-.54a256.24,256.24,0,0,0-32.09,6.33v1a253,253,0,0,1,32.2-6.38c10.12-1.23,21.38-.32,32.31.55C282.87,224.07,285.7,224.53,288.7,225Z" transform="translate(-215.62 76.83)"/><path d="M994.7-17.39c23.86,8.5,33.45-.05,58.92-38.51,2-3.05,4.06-6.12,6.18-9.26,2.73-4,5.34-7.87,7.94-11.67h-1.19c-2.48,3.62-5,7.29-7.58,11.15-2.11,3.11-4.14,6.18-6.16,9.24-25.13,38-34.56,46.39-57.78,38.13-21-7.49-38.85-22-57.72-37.29C928.54-62.73,919.57-70,910-76.83h-1.7c10,7,19.29,14.59,28.4,22C955.63-39.46,973.51-24.93,994.7-17.39Z" transform="translate(-215.62 76.83)"/><path d="M301.55,181.59c4.51-10.32,5.58-21.59,6.63-32.49a182.67,182.67,0,0,1,2.45-18.76,384.59,384.59,0,0,1,29.81-89.13c6.24-13.06,13.19-25.6,19.92-37.74.95-1.72,2.23-3.72,3.58-5.84,4.47-7,10-15.72,10-23.52a13.25,13.25,0,0,0-2.36-7.77c-4.16-6-12.56-8.76-20-11.24-1.85-.62-3.59-1.2-5.18-1.8a101.06,101.06,0,0,1-10.71-5.42c-9.85-5.44-22.12-12.2-29.5-9.76s-11.53,12.16-14.81,20c-.74,1.77-1.44,3.44-2.12,4.87A271.41,271.41,0,0,1,269.49-1.78c-17.4,25.83-35.73,56.94-53.87,91.37v2.09C234,56.63,252.64,25,270.3-1.23a269.27,269.27,0,0,0,19.91-35.4c.69-1.45,1.4-3.13,2.14-4.91,3.2-7.62,7.19-17.1,14.21-19.41s19,4.34,28.73,9.68a97.71,97.71,0,0,0,10.83,5.48c1.61.61,3.36,1.2,5.22,1.82,7.26,2.43,15.49,5.19,19.47,10.88a12.29,12.29,0,0,1,2.19,7.2c0,7.51-5.48,16.09-9.88,23-1.37,2.13-2.65,4.15-3.63,5.92-6.73,12.13-13.68,24.68-19.93,37.77a384.85,384.85,0,0,0-29.89,89.36A185.38,185.38,0,0,0,307.2,149c-1,10.82-2.1,22-6.55,32.19-7.85,18-23.2,17.91-39.45,17.83a129.32,129.32,0,0,0-16.24.59,256.82,256.82,0,0,0-29.34,5.48v1a256.53,256.53,0,0,1,29.45-5.52,131.19,131.19,0,0,1,16.12-.58C277.78,200.09,293.45,200.17,301.55,181.59Z" transform="translate(-215.62 76.83)"/><path d="M218.24,137.78c23.72-48.42,48.37-92,71.3-126a139.86,139.86,0,0,0,8-14c3.35-6.5,6.83-13.22,11.66-18.93,6.57-7.75,13-9.75,21-6.47,6.21,2.57,9.23,6.9,9.23,13.25,0,10.58-8.57,24.67-14.83,35-2.47,4.05-4.6,7.56-5.9,10.29a407.81,407.81,0,0,0-31.7,94.75,201.49,201.49,0,0,0-2.82,21.25c-.11,1.19-.21,2.41-.31,3.66-.65,8.21-1.38,17.51-7.49,23.05s-18.49,6.08-28.44,6.51c-2.75.11-5.35.23-7.63.43l-1.23.11c-6.55.61-16.29,1.5-23.39-.85v1.72c7.39,2.25,17,1.37,23.54.76l1.23-.11c2.24-.2,4.82-.32,7.55-.43,10.21-.44,22.92-1,29.47-6.93s7.35-15.62,8-24.13c.1-1.24.19-2.46.31-3.63a199.09,199.09,0,0,1,2.79-21.08A406.89,406.89,0,0,1,320.1,31.5c1.27-2.66,3.38-6.14,5.83-10.16C332.29,10.89,341-3.42,341-14.46c0-7-3.45-11.95-10.24-14.76-8.58-3.55-15.83-1.35-22.84,6.93C303-16.45,299.46-9.64,296.06-3.06a138,138,0,0,1-7.87,13.88c-23,34.1-47.67,77.75-71.41,126.24l-1.16,2.37v3.71Z" transform="translate(-215.62 76.83)"/><path d="M871.52,240.34v-.22c0-4.64-5.9-9.34-10.2-12.77-.93-.75-1.77-1.41-2.42-2-3.7-3.25-7.59-6.37-11.36-9.39-2.44-1.94-4.87-3.89-7.27-5.89l-.29-.24c-7.74-6.52-12.77-9.18-15.4-8.14a3.05,3.05,0,0,0-1.84,2.77,6.68,6.68,0,0,0,0,.78v.16c.28,13.08,12.13,23.67,19.16,28.82,6.7,4.9,13.94,8.41,19.85,9.63,1.38.28,6.07,1.07,8.44-.78A3.55,3.55,0,0,0,871.52,240.34Zm-9.47,1.93c-5.69-1.18-12.7-4.59-19.22-9.35-6.78-5-18.22-15.16-18.49-27.54l-.82-.12h.82a3.81,3.81,0,0,1,0-.59c.13-1.18.64-1.38.81-1.44.9-.36,4-.31,13.75,7.87l.3.25c2.4,2,4.85,4,7.29,5.91,3.75,3,7.63,6.12,11.3,9.33.67.59,1.53,1.27,2.48,2,3.82,3,9.58,7.64,9.58,11.65h0a1.91,1.91,0,0,1-.74,1.52C867.71,242.93,864.43,242.76,862.05,242.27Z" transform="translate(-215.62 76.83)"/><path d="M540.52,585.07c4.93,43.35,55.14,89.85,97.68,90.45,65.22.93,117.33-36.58,167.71-72.85,8.56-6.15,17.4-12.52,26.1-18.53l5.21-3.62c24.59-17.07,52.45-36.41,82.55-42.69,25.52-5.33,84.87-13.47,105.39-4.6,15,6.49,23.62,25,31.93,42.87,5.74,12.36,11.17,24,18.59,32.23l.35.38c25.41,28,25.41,28,26.06,47.15.19,5.78.44,13,1.4,23.13a169.46,169.46,0,0,0,4.71,27.54c.92,3.74,1.58,6.44,1.58,8.84,0,5.9-4.16,10.82-18,27.12C1051,790.7,980,789.79,911.38,788.91c-86.38-1.1-175.69-2.24-204,95.5a147.22,147.22,0,0,0-6.12,40.68c0,36.75,16.42,68,47.47,90.49,45.57,32.94,116.69,41.69,177,21.78,139.14-46,218.71-155.83,294.51-274,68.9-107.4,87.89-209.69,100.28-297.13a129.61,129.61,0,0,0,1.35-17.91c0-35.46-18-52.32-40.87-73.66a376.21,376.21,0,0,1-27-27.12c-10.56-12-17.79-27.3-24.78-42.08-11.4-24.12-22.17-46.89-46.11-56.3-50.81-20-90.4,29.08-125.33,72.37-16.16,20-31.44,39-46.7,50-60.52,44-162.57,30.81-219.91-9.05-17.89-12.44-40-36.29-63.47-61.54-38.82-41.83-82.82-89.23-119.79-97.6-17.39-3.94-29.53-2.91-37.1,3.14-6.33,5.06-9.41,13.58-9.41,26.06,0,20.54,8.47,50,17.43,81.12,11,38.07,23.37,81.21,23.37,118,0,17.55-2.73,32.07-8.34,44.41-6.46,14.18-15.8,26.19-24.83,37.81-14.9,19.16-29,37.26-29,62.88A72.19,72.19,0,0,0,540.52,585.07Zm54.81-108.26c5.72-12.55,8.49-27.29,8.49-45.08,0-37-12.45-80.3-23.43-118.48-8.93-31-17.36-60.35-17.36-80.66,0-12,2.87-20.06,8.78-24.78,7.17-5.73,18.86-6.65,35.73-2.83,36.47,8.26,80.29,55.47,119,97.12,23.5,25.31,45.7,49.23,63.74,61.77,57.8,40.19,160.72,53.4,221.8,9,15.44-11.21,30.78-30.21,47-50.34,34.57-42.84,73.76-91.4,123.45-71.87,23.34,9.17,34,31.66,45.24,55.48,7,14.88,14.31,30.28,25,42.46,9.29,10.55,18.36,19,27.13,27.24,22.55,21.07,40.35,37.71,40.35,72.46a127.82,127.82,0,0,1-1.33,17.68c-12.37,87.27-31.32,189.35-100,296.48-75.63,117.9-155,227.53-293.64,273.32-59.82,19.75-130.34,11.09-175.51-21.55-30.61-22.13-46.8-53-46.8-89.17A145.56,145.56,0,0,1,709,884.86c12.53-43.31,38.26-70.7,78.66-83.75,36.18-11.68,80.68-11.12,123.72-10.56,69,.88,140.39,1.79,181.7-47,19.74-23.32,20-23.94,16.72-37.41a169.19,169.19,0,0,1-4.67-27.3c-.95-10.1-1.19-17.27-1.39-23-.67-19.71-.67-19.71-26.48-48.2l-.35-.38c-7.26-8-12.63-19.58-18.32-31.82-8.44-18.16-17.17-36.95-32.76-43.68-20.88-9-80.69-.87-106.38,4.5C889,542.58,861,562,836.29,579.18l-5.21,3.61c-8.71,6-17.56,12.4-26.12,18.56-50.18,36.11-102.06,73.46-166.73,72.54-41.85-.6-91.24-46.35-96.09-89a71.16,71.16,0,0,1-.47-8c0-25.06,13.91-42.94,28.64-61.88C579.4,503.26,588.8,491.17,595.33,476.81Z" transform="translate(-215.62 76.83)"/><path d="M1679,1393.56q3.78-7.36,7-15v-2.65q-3.66,9-8.12,17.66Z" transform="translate(-215.62 76.83)"/><path d="M1043.66,1349.09c1.21-1.65,3.45-4.21,6.27-7.46,10.84-12.43,29-33.24,29-47.91,0-5.73-2.78-10-8.27-12.73-6.87-3.41-22.81,4.08-33.35,9-2.58,1.21-4.81,2.26-6.42,2.91-3.28,1.34-6.31,2.57-9,3.6-18.15,6.94-36.93,14.12-57.29,19.44-2.13.56-4.53,1.1-7.08,1.67-10.87,2.43-24.39,5.46-31,13a23.17,23.17,0,0,0-5.09,8.45,13,13,0,0,0-.55,3.64c0,8.89,10.1,15,19.86,20.91,2.23,1.35,4.53,2.74,6.65,4.13l2,1.32c34.28,22.51,55,36.11,83.72-5.29C1035.88,1359.76,1039.68,1354.54,1043.66,1349.09Zm-93.41,18.62-2-1.32c-2.15-1.4-4.46-2.8-6.7-4.16-9.38-5.67-19.08-11.54-19.08-19.51a11.23,11.23,0,0,1,.49-3.18,21.66,21.66,0,0,1,4.75-7.83c6.27-7.12,19.5-10.09,30.14-12.47,2.57-.58,5-1.12,7.13-1.68,20.45-5.34,39.27-12.53,57.47-19.49,2.71-1,5.75-2.27,9-3.61,1.65-.67,3.89-1.73,6.49-3,9.64-4.53,25.77-12.12,31.94-9.06,5,2.45,7.35,6.14,7.35,11.27,0,14.06-17.89,34.58-28.58,46.84-2.85,3.27-5.11,5.86-6.36,7.57-4,5.45-7.79,10.68-10.6,14.73C1003.91,1403,983.71,1389.69,950.25,1367.71Z" transform="translate(-215.62 76.83)"/><path d="M1080.35,1375.87c5.26-7.2,11.13-14.4,17.36-22,19-23.29,40.56-49.68,40.56-73.4a38,38,0,0,0-2.5-13.58c-15.84-41.89-60.14-35.89-85.14-28.57-15.27,4.46-30.37,10.24-45,15.82-17,6.51-34.64,13.24-52.58,17.92-10.82,2.83-22.22,4.25-33.24,5.62-33.81,4.22-65.74,8.2-65.74,53.29,0,3.57.2,7.42.59,11.44a62.7,62.7,0,0,0,2.47,12.94c3.86,12,11.13,15.58,22.15,21,3.32,1.64,7.1,3.5,11.15,5.81,6.24,3.54,12.15,7.39,17.85,11.41H910a220.82,220.82,0,0,0-19.06-12.26c-4.09-2.32-7.87-4.19-11.21-5.84-10.79-5.32-17.91-8.83-21.65-20.43a61.51,61.51,0,0,1-2.42-12.73c-.39-4-.59-7.81-.59-11.35,0-44.23,30.06-48,64.88-52.32,11-1.37,22.48-2.8,33.37-5.64,18-4.7,35.62-11.44,52.68-18,14.59-5.57,29.67-11.34,44.91-15.79,24.67-7.22,68.38-13.18,83.94,28a36.89,36.89,0,0,1,2.44,13.23c0,23.37-21.43,49.62-40.34,72.78-6.24,7.63-12.12,14.84-17.39,22.06-4,5.45-7.48,10.25-10,13.85-1,1.46-2,2.94-3,4.42h1.19c.88-1.29,1.77-2.59,2.65-3.86C1072.88,1386.11,1076.37,1381.32,1080.35,1375.87Z" transform="translate(-215.62 76.83)"/><path d="M350.4,1350.06c-22.37-14.38-43.85-31.36-60.07-44.55-.89-.73-1.82-1.52-2.78-2.34-6.89-5.87-15.47-13.19-24.1-8-8.35,5-10,19.28-11.25,29.71-.23,1.88-.43,3.65-.66,5.15a240.8,240.8,0,0,1-18.71,63.55h1.08a242.24,242.24,0,0,0,18.6-63.41c.23-1.51.44-3.29.66-5.17,1.2-10.23,2.85-24.24,10.78-29s16.31,2.26,23,7.93c1,.82,1.9,1.62,2.79,2.35,16.24,13.21,37.75,30.21,60.16,44.61,19.87,12.78,40.46,21.81,62.25,31.37a103.74,103.74,0,0,1,19.74,11.31h1.63a104.06,104.06,0,0,0-21-12.21C390.76,1371.81,370.21,1362.8,350.4,1350.06Z" transform="translate(-215.62 76.83)"/><path d="M1668.78,1000.47c-17.24,5.1-26.78,41.59-26.78,64.86,0,33.2,6.54,68,13.47,104.85,7,37.22,14.23,75.69,14.23,113.13,0,41-8.78,75.48-26.85,105.33-1,1.59-2,3.28-3,4.92h1.91l2.47-4.07c18.23-30.12,27.09-64.85,27.09-106.18,0-37.59-7.24-76.14-14.25-113.43-6.92-36.77-13.45-71.5-13.45-104.55,0-23.27,9.75-58.6,25.62-63.3,5.31-1.57,10.92.33,16.75,5.66v-2.14C1680.09,1000.55,1674.33,998.83,1668.78,1000.47Z" transform="translate(-215.62 76.83)"/><path d="M1555.51,1276.09c0-4.3,0-8.48.07-12.58s.06-7.83.06-11.66c0-22.28-1.19-40-7.13-59.57-3.1-10.22-8-19.8-12.69-29.06-7.88-15.47-15.32-30.08-15.32-47.57a61.14,61.14,0,0,1,.63-8.73c1.87-12.9,9.47-22.55,16.82-31.9,8.27-10.49,16.07-20.41,16.07-34.32a35.86,35.86,0,0,0-.2-3.85c-.87-8.58-8.6-22.32-16.06-35.6-4.81-8.55-9.34-16.62-11.45-22.34a154.08,154.08,0,0,1-5.64-19.12c-3.27-13.74-4.48-15.47-29.76-22.15-7-1.84-13.53-3.18-19.85-4.47-23.45-4.81-42-8.6-59.67-33.6-11.91-16.87-17.71-38.28-17.71-65.45,0-26.92,5.64-55.06,10.61-79.88,2.6-13,5.06-25.25,6-34.36.56-5.29.9-13.45.9-21.82,0-24-8.78-52.08-21.38-54-6-.93-14.93,3.73-23.72,31.22l-1,3.07c-33.61,104.79-77.47,177.88-151.39,252.26-20.4,20.52-29.89,36.19-29.89,49.32a25.54,25.54,0,0,0,1.61,9c5.2,13.95,22.81,24.12,43.2,35.9,10.53,6.09,22.46,13,33.94,21.13,55.62,39.46,96.26,96.1,114.44,159.47a197.52,197.52,0,0,1,8.08,54.24c0,56.44-27.63,96.26-56.06,134h2c28.33-37.63,55.65-77.49,55.65-134a199.19,199.19,0,0,0-8.14-54.69c-18.28-63.73-59.14-120.68-115.06-160.35-11.55-8.19-23.51-15.11-34.07-21.21-20.12-11.62-37.49-21.66-42.49-35.06a24,24,0,0,1-1.51-8.39c0-12.67,9.35-28,29.42-48.17C1289,857.14,1333,783.87,1366.7,678.81l1-3.07c6.58-20.59,14.36-31.28,21.91-30.11,10.46,1.64,20,26.63,20,52.43,0,8.32-.34,16.41-.9,21.65-1,9-3.41,21.26-6,34.21-5,24.9-10.64,53.12-10.64,80.2,0,27.52,5.89,49.23,18,66.39,18.07,25.53,36.88,29.38,60.68,34.26,6.3,1.29,12.81,2.62,19.76,4.46,25.19,6.64,25.51,8,28.59,20.93a155.45,155.45,0,0,0,5.69,19.31c2.16,5.84,6.72,14,11.56,22.58,7,12.53,15,26.73,15.87,35,.12,1.23.19,2.47.19,3.68,0,13.35-7.64,23-15.72,33.32-7.49,9.5-15.23,19.34-17.16,32.66a63,63,0,0,0-.64,9c0,17.88,7.87,33.35,15.49,48.31,4.68,9.2,9.53,18.71,12.59,28.8,5.88,19.36,7.06,37,7.06,59.09,0,3.82,0,7.69-.06,11.64,0,4.11-.07,8.3-.07,12.6,0,20-2.33,37.81-7.12,54.6-6.06,21.21-14.53,42-24.39,62.87h1.81c9.75-20.69,18.13-41.35,24.15-62.42C1553.16,1314.21,1555.51,1296.2,1555.51,1276.09Z" transform="translate(-215.62 76.83)"/><path d="M323.67,1358.16c-12.71-10.58-27.1-22.57-40.89-22-10.63.43-12.42,10.72-14,19.79-.38,2.19-.74,4.25-1.2,6.19a222.84,222.84,0,0,1-10.66,31.42H258a223.86,223.86,0,0,0,10.55-31.19c.47-2,.83-4,1.22-6.25,1.59-9.13,3.23-18.58,13.07-19,13.41-.55,27.65,11.31,40.22,21.78a159.4,159.4,0,0,0,14.46,11.21,349.12,349.12,0,0,0,43.83,23.43h2.36c-15.51-7.07-30.58-14.57-45.66-24.26A157.94,157.94,0,0,1,323.67,1358.16Z" transform="translate(-215.62 76.83)"/><path d="M1051.6,1376.66c2.63-3.8,6.36-8.92,10.27-14.27,5.62-7.7,11.67-15.11,18.12-23,1.45-1.77,3.09-3.71,4.85-5.77,11.16-13.17,26.46-31.2,26.46-47.8a23.64,23.64,0,0,0-3.54-12.62c-17.74-28.67-60.09-11.43-85.39-1.13-3.08,1.26-6,2.44-8.56,3.43-17.59,6.72-35.79,13.68-55,18.68-3.6.94-7.84,1.88-12.32,2.88-20.53,4.57-48.65,10.83-58.78,26.55a19.93,19.93,0,0,0-3.1,8.1,18,18,0,0,0-.18,2.54c0,19.22,29.19,38.38,50.51,52.37,3.86,2.53,7.35,4.84,10.39,7h1.71c-3.3-2.33-7.2-4.91-11.56-7.77-21.13-13.87-50.07-32.86-50.07-51.55a17.49,17.49,0,0,1,.17-2.4,18.94,18.94,0,0,1,3-7.71c9.92-15.38,37.81-21.59,58.18-26.12,4.49-1,8.73-1.94,12.35-2.89,19.22-5,37.44-12,55.07-18.72,2.57-1,5.48-2.17,8.57-3.43,25-10.18,66.89-27.23,84.18.74a22.7,22.7,0,0,1,3.4,12.1c0,16.24-15.16,34.11-26.23,47.16-1.76,2.07-3.41,4-4.89,5.84-6.42,7.86-12.49,15.28-18.12,23-3.92,5.36-7.65,10.49-10.29,14.29-3.53,5.1-7,10.25-10.74,15.75-.39.58-.75,1.14-1.14,1.71h1.18c.27-.4.52-.79.8-1.2C1044.58,1386.91,1048.07,1381.75,1051.6,1376.66Z" transform="translate(-215.62 76.83)"/><path d="M819.7,1206.81c-2.42,1.85-5.72,5.33-6.43,14.06-2.68,32.65-6.72,82-44.68,123.69l-.43.47c-13,14.25-29.48,25.82-48.95,34.39-5.37,2.37-8.45,6.22-8.45,10.56a9.39,9.39,0,0,0,.73,3.58h1.17a8.42,8.42,0,0,1-.92-3.58c0-3.94,2.86-7.45,7.87-9.66,19.59-8.63,36.17-20.28,49.28-34.63l.43-.48c38.19-41.92,42.24-91.47,44.92-124.26.68-8.35,3.79-11.62,6.06-13.36,5.44-4.16,13.82-4.69,16.41-4.21,20,4.54,44.89,10.19,72.13,8.07,46.11-3.58,85.73-22,124.05-39.84,30.75-14.31,65.61-30.53,81.5-24.9,28.27,10,68.82,51,84.93,68.14a54.61,54.61,0,0,1,15.44,38.48,66.88,66.88,0,0,1-3.24,20.19c-9.69,30-31.89,72.6-62.38,120h1.16c30.36-47.3,52.48-89.73,62.15-119.74a68,68,0,0,0,3.29-20.49c0-14.89-5.28-28.06-15.7-39.15-16.17-17.2-56.85-58.29-85.33-68.39-16.26-5.77-51.31,10.54-82.24,24.93-38.23,17.79-77.77,36.19-123.71,39.75-27.09,2.11-51.9-3.52-71.88-8C834.18,1201.91,825.39,1202.46,819.7,1206.81Z" transform="translate(-215.62 76.83)"/><path d="M329,1390.66c-8.61-5.27-18.38-11.24-29-9.8-10.45,1.41-14.94,6.19-18.22,12.7h1.1c3.17-6.14,7.44-10.41,17.25-11.73,10.29-1.39,19.9,4.48,28.38,9.66l1.61,1c.63.38,1.33.72,2,1.09h2c-1.19-.63-2.4-1.25-3.52-1.92Z" transform="translate(-215.62 76.83)"/><path d="M1635.31,964.83c-17.7,28.21-26.31,61.08-26.31,100.5,0,36.27,7.13,74.23,14,111,6.71,35.73,13.66,72.68,13.66,107,0,34.83-7.23,63.69-22.09,88.24-2.59,4.29-5.33,8.79-8.18,13.48l-5.19,8.53h2.68l4.46-7.34,8.19-13.48c15.08-24.92,22.42-54.17,22.42-89.43,0-34.56-7-71.61-13.71-107.45-6.88-36.62-14-74.48-14-110.53,0-39,8.49-71.45,26-99.28,11.73-18.68,24.07-27.7,36.66-26.81a28.71,28.71,0,0,1,12.09,3.87v-2.55a30.23,30.23,0,0,0-11.93-3.6C1660.57,936,1647.53,945.38,1635.31,964.83Z" transform="translate(-215.62 76.83)"/><path d="M849.32,1268.32c-4.08,7.44-5.81,17.65-7.49,27.53-1.25,7.31-2.53,14.87-4.75,21a131.69,131.69,0,0,1-5.76,12.73c-4.62,9.37-9.85,20-9.85,29.67a23.84,23.84,0,0,0,.58,5.35c.1.45.22.89.35,1.33,4.13,13.85,21.49,21.24,37.45,27.61h2.65l-.29-.12c-16.27-6.46-34.71-13.8-38.87-27.77-.13-.42-.24-.84-.34-1.27a23.05,23.05,0,0,1-.55-5.13c0-9.45,5.18-20,9.75-29.24a133.8,133.8,0,0,0,5.8-12.82c2.25-6.24,3.54-13.84,4.79-21.19,1.67-9.8,3.39-19.93,7.39-27.22,8.85-16.14,25.05-14.46,42.21-12.68,6.71.7,13.66,1.42,20,.93,54.37-4.22,97.78-24.42,139.77-44,19.06-8.87,40-9.52,58.82-1.83,20.42,8.32,36.92,25.77,45.27,47.86a60.14,60.14,0,0,1,3.92,21.32c0,31.52-24.18,61.13-45.51,87.25-6,7.39-11.74,14.38-16.63,21.08-1.27,1.73-2.41,3.29-3.49,4.78h1.22l3.06-4.2c4.87-6.68,10.57-13.66,16.6-21,21.43-26.25,45.73-56,45.73-87.87a61.22,61.22,0,0,0-4-21.67c-8.44-22.34-25.14-40-45.81-48.42-19.12-7.79-40.29-7.13-59.61,1.85-41.9,19.5-85.24,39.66-139.42,43.86-6.26.49-13.16-.23-19.83-.92C875.77,1253.41,858.48,1251.61,849.32,1268.32Z" transform="translate(-215.62 76.83)"/><path d="M1522.51,1276.09c0-27.49-5-56.71-10.27-87.7-6-34.87-12.1-70.93-12.1-109.34,0-2.77,0-5.51.1-8.15.31-13.33,2.51-24.64,4.45-34.61,1.68-8.63,3.13-16.07,3.13-23.22,0-17-8.94-29.46-30.86-43.09-10.56-6.57-23.19-11.36-35.4-16-21.6-8.2-43.93-16.68-57.16-35.42-4.56-6.45-8.09-18.8-11.82-31.87-6.52-22.84-13.91-48.73-29.33-52.24-19.33-4.39-45.79,35.33-60,56.67-2.65,4-4.93,7.4-6.58,9.65-18.36,25-30.58,45.71-30.58,65.38a45.69,45.69,0,0,0,.7,8c2.82,15.69,13.91,29.94,34.92,44.85,61.7,43.78,106.83,106.74,127.06,177.28a230.45,230.45,0,0,1,9.36,63.34c0,56.38-22.77,98.09-48.13,134h1.2c25.29-35.87,47.91-77.6,47.91-134a231.22,231.22,0,0,0-9.4-63.61c-20.29-70.76-65.55-133.91-127.43-177.81-20.79-14.75-31.75-28.8-34.52-44.22a43.85,43.85,0,0,1-.69-7.8c0-19.4,12.15-39.94,30.39-64.8,1.66-2.26,4-5.7,6.6-9.69,14.09-21.14,40.3-60.49,59-56.26,14.86,3.39,22.17,29,28.61,51.56,3.76,13.15,7.3,25.58,11.95,32.17,13.41,19,35.89,27.51,57.63,35.77,12.16,4.62,24.74,9.4,35.23,15.91,21.58,13.43,30.39,25.67,30.39,42.26,0,7-1.44,14.46-3.11,23-2,10-4.16,21.37-4.47,34.78-.07,2.65-.1,5.4-.1,8.17,0,38.5,6.16,74.6,12.12,109.55,5.27,30.9,10.25,60.09,10.25,87.49,0,16.91-1.92,31.86-5.88,45.72-6.78,23.74-17.13,47.51-29.26,71.75h1.1c12.06-24.13,22.34-47.82,29.1-71.48C1520.57,1308.13,1522.51,1293.09,1522.51,1276.09Z" transform="translate(-215.62 76.83)"/><path d="M831.72,1247.16c-1.68,6.68-3.19,13.21-4.66,19.53-7.92,34.16-14.76,63.66-41.47,93.17l-.54.59c-6.14,6.78-9.12,12.13-9.12,16.37a8.2,8.2,0,0,0,.22,1.92c1.48,6.4,10.42,9.6,22,13.11,1.78.54,3.56,1.13,5.34,1.71h3.22c-2.75-.92-5.51-1.81-8.28-2.65-11.23-3.42-19.93-6.5-21.29-12.4-1-4.24,1.84-9.84,8.68-17.41l.54-.59c26.88-29.69,33.75-59.31,41.7-93.6,1.46-6.31,3-12.84,4.65-19.51,6-24,28.54-19.91,50.33-16,9.52,1.71,19.37,3.48,27.61,2.84,50.23-3.9,91.76-23.21,131.93-41.9,4.8-2.24,9.49-4.63,14-6.94,23.55-12,43.88-22.38,68.91-7.55,18.84,11.15,34.25,27.86,49.15,44,2.69,2.92,5.36,5.82,8,8.66,5.86,6.24,8.83,14.73,8.83,25.24,0,40.25-42.85,102.17-68.66,137.79h1.21c25.92-35.8,68.42-97.46,68.42-137.79,0-10.76-3-19.48-9.08-25.91-2.68-2.84-5.35-5.74-8-8.65-14.95-16.21-30.41-33-49.36-44.2-25.5-15.1-47-4.11-69.87,7.53-4.53,2.31-9.21,4.69-14,6.93-40.08,18.64-81.52,37.92-131.58,41.8-8.11.63-17.89-1.13-27.35-2.83C860.94,1226.44,838,1222.31,831.72,1247.16Z" transform="translate(-215.62 76.83)"/><path d="M361.15,559.53c-12.46-8.26-28-18.54-38.7-15-4.37,1.45-7.63,5.09-9.7,10.83a10.49,10.49,0,0,0-.58,3.55c0,12.63,19.49,32.61,36.7,50.25C359.81,620.39,370.15,631,373,637.36c13.81,30.47,20.39,72.47,26.19,109.52,2.29,14.63,4.45,28.45,6.95,41.2a436.26,436.26,0,0,1,8.58,83.45c0,86.06-31,158.32-92,214.77-6.85,6.33-10.32,15.54-10.32,27.37,0,36.86,35.87,100.07,102.37,144.61,39.77,26.63,121.08,65.31,218.76,25.09,39.15-16.12,57.38-40.08,57.38-75.39,0-26.87-9.87-57.51-21.31-93-14.07-43.66-30-93.16-30-146.4,0-41.46,9.56-79.53,29.22-116.4,60.64-113.7,171.25-117,260.84-107.2,34.84,3.81,62.42-2.38,79.75-17.92,12.24-11,18.71-25.92,18.71-43.24,0-32.81-25.47-73.74-74.14-88.51-45.82-13.9-87.47,19.05-135.69,57.19-54.38,43-116,91.78-198.25,82.32-40.77-4.7-79.9-19.58-104.66-39.83-18.78-15.36-20.45-28.93-22.22-43.3-1.35-11-2.74-22.3-11.19-35.62-6.43-10.14-17.4-13.33-29-16.7-8-2.33-16.28-4.74-23.06-9.63-3.72-2.68-4.53-7.33-5.38-12.26-1.14-6.51-2.42-13.88-10.82-17.79-5.86-2.72-12.75.87-19.41,4.34-5.55,2.89-11.29,5.88-16.07,5C374.39,568.3,368.25,564.24,361.15,559.53Zm34,6.17c6.55-3.41,12.73-6.63,17.74-4.3,7.52,3.49,8.66,10.05,9.76,16.4.88,5.08,1.8,10.34,6.14,13.47,7,5.08,15.48,7.53,23.63,9.9,11.26,3.28,21.9,6.37,27.95,15.91,8.22,13,9.59,24.08,10.91,34.84,1.82,14.76,3.53,28.69,22.9,44.53,25,20.46,64.52,35.51,105.63,40.24,83,9.55,145-39.46,199.64-82.71,47.81-37.82,89.09-70.48,134-56.87,47.8,14.5,72.8,54.6,72.8,86.71,0,16.77-6.25,31.23-18.08,41.84-16.92,15.17-44,21.2-78.29,17.45-90.18-9.88-201.53-6.51-262.7,108.18-19.82,37.15-29.45,75.51-29.45,117.29,0,53.54,16,103.18,30.12,147C679.21,1150.9,689,1181.41,689,1208c0,34.93-17.34,57.64-56.21,73.64-96.88,39.89-177.54,1.52-217-24.91-63.56-42.56-101.54-106.15-101.54-143,0-11.28,3.27-20,9.71-26,61.48-56.83,92.65-129.56,92.65-216.16A438.43,438.43,0,0,0,408,787.72c-2.49-12.72-4.65-26.52-6.94-41.13-5.82-37.17-12.41-79.31-26.34-110-3-6.67-13-16.89-24.53-28.73-17-17.37-36.17-37.07-36.17-48.93a8.75,8.75,0,0,1,.47-2.91c1.89-5.24,4.68-8.41,8.53-9.68,9.84-3.27,24.93,6.73,37.06,14.77,7.28,4.82,13.56,9,17.75,9.77C383.28,571.89,389.32,568.74,395.15,565.7Z" transform="translate(-215.62 76.83)"/><path d="M355.76,356.67c13.32,14.74,25,38.07,38.53,65.08,9.45,18.86,32.65,44.19,51.63,42.68,10.37-.82,18.13-9.16,23.05-24.79a67.47,67.47,0,0,0,2.88-20.56c0-20-6.64-42.53-12.5-62.4-2.68-9.08-5.21-17.66-7-25.48-14.93-65.76-23.94-105.45-23.94-141,0-31.49,7.05-59.1,24.35-95.31C469.42,60,485.05,34.79,497.62,14.49c18.49-29.85,26.67-43.79,26.67-61.44,0-8.23-1.84-18.07-5.6-29.88H517c3.8,11.83,5.68,21.69,5.68,29.88,0,17.21-8.1,31-26.43,60.6C483.64,34,468,59.23,451.3,94.16c-17.41,36.45-24.51,64.27-24.51,96,0,35.75,9,75.51,24,141.38,1.79,7.87,4.33,16.47,7,25.58,5.83,19.77,12.43,42.17,12.43,61.94a66.18,66.18,0,0,1-2.8,20.07c-4.7,14.93-12,22.89-21.62,23.65-18.26,1.46-40.79-23.33-50-41.78-13.58-27.12-25.31-50.54-38.79-65.45-40.65-44.95-93.72-37.71-141.35-24.07v1.7C262.92,319.62,315.62,312.28,355.76,356.67Z" transform="translate(-215.62 76.83)"/><path d="M584.16,1349.27c-2.69,4.2-4.17,11-4.17,19.19a87.41,87.41,0,0,0,4,25.1h2.39a85.55,85.55,0,0,1-4.12-25.1c0-7.63,1.39-14.18,3.8-18,12.27-19.2,33.91-27.68,56.82-36.67,19.78-7.75,40.22-15.76,54.64-31.32l.67,0,0-.67c15.79-17.89,23.46-42,23.46-73.7,0-30.89-7.42-63.41-13.38-89.54-4.07-17.85-7.59-33.26-7.59-43.18,0-5.83,1.2-9.37,3.67-10.83,3.28-2,9.43-.48,18.27,4.36,41.23,22.58,139.52,68.18,180.19,65,32.1-2.49,65.24-17.92,97.3-32.83,46.41-21.6,94.41-43.93,140.26-27.67,52.32,18.55,145.82,100.27,153.75,158.42a81.33,81.33,0,0,1,.7,10.88c0,37.82-22.55,93.16-55.19,150.84h2.45c32.56-57.7,55-113,55-150.84a84.31,84.31,0,0,0-.72-11.19c-8-58.89-102.45-141.54-155.25-160.27-46.74-16.57-95.16,6-142,27.75-31.87,14.83-64.82,30.17-96.51,32.63-36.26,2.81-128.2-37-178.91-64.75-9.87-5.4-16.4-6.78-20.54-4.32-3.22,1.91-4.79,6.09-4.79,12.8,0,10.18,3.55,25.71,7.65,43.69,5.94,26,13.32,58.4,13.32,89,0,31.32-7.58,55-23.18,72.52h0c-14.08,15.4-34.43,23.38-54.11,31.1C618.8,1320.83,596.82,1329.44,584.16,1349.27Z" transform="translate(-215.62 76.83)"/><path d="M435,1330.19c-19.69-8.63-38.28-16.79-54.36-27.13-93.67-60.23-109.45-127.37-126.16-198.45-1.27-5.41-2.48-11.1-3.66-16.6-5-23.68-10.25-48.16-23.2-68.12a65.4,65.4,0,0,0-12-14.34v2.14a67.3,67.3,0,0,1,10.61,13.09c12.78,19.71,18,44,23,67.57,1.17,5.51,2.38,11.2,3.66,16.63,16.79,71.41,32.64,138.86,126.86,199.46,16.2,10.41,34.84,18.59,54.63,27.27,31.36,13.76,66.9,29.36,78.78,50.92,1.46,3.83,2.72,7.45,3.83,10.93h1.72c-1.18-3.68-2.52-7.54-4.07-11.62C502.43,1359.79,466.61,1344.07,435,1330.19Z" transform="translate(-215.62 76.83)"/><path d="M251.07,990.5c17.17,38.52,25.36,73.37,33.28,107.06,15.92,67.69,29.66,126.15,112.88,179.67,14,9,31.54,16.7,50.09,24.84,38.74,17,78.8,34.57,95.34,67.2a227.4,227.4,0,0,1,8,24.29H553a228.64,228.64,0,0,0-8.33-25.34c-16.9-33.34-57.34-51.09-96.46-68.25-18.45-8.1-35.89-15.75-49.76-24.66-82.45-53-96.09-111.06-111.89-178.27-7.95-33.8-16.16-68.75-33.43-107.48-11.23-25.19-24.23-42-37.53-49v2.55C228.06,950.14,240.32,966.4,251.07,990.5Z" transform="translate(-215.62 76.83)"/><path d="M329.23,998.05c19.15-6.06,33.46-32.57,42.5-78.79a481.76,481.76,0,0,0,9-92.48A502.94,502.94,0,0,0,361.41,690c-1.74-6.14-3.63-12.3-5.62-18.31-26-78.2-69.21-123.32-140.17-143.58v2.4c69.8,20.17,112.4,64.79,138,141.9,2,6,3.86,12.11,5.58,18.21a500.35,500.35,0,0,1,19.23,136.14,480.11,480.11,0,0,1-8.94,92c-8.88,45.34-22.66,71.27-40.95,77.06-14,4.43-31.12-2.91-50.85-21.83-20.39-19.56-41-39.34-62.07-57.1v3c20.51,17.4,40.61,36.67,60.49,55.74C296.48,995.23,314.35,1002.76,329.23,998.05Z" transform="translate(-215.62 76.83)"/><path d="M511,816.78a8.81,8.81,0,0,0-1.12,4.27c0,5.81,5.67,11.52,10.67,16.55,2.9,2.92,5.64,5.68,6.72,7.93a19.26,19.26,0,0,1,2.09,8.4c0,5.19-2.48,9.6-5.35,14.7-1,1.83-2.09,3.72-3.09,5.74A32.49,32.49,0,0,0,517.34,889c0,5,1.13,9.55,2.33,14.41a72.37,72.37,0,0,1,2.66,16.4v.78c0,12.42-6.43,23.8-12.64,34.8s-12.59,22.25-12.59,34.56a37.55,37.55,0,0,0,4.36,17.35,61.41,61.41,0,0,0,7.8,11.23c4.17,5.06,7.77,9.44,7.77,16.83a30.65,30.65,0,0,1-.91,7c-4.95,21-24.24,30.21-42.9,39.14-8.75,4.18-17.79,8.51-25,14-14.47,10.94-22.44,25.06-22.44,39.76v.77c.27,14.74,8.39,28.89,22.87,39.85,19.64,14.86,83.65,41.87,115.5,30.69,9.4-3.31,15.36-9.67,17.69-18.9a37.53,37.53,0,0,0,1.22-9.24c0-9.55-4.27-16.68-9.21-25-1.11-1.86-2.26-3.78-3.4-5.81-9.49-16.76-11.45-33.37-13.53-51-.81-6.9-1.65-14-3-21.27-1.48-8.05-4.29-15.29-7-22.28-3.57-9.22-6.94-17.92-6.94-27.49a43,43,0,0,1,4.77-19.31c6.62-13.46,12.74-28.14,12.74-44.35a68.19,68.19,0,0,0-1.94-16.1c-.6-2.49-1.22-4.92-1.82-7.32-2.39-9.37-4.64-18.23-4.64-27.21a49.13,49.13,0,0,1,4.63-20.94l1.33-2.89c5.71-12.34,11.61-25.11,11.61-38.17A40.9,40.9,0,0,0,561.34,829c-4.53-8.19-23.63-19.13-36.93-19.11C518.12,809.88,513.48,812.27,511,816.78Zm48.91,13a39.37,39.37,0,0,1,5.15,19.57c0,12.7-5.82,25.3-11.45,37.49l-1.34,2.89a50.85,50.85,0,0,0-4.78,21.62c0,9.18,2.28,18.14,4.69,27.62.61,2.38,1.23,4.81,1.82,7.29A66.62,66.62,0,0,1,555.9,962c0,15.87-6,30.35-12.58,43.63a44.63,44.63,0,0,0-4.93,20c0,9.88,3.42,18.72,7.05,28.08,2.68,6.92,5.46,14.09,6.91,22,1.32,7.18,2.16,14.29,3,21.17,2.1,17.76,4.07,34.53,13.72,51.57,1.16,2,2.31,4,3.43,5.85,4.82,8.06,9,15,9,24.11a36.27,36.27,0,0,1-1.17,8.84c-2.2,8.67-7.8,14.64-16.65,17.75-31.34,11-94.55-15.74-114-30.45-14.06-10.64-22-24.34-22.22-38.58v-.73c0-14.17,7.73-27.83,21.79-38.46,7.07-5.35,15.64-9.45,24.71-13.79,19-9.09,38.66-18.49,43.79-40.24a32.11,32.11,0,0,0,.95-7.42c0-8-3.77-12.56-8.14-17.87a58.84,58.84,0,0,1-7.6-10.94,35.82,35.82,0,0,1-4.19-16.6c0-11.88,6-22.51,12.38-33.76S524,933.39,524,920.54v-.81c-.14-6.3-1.45-11.61-2.71-16.75-1.17-4.77-2.28-9.27-2.28-14a30.28,30.28,0,0,1,3.41-13.85c1-2,2-3.86,3.05-5.67,2.86-5.08,5.55-9.88,5.55-15.5a20.81,20.81,0,0,0-2.25-9.1c-1.19-2.51-4-5.36-7-8.38-4.78-4.81-10.2-10.26-10.2-15.4a7,7,0,0,1,.92-3.48c2.21-4,6.24-6.06,12-6.07C537.91,811.48,556.09,822.87,559.91,829.77Z" transform="translate(-215.62 76.83)"/><path d="M395.48,606a49,49,0,0,0-.83,10.6c0,9.94,1.48,46.83,20.48,104.36,15.88,48.11,24.63,104.35,24.63,158.39,0,88.94-13.33,148-86.18,224.13-5.16,5.4-7.79,12.64-7.79,21.52,0,33.07,36,83.09,82,113.88,35.91,24,109.24,59,196.9,22.9,37.74-15.54,42.94-35,42.94-53.82,0-23.19-9.35-52.2-20.19-85.84-14.6-45.3-31.15-96.64-31.15-153.56,0-45.38,10.46-87.05,32-127.38,68-127.46,194.62-129.2,284-119.41,27.67,3,49.56-1.27,61.64-12.1,7.26-6.51,10.95-15.22,10.95-25.87,0-24.21-19.78-54.72-57.58-66.19-34.15-10.36-71.36,19.08-114.45,53.17-55,43.55-123.56,97.75-215.38,87.19a238.13,238.13,0,0,1-74.31-20.86c-36.61-17.22-67.69-40-92.36-67.65-16.28-18.26-27.66-36.59-36-50-7.57-12.18-12.14-19.54-15.61-19C397.55,600.74,396.39,602.5,395.48,606Zm18.41,14c8.33,13.41,19.74,31.78,36.07,50.1,24.77,27.78,56,50.62,92.68,67.89a239.41,239.41,0,0,0,74.62,21c92.22,10.6,160.91-43.74,216.11-87.41,42.87-33.91,79.89-63.2,113.54-53,37.35,11.33,56.89,41.4,56.89,65.25,0,10.36-3.58,18.82-10.63,25.15-11.87,10.63-33.49,14.85-60.88,11.85-89.62-9.82-216.67-8.07-284.93,119.92-21.58,40.48-32.08,82.3-32.08,127.84,0,57.08,16.58,108.5,31.21,153.91,10.81,33.51,20.13,62.45,20.13,85.49,0,18.43-5.13,37.59-42.33,52.91-87.24,35.93-160.24,1.13-196-22.81-44.95-30.11-81.53-80.83-81.53-113.06,0-8.62,2.53-15.63,7.52-20.84,35.31-36.89,57.75-71.21,70.63-108,11.09-31.68,15.82-66.61,15.82-116.79,0-54.14-8.77-110.5-24.68-158.7-19-57.39-20.43-94.15-20.43-104a48.14,48.14,0,0,1,.8-10.36c.78-3,1.73-4.62,2.84-4.79C402.1,601,407.05,609,413.89,620Z" transform="translate(-215.62 76.83)"/><path d="M982.24,683.82c0-17.53-17.73-36.77-33.63-43.08-10.54-4.18-28.57-1-48.23,8.52-18.53,9-32.76,20.92-35.41,29.73a14.11,14.11,0,0,0-.61,4,13.11,13.11,0,0,0,.75,4.36c4,11.38,10.94,11.12,26.24,10.56a252.91,252.91,0,0,1,40,1.11c23.76,2.61,41.85-1.11,47.46-6.13C980.57,691.3,982.24,689.08,982.24,683.82Zm-50.74,13.6a255.28,255.28,0,0,0-40.21-1.13c-15.34.57-21.07.79-24.64-9.46a11.74,11.74,0,0,1-.12-7.37c2.53-8.4,16.42-20,34.57-28.73,19.25-9.31,36.78-12.48,46.91-8.47,15.41,6.12,32.59,24.69,32.59,41.56,0,4.62-1.4,6.51-2.91,7.87C972.35,696.47,954.78,700,931.5,697.42Z" transform="translate(-215.62 76.83)"/><path d="M508.72,1079.36a63.48,63.48,0,0,1-4.09,8.29c-.58,1-1.21,2.17-1.93,3.5-7.21,13.46-14.56,24.75-21.23,32.64-3.78,4.47-5.61,8.13-5.61,11.19,0,4.48,3.81,7.1,7.37,9.2,13.47,7.91,23.87,10.69,42.08,13.94,2.23.39,5.35.47,7.58-1.4,2.81-2.36,3.3-7,1.4-13.9-5.73-20.71-8.38-34.67-11.72-52.36-.59-3.09-1.19-6.27-1.83-9.62s-3.06-6-5.85-6.26C513.66,1074.47,510.6,1074.69,508.72,1079.36Zm10.17,1.84c.64,3.34,1.24,6.53,1.83,9.62,3.35,17.72,6,31.72,11.76,52.51a25.81,25.81,0,0,1,1.07,6.67c0,2.46-.63,4.24-1.87,5.28-1.67,1.4-4.21,1.3-6,1-18-3.2-28.23-5.94-41.45-13.71-3.87-2.27-6.45-4.43-6.45-7.57,0-2.6,1.69-5.86,5.16-10,6.77-8,14.18-19.39,21.46-33,.71-1.32,1.33-2.44,1.91-3.47a62.58,62.58,0,0,0,4.19-8.51c1-2.45,2.54-3.77,4.25-3.6C516.64,1076.65,518.39,1078.64,518.89,1081.2Z" transform="translate(-215.62 76.83)"/><path d="M474.29,779.28a103.53,103.53,0,0,0,.78,11.31,1002.91,1002.91,0,0,1,5.53,100.29,498.92,498.92,0,0,1-2.44,52.53c-8.07,75.13-43.9,140.14-75.82,171.24a27.58,27.58,0,0,0-8.85,20.32c0,17.4,15.15,38.85,41.57,58.84,46.27,35,134.84,45.61,169.72,28.26,9.25-4.6,14.14-11,14.14-18.61,0-.64,0-1.26-.09-1.92-1.41-13.74-7-32.8-14.08-56.93-13.25-45.2-31.41-107.09-32.48-174.2-.95-57.35,21.76-122.89,32.62-145.19,3.55-7.28,5.13-12,5.13-15.26,0-6.66-6.32-6.94-16.79-7.42-8.32-.38-19.72-.89-32.74-5-23.67-7.37-41.6-15.74-54.7-21.84-14.54-6.77-23.31-10.87-27.87-8C475.41,769.38,474.29,772.93,474.29,779.28Zm31.08-2.65c13.13,6.12,31.1,14.49,54.82,21.89,13.15,4.1,24.62,4.62,33,5,10.22.47,15.85.72,15.85,6.44,0,3.07-1.59,7.79-5,14.84-10.69,21.93-32.75,85.56-32.75,142.26,0,1.13,0,2.25,0,3.36,1.08,67.25,19.26,129.22,32.53,174.46,7.07,24.09,12.65,43.11,14,56.76.82,8.11-3.74,14.69-13.51,19.55-34.64,17.23-122.67,6.67-168.69-28.16-26.17-19.8-41.18-41-41.18-58.06a26.64,26.64,0,0,1,8.55-19.62c32.05-31.22,68-96.46,76.12-171.84a500.8,500.8,0,0,0,2.44-52.63A1000.11,1000.11,0,0,0,476,790.48a101.41,101.41,0,0,1-.77-11.2c0-5.9,1-9.3,3.18-10.68C482.55,766,491.14,770,505.37,776.63Z" transform="translate(-215.62 76.83)"/><path d="M436.87,706.15a35.24,35.24,0,0,0,2.18,11c15.87,45.76,23.58,98.82,23.58,162.23,0,79-7.24,157.23-94.66,246.14a13.68,13.68,0,0,0-3.78,10h0c0,24.87,47.64,70.82,76.36,84.44,2.61,1.24,5.39,2.59,8.31,4,35.57,17.34,95.09,46.36,167.09,16.71,28.78-11.85,28.78-22.91,28.78-32.67,0-19.6-8.85-47-19.09-78.82-15.11-46.9-32.25-100.06-32.25-160.58,0-51.79,9.52-93.7,30.86-135.89,3.3-6.53,6.91-12.82,10.1-18.37,6.37-11.1,11.4-19.88,11.4-25.53,0-4.4-3.07-6.58-9.4-6.66-1,0-2.62.15-4.87.37-62,6-119.92-18-172.08-71.38-9.11-9.32-15.66-13.27-19.46-11.72C437.93,700.22,436.87,702.56,436.87,706.15Zm21.82,5.66c33.55,34.34,70,56.85,108.22,66.89a176.77,176.77,0,0,0,64.67,4.77c2.21-.21,3.81-.37,4.76-.36,7.56.1,8.43,3.29,8.43,5.68,0,5.39-5.22,14.5-11.28,25.05-3.19,5.56-6.8,11.86-10.12,18.41-21.41,42.34-31,84.38-31,136.33,0,60.68,17.16,113.91,32.3,160.88,10.22,31.7,19,59.08,19,78.52,0,9.46,0,20.16-28.17,31.76-71.59,29.48-130.87.59-166.29-16.68-2.93-1.43-5.7-2.78-8.32-4-28.52-13.52-75.81-59-75.8-83.55a12.75,12.75,0,0,1,3.5-9.29c40.62-41.32,67.22-84.07,81.32-130.71,12.57-41.58,13.62-80.17,13.62-116.12,0-63.52-7.73-116.69-23.64-162.55a34.41,34.41,0,0,1-2.12-10.67c0-2.21.43-5,2.46-5.84S447.15,700,458.69,711.81Z" transform="translate(-215.62 76.83)"/><path d="M1686,530.53v-2.4a329.82,329.82,0,0,0-58.09-10.63c-36.84-3.62-85.1-6.82-131.62.73-33.91,5.5-49,16.54-49,35.79h0c0,12.29,6,26.58,12.86,43.12,4.8,11.49,9.75,23.38,13.35,36.08.34,1.22.67,2.43,1,3.66,9.7,36.18,11.07,77,4.07,120.22-1.88,11.61-5.13,23.37-8.27,34.75-4.59,16.59-9.32,33.74-10.09,51.15-.42,9.45.54,16.17,2.91,20.93,6.92,13.9,24.21,7.14,42.51,0,10.83-4.22,22-8.6,32.06-9.32,53.32-3.82,101.92,26,148.34,65.35v-3c-46.35-39.07-95-68.45-148.5-64.62-10.39.74-21.75,5.18-32.73,9.48-18.06,7.05-33.65,13.14-39.63,1.12-2.17-4.34-3.06-10.91-2.67-19.8.75-17.16,5.45-34.19,10-50.65,3.16-11.44,6.43-23.26,8.33-35,7-43.58,5.66-84.68-4.12-121.17-.33-1.24-.66-2.46-1-3.69-3.63-12.84-8.62-24.79-13.44-36.34-6.8-16.32-12.68-30.41-12.68-42.24,0-17.92,14.53-28.26,47.1-33.55,46.26-7.5,94.33-4.32,131-.7A323.76,323.76,0,0,1,1686,530.53Z" transform="translate(-215.62 76.83)"/><path d="M771.6,501.24c2-2.19,2.94-4.14,2.94-6,0-4.58-5.81-7.78-14.61-12.63-9.11-5-21.6-11.89-34.24-23.79l-3.7-3.49C707.53,441.72,700.93,435.5,697.4,437c-1.62.69-2.33,2.8-2.33,6.82,0,3.43.5,8.47,1.67,16.86a75.08,75.08,0,0,1,.74,10.49c0,28.34-15.9,52-27.5,69.2-6.79,10.1-12.15,18.07-12.15,23.79a7,7,0,0,0,2.84,5.83C683.9,588.11,750.2,524.83,771.6,501.24ZM661.67,568.73a5.43,5.43,0,0,1-2.21-4.54c0-5.22,5.24-13,11.88-22.88,11.72-17.42,27.77-41.27,27.77-70.11a77,77,0,0,0-.75-10.72c-1.16-8.31-1.66-13.28-1.66-16.63,0-3.15.45-4.94,1.34-5.32,2.56-1.11,10.62,6.5,22.83,18l3.7,3.49c12.79,12,25.38,19,34.57,24,8.29,4.57,13.77,7.58,13.77,11.2,0,1.4-.82,3-2.52,4.87C743.81,529.44,682.27,584.77,661.67,568.73Z" transform="translate(-215.62 76.83)"/><path d="M744.35,501.69c0-11.43-18-26.16-26.6-26.24-3.5,0-5.55,2.15-5.62,6-.3,16.85-11,34.66-18.77,47.66-4.62,7.7-8,13.27-8,16.57h0a3.24,3.24,0,0,0,1,2.49,4.84,4.84,0,0,0,3.8.93c15.7-1.21,47.17-31,53.22-43.15A9.35,9.35,0,0,0,744.35,501.69ZM690,546.79c-1.39.1-1.89-.16-2.07-.33s-.25-.22-.25-.81h0c0-2.66,3.54-8.56,7.64-15.4,7.93-13.22,18.79-31.33,19.1-48.79,0-2.59,1.07-3.74,3.31-3.72,7.64.07,24.33,13.76,24.33,23.95a7.11,7.11,0,0,1-.72,3.21C734.83,517.94,704.23,545.69,690,546.79Z" transform="translate(-215.62 76.83)"/><path d="M1040.72,461.26h0c0,2.81,4,5.05,12.9,7.24,33.34,8.2,77.5,35.3,101,77.37,23.76,42.56,29.92,70.94,33.24,86.19,1.64,7.57,2.47,11.37,4.47,12.28A3,3,0,0,0,1195,644c5.36-2.93,34.87-55.68,41-131.53l.26-3.2c.57-6.83,1-12.74,1-18.41,0-19.78-5.53-35.75-37-73-5-5.88-9.58-11.9-14-17.72-13.81-18-25.73-33.58-39.26-32.56-10.4.78-20.71,11.07-32.46,32.39-13,23.6-38.81,38-55.88,47.49C1047.87,453.52,1040.73,457.5,1040.72,461.26Zm74.71-60.79c11.42-20.71,21.78-31.14,31.67-31.88,13-1,24.78,14.38,38.41,32.17,4.47,5.83,9.09,11.86,14.07,17.76,31.27,37,36.77,52.81,36.77,72.35,0,5.63-.48,11.52-1,18.33l-.26,3.2c-6,74.11-35.39,128-40.49,130.75-1,.57-1.55.45-1.85.31-1.55-.71-2.44-4.8-3.91-11.6-3.33-15.29-9.52-43.77-33.34-86.46-23.62-42.32-68-69.59-101.61-77.84-8.17-2-12.15-4.07-12.15-6.29h0c0-3.2,7.71-7.49,17.47-12.93C1076.34,438.77,1102.28,424.32,1115.43,400.47Z" transform="translate(-215.62 76.83)"/><path d="M984.62,467.44c0,2.83,3.41,4.8,10.73,6.18,45,8.48,108.71,26.88,142.7,88.34,10.5,19,18.83,40.44,25.45,65.57,1.34,5.06,5,10.47,8.51,15.71,4.56,6.77,9.28,13.77,9.28,20.24a12.25,12.25,0,0,1-.19,2.2c-.64,3.62-2.74,6.33-4.76,9-2.28,2.94-4.44,5.73-4.44,9.57a12.34,12.34,0,0,0,.94,4.54c1.09,2.75,3.22,4.18,5.27,5.56,2.92,2,5.65,3.78,5.18,9.33s-4.67,8.49-9.12,11.63c-3.11,2.21-6.33,4.48-8.12,7.7a23.79,23.79,0,0,0-2.72,10.36c0,2.62.69,4.48,2.06,5.52s3.15,1.16,5.5.5c7.7-2.14,14.9-18.66,19.66-29.59,1.41-3.23,2.62-6,3.57-7.81,8.62-16.27,15.92-32.51,21.93-46.24,25.34-57.91,40.8-110.7,47.26-161.37a121.11,121.11,0,0,0,1.08-15.12c0-24.95-10.92-44.29-46.72-82.8-8.79-9.45-16.33-19.17-23.63-28.57-16.34-21.06-29.25-37.69-45.49-37.29-12.82.32-26.48,11.45-43,35-26.57,38-66.92,63.17-93.62,79.85C995.49,455.71,984.62,462.5,984.62,467.44Zm121.75-101.3c16.31-23.3,29.72-34.3,42.2-34.61,15.75-.39,28.52,16.07,44.7,36.91,7.31,9.42,14.87,19.16,23.68,28.64,35.6,38.29,46.46,57.48,46.46,82.13a117.33,117.33,0,0,1-1.08,15c-6.44,50.58-21.88,103.28-47.17,161.1-6,13.72-13.3,29.94-21.91,46.18-1,1.83-2.19,4.63-3.6,7.88-4.69,10.76-11.77,27-19,29-2,.57-3.6.45-4.65-.35-1.38-1-1.67-3.15-1.67-4.73a22.86,22.86,0,0,1,2.6-9.88c1.68-3,4.8-5.24,7.82-7.37,4.44-3.14,9-6.39,9.54-12.35.54-6.15-2.6-8.22-5.61-10.24-2-1.35-3.93-2.64-4.9-5.1a11.23,11.23,0,0,1-.87-4.18c0-3.51,2-6.16,4.23-9s4.26-5.51,4.94-9.37a13.22,13.22,0,0,0,.21-2.37c0-6.77-4.8-13.9-9.45-20.79-3.64-5.41-7.08-10.51-8.37-15.4-6.64-25.21-15-46.74-25.54-65.8-34.2-61.83-98.21-80.31-143.38-88.84-6.68-1.26-9.93-3-9.93-5.21,0-4.4,11.27-11.43,26.86-21.18C1039.23,429.54,1079.68,404.26,1106.37,366.14Z" transform="translate(-215.62 76.83)"/><path d="M574.63,588.15c2.55,22.34,17.91,43.4,39.13,53.65,19.37,9.36,52.24,14.42,98.78-14.6,20-12.46,40.15-26.05,59.67-39.19,55.78-37.58,108.48-73.07,161.34-87.72,59.8-16.58,109.13-3.27,155.24,41.89,39.93,39.09,62.83,90.77,62.83,141.78,0,38.33-13.48,72.53-38,96.29-26.91,26.11-66.26,39.16-113.82,37.73-11-.32-22.44-.85-34.52-1.41-42.93-2-91.59-4.21-132.08,2.73-46.55,8-75.31,26.88-87.91,57.81-6.75,16.55-10.17,32.24-10.17,46.64,0,26.18,11.42,48.46,33,64.43,36.75,27.16,99.69,33.67,156.62,16.2,122.14-37.5,195-127.59,273.12-260.81,59.29-101.19,77.6-186.66,88.55-264a116.76,116.76,0,0,0,1.24-16.31c0-32.28-16.44-47.64-37.25-67.09a346.32,346.32,0,0,1-24.69-24.79c-9.71-11-15.62-20.66-20.84-29.14-8.37-13.61-15.59-25.37-34.94-38.31-38.39-25.69-61.94,8.68-86.88,45.06-13.18,19.23-26.81,39.11-42.93,49.75-101.39,66.92-209.55,39.92-277-7.66-19.27-13.61-37.46-33.47-56.72-54.5C683,310.91,658.59,284.31,631.4,269.1c-11.7-6.54-19.65-8.4-24.29-5.68-3.39,2-5,6.39-5,13.44h0c0,12.55,5.2,32.49,11.23,55.58,8.44,32.39,19,72.69,19,108.29,0,18.87-3,35-8.93,48.06s-14.45,24-22.71,34.58c-13.58,17.47-26.41,34-26.41,57.27A68.32,68.32,0,0,0,574.63,588.15Zm49.58-98.94c6.07-13.34,9-29.19,9-48.47,0-35.73-10.52-76.1-19-108.53-6-23-11.19-42.92-11.2-55.34h0c0-6.68,1.49-10.8,4.56-12.6,4.31-2.52,11.94-.66,23.31,5.7,27.06,15.13,51.36,41.67,74.86,67.33,19.3,21.07,37.53,41,56.89,54.64,39.51,27.89,84.57,44.35,130.3,47.6,52.28,3.72,102-9.71,147.76-39.92,16.28-10.75,30-30.71,43.2-50,24.65-36,47.94-70,85.53-44.81,19.16,12.82,26.34,24.5,34.65,38,5.24,8.52,11.17,18.17,20.93,29.28a343.91,343.91,0,0,0,24.76,24.85c20.64,19.29,36.94,34.53,36.94,66.38a114.77,114.77,0,0,1-1.23,16.17c-10.93,77.19-29.22,162.55-88.43,263.59-77.94,133-150.73,223-272.56,260.37-56.64,17.39-119.24,10.94-155.75-16.05-21.35-15.77-32.64-37.78-32.64-63.64,0-14.27,3.4-29.84,10.09-46.27,12.47-30.59,41-49.3,87.17-57.22,40.39-6.92,89-4.68,131.88-2.71,12.07.56,23.48,1.09,34.54,1.42,47.82,1.43,87.42-11.72,114.53-38,24.67-24,38.26-58.39,38.26-97,0-51.27-23-103.2-63.12-142.48-24.5-24-49.78-38.8-77.28-45.29-24.56-5.79-50.37-4.76-78.91,3.15-53,14.7-105.77,50.23-161.63,87.85C752.16,600.33,732,613.91,712,626.37c-46.16,28.78-78.69,23.8-97.84,14.55-20.92-10.11-36.06-30.87-38.57-52.88a66.36,66.36,0,0,1-.43-7.39c0-23,12.73-39.34,26.21-56.67C609.68,513.32,618.26,502.29,624.21,489.21Z" transform="translate(-215.62 76.83)"/><path d="M615.16,609.58c6.22,8.56,15,13.58,25.92,14.91,32.13,3.9,79-24.59,109.36-50.18,37.9-31.93,78.37-63.62,117.5-79.13,1.93-.76,7.38-1.93,14.27-3.41,23.26-5,62.18-13.33,62.18-25.41a6.53,6.53,0,0,0-1-3.38c-3-5-8.84-6.51-17.9-4.53-7.41,1.61-16,5.3-23.51,8.57-8,3.45-14.88,6.43-18.79,6.38-10.09-.13-14.54-4.84-18.85-9.39-3.36-3.56-6.84-7.23-12.87-8.55-7.78-1.7-13.62,1.51-19.27,4.61-5.22,2.87-10.61,5.83-17.57,4.89-12.77-1.73-58.82-42.17-99.46-77.85-33.62-29.53-62.66-55-68.22-54.59a1.36,1.36,0,0,0-1,.47c-2,2.44-3,6.87-3,13.56h0c0,10.55,2.36,25.23,5.09,42.24,3.3,20.62,7.05,44,7.05,64.27,0,15.84-2.26,27.69-6.9,36.24-2.52,4.65-5.53,9.82-8.7,15.29C625.32,529,607.7,559.3,607.7,585,607.7,594.49,610.21,602.77,615.16,609.58Zm33.9-119.8c4.72-8.7,7-20.71,7-36.71,0-20.36-3.76-43.77-7.07-64.43-2.72-17-5.07-31.61-5.07-42.08h0c0-6.45.91-10.68,2.79-12.93,0,0,.08-.1.31-.12,5.14-.41,35.43,26.19,67.5,54.35,40.73,35.76,86.91,76.31,100,78.08,7.28,1,12.82-2.06,18.17-5,5.75-3.15,11.17-6.14,18.59-4.51,5.74,1.25,9,4.65,12.37,8.26,4.45,4.7,9,9.57,19.54,9.7,4.12.05,11.11-3,19.2-6.46,7.5-3.25,16-6.93,23.33-8.52,8.6-1.87,14.11-.53,16.85,4.08a5.63,5.63,0,0,1,.86,2.88c0,11.29-39.94,19.85-61.4,24.45-7.21,1.55-12.42,2.66-14.44,3.46-39.26,15.56-79.8,47.3-117.76,79.29C719.6,599,673,627.38,641.2,623.52,630.51,622.22,622,617.34,616,609c-4.83-6.63-7.27-14.72-7.27-24,0-25.41,17.55-55.61,31.65-79.88C643.52,499.62,646.52,494.44,649.06,489.78Z" transform="translate(-215.62 76.83)"/><path d="M656.16,598.4c26.91,2.91,69.15-25.92,85.38-40.34a834,834,0,0,1,67.67-53.67c15.67-11.38,24.3-17.65,24.3-21.71,0-2.79-3.61-4.31-12.45-5.26-66.52-7.14-102.55-50.16-124.08-75.87-9.42-11.26-15.65-18.7-20.78-19a5.24,5.24,0,0,0-4,1.56c-2.5,2.34-3.66,6.06-3.66,11.7,0,6.34,1.47,14.35,3.17,23.61,2.2,12,4.71,25.67,4.71,39.64,0,19-4.74,34.34-14.49,46.9-13.72,17.66-28.38,43.83-28.38,64.29h0c0,7.38,1.88,13.7,5.59,18.8C643,594.45,648.78,597.6,656.16,598.4ZM634.5,570.25h0c0-20.22,14.56-46.16,28.18-63.69,9.88-12.74,14.69-28.27,14.69-47.5,0-14.06-2.51-27.74-4.73-39.81-1.69-9.23-3.15-17.19-3.15-23.44,0-5.35,1.06-8.84,3.35-11a4.28,4.28,0,0,1,3.29-1.3c4.72.29,11.17,8,20.1,18.66C717.85,428,754,471.22,821,478.39c8,.86,11.57,2.18,11.57,4.29,0,3.56-9,10.09-23.9,20.91-15.81,11.49-39.7,28.84-67.74,53.74-16.13,14.32-58,43-84.62,40.09-7.1-.77-12.61-3.78-16.37-8.95C636.32,583.55,634.5,577.42,634.5,570.25Z" transform="translate(-215.62 76.83)"/><path d="M925,877.59c-51.1-3.37-86.28,11.31-102.16,26.17-7.26,6.8-11.26,14.26-11.27,21h0c0,9.52,7.48,16.67,21.07,20.13,87.48,22.33,179.69-53.67,187.4-63,2.21-2.7,2.5-4.55,1.18-5.76-2.38-2.18-10.18-1.5-24.35-.26C980.14,877.34,954.82,879.55,925,877.59Zm95.12-.24a.72.72,0,0,1,.26.58c0,.45-.28,1.32-1.6,2.93-7.64,9.24-99,84.58-185.74,62.46-12.79-3.26-19.83-9.85-19.83-18.55h0c0-6.29,3.82-13.33,10.75-19.81,15.63-14.63,50.35-29.07,100.93-25.74,29.93,2,55.32-.25,72.13-1.72C1009.38,876.43,1018.29,875.65,1020.14,877.35Z" transform="translate(-215.62 76.83)"/><path d="M1499.64,1276.09c0-25.55-4.83-53.87-9.94-83.85-6.11-35.81-12.43-72.84-12.43-113.19,0-3,0-5.9.1-8.68q.09-3.61.19-7.12c.16-6.1.32-11.86.32-17.41,0-34.76-7.09-56.29-44.45-70.48-23.62-9-50.4-19.13-67.66-43.53-4.89-6.9-9.06-13.8-12.74-19.89-8.53-14.12-15.26-25.27-24.57-25.69-8.55-.38-18.83,8.27-33.35,28-13.92,19-20.69,34.58-20.69,47.72,0,1.18.06,2.37.17,3.53,1.77,19.08,17.54,31.88,37.5,48.09,9.08,7.36,19.36,15.71,29.15,25.5,42.44,42.43,73.39,94.58,89.52,150.8a253.62,253.62,0,0,1,10.24,69.65c0,55.61-20.11,98.49-43.35,134h1.18c23.17-35.49,43.15-78.38,43.15-134a254.44,254.44,0,0,0-10.28-69.92c-16.17-56.38-47.21-108.67-89.77-151.22-9.82-9.83-20.13-18.19-29.22-25.57-19.78-16.06-35.41-28.75-37.15-47.42-.1-1.13-.15-2.28-.15-3.44,0-12.92,6.7-28.34,20.49-47.14,14.3-19.49,24.33-28,32.52-27.65,8.78.4,15.4,11.35,23.77,25.22,3.69,6.1,7.87,13,12.78,19.95,17.43,24.64,44.36,34.86,68.11,43.88,36.84,14,43.82,35.23,43.82,69.56,0,5.54-.16,11.29-.32,17.38q-.11,3.51-.19,7.12c-.07,2.79-.1,5.73-.1,8.71,0,40.44,6.32,77.51,12.44,113.36,5.11,29.93,9.93,58.21,9.93,83.68,0,14.75-1.64,27.65-5,39.44-7.24,25.33-19.1,51.26-32.94,78h1.1c13.77-26.66,25.56-52.5,32.78-77.76C1498,1303.92,1499.64,1290.94,1499.64,1276.09Z" transform="translate(-215.62 76.83)"/><path d="M928,852.3c-49.57-3.79-89.69,6-113,27.56-12.17,11.28-18.88,25.14-18.88,39h0c0,19.79,13.76,35.63,35,40.34,62.2,13.76,118.16-7.53,154.16-27.82,42.3-23.84,72.21-54.35,82-69,3.58-5.36,5.8-9.15,5.8-11.45a2.57,2.57,0,0,0-.85-2c-2.14-1.88-8.19-1.11-20.24.42C1030.7,852.06,991,857.11,928,852.3Zm143.64-2.64a1.57,1.57,0,0,1,.52,1.27c0,2-2.25,5.84-5.63,10.91C1044.39,895,943.59,983.11,831.36,958.27c-20.82-4.6-34.27-20.06-34.27-39.38,0-13.61,6.6-27.21,18.57-38.31,23.08-21.38,62.94-31.08,112.24-27.31,63.14,4.83,102.89-.23,124.25-3C1063.16,848.91,1069.81,848.07,1071.61,849.66Z" transform="translate(-215.62 76.83)"/><path d="M924.76,833.5c-61.71-3.77-110.45,8-137.25,33.25-13.86,13-21.18,28.86-21.18,45.77h0c0,32.34,26.16,59.74,65.11,68.18,57.46,12.45,114,1.74,168.1-31.82,54.79-34,90.23-81.06,106.47-106.08,8.27-12.74,11.72-18.2,9.21-20.3-2.08-1.72-8-.6-19.86,1.64C1069.72,829,1016.36,839.08,924.76,833.5Zm189.83-10.24a1.39,1.39,0,0,1,.47,1.16c0,2.64-3.71,8.36-9.87,17.84-54.13,83.39-154.41,163.29-273.54,137.48-38.49-8.34-64.35-35.36-64.34-67.22,0-16.63,7.22-32.21,20.87-45.06,26.6-25,75.09-36.73,136.52-33,91.72,5.6,145.16-4.51,170.84-9.36C1106.34,823.06,1112.87,821.83,1114.59,823.26Z" transform="translate(-215.62 76.83)"/><path d="M1129.77,457.47c0,9.26,8.92,15.88,22.31,23,23.4,12.39,34.72,38.26,40.8,52.16,3.07,7,4.23,9.67,6.16,9.33,1.61-.28,2.31-2.09,3-11.71,2-28.94-25.64-93.89-46.43-101.38-4.81-1.73-9.18-.45-12.62,3.71-9.24,11.16-13.18,18.61-13.18,24.92Zm25-26.49c19,6.84,45,67.21,45,96.15,0,1,0,2-.09,2.93-.39,5.67-.79,8.16-1.12,9.19a64.22,64.22,0,0,1-3.63-7.58c-6.19-14.15-17.71-40.5-41.83-53.26-15.17-8-21.08-13.91-21.08-21,0-5.73,3.78-12.75,12.65-23.46C1147.56,430.55,1150.86,429.57,1154.8,431Z" transform="translate(-215.62 76.83)"/><path d="M1131,485.9c40.54,22.26,54.69,62.93,62.49,95.87.75,3.16,2.37,3.46,3.27,3.35,6.61-.77,19.25-31.61,19.25-77.65,0-5.2-.16-10.51-.48-15.8-1.28-21-30.62-70.64-52.33-88.46-5.64-4.63-10.34-6.73-14-6.24-9,1.23-13,9.27-17.65,18.57-4.9,9.84-10.45,21-23.4,26.42-7.54,3.16-11.36,7.31-11.36,12.33C1096.79,462.82,1108.28,473.46,1131,485.9Zm-22.17-42.44c13.51-5.66,19.21-17.1,24.23-27.19,4.43-8.89,8.25-16.57,16.41-17.68,3.1-.42,7.49,1.61,12.69,5.88,21.47,17.63,50.48,66.58,51.73,87.3.32,5.26.48,10.53.48,15.7,0,45.25-12.51,75.41-17.8,76-.84.1-1.29-1.28-1.49-2.11-7.88-33.27-22.19-74.35-63.3-96.92C1097.57,465.72,1089.3,451.63,1108.78,443.46Z" transform="translate(-215.62 76.83)"/><path d="M850.74,915.83h0c0,1.73,1.2,3.24,3.56,4.5,11.93,6.36,53.22,6.25,78.36-10.64,3.26-2.19,2.83-5.37-1.28-7.76-10.92-6.34-45.63-9-75.9,8.27C852.34,912,850.74,913.89,850.74,915.83Zm79.49-11.92c1.45.84,2.32,1.75,2.32,2.42s-.73,1.17-1.17,1.46c-24,16.16-64.78,16.5-76,10.52-1.52-.81-2.36-1.69-2.36-2.48,0-1,1.32-2.34,3.6-3.65C885.72,895.58,920,898,930.23,903.91Z" transform="translate(-215.62 76.83)"/><path d="M750.48,1128.37c-3.36,2.33-4.8,8-4.8,19,0,6.89.55,15.11,1.19,24.62.78,11.78,1.67,25.12,1.67,38.93,0,43.69-9.28,73.15-29.29,92.8-14,18.27-37,28.34-57.17,37.23-24.56,10.8-45.78,20.13-45.78,40.73a34.08,34.08,0,0,0,.74,6.87c.33,1.58.76,3.25,1.28,5H620c-.58-1.85-1-3.63-1.39-5.31a33,33,0,0,1-.7-6.54c0-19.53,20.76-28.66,44.8-39.23,20.39-9,43.5-19.14,57.73-37.65,20.27-19.89,29.71-49.72,29.71-93.88,0-13.86-.89-27.24-1.68-39-.63-9.48-1.18-17.67-1.18-24.51,0-10.13,1.3-15.75,4.09-17.69,1.53-1.06,3.6-1.07,6.33,0,55.57,20.79,125.91,38.19,147.58,36.51,37.93-3,73.77-19.62,108.43-35.75,42.39-19.72,82.42-38.35,115.81-26.52,46.4,16.46,127,91.61,132.51,132.31a48,48,0,0,1,.4,6.51c0,31.69-22.69,87.54-60.22,150.84h1.9c37.37-63.22,59.95-119,59.95-150.84a51.31,51.31,0,0,0-.41-6.73c-5.61-41.15-86.82-117-133.58-133.63-34-12.06-74.35,6.71-117,26.58-34.53,16.06-70.23,32.68-107.87,35.6-19,1.47-87.27-14.11-146.88-36.42C755,1126.9,752.48,1127,750.48,1128.37Z" transform="translate(-215.62 76.83)"/><path d="M233.3,1283.31c0-1.87-.2-5-.46-9-.44-6.73-1-15.94-1-25.1,0-22.7,3.73-34.59,11.1-35.35,11.07-1.14,27.53,25.19,38.42,42.6,4.33,6.92,8.07,12.9,10.51,15.68,19,21.69,42.69,41.72,70.4,59.54,18.35,11.79,38.13,20.47,59.07,29.66,15.76,6.92,32.13,17.92,43.44,32.25H466c-11.43-14.76-28.14-26.08-44.25-33.15-20.91-9.17-40.66-17.84-58.94-29.59-27.64-17.76-51.25-37.73-70.19-59.35-2.39-2.73-6.11-8.67-10.42-15.56-11.68-18.67-27.67-44.25-39.35-43.06-8.06.83-12,12.72-12,36.33,0,9.19.59,18.42,1,25.17.26,4,.46,7.12.46,9,0,34.38-5.51,64.94-16.7,92.59v2.65C227.48,1350.18,233.3,1318.76,233.3,1283.31Z" transform="translate(-215.62 76.83)"/><path d="M1592.51,651.89a72.82,72.82,0,0,0,2,15.52c1.34,6,2.61,11.71,3.3,16.87,1.18,8.75,1.67,17.21,2.1,24.74A51.55,51.55,0,0,0,1607,732.6c17.78,30.43,54.16,43.14,69,47.19,3.56,1,6.87,2,10,2.9v-1c-3.1-.93-6.33-1.87-9.79-2.82-14.7-4-50.79-16.63-68.39-46.74a50.63,50.63,0,0,1-6.93-23.2c-.43-7.49-.92-16-2.11-24.76-.7-5.2-2-10.91-3.31-16.95a71.53,71.53,0,0,1-2-15.31c0-7.22,1.85-12.25,5.67-15.38,5.64-4.63,15.75-5.29,31.8-2.08l2.62.53c22.1,4.36,39.11,11.85,52.41,23.65v-1.29c-13.32-11.59-30.28-19-52.22-23.32l-2.62-.53c-16.36-3.27-26.73-2.55-32.61,2.28C1594.49,639.08,1592.51,644.36,1592.51,651.89Z" transform="translate(-215.62 76.83)"/><path d="M1477.09,1276.09c0-23.64-4.67-51-9.62-80.06-6.27-36.73-12.74-74.72-12.75-117q0-4.63.11-9.21l.19-7.2c.16-5.93.31-11.54.31-16.8,0-45.78-25.16-48-51.8-50.45-14.61-1.31-29.72-2.67-42.56-10.72-4.58-2.88-10.39-10.6-16.53-18.78-13.08-17.41-27.9-37.14-41.78-27.67-6,4.07-9,9-9,14.58a21.78,21.78,0,0,0,2.71,9.88c8,15.44,31.56,32,50.51,45.23,10.75,7.53,20,14,22.17,17.58,2.22,3.73,2.53,7.9,2.53,11.48,0,1.38,0,2.78-.1,4.18s-.1,2.86-.1,4.29c0,5.38.64,11.07,5.31,16.2,5.63,6.19,12.93,7,20,7.72,6.35.68,12.34,1.32,17.38,5.53,15.23,12.74,25.87,57.43,32.91,87,2.07,8.7,3.86,16.22,5.47,21.83a275.67,275.67,0,0,1,11.12,75.86c0,54.64-17.91,98.32-39.33,134h1.92c21.31-35.68,39-79.37,39-134a277.47,277.47,0,0,0-11.18-76.32c-1.6-5.56-3.39-13.07-5.46-21.75-7.51-31.56-17.8-74.79-33.44-87.88-5.42-4.54-11.95-5.23-18.25-5.9-7.07-.76-13.74-1.47-18.95-7.2-4.3-4.72-4.89-10-4.89-15.1,0-1.41,0-2.82.1-4.23s.1-2.84.1-4.24c0-3.81-.33-8.25-2.76-12.31-2.3-3.86-11.28-10.14-22.64-18.09-17.81-12.47-42.21-29.55-50-44.63-4.74-9.2-2.89-16.48,5.75-22.37,12.59-8.59,26.92,10.48,39.55,27.3,6.51,8.67,12.13,16.15,17,19.18,13.17,8.26,28.48,9.64,43.28,11,27,2.43,50.32,4.53,50.32,48.82,0,5.24-.15,10.84-.31,16.76l-.19,7.19c-.08,3.07-.11,6.16-.11,9.26,0,42.4,6.49,80.45,12.77,117.27,4.94,28.94,9.6,56.27,9.6,79.77,0,12.56-1.34,23.38-4.11,33.07-7.63,26.71-21.18,54.9-36.82,84.4h1.85c15.51-29.3,28.94-57.33,36.54-84C1475.73,1299.77,1477.09,1288.81,1477.09,1276.09Z" transform="translate(-215.62 76.83)"/><path d="M1627,658.19c-4.88,2.52-7.35,7.93-7.35,16.11a52.13,52.13,0,0,0,.51,7c1.29,9.58,1.8,18.52,2.26,26.46a31.29,31.29,0,0,0,1.1,6.68,28.62,28.62,0,0,0,2.92,6.81c10.32,17.67,40.74,38.56,59.56,39.25v-1.63c-18.07-.73-48.25-21.5-58.15-38.44a27.19,27.19,0,0,1-2.76-6.43,29.22,29.22,0,0,1-1-6.39c-.46-7.92-1-16.89-2.28-26.53-1.52-11.29.51-18.59,6-21.4,7.4-3.81,21.66.72,37.23,11.82,8.46,6,15.32,14.2,21,24.95V693c-5.53-9.69-12.11-17.18-20.07-22.87C1649.62,658.51,1635.06,654,1627,658.19Z" transform="translate(-215.62 76.83)"/><path d="M793,1177.71c-8.74,6.08-9.72,18.91-11.08,36.68-.14,1.93-.3,3.91-.46,5.95-.46,5.62-.66,11.5-.88,17.72-1,28.89-2.11,61.63-29,91.2l-.32.35c-14.36,16.4-39.65,26.16-62,34.77-22.48,8.66-41.89,16.15-41.89,28.06a10.61,10.61,0,0,0,.11,1.12h1a8.89,8.89,0,0,1-.12-1.12c0-11.23,19.12-18.61,41.26-27.15,22.42-8.65,47.83-18.45,62.34-35l.31-.35c27.17-29.82,28.3-62.76,29.29-91.81.22-6.22.42-12.09.87-17.68.17-2,.32-4,.47-6,1.34-17.49,2.31-30.13,10.66-35.94,7.92-5.51,22.73-4.73,48,2.53,23.42,6.71,44.82,9.2,65.42,7.59,42-3.25,79.71-20.8,116.21-37.78,38.08-17.72,74.06-34.46,98.76-25.71,41.13,14.59,113.73,85,117.7,114.11a26,26,0,0,1,.19,3.46c0,24.34-20.26,79.42-64,150.84h1.15c43.62-71.35,63.83-126.43,63.83-150.84a27.59,27.59,0,0,0-.2-3.59c-4-29.37-77-100.24-118.34-114.9-25.08-8.89-61.23,7.93-99.53,25.75-36.39,16.93-74,34.44-115.84,37.69-20.49,1.59-41.78-.88-65.08-7.57C816,1172.66,801.33,1172,793,1177.71Z" transform="translate(-215.62 76.83)"/><path d="M497.56,581.92C503.1,630.55,560.91,688.49,605.09,704c76.7,27,138.45-21,198.17-67.33,57.65-44.75,112.09-87,178.38-66.46,57.75,17.9,88.91,75.74,88.91,121.06,0,24.43-8.66,45.56-24.4,59.51-18.69,16.55-47.07,23.06-82.1,18.81-120.35-14.61-252-19-290.8,115.22A163.13,163.13,0,0,0,666.54,930c0,56.49,32.37,92.54,59.51,112.84,52.05,38.92,129.91,52.44,193.74,33.63,54.12-16,106.61-47.34,160.46-96,80-72.25,148.87-170.66,210.41-300.83l2.67-5.63c25.9-54.76,52.69-111.39,67.46-171,.87-3.54,1.91-7.45,3-11.62,4.89-18.42,11-41.35,11-61,0-7.88-1-14.7-3-20.27-3-8.49-8.85-13.27-14.47-17.89-4.19-3.45-8.52-7-11.63-12.12-2-3.31-4.5-9.76-7.14-16.58-4.26-11-8.66-22.43-12.9-26-8.16-7-13.07-5-17.83-3.2-3.41,1.33-6.64,2.59-11.43,1L1292.6,334c-29.12-9.9-29.12-9.9-35.72-32.72-1.27-4.4-2.86-9.89-4.93-16.38-6-18.81-15.2-26.52-24.11-34-6.85-5.73-13.33-11.15-18.57-21.35,0-.28,0-.58,0-.91,0-11.77-5.87-101-27.8-107.82-5.91-1.85-12.33,2.16-19.08,11.92C1154,145,1153,154.25,1153,160.15c0,2.88.25,5.48.49,8,.21,2.15.4,4.19.4,6.11,0,7.18-2,14.45-26.57,24.4-6,2.45-11,4.33-15.09,5.9-20.18,7.71-20.45,8-28.82,27.56-2.07,4.86-4.65,10.9-8.2,18.59-11.63,25.22-24.84,30.39-41.57,36.93-8.84,3.46-18.85,7.38-30.11,14.8-12.06,7.94-21.76,17.26-31.15,26.27-16.63,16-32.34,31.07-58.58,35.88-45.44,8.32-88.84-16.35-129-44.25-19.46-13.52-42.11-41.33-66.09-70.76-40.72-50-86.88-106.64-129.63-106.84-24.4-.12-43.13,6.15-55.67,18.63-13.65,13.59-20.29,34.25-20.29,63.15,0,41.91,14.13,93.43,26.6,138.88,9.82,35.78,18.29,66.68,18.29,86.44a40,40,0,0,1-1.35,11.25c-5.66,19.05-17.75,34.15-29.44,48.77-15.51,19.38-30.16,37.7-30.16,63.89A71,71,0,0,0,497.56,581.92Zm61.32-120.18a41.85,41.85,0,0,0,1.44-11.9c0-20.07-8.51-51.11-18.37-87-12.43-45.31-26.52-96.67-26.52-138.27,0-28.26,6.41-48.39,19.62-61.53,12.08-12,30.27-18.08,54-18,41.67.2,87.47,56.41,127.87,106,24.08,29.57,46.83,57.49,66.55,71.2C824,350.4,867.93,375.31,914.2,366.84c26.91-4.93,42.86-20.25,59.75-36.48,9.31-8.94,18.93-18.19,30.81-26,11.06-7.29,21-11.16,29.69-14.58,17.21-6.73,30.8-12,42.82-38.1,3.56-7.72,6.15-13.78,8.23-18.65,8.06-18.88,8.06-18.88,27.53-26.32,4.11-1.57,9.07-3.47,15.13-5.92,23.42-9.5,28-16.92,28-26.52,0-2-.2-4.12-.41-6.33-.24-2.46-.49-5-.49-7.78,0-6.06,1-14.51,9-26.08,6.11-8.84,11.67-12.55,16.52-11,19.06,5.95,26.2,89.11,26.2,105.64a6.65,6.65,0,0,1,0,.8l1.06.26-1,.5c5.49,10.87,12.52,16.76,19.33,22.45,9.06,7.58,17.61,14.74,23.4,32.91,2.06,6.47,3.64,11.93,4.91,16.33,6.87,23.74,7.22,24.06,37.18,34.25l3.79,1.28c5.58,1.91,9.52.37,13-1,4.51-1.75,8.4-3.27,15.52,2.81,3.79,3.23,8.29,14.87,12.25,25.13,2.67,6.92,5.2,13.45,7.32,16.94,3.3,5.43,7.79,9.12,12.13,12.69,5.63,4.63,10.94,9,13.77,16.9a58.36,58.36,0,0,1,2.88,19.5c0,19.36-6,42.13-10.91,60.42-1.11,4.19-2.15,8.11-3,11.66-14.72,59.4-41.45,115.92-67.31,170.58l-2.66,5.64c-61.41,129.89-130.06,228.06-209.88,300.1-53.59,48.38-105.79,79.6-159.58,95.45C856,1092.9,778.92,1079.53,727.42,1041c-26.73-20-58.59-55.47-58.59-111a160.35,160.35,0,0,1,6.62-44.53C713.75,753,844.36,757.4,963.78,771.89c35.69,4.33,64.7-2.37,83.89-19.37,16.23-14.38,25.17-36.12,25.17-61.22,0-46.14-31.73-105-90.53-123.25-67.42-20.9-124.88,23.7-180.45,66.84-59.24,46-120.49,93.54-196,67-43.56-15.32-100.56-72.36-106-120.21a71.16,71.16,0,0,1-.46-7.91c0-25.39,14.41-43.4,29.66-62.46C540.85,496.5,553.09,481.22,558.88,461.74Z" transform="translate(-215.62 76.83)"/><path d="M1567.06,638.17c0,11.12,2.72,23.38,5.13,34.2,1.23,5.54,2.39,10.78,3,15,1.07,7.9,1.51,15.58,1.94,23,.89,15.45,1.73,30,8.32,41.64,5.31,9.34,14.06,16.15,26.75,20.81,22.81,8.4,48.44,18.74,73.85,33.44V805.1c-25.31-14.58-50.8-24.87-73.51-33.22-12.47-4.59-21-11.26-26.24-20.38-6.48-11.39-7.31-25.88-8.19-41.22-.43-7.44-.87-15.13-2-23.07-.56-4.23-1.73-9.49-3-15.05-2.39-10.77-5.1-23-5.1-34,0-10.8,2.63-18.46,8-23.4,13.17-12,43.24-6,59.39-2.76l2.56.51c18.62,3.67,34.47,9.57,48,17.89v-1.15c-13.49-8.21-29.28-14-47.79-17.7l-2.55-.51c-16.33-3.27-46.71-9.35-60.25,3C1569.79,619.19,1567.06,627.08,1567.06,638.17Z" transform="translate(-215.62 76.83)"/><path d="M1686,891.12v-2.25a133,133,0,0,0-11.87-10.18c-49-36-94.21-52-138.24-48.86-17.14,1.23-28.47-.87-34.66-6.42-4-3.54-5.86-8.59-5.86-15.43,0-9.51,3.62-21.22,7.46-33.63,3.48-11.26,7.08-22.9,8.28-33.89a231.45,231.45,0,0,0,1.34-25.31c0-27.69-4.41-54-9.07-81.85q-1.19-7-2.34-14.1l-.06-.36c-1.59-9.77-3.39-20.85-3.39-31.63,0-20.39,6.76-33.44,20.67-39.9,29.06-13.48,64-9.71,94.9-6.39,4.16.45,8.27.9,12.32,1.3,22.56,2.22,42.61,6.11,60.52,11.86v-1.73c-17.89-5.69-37.89-9.55-60.36-11.76-4-.4-8.15-.84-12.31-1.29-31.07-3.35-66.29-7.15-95.76,6.53C1503,552.58,1496,566.12,1496,587.21c0,10.92,1.82,22.06,3.42,31.89l.06.36c.76,4.73,1.55,9.43,2.34,14.11,4.65,27.78,9,54,9,81.58a230.65,230.65,0,0,1-1.33,25.13c-1.19,10.84-4.76,22.41-8.22,33.59-3.88,12.53-7.54,24.36-7.54,34.11,0,7.33,2.1,12.78,6.41,16.64,6.53,5.87,18.27,8.1,35.87,6.84,43.63-3.12,88.49,12.76,137.15,48.55A140.71,140.71,0,0,1,1686,891.12Z" transform="translate(-215.62 76.83)"/><path d="M1438.31,880.49c-7.82-11.08-11.62-26.25-11.62-46.37,0-23.64,5.29-50.07,10-73.4,2.75-13.75,5.35-26.74,6.48-37.34a354.61,354.61,0,0,0,1.85-36.32c0-31.84-4.32-72.66-24.87-86.38-8.93-6-20.16-6.21-33.37-.72-6.2,2.57-9.57,9.23-12.83,15.67-2.58,5.1-5.24,10.37-9.22,13.29-4.71,3.46-11.32,5.51-17.71,7.49-8.5,2.63-17.3,5.35-22.49,11.54C1318,655.61,1315,664,1315,674.43c0,7.22,1.46,14.61,2.87,21.74s2.84,14.35,2.84,21.4a38.33,38.33,0,0,1-4.1,18c-6.69,13-15.7,18.45-24.42,23.74-11.36,6.89-22.09,13.39-27.11,34.84-10.5,44.87-21.48,57.17-48,86.88-3.42,3.83-7.09,8-11,12.46-9.39,10.69-20.11,18.59-30.47,26.23-9.24,6.81-18.8,13.86-27.53,22.92-10.74,11.16-15.51,21.66-20.13,31.82-6.16,13.54-12,26.33-31.9,37.93l-3.12,1.82c-25.24,14.59-48.6,29.35-48.6,38.41a4.91,4.91,0,0,0,1.7,3.75c3.58,3.27,13.09,4.15,29.08,2.7,9.37-.85,17.74-7.62,25.84-14.16,8.73-7.07,17-13.74,26.1-13.34,10.92.48,16.3,7.09,22,14.08,4.17,5.13,8.48,10.42,15.15,13.52,16,7.45,30.39,9.26,44.28,11,19.33,2.43,37.58,4.72,58.23,22,37,31,64.87,74.38,78.61,122.28,4.57,16,6.8,30.71,6.8,45.13,0,48.94-26.62,84.05-54.8,121.22q-4.78,6.32-9.6,12.75h2.85c2.86-3.82,5.73-7.61,8.57-11.37,28.42-37.49,55.26-72.89,55.26-122.6,0-14.63-2.25-29.6-6.88-45.77-13.86-48.32-42-92.15-79.34-123.4-21.16-17.73-39.75-20.06-59.42-22.53-13.71-1.72-27.89-3.5-43.59-10.8-6.2-2.88-10.34-8-14.34-12.89-5.76-7.08-11.72-14.4-23.68-14.92-10-.44-19,6.82-27.63,13.83-7.83,6.34-15.93,12.89-24.61,13.67-18.81,1.71-25.24-.21-27.33-2.11a2.64,2.64,0,0,1-.95-2.06c0-9,33.25-28.22,47.45-36.43l3.13-1.82c20.55-12,26.52-25.08,32.83-39,4.54-10,9.23-20.31,19.7-31.18,8.59-8.93,18.07-15.92,27.24-22.67,10.46-7.71,21.27-15.68,30.83-26.57,4-4.49,7.61-8.61,11-12.43,26.78-30,37.86-42.45,48.49-87.89,4.8-20.51,15.14-26.78,26.08-33.41,9-5.45,18.28-11.08,25.27-24.64a40.55,40.55,0,0,0,4.35-19c0-7.27-1.47-14.68-2.88-21.84s-2.83-14.3-2.83-21.3c0-9.83,2.83-17.78,8.91-25,4.76-5.67,13.23-8.29,21.42-10.83,6.57-2,13.36-4.13,18.39-7.83,4.41-3.24,7.2-8.76,9.9-14.1,3.21-6.35,6.25-12.34,11.67-14.59,12.46-5.17,23-5,31.22.51,19.71,13.16,23.85,53.2,23.85,84.48a354.78,354.78,0,0,1-1.83,36.08c-1.12,10.5-3.71,23.43-6.45,37.13-4.7,23.43-10,50-10,73.85,0,20.61,3.94,36.21,12,47.69,20.22,28.59,50.71,20.39,80.2,12.46,31.5-8.48,64.07-17.23,85.32,18,2.55,4.22,3.84,9.86,3.84,16.77,0,21.06-11.51,50.73-22.65,79.43-9.69,25-18.85,48.59-19.21,63.94-.06,2.22-.08,4.42-.08,6.63v0c0,33,5.69,66.37,11.19,98.64s11.18,65.51,11.18,98.4c0,23-2.74,43.77-8.37,63.49a414.83,414.83,0,0,1-19.94,54h2.5a417,417,0,0,0,19.64-53.36c5.69-19.92,8.45-40.89,8.45-64.11,0-33.08-5.69-66.49-11.2-98.79s-11.16-65.44-11.16-98.25c-.08-2.23,0-4.39.07-6.59.35-15,9.44-38.38,19.07-63.18,11.21-28.89,22.8-58.76,22.8-80.25,0-7.43-1.36-13.31-4.17-17.95-22.14-36.7-55.56-27.71-87.87-19C1486,900.14,1457.61,907.78,1438.31,880.49Z" transform="translate(-215.62 76.83)"/><path d="M1521.77,602.59c0,7,.86,15.1,2.87,27.12,5.11,30.49,7.5,60.75,7.5,95.25,0,8.66-.15,17.56-.45,27.2-.1,3.36-.15,6.28-.15,8.94,0,16,1.94,25.28,6.68,32.15,5.68,8.22,15.64,13.1,33.29,16.32C1612,817,1648.44,833.2,1686,860.67v-1.21c-37.48-27.3-73.86-43.48-114.32-50.85-17.37-3.17-27.13-7.93-32.65-15.91-4.63-6.7-6.51-15.85-6.51-31.6,0-2.65,0-5.56.15-8.9.3-9.66.45-18.57.45-27.24,0-34.55-2.39-64.87-7.51-95.41-2-12-2.86-20-2.86-27,0-19.7,6.6-33.83,38.81-38.75,30.79-4.7,63.39-.53,85.32,3.8A213.88,213.88,0,0,1,1686,579.15v-1a213.23,213.23,0,0,0-38.93-11.44c-22-4.35-54.73-8.53-85.66-3.81C1533.25,567.17,1521.77,578.68,1521.77,602.59Z" transform="translate(-215.62 76.83)"/><path d="M1546.32,616.06h0a59.41,59.41,0,0,0,.88,9.87,588.66,588.66,0,0,1,7.62,82.61c.17,6.73,0,13.19-.16,19.37-.11,4.14-.21,8.06-.21,11.88,0,11.75.91,23.91,7.5,33.31,5.46,7.79,14.52,13.34,27.71,16.95,35.77,9.82,67.44,23.93,96.34,42.86v-1.16c-28.85-18.81-60.43-32.86-96.09-42.64-13-3.56-21.83-9-27.16-16.57-6.43-9.18-7.32-21.17-7.32-32.75,0-3.81.1-7.72.21-11.86.16-6.18.33-12.66.16-19.41a590.81,590.81,0,0,0-7.63-82.76c-2.51-14.93.49-26,8.91-33,19.19-15.77,62.24-7.28,85.37-2.71A177.12,177.12,0,0,1,1686,604.33v-1.11a178.94,178.94,0,0,0-43.36-14.1c-23.29-4.6-66.63-13.15-86.18,2.92C1549.73,597.57,1546.32,605.65,1546.32,616.06Z" transform="translate(-215.62 76.83)"/></g></g></svg>