<?xml version="1.0" encoding="utf-8"?>
<!-- Generator: Adobe Illustrator 24.2.1, SVG Export Plug-In . SVG Version: 6.00 Build 0)  -->
<svg version="1.1" id="Ebene_1" xmlns="http://www.w3.org/2000/svg" xmlns:xlink="http://www.w3.org/1999/xlink" x="0px" y="0px"
	 viewBox="0 0 200 100" style="enable-background:new 0 0 200 100;" xml:space="preserve">
<style type="text/css">
	.st0{fill:#9AABB8;}
</style>
<g>
	<g>
		<g>
			<g>
				<g>
					<path class="st0" d="M34.4,65.5H17.5c-0.5,0-0.9-0.2-1.1-0.6L4.1,43.5c-0.2-0.4-0.2-0.9,0-1.3l12.3-21.3
						c0.4-0.6,1.1-0.8,1.8-0.5c0.6,0.4,0.8,1.2,0.5,1.8l-12,20.7l11.6,20h16.2c0.7,0,1.3,0.6,1.3,1.3S35.2,65.5,34.4,65.5z"/>
				</g>
			</g>
			<g>
				<g>
					<path class="st0" d="M21.7,58.9c-0.4,0-0.9-0.2-1.1-0.6l-8.5-14.7c-0.2-0.4-0.2-0.9,0-1.3L24.5,21c0.2-0.4,0.7-0.6,1.1-0.6
						h24.6c0.7,0,1.3,0.6,1.3,1.3c0,0.7-0.6,1.3-1.3,1.3H26.3L14.7,43l8.1,14c0.4,0.6,0.1,1.4-0.5,1.8C22.2,58.9,22,58.9,21.7,58.9z
						"/>
				</g>
			</g>
			<g>
				<g>
					<path class="st0" d="M66.5,51.3c-0.4,0-0.9-0.2-1.1-0.6L53.5,30H30.3l-8.1,14c-0.4,0.6-1.2,0.8-1.8,0.5
						c-0.6-0.4-0.8-1.2-0.5-1.8L28.4,28c0.2-0.4,0.7-0.6,1.1-0.6h24.6c0.5,0,0.9,0.2,1.1,0.6l12.3,21.3c0.4,0.6,0.1,1.4-0.5,1.8
						C67,51.2,66.8,51.3,66.5,51.3z"/>
				</g>
			</g>
		</g>
		<g>
			<g>
				<g>
					<path class="st0" d="M50.3,79.8c-0.2,0-0.4-0.1-0.6-0.2c-0.6-0.4-0.8-1.2-0.5-1.8l11.9-20.7l-11.6-20H33.4
						c-0.7,0-1.3-0.6-1.3-1.3s0.6-1.3,1.3-1.3h16.9c0.5,0,0.9,0.2,1.1,0.6l12.3,21.3c0.2,0.4,0.2,0.9,0,1.3L51.4,79.1
						C51.2,79.5,50.8,79.8,50.3,79.8z"/>
				</g>
			</g>
			<g>
				<g>
					<path class="st0" d="M42.2,79.7H17.6c-0.7,0-1.3-0.6-1.3-1.3s0.6-1.3,1.3-1.3h23.9l11.6-20L45,43c-0.4-0.6-0.1-1.4,0.5-1.8
						c0.6-0.4,1.4-0.1,1.8,0.5l8.5,14.7c0.2,0.4,0.2,0.9,0,1.3L43.4,79C43.1,79.4,42.7,79.7,42.2,79.7z"/>
				</g>
			</g>
			<g>
				<g>
					<path class="st0" d="M38.3,72.6H13.6c-0.5,0-0.9-0.2-1.1-0.6L0.2,50.7C-0.2,50,0,49.2,0.6,48.9c0.6-0.4,1.4-0.1,1.8,0.5
						l11.9,20.7h23.1l8.1-14c0.4-0.6,1.1-0.8,1.8-0.5c0.6,0.4,0.8,1.2,0.5,1.8L39.4,72C39.1,72.4,38.7,72.6,38.3,72.6z"/>
				</g>
			</g>
		</g>
	</g>
	<g>
		<path class="st0" d="M111.1,45.6h-3.2c-0.8-2.4-2.2-4.4-4.1-6c-2-1.6-4.3-2.4-7.1-2.4c-3.6,0-6.6,1.3-8.9,3.8s-3.5,5.8-3.5,9.9
			s1.2,7.3,3.5,9.9c2.3,2.6,5.2,3.8,8.9,3.8c2.7,0,5.1-0.8,7.1-2.4c1.9-1.6,3.3-3.6,4.1-6h2.7h4.1c-1,4-3.1,7.3-6.1,9.9
			c-3,2.6-7,4-11.8,4c-5.9,0-10.6-1.9-14.1-5.6c-3.6-3.7-5.4-8.3-5.4-13.7s1.8-10,5.4-13.8c3.5-3.7,8.2-5.6,14.1-5.6
			c4.8,0,8.8,1.3,11.8,4c3.1,2.6,5.1,6,6.1,9.9h-3.6V45.6z"/>
		<path class="st0" d="M126.7,28v4.4v6v2.2v5.3v5.6v10.1v7.9h-6.6v-8V51v-5.7v-5.4v-8.1V28H126.7z"/>
		<path class="st0" d="M137,42.9c2.8-3,6.6-4.4,11.3-4.4c4.6,0,8.3,1.5,11.2,4.4c2.9,3,4.3,6.7,4.3,11.3v0.9c0,0.3-0.1,0.6-0.1,0.9
			h-2.6H160h-3h-17.4c0.3,2.3,1.1,4.2,2.4,5.7c1.6,1.9,3.9,2.8,6.7,2.8c1.7,0,3.1-0.4,4.2-1.1c1.1-0.7,2.1-1.7,2.8-2.8h0.9h0.4h2.4
			h3.8c-1.1,2.8-2.9,5.1-5.4,6.8s-5.6,2.5-9.1,2.5c-4.9,0-8.8-1.5-11.6-4.4c-2.9-3-4.3-6.7-4.3-11.3C132.8,49.6,134.2,45.9,137,42.9
			z M156.9,51.7c-0.3-2-1-3.6-2.1-5c-1.5-1.9-3.6-2.8-6.4-2.8c-2.8,0-4.9,0.9-6.5,2.8c-1.1,1.3-1.8,3-2.1,5H156.9z"/>
		<path class="st0" d="M172.2,42.9c2.9-3,6.8-4.4,11.8-4.4s8.9,1.5,11.8,4.4c2.9,3,4.3,6.7,4.3,11.3s-1.4,8.4-4.3,11.3
			c-2.8,3-6.7,4.4-11.7,4.4H184c-5,0-8.9-1.5-11.8-4.4c-2.9-3-4.3-6.7-4.3-11.3S169.3,45.9,172.2,42.9z M190.7,46.8
			c-1.7-1.9-3.9-2.9-6.7-2.9s-5,1-6.7,2.9s-2.6,4.4-2.6,7.4s0.9,5.5,2.6,7.5c1.7,1.9,4,2.8,6.7,2.8c2.8,0,5.1-0.9,6.7-2.8
			c1.7-1.9,2.6-4.4,2.6-7.5C193.3,51.2,192.4,48.7,190.7,46.8z"/>
	</g>
</g>
</svg>
