<?xml version="1.0" encoding="utf-8"?>
<!-- Generator: Adobe Illustrator 24.2.1, SVG Export Plug-In . SVG Version: 6.00 Build 0)  -->
<svg version="1.1" id="Ebene_1" xmlns="http://www.w3.org/2000/svg" xmlns:xlink="http://www.w3.org/1999/xlink" x="0px" y="0px"
	 viewBox="0 0 111.8 20.2" style="enable-background:new 0 0 111.8 20.2;" xml:space="preserve">
<style type="text/css">
	.st0{fill:#9AABB8;}
</style>
<g>
	<path class="st0" d="M10.6,5.4c0.8,0.8,1.3,2.2,1.3,4v6.1H8.8V9.6c0-1.9-0.8-2.9-2.3-2.9C5.7,6.7,5.1,7,4.7,7.5C4.3,8,4,8.8,4,9.8
		v5.7H0.9V4.3h2.7l0.3,1.4c0.4-0.5,0.9-0.8,1.4-1.1c0.6-0.3,1.2-0.4,2-0.4C8.6,4.2,9.7,4.6,10.6,5.4z"/>
	<g>
		<path class="st0" d="M16.1,5.5C15.8,5.8,15.3,6,14.8,6s-0.9-0.2-1.3-0.5c-0.1-0.1-0.2-0.3-0.3-0.4v10.3h3.1V5.1
			C16.3,5.3,16.2,5.4,16.1,5.5z"/>
		<path class="st0" d="M16.1,1.9c-0.3-0.3-0.8-0.5-1.3-0.5s-0.9,0.2-1.3,0.5C13.2,2.2,13,2.6,13,3.1c0,0.3,0.1,0.6,0.2,0.8
			c0.1,0.1,0.2,0.3,0.3,0.4c0.3,0.3,0.8,0.5,1.3,0.5s0.9-0.2,1.3-0.5c0.1-0.1,0.2-0.3,0.3-0.4c0.1-0.3,0.2-0.5,0.2-0.9
			C16.6,2.6,16.5,2.2,16.1,1.9z"/>
	</g>
	<g>
		<path class="st0" d="M70.6,5.5C70.3,5.8,69.8,6,69.3,6S68.4,5.8,68,5.5c-0.1-0.1-0.2-0.3-0.3-0.4v10.3h3.2V5.1
			C70.8,5.3,70.8,5.4,70.6,5.5z"/>
		<path class="st0" d="M70.6,1.9c-0.3-0.3-0.8-0.5-1.3-0.5S68.4,1.6,68,1.9c-0.3,0.3-0.5,0.7-0.5,1.2c0,0.3,0.1,0.6,0.2,0.8
			C67.8,4,67.9,4.2,68,4.3c0.3,0.3,0.8,0.5,1.3,0.5s0.9-0.2,1.3-0.5c0.1-0.1,0.2-0.3,0.3-0.4C71,3.6,71.1,3.4,71.1,3
			S71,2.2,70.6,1.9z"/>
	</g>
	<path class="st0" d="M29.3,4.3v10.8c0,1.5-0.5,2.6-1.5,3.5s-2.5,1.3-4.5,1.3c-1.6,0-2.9-0.4-3.8-1c-1-0.7-1.5-1.7-1.6-3H21
		c0.1,0.5,0.4,0.9,0.9,1.2c0.4,0.3,1,0.4,1.7,0.4c0.9,0,1.5-0.2,2-0.7c0.5-0.4,0.7-1.1,0.7-1.9v-1.2c-0.8,1-2,1.5-3.5,1.5
		c-1,0-1.9-0.2-2.7-0.7c-0.8-0.5-1.4-1.1-1.8-2c-0.4-0.8-0.7-1.8-0.7-3c0-1.1,0.2-2.1,0.7-3c0.4-0.9,1.1-1.5,1.8-2
		c0.8-0.5,1.7-0.7,2.7-0.7c1.5,0,2.6,0.6,3.5,1.7L26.6,4h2.7C29.3,4,29.3,4.3,29.3,4.3z M25.5,12.1c0.5-0.6,0.7-1.3,0.7-2.3
		c0-0.9-0.2-1.7-0.7-2.3s-1.2-0.9-2-0.9s-1.5,0.3-2,0.9s-0.7,1.4-0.7,2.3s0.2,1.7,0.7,2.3s1.2,0.9,2,0.9S25,12.7,25.5,12.1z"/>
	<path class="st0" d="M40.6,5.4c0.8,0.8,1.3,2.2,1.3,4v6.1h-3.1V9.6c0-0.9-0.2-1.6-0.6-2.1c-0.4-0.5-0.9-0.7-1.7-0.7
		s-1.4,0.3-1.8,0.8C34.3,8.1,34,8.9,34,9.8v5.7h-3.1V0.2H34v5.4c0.8-1,1.9-1.5,3.3-1.5C38.6,4.2,39.7,4.6,40.6,5.4z"/>
	<path class="st0" d="M47.1,9.8v2c0,0.4,0.1,0.7,0.3,0.8c0.2,0.2,0.4,0.3,0.8,0.3h1.6v2.6h-2.5c-2.1,0-3.2-1.1-3.2-3.2V6.9h-1.8V4.3
		h1.8V1.2h3.1v3.1h2.5v2.6h-2.6"/>
	<path class="st0" d="M55.4,4.3h3.3l2.7,8l2.7-8h3.2l-4,11.2h-3.8L55.4,4.3z"/>
	<path class="st0" d="M75.1,11.8c0,0.5,0.3,0.9,0.7,1.2c0.4,0.3,1,0.5,1.7,0.5s1.2-0.1,1.5-0.3c0.4-0.2,0.6-0.5,0.6-0.9
		c0-0.3-0.1-0.5-0.3-0.7c-0.2-0.1-0.4-0.2-0.7-0.3c-0.3-0.1-0.8-0.1-1.6-0.2c-1-0.1-1.8-0.3-2.5-0.5s-1.2-0.5-1.6-1
		c-0.4-0.4-0.6-1-0.6-1.7s0.2-1.4,0.6-1.9c0.4-0.6,1-1,1.7-1.3s1.6-0.5,2.5-0.5c1.5,0,2.7,0.3,3.7,1c0.9,0.6,1.4,1.5,1.5,2.6h-2.9
		c0-0.4-0.3-0.8-0.7-1c-0.4-0.3-0.9-0.4-1.5-0.4s-1,0.1-1.4,0.3s-0.5,0.5-0.5,0.9c0,0.3,0.1,0.5,0.3,0.6c0.2,0.1,0.4,0.2,0.7,0.3
		c0.3,0.1,0.8,0.1,1.5,0.2c1.5,0.2,2.7,0.5,3.5,1s1.2,1.3,1.2,2.4c0,0.7-0.2,1.4-0.6,1.9c-0.4,0.6-1,1-1.8,1.3s-1.6,0.4-2.6,0.4
		c-1.6,0-2.8-0.3-3.8-1s-1.5-1.6-1.5-2.8L75.1,11.8C75.1,11.9,75.1,11.8,75.1,11.8z"/>
	<path class="st0" d="M90.2,14.9c-0.9-0.5-1.6-1.1-2.1-2s-0.7-1.9-0.7-3s0.2-2.1,0.7-3s1.2-1.5,2.1-2s1.9-0.7,3.1-0.7
		s2.2,0.2,3.1,0.7s1.6,1.1,2.1,2s0.7,1.9,0.7,3s-0.2,2.1-0.7,3s-1.2,1.5-2.1,2s-1.9,0.7-3.1,0.7C92.1,15.6,91.1,15.4,90.2,14.9z
		 M95.3,12.2c0.5-0.6,0.7-1.4,0.7-2.3c0-1-0.2-1.7-0.7-2.3s-1.2-0.9-2-0.9s-1.5,0.3-2,0.9S90.6,9,90.6,9.9c0,1,0.2,1.7,0.7,2.3
		s1.2,0.9,2,0.9C94.1,13.1,94.8,12.8,95.3,12.2z"/>
	<path class="st0" d="M109.6,5.4c0.8,0.8,1.3,2.2,1.3,4v6.1h-3.1V9.6c0-1.9-0.8-2.9-2.3-2.9c-0.8,0-1.4,0.3-1.8,0.8S103,8.8,103,9.8
		v5.7h-3.1V4.3h2.7l0.3,1.4c0.4-0.5,0.9-0.8,1.4-1.1c0.6-0.3,1.2-0.4,2-0.4C107.7,4.2,108.8,4.6,109.6,5.4z"/>
	<g>
		<path class="st0" d="M86.3,5.5C86,5.8,85.5,6,85,6s-0.9-0.2-1.3-0.5c-0.1-0.1-0.2-0.3-0.3-0.4v10.3h3.1V5.1
			C86.5,5.3,86.4,5.4,86.3,5.5z"/>
		<path class="st0" d="M86.3,1.9C86,1.6,85.5,1.4,85,1.4s-0.9,0.2-1.3,0.5c-0.3,0.3-0.5,0.7-0.5,1.2c0,0.3,0.1,0.6,0.2,0.8
			c0.1,0.1,0.2,0.3,0.3,0.4C84,4.6,84.5,4.8,85,4.8s0.9-0.2,1.3-0.5c0.1-0.1,0.2-0.3,0.3-0.4c0.1-0.3,0.2-0.5,0.2-0.9
			S86.6,2.2,86.3,1.9z"/>
	</g>
</g>
</svg>
