<svg xmlns="http://www.w3.org/2000/svg" xmlns:xlink="http://www.w3.org/1999/xlink" viewBox="0 0 1244 1080"><defs><style>.cls-1{fill:none;}.cls-2{fill:url(#linear-gradient);}.cls-3{fill:#5f7a6c;}.cls-4{fill:#808875;}.cls-5{fill:#a29980;}.cls-6{fill:#c7ab8a;}.cls-7{fill:#f1c297;}</style><linearGradient id="linear-gradient" x1="960.38" y1="44.87" x2="960.38" y2="1034.76" gradientUnits="userSpaceOnUse"><stop offset="0" stop-color="#5f7a6c"/><stop offset="1" stop-color="#f1c297"/></linearGradient></defs><g id="Layer_8" data-name="Layer 8"><rect class="cls-1" width="1244" height="1080"/></g><g id="Layer_2" data-name="Layer 2"><path class="cls-2" d="M960.38,44.87,394.8,1034.76H1526ZM1168.52,439.4H752.24l102-178.46h212.36Zm8.57,15,102,178.45H641.71l102-178.45Zm110.53,193.45,102,178.46H531.18l102-178.46ZM1058,245.94H862.77L960.38,75.11ZM522.61,841.31h875.54l102,178.45H420.64Z" transform="translate(-336)"/></g><g id="Layer_3" data-name="Layer 3"><polygon class="cls-3" points="1062.15 841.31 186.6 841.31 84.64 1019.76 1164.11 1019.76 1062.15 841.31"/></g><g id="Layer_4" data-name="Layer 4"><polygon class="cls-4" points="1053.58 826.31 951.62 647.86 297.14 647.86 195.18 826.31 1053.58 826.31"/></g><g id="Layer_5" data-name="Layer 5"><polygon class="cls-5" points="841.09 454.4 407.67 454.4 305.71 632.86 943.05 632.86 841.09 454.4"/></g><g id="Layer_6" data-name="Layer 6"><polygon class="cls-6" points="518.2 260.94 730.55 260.94 832.52 439.4 416.24 439.4 518.2 260.94"/></g><g id="Layer_7" data-name="Layer 7"><polygon class="cls-7" points="721.99 245.94 624.38 75.11 526.77 245.94 721.99 245.94"/></g></svg>