<svg id="Layer_1" data-name="Layer 1" xmlns="http://www.w3.org/2000/svg" viewBox="0 0 216 216"><defs><style>.cls-1{fill:#fff;}</style></defs><rect y="-0.08" width="216" height="216" rx="108"/><path d="M69,91.23a8.74,8.74,0,0,0,4.72,1.36c4.38-.13,18.2,0,23.28,2.12,0,0,31.74,14.81,38.79,19.55l18.05,12.6c2.42,1.7,4,3.69,2.76,6.35-.86,1.82-2.4,2.78-5.14,3s-5.57-.55-10-3.46l-7.89-4.87a.13.13,0,0,0-.14.21l9,6.68a4,4,0,0,1,1.59,4.89,5.06,5.06,0,0,1-5,3.29,15.79,15.79,0,0,1-9.61-3.15l-7.57-5.59,8.9,7.82a5.51,5.51,0,0,1-3.92,9.64c-2.65-.12-2.62,0-3.81-1l-10.5-7.87,7.91,7.28a5,5,0,0,1-.84,7.73h0c-2.41,1.71-9.2-1.08-11.45-3A204,204,0,0,0,86.32,140.1C76.14,133.93,57,125.22,46.24,123.75c-3.75-.51-5.79.5-7.1-2.64C34.19,109.2,38,94.48,46,85.77c2.06-2.22,5.88-2.41,8.81-1.16C59,86.38,66.13,89.5,69,91.23Z"/><path class="cls-1" d="M117.35,159.68c-3.57,0-8.31-2.24-10.16-3.78-4.33-3.61-12.59-9.23-21.56-14.67-9.61-5.83-28.71-14.7-39.57-16.17a21,21,0,0,0-2.46-.18c-2.25-.08-4.39-.16-5.68-3.27-4.82-11.59-1.81-27,7.16-36.74,1.87-2,5.89-3.35,10.28-1.47,4.09,1.74,11.37,4.92,14.31,6.7a7.45,7.45,0,0,0,4,1.17c4.49-.13,18.51,0,23.82,2.22l0,0c1.3.61,31.91,14.92,39,19.65l18.07,12.62c3.48,2.43,4.55,5.12,3.2,8-1.1,2.32-3.08,3.51-6.25,3.74a13,13,0,0,1-6.3-1.17,5.15,5.15,0,0,1-.06,3.78,7,7,0,0,1-3.72,3.72,6.56,6.56,0,0,1-2.52.41,16.47,16.47,0,0,1-5.71-.92,6.84,6.84,0,0,1-6.57,9.64l-.86,0a5.26,5.26,0,0,1-2.84-.56,6.49,6.49,0,0,1,.1,1.82,6.65,6.65,0,0,1-2.82,4.72A4.88,4.88,0,0,1,117.35,159.68ZM51.05,85.17a5.46,5.46,0,0,0-4,1.49c-7.11,7.7-11.69,21.83-6.65,33.94.64,1.55,1.21,1.57,3.34,1.64a27,27,0,0,1,2.72.2C57.63,124,77.19,133,87,139c9.07,5.51,17.45,11.21,21.88,14.9,2.17,1.81,8.25,4,9.83,2.89a4,4,0,0,0,1.72-2.82,3.67,3.67,0,0,0-1-2.89l-6.91-6.36a1.37,1.37,0,0,1-.13-1.89v0a1.38,1.38,0,0,1,1.88-.22l9.46,7.09c.74.59.74.59,2.21.65l.88,0a4.2,4.2,0,0,0,3-7.34l-7.91-6.95a1.36,1.36,0,0,1-.16-1.89h0a1.38,1.38,0,0,1,1.89-.25l6.5,4.81a14.5,14.5,0,0,0,8.8,2.89,4,4,0,0,0,1.48-.18,4.34,4.34,0,0,0,2.35-2.26,2.68,2.68,0,0,0-1.15-3.36l-8.95-6.68a1.46,1.46,0,0,1-.24-2.1,1.52,1.52,0,0,1,1.93-.25l7.82,4.82c4.5,3,6.94,3.44,9.22,3.27,2.73-.19,3.56-1.19,4.05-2.23.57-1.2.68-2.6-2.33-4.7l-18-12.6c-6.79-4.55-37.51-18.93-38.57-19.43-4.54-1.87-17.25-2.16-22.71-2a9.93,9.93,0,0,1-5.44-1.55h0c-2.8-1.69-10-4.82-14-6.54A8.6,8.6,0,0,0,51.05,85.17Z"/><path class="cls-1" d="M64.52,140h0a4.81,4.81,0,0,1-.6-7.36l10.52-10.75a6.48,6.48,0,0,1,8.34-.54h0a4.8,4.8,0,0,1,.6,7.36L72.86,139.49A6.48,6.48,0,0,1,64.52,140Z"/><path d="M68.38,142.6a7.71,7.71,0,0,1-4.66-1.52h0a6.27,6.27,0,0,1-2.54-4.57A6.11,6.11,0,0,1,63,131.75L73.5,121a7.83,7.83,0,0,1,10.08-.67,6.32,6.32,0,0,1,2.55,4.57,6.15,6.15,0,0,1-1.8,4.76L73.8,140.41A7.59,7.59,0,0,1,68.38,142.6Zm10.53-21.18a4.91,4.91,0,0,0-3.52,1.42L64.86,133.59a3.53,3.53,0,0,0-1,2.73A3.69,3.69,0,0,0,65.32,139h0a5.13,5.13,0,0,0,6.59-.41l10.53-10.75a3.5,3.5,0,0,0,1-2.73A3.69,3.69,0,0,0,82,122.43,5.11,5.11,0,0,0,78.91,121.42Z"/><path class="cls-1" d="M73.53,146.9h0a4.81,4.81,0,0,1-.61-7.36l9-9.33c1-1,3.12-1.49,5.17-1.74,3.71-.44,6.67,2.78,5.43,5.9A8.25,8.25,0,0,1,90.88,137l-9,9.33A6.47,6.47,0,0,1,73.53,146.9Z"/><path d="M77.38,149.47a7.61,7.61,0,0,1-4.65-1.53,6.25,6.25,0,0,1-2.55-4.56,6.08,6.08,0,0,1,1.8-4.76l9-9.33c1.06-1.08,3-1.78,6-2.13a6.63,6.63,0,0,1,6,2.44,5.26,5.26,0,0,1,.78,5.26,9.71,9.71,0,0,1-2,3.09l-9,9.33A7.59,7.59,0,0,1,77.38,149.47Zm10.4-19.72-.52,0c-3.13.37-4.1,1.07-4.38,1.35l-9,9.33a3.51,3.51,0,0,0-1.06,2.73,3.67,3.67,0,0,0,1.52,2.66h0a5.13,5.13,0,0,0,6.59-.41l9-9.33a6.9,6.9,0,0,0,1.39-2.22,2.68,2.68,0,0,0-.42-2.68A3.92,3.92,0,0,0,87.78,129.75Z"/><path class="cls-1" d="M82.49,153.74h0a4.8,4.8,0,0,1-.6-7.36l10.52-10.75a6.13,6.13,0,0,1,5.72-1.23h.07c3,.71,4.34,3.89,2.64,6.22a61,61,0,0,1-4.39,5.64l-5.63,6.93A6.47,6.47,0,0,1,82.49,153.74Z"/><path d="M86.34,156.31a7.63,7.63,0,0,1-4.65-1.53,6.28,6.28,0,0,1-2.55-4.56,6.15,6.15,0,0,1,1.8-4.76l10.53-10.75a7.35,7.35,0,0,1,7-1.6h.06a5.66,5.66,0,0,1,4.11,3.48,5,5,0,0,1-.68,4.81c-3.27,4.5-4.17,5.48-4.52,5.79l-5.62,6.92A7.59,7.59,0,0,1,86.34,156.31Zm10-20.8a4.09,4.09,0,0,0-3,1L82.83,147.3a3.5,3.5,0,0,0-1,2.73,3.69,3.69,0,0,0,1.51,2.66h0a5.13,5.13,0,0,0,6.55-.37l5.68-7,.12-.1a49.46,49.46,0,0,0,4.14-5.36,2.44,2.44,0,0,0,.34-2.34,3,3,0,0,0-2.22-1.82l-.05,0A7.45,7.45,0,0,0,96.33,135.51Z"/><path class="cls-1" d="M91.51,160.61h0a4.8,4.8,0,0,1-.61-7.35l8-9.42a6.84,6.84,0,0,1,4.23-1.43c3.43-.28,5.91,2.87,4.44,5.62l-.08.13-7.61,11.92A6.45,6.45,0,0,1,91.51,160.61Z"/><path d="M95.36,163.19a7.63,7.63,0,0,1-4.65-1.53h0a6.25,6.25,0,0,1-2.55-4.56,6.12,6.12,0,0,1,1.76-4.73l8-9.45c1-1,2.71-1.64,5.06-1.83a5.94,5.94,0,0,1,5.48,2.56,4.84,4.84,0,0,1,.23,5l-.12.23-7.69,12-.1.1A7.55,7.55,0,0,1,95.36,163.19Zm-3-3.62a5.14,5.14,0,0,0,6.5-.32l7.55-11.84a2.18,2.18,0,0,0-.11-2.31,3.28,3.28,0,0,0-3.06-1.38c-2.16.17-3,.7-3.35,1l-8,9.44a3.53,3.53,0,0,0-1,2.73,3.7,3.7,0,0,0,1.52,2.66Z"/><path class="cls-1" d="M161.39,84.52a97.47,97.47,0,0,0-10.9,3.93,36,36,0,0,1-20.17,1.9c-14.69-2.55-19.27-5.3-23.24-3.34S86.82,103.09,80.7,106.62c0,0-.12,6.48,10.72,6.06,0,0,8.82-2.1,13.79-7.33a2.09,2.09,0,0,1,2.91,0,30.17,30.17,0,0,0,25.46,8.24,2.15,2.15,0,0,1,1.51.35l18.54,12.88,19.06-7.87a9.7,9.7,0,0,0,6.35-9l-.36-17.16c-.13-6.55-7.41-11.11-14.46-9.06Z"/><path d="M153.47,128.26,134.34,115a.86.86,0,0,0-.58-.12,34.86,34.86,0,0,1-4.57.31,31.59,31.59,0,0,1-22-8.92.69.69,0,0,0-.52-.18.73.73,0,0,0-.51.19C101,111.71,92.1,113.87,91.73,114l-.26,0c-4.54.18-7.91-.78-10-2.83a6.72,6.72,0,0,1-2.08-4.57v-.75l.65-.37c3-1.76,9-6.46,14.22-10.6,5.46-4.31,10.17-8,12.23-9,3-1.46,6.06-.72,11.67.61,3.16.76,7.09,1.69,12.39,2.61A34.31,34.31,0,0,0,150,87.23a99.33,99.33,0,0,1,11.06-4l2.82-.82a13.45,13.45,0,0,1,11.65,2,10.62,10.62,0,0,1,4.5,8.33l.36,17.17a11,11,0,0,1-7.16,10.23ZM133.9,112.2a3.4,3.4,0,0,1,1.94.6l17.95,12.47,18.4-7.59a8.39,8.39,0,0,0,5.53-7.74l-.36-17.17a7.88,7.88,0,0,0-3.42-6.25A10.79,10.79,0,0,0,164.59,85l-2.83.82A98.87,98.87,0,0,0,151,89.66a36.94,36.94,0,0,1-20.9,2c-5.38-.93-9.35-1.88-12.55-2.64-5.18-1.23-7.79-1.85-9.89-.81-1.81.89-6.87,4.89-11.76,8.75-5.15,4.07-10.46,8.27-13.77,10.35a4.3,4.3,0,0,0,1.22,2c1.53,1.46,4.26,2.16,7.88,2,1-.27,8.69-2.37,13-6.93a3.36,3.36,0,0,1,2.38-1,3.29,3.29,0,0,1,2.41.94,29,29,0,0,0,24.36,7.88A2.81,2.81,0,0,1,133.9,112.2Z"/></svg>