<svg width="132" height="207" viewBox="0 0 132 207" fill="none" xmlns="http://www.w3.org/2000/svg">
<path fill-rule="evenodd" clip-rule="evenodd" d="M62.7198 0.220341C51.9529 1.44783 41.896 8.22811 37.2445 17.3958C33.7542 24.2755 32.7989 30.7556 32.9404 46.5981L33.0205 55.5803L33.6184 56.8653C35.9931 61.9692 42.7432 62.6668 45.7753 58.1219C47.0117 56.2684 47.0208 56.1792 47.1943 43.983C47.365 31.976 47.4331 31.1615 48.5983 27.1557C53.465 10.4261 79.5257 10.4261 84.3924 27.1557C85.7006 31.6534 85.6584 30.8011 85.7372 54.2934C85.8037 74.1401 85.8409 75.9616 86.1764 75.8324C87.5843 75.2914 92.5956 74.7286 96.1913 74.7082L100.123 74.6854L100.03 53.6494C99.9284 30.638 99.9477 31.0014 98.5158 25.095C94.5855 8.88324 79.385 -1.67956 62.7198 0.220341ZM92.7141 83.8102C88.3531 84.3782 85.2918 85.2221 79.4344 87.4708C66.3782 92.4833 68.033 92.5261 52.8752 86.7863C39.5659 81.7468 26.4236 84.3298 15.1593 94.1992C-7.16273 113.757 -4.51975 157.854 21.0198 191.974C32.2292 206.95 39.7318 209.896 52.8752 204.486C65.7592 199.182 72.2841 198.992 83.18 203.606C99.2858 210.426 107.306 207.018 120.353 187.811C125.076 180.86 128.611 173.988 131.316 166.503C132.318 163.729 132.371 163.942 130.443 162.986C105.877 150.809 103.493 117.659 125.994 101.114C128.049 99.6035 127.974 99.7591 127.166 98.6933C123.26 93.54 117.898 89.3407 112.264 87.0231C111.375 86.6574 110.341 86.221 109.966 86.0532C106.495 84.4983 96.9545 83.2578 92.7141 83.8102Z" fill="#FEB3B7"/>
</svg>
