<?xml version="1.0" encoding="UTF-8"?><svg id="a" xmlns="http://www.w3.org/2000/svg" viewBox="0 0 48.3 48.78"><defs><style>.b{stroke:#c6d4f6;}.b,.c,.d{fill:none;}.b,.d{stroke-linecap:round;stroke-linejoin:round;stroke-width:3px;}.c{stroke:#fff;stroke-miterlimit:10;}.d{stroke:#213c9c;}</style></defs><circle class="c" cx="23.17" cy="25.61" r="22.67"/><polyline class="d" points="8.23 8.05 18.21 2.29 7.11 9.26 19.82 1.92 7 9.38 20 1.88 6.41 10.09 20.88 1.74 5.74 10.97 21.97 1.61 5.3 11.62 22.78 1.54 5.1 11.92 23.11 1.52 4.9 12.26 23.51 1.51 4.41 13.08 24.46 1.5 4.01 13.84 25.34 1.52 3.73 14.4 25.95 1.57 3.38 15.17 26.79 1.65 3.19 15.61 27.27 1.71 3.17 15.66 27.33 1.72 3.13 15.77 27.45 1.73 2.86 16.47 28.18 1.85 2.66 17.06 28.8 1.97 2.62 17.19 28.93 2 2.43 17.82 29.57 2.15 2.41 17.87 29.63 2.16 2.25 18.46 30.21 2.32 2.15 18.86 30.61 2.43 2.11 19.03 30.79 2.48 1.99 19.55 31.29 2.64 1.95 19.81 31.54 2.73 1.83 20.46 32.16 2.95 1.76 20.91 32.58 3.12 1.75 20.97 32.64 3.14 1.7 21.43 33.07 3.31 1.64 21.92 33.52 3.52 1.61 22.33 33.9 3.69 1.57 22.78 34.3 3.89 1.55 23.22 34.69 4.09 1.54 23.56 34.99 4.25 1.53 24.09 35.45 4.51 1.54 24.34 35.67 4.64 1.55 24.66 35.94 4.8 1.55 24.9 36.15 4.93 1.56 25.27 36.46 5.12 1.6 25.77 36.87 5.4 1.64 26.26 37.29 5.68 1.64 26.33 37.34 5.72 1.65 26.36 37.37 5.74 1.67 26.65 37.6 5.91 1.74 27.14 37.99 6.21 1.75 27.21 38.05 6.25 1.8 27.55 38.32 6.46 1.82 27.74 38.47 6.59 1.86 27.99 38.66 6.75 1.96 28.5 39.05 7.08 2.06 28.98 39.42 7.41 2.1 29.2 39.58 7.56 2.21 29.63 39.91 7.87 2.34 30.12 40.27 8.22 2.47 30.6 40.61 8.58 2.59 30.97 40.88 8.86 2.69 31.28 41.1 9.1 2.79 31.59 41.3 9.35 2.8 31.61 41.32 9.37 2.87 31.82 41.47 9.54 3 32.16 41.7 9.81 3.13 32.48 41.92 10.08 3.25 32.78 42.11 10.34 3.41 33.16 42.36 10.67 3.51 33.39 42.51 10.87 3.61 33.59 42.64 11.05 3.79 34 42.9 11.43 3.9 34.21 43.03 11.62 4.13 34.65 43.3 12.03 4.15 34.69 43.33 12.07 4.3 34.98 43.49 12.35 4.46 35.27 43.67 12.64 4.66 35.61 43.87 12.98 4.76 35.77 43.96 13.14 4.84 35.92 44.04 13.29 4.93 36.06 44.12 13.44 5.16 36.43 44.32 13.82 5.21 36.49 44.35 13.89 5.38 36.74 44.49 14.16 5.39 36.75 44.5 14.17 5.4 36.78 44.51 14.2 5.55 37 44.63 14.44 5.66 37.16 44.71 14.62 5.93 37.53 44.9 15.04 5.95 37.56 44.91 15.07 6.23 37.93 45.09 15.5 6.46 38.23 45.23 15.84 6.58 38.38 45.3 16.02 6.62 38.42 45.32 16.08 6.83 38.67 45.44 16.38 7 38.88 45.53 16.63 7.06 38.94 45.56 16.72 7.36 39.29 45.7 17.15 7.55 39.49 45.79 17.42 7.66 39.61 45.84 17.57 7.96 39.93 45.96 17.99 8.28 40.25 46.07 18.43 8.41 40.37 46.12 18.6 8.5 40.46 46.15 18.72 8.54 40.5 46.16 18.77 8.87 40.81 46.26 19.22 9.22 41.12 46.36 19.68 9.39 41.27 46.4 19.9 9.46 41.33 46.42 19.98 9.71 41.54 46.48 20.32 9.86 41.67 46.51 20.5 10.24 41.97 46.58 20.99 10.46 42.13 46.62 21.26 10.73 42.34 46.66 21.6 10.85 42.43 46.67 21.75 10.9 42.47 46.68 21.81 11.01 42.55 46.69 21.95 11.31 42.76 46.72 22.31 11.6 42.95 46.75 22.66 11.72 43.04 46.77 22.8 11.98 43.21 46.78 23.12 12.12 43.29 46.78 23.28 12.56 43.56 46.79 23.79 12.97 43.8 46.8 24.27 13.47 44.07 46.79 24.84 13.56 44.13 46.78 24.95 13.66 44.17 46.78 25.05 14.17 44.45 46.75 25.64 14.46 44.58 46.73 25.95 15.01 44.83 46.67 26.55 15.16 44.9 46.65 26.72 15.43 45.02 46.62 27.01 15.69 45.12 46.58 27.29 16.16 45.3 46.51 27.78 16.77 45.52 46.39 28.42 17.29 45.7 46.28 28.96 17.95 45.9 46.13 29.63 18 45.91 46.12 29.68 18.3 46 46.04 29.99 18.62 46.08 45.94 30.3 19.01 46.17 45.84 30.68 19.07 46.18 45.82 30.74 19.54 46.29 45.67 31.21 19.61 46.31 45.64 31.28 19.85 46.35 45.57 31.5 20.19 46.41 45.46 31.82 20.31 46.43 45.42 31.93 20.76 46.51 45.25 32.37 21.58 46.62 44.94 33.13 22.38 46.69 44.61 33.85 23.25 46.74 44.21 34.64 23.68 46.75 44.01 35.02 24.26 46.76 43.72 35.53 24.68 46.75 43.51 35.88 25.49 46.73 43.07 36.58 26.56 46.64 42.46 37.46 27.28 46.55 42.03 38.03 28.35 46.38 41.33 38.88 28.86 46.27 41 39.26 29.05 46.23 40.86 39.41 30.12 45.97 40.1 40.21"/><polyline class="b" points="18.14 14.08 18.84 13.68 18.15 14.58 19.24 13.95 18.15 14.77 19.4 14.05 18.15 15.09 19.65 14.22 18.15 15.39 19.9 14.38 18.15 15.94 20.34 14.68 18.15 16.26 20.6 14.85 18.15 16.37 20.69 14.91 18.15 16.7 20.96 15.08 18.16 16.84 21.07 15.16 18.16 17.03 21.22 15.26 18.16 17.48 21.59 15.5 18.16 17.54 21.63 15.53 18.16 18.02 22.02 15.79 18.16 18.32 22.26 15.95 18.16 18.48 22.39 16.03 18.16 18.83 22.68 16.22 18.16 19.27 23.03 16.46 18.16 19.44 23.17 16.55 18.17 19.67 23.36 16.68 18.17 20.03 23.64 16.87 18.17 20.6 24.1 17.17 18.17 20.78 24.25 17.27 18.17 21.24 24.63 17.52 18.17 21.81 25.09 17.82 18.17 22.23 25.42 18.04 18.18 22.55 25.68 18.21 18.18 22.74 25.83 18.32 18.18 22.96 26.01 18.43 18.18 23.02 26.06 18.47 18.18 23.16 26.17 18.54 18.18 23.48 26.44 18.72 18.18 23.68 26.59 18.82 18.18 23.94 26.8 18.96 18.18 24.06 26.9 19.03 18.18 24.23 27.03 19.12 18.18 24.55 27.3 19.29 18.18 24.56 27.31 19.3 18.19 25.03 27.68 19.55 18.19 25.59 28.14 19.85 18.19 26.12 28.57 20.13 18.19 26.59 28.94 20.38 18.19 27.04 29.3 20.62 18.19 27.09 29.34 20.65 18.19 27.47 29.66 20.86 18.19 27.6 29.76 20.92 18.2 27.77 29.89 21.01 18.2 27.85 29.96 21.06 18.2 28.15 30.21 21.22 18.2 28.64 30.6 21.48 18.2 29 30.89 21.67 18.2 29.21 31.06 21.79 18.2 29.76 31.5 22.08 18.2 30.18 31.84 22.31 18.2 30.33 31.97 22.39 18.21 30.43 32.04 22.44 18.21 30.63 32.2 22.55 18.21 31.11 32.59 22.8 18.21 31.4 32.83 22.96 18.21 31.75 33.11 23.15 18.21 32.11 33.4 23.34 18.21 32.34 33.58 23.46 18.21 32.87 34.01 23.75 18.22 33.39 34.43 24.02 18.22 33.74 34.72 24.21 18.22 34.19 31.77 26.37 18.22 34.66 28.25 28.87 18.22 34.97 25.93 30.51 18.22 35.13 24.74 31.36"/></svg>