<?xml version="1.0" encoding="utf-8"?>
<!-- Generator: Adobe Illustrator 24.2.1, SVG Export Plug-In . SVG Version: 6.00 Build 0)  -->
<svg version="1.1" id="Ebene_1" xmlns="http://www.w3.org/2000/svg" xmlns:xlink="http://www.w3.org/1999/xlink" x="0px" y="0px"
	 viewBox="0 0 24 28" style="enable-background:new 0 0 24 28;" xml:space="preserve">
<style type="text/css">
	.st0{fill:#304351;}
</style>
<path class="st0" d="M0.7,1.9c-0.1,0.3-0.2,0.6-0.2,1V25c0,0.4,0.1,0.7,0.2,1l12.1-12.2C12.8,13.9,0.7,1.9,0.7,1.9z M13.3,13.4
	l3.8-3.8L3,1.5C2.3,1.1,1.7,1.1,1.2,1.3L13.3,13.4z M13.3,14.5L1.2,26.7C1.7,27,2.3,27,3,26.6l14.3-8.1
	C17.3,18.4,13.3,14.5,13.3,14.5z M22.5,12.6L17.9,10l-4,4l4.1,4l4.5-2.6C23.9,14.7,23.9,13.4,22.5,12.6z"/>
</svg>
