<svg id="Layer_1" data-name="Layer 1" xmlns="http://www.w3.org/2000/svg" viewBox="0 0 288 43.93"><defs><style>.cls-1{fill:#003ca7;}</style></defs><path class="cls-1" d="M44.39,9.24C42.56,14,40.68,19,39.28,22.71L31.18,1.92A1.48,1.48,0,0,0,29.83,1H28.36A1.46,1.46,0,0,0,27,1.9L18.83,22.68c-.72-2.05-1.51-4.2-2.31-6.25l-6-15.35A.75.75,0,0,0,9.85.61H.74a.74.74,0,0,0-.68,1l16.59,41a1.48,1.48,0,0,0,1.36.91h1.44a1.47,1.47,0,0,0,1.36-.91L29,21.3c0,.07,6,15.8,8.32,21.41a1.36,1.36,0,0,0,1.26.83H40.1a1.36,1.36,0,0,0,1.26-.84L58,1.64a.75.75,0,0,0-.69-1h-8.9a1.11,1.11,0,0,0-1.05.72Z"/><path class="cls-1" d="M87.12.22A21.66,21.66,0,0,0,64.43,22.91c.39,11.25,10.75,21.11,22,21a21.39,21.39,0,0,0,21.71-21.71C108.23,11,98.37.62,87.12.22ZM86.29,34.7c-7,0-12.08-5.31-12.08-12.62S79.4,9.46,86.29,9.46s12,5.3,12,12.62S93.25,34.7,86.29,34.7Z"/><path class="cls-1" d="M149.32,14.9c0-8.62-6.13-14-16-14h-12a.74.74,0,0,0-.73.74V42.5a.74.74,0,0,0,.73.74h8.22a.74.74,0,0,0,.74-.74V28.62h2.55l7.35,14.22a.75.75,0,0,0,.66.4h9a.74.74,0,0,0,.65-1.1l-8.4-15.4A12.83,12.83,0,0,0,149.32,14.9Zm-9.8,0c0,4.55-3.65,5.23-5.83,5.23h-3.38V9.62h3.05C136.17,9.62,139.52,10.54,139.52,14.9Z"/><path class="cls-1" d="M162.6,9.62h8.7V42.5a.74.74,0,0,0,.74.74h8.32a.74.74,0,0,0,.74-.74V9.62h8.7a.74.74,0,0,0,.74-.74V1.65a.75.75,0,0,0-.74-.74H162.6a.74.74,0,0,0-.74.74V8.88A.74.74,0,0,0,162.6,9.62Z"/><path class="cls-1" d="M227.76,17.5H214.87V1.65a.74.74,0,0,0-.74-.74h-8.32a.74.74,0,0,0-.74.74V42.5a.74.74,0,0,0,.74.74h8.32a.74.74,0,0,0,.74-.74V26.15h12.89V42.5a.74.74,0,0,0,.74.74h8.32a.74.74,0,0,0,.74-.74V1.65a.74.74,0,0,0-.74-.74H228.5a.74.74,0,0,0-.74.74Z"/><path class="cls-1" d="M277.24,1.29l-9,15.57L259.36,1.29a.75.75,0,0,0-.64-.38h-9.38A.74.74,0,0,0,248.7,2l14.67,24.72V42.5a.74.74,0,0,0,.74.74h8.32a.74.74,0,0,0,.74-.74V26.75L287.89,2a.74.74,0,0,0-.63-1.12h-9.38A.74.74,0,0,0,277.24,1.29Z"/></svg>