<svg id="Layer_1" data-name="Layer 1" xmlns="http://www.w3.org/2000/svg" viewBox="0 0 154.33 78.72"><defs><style>.cls-1{fill:#010101;}</style></defs><path class="cls-1" d="M127.29,579h56c1.83-5.82,3.66-11.61,5.49-17.44H127.29Z" transform="translate(-49.93 -500.26)"/><polygon class="cls-1" points="77.36 54.5 140.91 54.52 146.67 36.13 77.36 36.13 77.36 54.5"/><polygon class="cls-1" points="77.36 11.89 77.36 29.33 148.84 29.34 154.33 11.89 77.36 11.89"/><path class="cls-1" d="M81.44,534.87H92.23v-8.23H88.81c-2.57,0-5.25,0-7.87,0a3.37,3.37,0,0,0-3.39,2.94,7.22,7.22,0,0,0-.06,1.61A3.59,3.59,0,0,0,81.44,534.87Z" transform="translate(-49.93 -500.26)"/><path class="cls-1" d="M49.93,570.35h70V500.26h-70ZM75.27,537.9c-2.88-2-4.06-4.84-3.59-8.67s3.34-6.52,7.49-7.07a21.42,21.42,0,0,1,2.65-.16h16v24.69H92.26v-7.16H81.53s-1.54,2.89-2.14,4L77.7,546.7H71.36l4.47-8.4Z" transform="translate(-49.93 -500.26)"/></svg>