<svg id="Layer_1" data-name="Layer 1" xmlns="http://www.w3.org/2000/svg" xmlns:xlink="http://www.w3.org/1999/xlink" viewBox="0 0 216 216"><defs><style>.cls-1,.cls-2{fill:#fff;}.cls-2{isolation:isolate;opacity:0.44;}.cls-3{clip-path:url(#clip-path);}</style><clipPath id="clip-path" transform="translate(0 1.88)"><path class="cls-1" d="M107.93,60.51a45.62,45.62,0,1,0,45.69,45.55A45.61,45.61,0,0,0,107.93,60.51Zm.12,77.92a32.31,32.31,0,1,1,32.26-32.35A32.3,32.3,0,0,1,108.05,138.43Z"/></clipPath></defs><path d="M108-1.88h0a108,108,0,0,1,108,108h0a108,108,0,0,1-108,108h0a108,108,0,0,1-108-108H0A108,108,0,0,1,108-1.88Z" transform="translate(0 1.88)"/><path class="cls-2" d="M56.12,142A143.72,143.72,0,0,1,52,162.12h0A143.72,143.72,0,0,1,72.11,158,65.29,65.29,0,0,1,56.12,142Z" transform="translate(0 1.88)"/><path class="cls-1" d="M159.88,70.24A143.56,143.56,0,0,1,164,50.12a145.2,145.2,0,0,1-20.11,4.13A65.29,65.29,0,0,1,159.88,70.24Z" transform="translate(0 1.88)"/><path class="cls-2" d="M72.11,54.25A145.2,145.2,0,0,1,52,50.12a143.56,143.56,0,0,1,4.12,20.12A65.29,65.29,0,0,1,72.11,54.25Z" transform="translate(0 1.88)"/><path class="cls-2" d="M143.89,158A143.72,143.72,0,0,1,164,162.12h0A143.72,143.72,0,0,1,159.88,142,65.29,65.29,0,0,1,143.89,158Z" transform="translate(0 1.88)"/><path class="cls-1" d="M101.75,97.26h12v3.6h-8.13v3.31h7.69v3.61h-7.69v3.6h8.59V115h-12.5Z" transform="translate(0 1.88)"/><path class="cls-1" d="M107.93,60.51a45.62,45.62,0,1,0,45.69,45.55A45.61,45.61,0,0,0,107.93,60.51Zm.12,77.92a32.31,32.31,0,1,1,32.26-32.35A32.3,32.3,0,0,1,108.05,138.43Z" transform="translate(0 1.88)"/><g class="cls-3"><path class="cls-1" d="M112.74,133.18c0-7.12-5.15-13.11-12.14-14.89-1.24-10.6-10.82-18.84-22.47-18.84A22.9,22.9,0,0,0,58.6,110a13.75,13.75,0,0,0-4.75-.85,12.64,12.64,0,0,0-12.6,9.76A15.47,15.47,0,0,0,31,133.18c0,8.52,7.37,15.42,16.46,15.42H98.24v-.11C106.41,147.57,112.74,141.07,112.74,133.18Z" transform="translate(0 1.88)"/><path class="cls-1" d="M208.21,125.87A14.8,14.8,0,0,0,197.3,111.6a20.31,20.31,0,0,0-37.74-8,11.42,11.42,0,0,0-4.26-.82A11.53,11.53,0,0,0,144,112.16a14.8,14.8,0,0,0,5.56,28.51h45.66v-.11A14.79,14.79,0,0,0,208.21,125.87Z" transform="translate(0 1.88)"/><path class="cls-1" d="M97.54,109.13a7.51,7.51,0,0,0-5.29-7.43,10.32,10.32,0,0,0-19-4.69,5.93,5.93,0,0,0-2.16-.49,5.87,5.87,0,0,0-5.91,4.56,7.52,7.52,0,0,0,2.34,14.57l23.19.78v-.06A7.51,7.51,0,0,0,97.54,109.13Z" transform="translate(0 1.88)"/><path class="cls-1" d="M153.78,145.2c0-7.12-5.14-13.11-12.14-14.89-1.24-10.59-10.82-18.84-22.46-18.84A22.9,22.9,0,0,0,99.64,122a13.51,13.51,0,0,0-4.74-.86,12.65,12.65,0,0,0-12.61,9.76A15.47,15.47,0,0,0,72,145.2c0,8.52,7.37,15.42,16.47,15.42h50.81v-.11C147.45,159.6,153.78,153.09,153.78,145.2Z" transform="translate(0 1.88)"/><path class="cls-1" d="M114.66,159.37a7.53,7.53,0,0,0-3.18-8.56,10.33,10.33,0,0,0-17.17-9.47,5.85,5.85,0,0,0-8.84,1.84A7.52,7.52,0,0,0,84,157.86l22.19,6.77,0-.06A7.5,7.5,0,0,0,114.66,159.37Z" transform="translate(0 1.88)"/></g></svg>