<svg xmlns="http://www.w3.org/2000/svg" viewBox="0 0 903.82 784.22"><defs><style>.cls-1,.cls-2,.cls-3,.cls-4,.cls-5,.cls-6{fill:none;stroke-miterlimit:10;stroke-width:2px;}.cls-1{stroke:#f1c398;}.cls-2{stroke:#cfb08d;}.cls-3{stroke:#b1a084;}.cls-4{stroke:#95927b;}.cls-5{stroke:#7a8673;}.cls-6{stroke:#5f7a6c;}</style></defs><g id="Layer_2" data-name="Layer 2"><path class="cls-1" d="M883.16,752.26s-417,.5-528.12,4.23c-148.69,5-190.38.48-334.39.48"/><path class="cls-1" d="M883.16,752.26s-264.78,6.41-431.26-26.37c-175.87-34.62-259.38-34-431.25-34"/><path class="cls-1" d="M883.16,752.26S624.68,774.78,457.1,657.6,228.1,508.44,20.7,508.44"/><path class="cls-1" d="M883.16,752.26S607,767.27,465.82,627.75C321.86,485.49,257.89,422,20.7,422"/><path class="cls-2" d="M883.14,633.67s-253.09-5-430.32,25.79S110.48,691.92,20.65,691.92"/><path class="cls-2" d="M883.14,633.37S636.71,654.88,457,482.64,108.86,312.77,20.7,312.77"/><path class="cls-2" d="M883.14,634.23s-233.95,13.16-412-89.18S205.39,422,20.7,422"/><path class="cls-2" d="M883.14,634.23s-213.15,14-458.23-68.08c-141.55-47.4-210.37-57.71-404.21-57.71"/><path class="cls-3" d="M883.14,485.3s-213.45,6.43-377.73-56.9S271.43,312.77,20.7,312.77"/><path class="cls-3" d="M883.14,485.49S597.83,477.91,451.62,593c-127.12,100-344.9,98.93-431,98.93"/><path class="cls-3" d="M883.14,485.3s-306.57-4.93-431.52-27C340,438.52,191.5,422,20.7,422"/><path class="cls-3" d="M883.14,485.49S591.83,475.63,462.9,604.56C294,773.5,170.53,757.18,20.65,757"/><path class="cls-4" d="M883.14,323.85s-253.3,2.61-403.78-97.42-217.6-138-458.71-138"/><path class="cls-4" d="M883.14,323.85s-202-11.35-328.95,102.71S359.36,757,20.65,757"/><path class="cls-4" d="M883.14,323.85s-438.74-.31-556.4-9c-99.81-7.4-275.12-2-306-2"/><path class="cls-4" d="M20.7,202.51c202.15-4,202.94-5.3,392.91,52.92,213.8,65.53,339.78,68.42,469.53,68.42"/><path class="cls-4" d="M883.14,323.85s-252.37-13.33-431.52,85.57-356.73,99-430.92,99"/><path class="cls-4" d="M883.14,323.85S686,307.72,532.42,401,324.87,599.75,20.7,599.75"/><path class="cls-5" d="M883.14,173.68c-119.44-2-312.39-11.08-430.83-40.51C253.38,83.73,20.65,88.39,20.65,88.39"/><path class="cls-5" d="M883.14,173.68c-117.62,1.21-308.56,9.32-410.49,54.67C264,321.16,20.7,312.77,20.7,312.77"/><path class="cls-5" d="M883.14,173.68c-134-5.21-822.73,28.83-862.44,28.83"/><path class="cls-6" d="M883.14,25.4S552.31,29.19,399.35,57.18C252.45,84.06,20.65,88.39,20.65,88.39"/><path class="cls-6" d="M883.14,25.4s-288,10.68-475.07,100.25C236.27,207.92,32.79,202.49,20.7,202.51"/><path class="cls-6" d="M883.14,25.41S587.8,19,421.15,188.84C296.42,316,20.7,312.77,20.7,312.77"/><path class="cls-6" d="M883.14,25.4C343.87,39.82,567.05,414.38,20.7,422"/><path class="cls-6" d="M883.14,25.41C320.92,39.76,710.2,696.93,20.65,691.92"/><path class="cls-6" d="M883.14,25.41c-512.45,9.89-324.33,481.4-862.44,483"/><path class="cls-6" d="M883.14,25.41C340.1,38.38,630,586.71,20.7,599.75"/></g></svg>