<svg id="Layer_1" data-name="Layer 1" xmlns="http://www.w3.org/2000/svg" viewBox="0 0 766.89 413.51"><defs><style>.cls-1{fill:#f1c398;}</style></defs><path class="cls-1" d="M385.21,386.37H640.62c8.36-26.52,16.7-53,25.08-79.59H385.21Z"/><path class="cls-1" d="M385.21,275.84l290,.06c8.25-26.36,26.25-83.92,26.25-83.92H385.21Z"/><path class="cls-1" d="M385.21,81.39V161l326.17.05,25-79.63Z"/><path class="cls-1" d="M176,185.06h49.23V147.51H209.59c-11.76,0-23.92,0-35.89.08-8,.08-14.11,5.34-15.46,13.41a30.41,30.41,0,0,0-.26,7.34C158.82,179.27,165,185,176,185.06Z"/><path class="cls-1" d="M32.24,347h319.3V27.15H32.24Zm115.55-148.1c-13.15-9.14-18.5-22.08-16.36-39.56s15.23-29.75,34.18-32.27a93.81,93.81,0,0,1,12.09-.71l73,0,0,112.67H225.34v-32.7l-49-.06s-7,13.19-9.76,18.38C164.3,229,158.94,239,158.94,239L130,239l20.39-38.32S149.61,200.15,147.79,198.87Z"/></svg>