<svg id="Layer_1" data-name="Layer 1" xmlns="http://www.w3.org/2000/svg" xmlns:xlink="http://www.w3.org/1999/xlink" viewBox="0 0 216 216"><defs><style>.cls-1{fill:url(#linear-gradient);}.cls-2{fill:#fff;}</style><linearGradient id="linear-gradient" x1="98.39" y1="88.65" x2="138.44" y2="158.02" gradientUnits="userSpaceOnUse"><stop offset="0" stop-color="#fff" stop-opacity="0.3"/><stop offset="0.04" stop-color="#dbdbdb" stop-opacity="0.4"/><stop offset="0.15" stop-color="#8b8b8b" stop-opacity="0.62"/><stop offset="0.28" stop-color="#4d4d4d" stop-opacity="0.79"/><stop offset="0.43" stop-color="#212121" stop-opacity="0.91"/><stop offset="0.62" stop-color="#070707" stop-opacity="0.98"/><stop offset="1"/></linearGradient></defs><rect x="-0.14" width="216" height="216" rx="108"/><rect x="26.62" y="26.2" width="162.76" height="163.6" rx="81.38"/><path class="cls-1" d="M165.75,49.76,50.86,166.36l135.53-36A88,88,0,0,0,187.25,89c-4.66-20.4-19.63-37.58-21.5-39.23Z"/><path class="cls-2" d="M130.93,85c-3.64-3-9.69-6.63-19.25-6.63-16.62,0-28,12.8-28,29.72,0,17.44,11.76,29.62,27.86,29.62,12.08,0,18.89-5.26,21.16-7.53V115H114.3l7-7.33h19.49V133.8c-7.84,7.95-17.23,11.66-29.52,11.66-20.53,0-36.32-15.37-36.32-37.36,0-21.15,15.37-37.56,36.53-37.56,12.52,0,20.63,5.1,25,8.94Z"/></svg>