<svg id="Layer_1" data-name="Layer 1" xmlns="http://www.w3.org/2000/svg" viewBox="0 0 216 216"><defs><style>.cls-1{fill:#fff;}</style></defs><rect width="216" height="216" rx="108"/><path class="cls-1" d="M73.61,171.88a3.5,3.5,0,0,1-3.5-3.42L69.8,154a20.7,20.7,0,0,1-18.55-20.57V85.26A20.71,20.71,0,0,1,71.93,64.58h72.14a20.71,20.71,0,0,1,20.68,20.68v48.18a20.71,20.71,0,0,1-20.68,20.68H94.82L76.09,170.86A3.5,3.5,0,0,1,73.61,171.88ZM71.93,68.93A16.35,16.35,0,0,0,55.59,85.26v48.18a16.36,16.36,0,0,0,16.34,16.34h2.13l.35,16.61L93,149.78h51.05a16.35,16.35,0,0,0,16.33-16.34V85.26a16.34,16.34,0,0,0-16.33-16.33Z"/><polygon class="cls-1" points="91.68 92.86 124.86 109.34 91.68 125.83 91.68 92.86"/><circle class="cls-1" cx="155.91" cy="140.18" r="35.19"/><path d="M156.14,179.77h0a5.75,5.75,0,0,1-5.58-5.36L148.64,154a5.82,5.82,0,0,1,5.57-6.54h3.85a5.82,5.82,0,0,1,5.58,6.54l-1.93,20.4A5.73,5.73,0,0,1,156.14,179.77Z"/><path class="cls-1" d="M156.14,180.91a6.82,6.82,0,0,1-6.65-6.38l-1.93-20.41a7.38,7.38,0,0,1,1.69-5.46,6.54,6.54,0,0,1,5-2.34h3.85a6.51,6.51,0,0,1,5,2.34,7.38,7.38,0,0,1,1.7,5.46l-1.93,20.41A6.82,6.82,0,0,1,156.14,180.91Zm-1.93-32.29a4.36,4.36,0,0,0-3.35,1.58,4.91,4.91,0,0,0-1.15,3.69l1.93,20.41a4.5,4.5,0,0,0,9,0l1.92-20.41a4.89,4.89,0,0,0-1.14-3.69,4.36,4.36,0,0,0-3.36-1.58Z"/><circle cx="156.14" cy="138.1" r="7.53"/><path d="M144,158.09a22,22,0,1,1,24.35-.17l-2.8-4.15a17,17,0,1,0-18.81.14Z"/><path d="M141.2,167a30.85,30.85,0,1,1,29.93-.28l-2.47-4.35a25.85,25.85,0,1,0-25.07.24Z"/></svg>