<svg id="Layer_1" data-name="Layer 1" xmlns="http://www.w3.org/2000/svg" viewBox="0 0 216 216"><defs><style>.cls-1{fill:#fff;}</style></defs><rect width="216" height="216" rx="108"/><path class="cls-1" d="M175.26,114.11a1.67,1.67,0,0,1-.62-.12c-5.14-2-9.64-3.66-10.79-3.91a27.73,27.73,0,0,1-26.06-6.23,27.74,27.74,0,0,1,35.9-42.26,27.84,27.84,0,0,1,10.43,19.5h0a27.85,27.85,0,0,1-8.77,22.57l1.71,9.44-.75.64A1.62,1.62,0,0,1,175.26,114.11Zm-1.56-1.39v0Zm-10-5.9c.76,0,2.63.47,9.51,3.13l-1.36-7.51.69-.6a24.59,24.59,0,0,0,8.36-20.48h0a24.57,24.57,0,0,0-9.21-17.23,24.49,24.49,0,1,0-8.44,42.76A1.57,1.57,0,0,1,163.69,106.82Z"/><path class="cls-1" d="M65.06,63.54h72.75A18.66,18.66,0,0,1,156.47,82.2v48.59a18.67,18.67,0,0,1-18.66,18.66H85.22L67.71,167a1.34,1.34,0,0,1-2.29-.91l-.36-16.6A18.67,18.67,0,0,1,46.4,130.79V82.2A18.66,18.66,0,0,1,65.06,63.54Z"/><path d="M66.76,170a3.94,3.94,0,0,1-4-3.87l-.31-14.19a21.3,21.3,0,0,1-18.71-21.12V82.2A21.3,21.3,0,0,1,65.06,60.92h72.75A21.3,21.3,0,0,1,159.08,82.2v48.59a21.29,21.29,0,0,1-21.27,21.27H86.31L69.56,168.81A4,4,0,0,1,66.76,170ZM65.06,66.15a16.07,16.07,0,0,0-16,16v48.59a16.06,16.06,0,0,0,16,16h2.56L68,163l16.17-16.17h53.67a16.06,16.06,0,0,0,16-16V82.2a16.06,16.06,0,0,0-16-16Z"/><circle cx="102.87" cy="101.98" r="6.38"/><path d="M93.59,112.59a17.09,17.09,0,0,1,9.25-3.28,17,17,0,0,1,9.26,3.29c1,.76-2.61,8.26-9.25,8.26C97.73,120.86,92.61,113.35,93.59,112.59Z"/><path d="M134.2,103.07h-4.06l-.27-1.38a27.25,27.25,0,0,0-4.17-10.06l-.79-1.17,2.87-2.87a.6.6,0,0,0,0-.86l-4.66-4.66a.6.6,0,0,0-.43-.18.57.57,0,0,0-.43.18l-2.87,2.86-1.17-.78A27.32,27.32,0,0,0,108.16,80l-1.39-.27V75.65a.61.61,0,0,0-.61-.61H99.57a.61.61,0,0,0-.61.61v4.06L97.57,80a27.32,27.32,0,0,0-10.06,4.17l-1.17.78-2.86-2.86a.62.62,0,0,0-.87,0L78,86.73a.6.6,0,0,0,0,.86l2.87,2.87L80,91.63a27.13,27.13,0,0,0-4.16,10.06l-.27,1.38H71.54a.61.61,0,0,0-.61.62v6.59a.61.61,0,0,0,.61.61H75.6l.27,1.39a27.09,27.09,0,0,0,4.16,10l.79,1.17L78,126.37a.62.62,0,0,0,0,.87l4.66,4.66a.62.62,0,0,0,.87,0L86.34,129l1.17.79A27.13,27.13,0,0,0,97.57,134l1.39.27v4.06a.61.61,0,0,0,.61.61h6.59a.61.61,0,0,0,.61-.61v-4.06l1.39-.27a27.13,27.13,0,0,0,10.06-4.16l1.17-.79,2.87,2.87a.61.61,0,0,0,.43.18.65.65,0,0,0,.43-.18l4.66-4.66a.62.62,0,0,0,0-.87l-2.87-2.87.79-1.17a27.25,27.25,0,0,0,4.17-10.06l.27-1.38h4.06a.61.61,0,0,0,.61-.61v-6.59A.62.62,0,0,0,134.2,103.07Zm-31.33,23A19.13,19.13,0,1,1,122,107,19.15,19.15,0,0,1,102.87,126.11Z"/><path d="M186.38,131.16a1.5,1.5,0,0,0,0-3,1.5,1.5,0,0,0,0,3Z"/></svg>