<svg id="Layer_1" data-name="Layer 1" xmlns="http://www.w3.org/2000/svg" xmlns:xlink="http://www.w3.org/1999/xlink" viewBox="0 0 288 288"><defs><style>.cls-1{fill:url(#linear-gradient);}.cls-2{fill:#5585e5;}.cls-3{fill:#1d54a3;}.cls-4{fill:#fff;}.cls-5{fill:url(#linear-gradient-2);}</style><linearGradient id="linear-gradient" x1="144.58" y1="29.7" x2="144.58" y2="258.47" gradientUnits="userSpaceOnUse"><stop offset="0" stop-color="#5585e5"/><stop offset="0.11" stop-color="#5988e6" stop-opacity="0.98"/><stop offset="0.22" stop-color="#648fe7" stop-opacity="0.93"/><stop offset="0.32" stop-color="#769dea" stop-opacity="0.84"/><stop offset="0.42" stop-color="#90afee" stop-opacity="0.72"/><stop offset="0.52" stop-color="#b1c7f3" stop-opacity="0.57"/><stop offset="0.62" stop-color="#d9e4f9" stop-opacity="0.38"/><stop offset="0.7" stop-color="#fff" stop-opacity="0.2"/><stop offset="1" stop-color="#1d54a3"/></linearGradient><linearGradient id="linear-gradient-2" x1="157.99" y1="107.41" x2="131.45" y2="133.95" gradientUnits="userSpaceOnUse"><stop offset="0" stop-color="#5585e5"/><stop offset="0.2" stop-color="#5585e5"/><stop offset="0.35" stop-color="#4476d1"/><stop offset="0.6" stop-color="#2f63b8"/><stop offset="0.82" stop-color="#2258a8"/><stop offset="1" stop-color="#1d54a3"/></linearGradient></defs><path class="cls-1" d="M242,258.47H47.13a17.66,17.66,0,0,1-17.64-17.64V133.92a27.64,27.64,0,0,1,9.2-20.57l85.2-76.14A29.56,29.56,0,0,1,163,37l89.12,78a22,22,0,0,1,7.52,16.57V240.83A17.66,17.66,0,0,1,242,258.47Z"/><path class="cls-2" d="M33.13,124.9,129.93,187a26.46,26.46,0,0,0,29.21-.13l94.77-61.94V239.37a14,14,0,0,1-14,14H47.13a14,14,0,0,1-14-14Z"/><path class="cls-3" d="M242,258.47H47.13a17.66,17.66,0,0,1-17.64-17.64V133.92a27.64,27.64,0,0,1,9.2-20.57l85.2-76.14A29.56,29.56,0,0,1,163,37l89.12,78a22,22,0,0,1,7.52,16.57V240.83A17.66,17.66,0,0,1,242,258.47ZM143.58,37a22.21,22.21,0,0,0-14.84,5.66l-85.2,76.14a20.33,20.33,0,0,0-6.78,15.15V240.83a10.38,10.38,0,0,0,10.37,10.36H242a10.37,10.37,0,0,0,10.36-10.36V131.54a14.74,14.74,0,0,0-5-11.09l-89.11-78A22.28,22.28,0,0,0,143.58,37Z"/><path class="cls-4" d="M53.38,137.88V63.73A10.63,10.63,0,0,1,64,53.1H225.44a10.63,10.63,0,0,1,10.63,10.63v72.83l-71.14,48.91a36.23,36.23,0,0,1-40.82.17Z"/><path class="cls-3" d="M144.39,195.54a39.81,39.81,0,0,1-22.32-6.88L49.74,139.82V63.73A14.28,14.28,0,0,1,64,49.46H225.44A14.28,14.28,0,0,1,239.7,63.73v74.74l-72.71,50A39.81,39.81,0,0,1,144.39,195.54ZM57,136l69.12,46.68a32.42,32.42,0,0,0,36.73-.15l69.56-47.83V63.73a7,7,0,0,0-7-7H64a7,7,0,0,0-7,7Z"/><rect class="cls-4" x="171.9" y="221.07" width="7.27" height="19.57"/><rect class="cls-4" x="192.79" y="221.07" width="7.27" height="19.57"/><rect class="cls-4" x="213.68" y="221.07" width="7.27" height="19.57"/><rect class="cls-4" x="234.58" y="221.07" width="7.27" height="19.57"/><rect class="cls-4" x="49.84" y="212.79" width="33.5" height="7.27"/><rect class="cls-4" x="49.84" y="232.36" width="59.69" height="7.27"/><rect class="cls-3" x="229.08" y="128.72" width="27.07" height="7.27" transform="translate(-32.77 155.67) rotate(-33.45)"/><rect class="cls-3" x="41.05" y="118.6" width="7.27" height="27.52" transform="translate(-90.75 98.13) rotate(-57.16)"/><polygon class="cls-5" points="168.32 117.74 147.67 117.74 147.67 97.08 141.78 97.08 141.78 117.74 121.12 117.74 121.12 123.63 141.78 123.63 141.78 144.28 147.67 144.28 147.67 123.63 168.32 123.63 168.32 117.74"/></svg>