<svg id="Layer_1" data-name="Layer 1" xmlns="http://www.w3.org/2000/svg" viewBox="0 0 83 83.23"><defs><style>.cls-1{fill:#eec198;}</style></defs><path class="cls-1" d="M37.23,41.07H49.92V31.4H36.66a4,4,0,0,0-4,3.45,8,8,0,0,0-.07,1.89C32.8,39.58,34.41,41.07,37.23,41.07Z"/><path class="cls-1" d="M.17,82.81H82.48V.37H.17ZM30,44.63c-3.39-2.35-4.76-5.69-4.21-10.19s3.92-7.67,8.81-8.32a23.08,23.08,0,0,1,3.11-.18H56.49v29H50V46.52H37.34L34.8,51.28,32.8,55H25.34l5.25-9.87Z"/><path class="cls-1" d="M37.39,41.07H50.2V31.31H36.8a4,4,0,0,0-4,3.49,8.13,8.13,0,0,0-.07,1.91C32.93,39.56,34.55,41.06,37.39,41.07Z"/><path class="cls-1" d="M0,83.23H83V0H0ZM30.07,44.71c-3.42-2.38-4.81-5.74-4.25-10.29s4-7.74,8.89-8.39a23.52,23.52,0,0,1,3.14-.18h19v29.3h-6.6v-8.5H37.5L35,51.43l-2,3.74H25.43l5.31-10Z"/></svg>