<svg id="Layer_1" data-name="Layer 1" xmlns="http://www.w3.org/2000/svg" xmlns:xlink="http://www.w3.org/1999/xlink" viewBox="0 0 791.28 791.28"><defs><style>.cls-1{fill:none;}.cls-2{opacity:0.5;}.cls-3{clip-path:url(#clip-path);}.cls-4{fill:#1a1a1a;}</style><clipPath id="clip-path" transform="translate(-561.03 -131.16)"><rect class="cls-1" x="650.67" y="131.16" width="612" height="792"/></clipPath></defs><g class="cls-2"><g class="cls-3"><path class="cls-4" d="M886.58,785.17c-8.92-12.91-32.39-18.79-50.42-18.79a73.33,73.33,0,0,0-15.31,1.5c-17,3.65-31.42,6.94-44.18,9.83-34.18,7.76-54.8,12.44-71.95,12.44-14.28,0-26.51-3.18-43.64-11.36a410.79,410.79,0,0,1-41.56-23.21c-16.54-10.24-27.46-17-42.42-17A64.13,64.13,0,0,0,561,740.86v1.27a63.07,63.07,0,0,1,16.07-2.33c14.61,0,25.41,6.69,41.77,16.83a411.08,411.08,0,0,0,41.68,23.26c17.31,8.27,29.69,11.49,44.17,11.49,17.28,0,38-4.69,72.22-12.47,12.76-2.89,27.22-6.18,44.17-9.83a72.27,72.27,0,0,1,15-1.47c17.72,0,40.74,5.72,49.41,18.26,3.82,5.53,4.45,11.82,1.85,18.69-5.17,13.71-29.35,25.82-50.69,36.5-12.89,6.46-25.07,12.56-31.33,18.22-18.31,16.55-13.92,39-6.49,63.16h1.29c-7.37-23.93-11.82-46.11,6-62.24,6.14-5.55,18.25-11.62,31.07-18,21.53-10.78,45.94-23,51.29-37.17C891.32,797.72,890.65,791.05,886.58,785.17Z" transform="translate(-561.03 -131.16)"/><path class="cls-4" d="M566.61,644.44c2.5-54.24,37.08-93.78,64.86-125.55l2-2.25c3.22-3.39,10.66-12.47,10.07-23.43-.35-6.67-3.66-12.71-9.82-17.95-3.69-3.13-7.11-6.07-10.36-8.86C609,454.06,597.61,444.32,580,432.1c-6.44-4.46-12.78-8.69-19-12.66v.62q9.13,5.88,18.66,12.47c17.6,12.21,28.94,21.94,43.3,34.27,3.25,2.79,6.67,5.73,10.36,8.87,6,5.13,9.29,11.05,9.64,17.57.57,10.76-6.76,19.69-9.94,23l-2,2.27c-27.84,31.83-62.48,71.44-65,125.86-.26,5.8-2.52,9.34-5.05,10.55v.63C563.77,654.46,566.31,650.87,566.61,644.44Z" transform="translate(-561.03 -131.16)"/><path class="cls-4" d="M874.61,867.52a12.11,12.11,0,0,0-8.93-3.5c-11,0-24.88,10.93-29.49,15.92-17,18.37-19,28.66-15.55,42.5h.92c-3.38-13.67-1.48-23.8,15.27-41.9,4.53-4.9,18.09-15.64,28.85-15.64a11.27,11.27,0,0,1,8.31,3.24c3.66,3.68,5.5,10.51,5.46,20.3-.06,11.89-2.1,22.87-4.7,34h.9c2.59-11.11,4.62-22.08,4.67-34C880.37,878.42,878.45,871.37,874.61,867.52Z" transform="translate(-561.03 -131.16)"/><path class="cls-4" d="M578.91,645c2.3-49.94,35.3-87.68,61.82-118l2-2.26A207.06,207.06,0,0,0,656.13,508c4.12-5.91,11.8-16.89-6.33-34.4A506.34,506.34,0,0,0,587,422q-13.53-9.37-26-17v.62q12.27,7.52,25.67,16.77a502.68,502.68,0,0,1,62.73,51.51c17.81,17.19,10.3,27.94,6.26,33.71a205.75,205.75,0,0,1-13.37,16.74l-2,2.27c-26.58,30.39-59.65,68.21-62,118.33-1.07,23.25-5.2,36.78-13,42.57a9,9,0,0,1-4.36,1.92V690a9.46,9.46,0,0,0,4.68-2C573.63,682.08,577.83,668.42,578.91,645Z" transform="translate(-561.03 -131.16)"/><path class="cls-4" d="M793.53,287.81c-3.41-13.5-31-17.11-62.91-21.29-7.89-1-16-2.1-24-3.35-35-5.52-67-23.09-98-40.09-15.52-8.51-31.37-17.2-47.59-24.34v1.34c16,7.09,31.66,15.67,47,24.08,31.08,17.05,63.21,34.67,98.43,40.23,7.94,1.25,16.1,2.32,24,3.35,30.17,3.95,58.67,7.68,61.88,20.37C794.84,298,782,313,753,334c-40.67,29.41-74.8,43.11-107.39,43.11-18.53,0-36.9-4.6-54.6-13.67-11-5.65-20.72-12.51-30-19.44v1.53c9.07,6.78,18.6,13.46,29.41,19,17.88,9.16,36.43,13.81,55.15,13.81h0c32.87,0,67.22-13.78,108.11-43.35C783.56,313.36,796.21,298.38,793.53,287.81Z" transform="translate(-561.03 -131.16)"/><path class="cls-4" d="M565.59,565.36c4.74-8.33,10.88-15.9,16.82-23.21,8.57-10.54,17.43-21.45,22.2-34.85,8.41-23.62-8.07-34.54-25.53-46.09-1.6-1.07-3.22-2.14-4.85-3.24-2.88-2-5.59-3.79-8.27-5.64-1.31-.91-2.93-2.08-4.93-3.54v.66c1.85,1.34,3.39,2.45,4.63,3.31,2.68,1.86,5.4,3.7,8.29,5.66,1.61,1.09,3.23,2.16,4.84,3.23,17.28,11.43,33.59,22.24,25.32,45.48-4.74,13.31-13.57,24.18-22.11,34.69-6,7.33-12.11,14.91-16.87,23.28a77.49,77.49,0,0,0-4.1,9.22v1.43c.14-.36.28-.72.43-1.08A78.69,78.69,0,0,1,565.59,565.36Z" transform="translate(-561.03 -131.16)"/><path class="cls-4" d="M1117.35,870.35c-.68-6-4.42-11.1-11.13-15.33-12.12-7.63-37.48-11-57.23-11-3.86,0-7.39.13-10.5.38-19.28,1.6-39.36,5.41-61.39,11.64-3.16.89-6.29,1.85-9.32,2.85-36.73,12.2-58,31.5-68.17,63.59h.94c10.15-31.64,31.2-50.7,67.51-62.75,3-1,6.14-2,9.28-2.85,22-6.21,42-10,61.22-11.6,3.09-.26,6.6-.39,10.43-.39,19.63,0,44.79,3.38,56.77,10.92,6.47,4.07,10.07,9,10.72,14.68,1.62,14.26-15,31-28.37,44.42-2.7,2.71-5.21,5.24-7.4,7.57h1.21c2-2.16,4.35-4.47,6.81-7C1102.23,901.92,1119,885,1117.35,870.35Z" transform="translate(-561.03 -131.16)"/><path class="cls-4" d="M781.5,825.63c2.85-1.78,6.13-2,9-2,1.34,0,2.69.06,4.11.12s2.88.13,4.34.13c3.28,0,7.54-.31,11.42-2.71,10-6.19,13.3-13.37,12.15-17.43-.76-2.68-3.36-4.22-7.13-4.22-3.35,0-7.62,1.21-12.33,3.48-3,1.45-5.72,4-8.34,6.57-3.16,3-6.44,6.18-10.19,7.21a13,13,0,0,1-3.5.47,24.25,24.25,0,0,1-6.75-1.25,25.24,25.24,0,0,0-7.06-1.3,14.46,14.46,0,0,0-2.63.24c-4.46.83-7.51,3.66-10.46,6.4-2.46,2.28-5,4.64-8.35,5.81-3.78,1.32-8.91,2-15.67,2a242.92,242.92,0,0,1-26.38-2c-2.25-.26-4.35-.49-6.21-.68-16.27-1.63-33.19-6.73-51.72-15.58a440.08,440.08,0,0,1-44.95-25.06A35.45,35.45,0,0,0,582.08,780c-8,0-15,3-21.05,7.69v.66c6-4.73,13.08-7.82,21.05-7.82a34.94,34.94,0,0,1,18.47,5.68,438.74,438.74,0,0,0,45,25.08c18.59,8.88,35.57,14,51.9,15.64,1.86.18,3.95.42,6.2.67,7.85.89,17.61,2,26.44,2,6.82,0,12-.65,15.85-2,3.44-1.21,6-3.6,8.52-5.92,3-2.81,5.9-5.46,10.2-6.27a13.56,13.56,0,0,1,2.54-.23,25.1,25.1,0,0,1,6.91,1.27,24.74,24.74,0,0,0,6.9,1.28,13.64,13.64,0,0,0,3.64-.49c3.88-1.07,7.2-4.26,10.42-7.34,2.59-2.49,5.27-5.06,8.2-6.48,4.64-2.23,8.83-3.42,12.1-3.42,3.57,0,5.92,1.36,6.62,3.84,1.1,3.87-2.16,10.79-11.92,16.83-3.77,2.34-7.93,2.64-11.14,2.64-1.44,0-2.9-.07-4.32-.14s-2.78-.12-4.13-.12c-2.91,0-6.29.25-9.25,2.11-3.26,2-5.73,7.21-8.12,12.21a51.81,51.81,0,0,1-4.26,7.84c-12,16.39-12.77,34-10.17,55.49a172,172,0,0,0,4.2,21.71h.54a171.19,171.19,0,0,1-4.21-21.77c-2.59-21.33-1.86-38.87,10.07-55.12a53,53,0,0,0,4.31-7.92C775.93,832.69,778.37,827.6,781.5,825.63Z" transform="translate(-561.03 -131.16)"/><path class="cls-4" d="M836.65,238.29c-3,0-7.3,1.93-10.44,11.12-3.53,10.34,3.27,12.74,10.47,15.28,1.26.45,2.57.91,3.84,1.42a20,20,0,0,0,7.09,1.72,4.85,4.85,0,0,0,4.43-2.08c2.69-4.26-1.62-13.71-3.6-17.57C845.24,242,840.83,238.29,836.65,238.29Zm14.65,27c-1.41,2.23-5,2.22-10.46,0-1.28-.51-2.59-1-3.87-1.42-7.07-2.5-13.18-4.66-9.93-14.17,2.35-6.89,5.68-10.53,9.61-10.53s8,3.52,11,9.42C851.64,256.35,853,262.59,851.3,265.28Z" transform="translate(-561.03 -131.16)"/><path class="cls-4" d="M608.55,526.65l2.39-2.82c11.32-13.32,23-27.09,9.72-43.55-10.29-12.74-25.82-23.24-39.52-32.5-2.84-1.92-5.52-3.73-8.16-5.57-1.78-1.22-4.18-3-7-5-1.53-1.11-3.2-2.34-5-3.63v.65l4.68,3.41c2.78,2,5.19,3.79,7,5,2.64,1.83,5.32,3.65,8.16,5.57,13.67,9.24,29.17,19.72,39.41,32.39,13,16.12,1.47,29.72-9.71,42.87-.81.95-1.61,1.89-2.39,2.83-9.83,11.71-22.39,27.4-32.32,44.87A185.82,185.82,0,0,0,561,604.37v1.73a185.59,185.59,0,0,1,15.26-34.66C586.2,554,598.73,538.35,608.55,526.65Z" transform="translate(-561.03 -131.16)"/><path class="cls-4" d="M847,919.49a22.29,22.29,0,0,0-3.36-6.73c-1.95-3-3.63-5.49-3-10.29.92-6.57,8.86-22.77,17.44-22.77h.25c4.3.17,7,1.25,8.1,3.22,2,3.62-1.59,9.73-4.46,14.64-1.56,2.65-2.9,5-3.14,6.44-.47,3,.84,4.67,2.12,6.32,1,1.3,2,2.54,1.92,4.35-.09,3.82-1.78,5.61-3.57,7.51l-.25.26h.72c1.83-1.94,3.54-3.8,3.63-7.76,0-2-1-3.37-2-4.69-1.2-1.55-2.45-3.16-2-5.9.23-1.4,1.55-3.66,3.07-6.27,2.94-5,6.6-11.27,4.48-15.15-1.2-2.18-4-3.32-8.55-3.49h-.27c-8.86,0-17,16.53-18,23.22-.7,5,1.12,7.75,3,10.66a21.9,21.9,0,0,1,3.29,6.58,15.82,15.82,0,0,1,.53,2.81h.53A17.74,17.74,0,0,0,847,919.49Z" transform="translate(-561.03 -131.16)"/><path class="cls-4" d="M598.53,348.68c13.37,6.84,24.72,10,35.74,10,11.53,0,21.78-3.46,33.66-7.47,6.73-2.28,14.36-4.86,23-7A43.48,43.48,0,0,1,701.66,343c1.68,0,3.29.07,4.84.13s2.87.12,4.25.12c7.13,0,12.79-1.69,19-10.08a48.23,48.23,0,0,0,7.15-13.89c2.07-5.77,3.71-10.33,12.82-16.85a43.63,43.63,0,0,1,8.93-4.26c5.21-2,9.71-3.82,9.9-6.82.15-2.43-2.68-5.14-8.91-8.54-7.47-4.05-18.12-4.59-27.55-4.59-4.21,0-8.63.13-12.9.25s-8.73.26-13,.26c-9.47,0-16.11-.66-21.53-2.13-30.6-8.31-59.29-24-84.6-37.92-13.29-7.29-26.18-14.35-39.05-20.42v1c12.72,6,25.48,13,38.63,20.22,25.35,13.9,54.09,29.66,84.79,38,5.5,1.49,12.21,2.16,21.76,2.16,4.26,0,8.71-.13,13-.26s8.68-.25,12.87-.25c9.32,0,19.84.53,27.13,4.49,5.73,3.12,8.57,5.71,8.45,7.7-.15,2.44-4.62,4.2-9.34,6.06a43.91,43.91,0,0,0-9.12,4.37c-9.34,6.67-11.1,11.58-13.14,17.26a47.34,47.34,0,0,1-7,13.67c-6,8.09-11.45,9.72-18.3,9.72-1.36,0-2.75-.06-4.21-.12s-3.18-.13-4.88-.13a44.16,44.16,0,0,0-10.93,1.26c-8.68,2.18-16.33,4.76-23.09,7-11.79,4-22,7.43-33.37,7.43-10.87,0-22.1-3.15-35.34-9.94-12.1-6.2-23-14.45-33.51-22.43L561,322.14v1.1l3.86,2.93C575.45,334.17,586.36,342.44,598.53,348.68Z" transform="translate(-561.03 -131.16)"/><path class="cls-4" d="M1026.45,898a10.47,10.47,0,0,0-3.91-.55c-10.2,0-31.82,6.08-32,6.14-2.42.69-4.83,1.43-7.16,2.2-12,4-20.8,9.28-27.25,16.69h.7c6.36-7.16,15.05-12.32,26.71-16.19,2.33-.77,4.73-1.51,7.14-2.19.22-.06,21.76-6.13,31.89-6.13a10.2,10.2,0,0,1,3.7.51c3.91,1.68,2.47,6.13-.68,15.88-.75,2.34-1.63,5.08-2.54,8.12h.55c.9-3,1.76-5.66,2.5-8C1029.21,904.72,1030.79,899.82,1026.45,898Z" transform="translate(-561.03 -131.16)"/><path class="cls-4" d="M1002.58,913.79a33,33,0,0,0-8.77,1.44c-2.25.63-4.48,1.32-6.64,2a66.19,66.19,0,0,0-11.86,5.18h1.84a67.89,67.89,0,0,1,10.3-4.34c2.14-.71,4.36-1.39,6.6-2a32.4,32.4,0,0,1,8.53-1.4c4.39,0,7,1.6,7.9,4.77a9.94,9.94,0,0,1,.26,3h.88a11.15,11.15,0,0,0-.29-3.23C1010.66,916.73,1008.6,913.79,1002.58,913.79Z" transform="translate(-561.03 -131.16)"/><path class="cls-4" d="M1057.82,884.73c-1.53-3.08-6.81-4.18-16.26-3.39-16.88,1.4-34.67,4.79-54.37,10.36-2.63.74-5.23,1.54-7.72,2.37-17.88,5.93-30.36,15-38.47,28.37h.62c8.06-13.07,20.4-22,38-27.87,2.48-.83,5.07-1.62,7.7-2.36,19.67-5.57,37.41-9,54.26-10.35,1.93-.15,3.71-.24,5.29-.24,5.92,0,9.34,1.1,10.46,3.34,2,3.95-3.57,11.27-8.92,18.35-1,1.26-1.9,2.52-2.82,3.77a161.88,161.88,0,0,0-10,15.36h.61a160.85,160.85,0,0,1,9.8-15.05c.91-1.25,1.86-2.51,2.81-3.76C1054.55,896.09,1059.93,889,1057.82,884.73Z" transform="translate(-561.03 -131.16)"/><path class="cls-4" d="M1075.56,893.77c8.11-7.62,11.37-13.64,9.67-17.92-2-5.07-11-7.64-26.57-7.64-5.21,0-11.14.28-18.12.86-17.67,1.47-36.22,5-56.7,10.78-2.77.79-5.55,1.64-8.24,2.54-23.46,7.78-39.29,20.75-48.61,40.05h.6c9.27-19,25-31.85,48.17-39.55,2.69-.9,5.46-1.75,8.23-2.53,20.44-5.78,39-9.3,56.59-10.76,7-.58,12.88-.86,18.08-.86,15.39,0,24.16,2.46,26.08,7.31,1.61,4.05-1.6,9.88-9.54,17.34-1.59,1.49-3.13,3-4.42,4.25-6.07,6.1-11.32,11.38-15.24,16.71-2,2.65-3.78,5.35-5.57,8.09h.63c1.72-2.63,3.49-5.23,5.37-7.78,3.9-5.3,9.13-10.56,15.18-16.65C1072.44,896.71,1074,895.26,1075.56,893.77Z" transform="translate(-561.03 -131.16)"/><path class="cls-4" d="M606.63,332.87c13,6.66,25.73,9.89,39,9.9,7.4,0,23.38-3,37.31-8.08,12.2-4.42,26.76-11.77,26.79-21.66,0-11.65-22.44-18.12-35.88-22-2.92-.84-5.44-1.57-7.13-2.18-24-8.71-47.93-19.72-75.14-34.64C581.15,248.53,571,243,561,238v.59c9.91,5,20,10.47,30.26,16.12,27.23,14.94,51.13,25.95,75.21,34.68,1.7.61,4.24,1.34,7.17,2.19C687,295.38,709.2,301.78,709.16,313c-.06,17.09-48.23,29.22-63.58,29.22-13.13,0-25.79-3.22-38.71-9.84-10.74-5.51-21-13.28-30.93-20.81-4.8-3.64-9.75-7.39-14.91-11v.65c5.05,3.57,9.89,7.23,14.59,10.8C585.57,319.55,595.85,327.34,606.63,332.87Z" transform="translate(-561.03 -131.16)"/><path class="cls-4" d="M612.24,321.91c11.21,5.75,22.11,8.54,33.34,8.55,9.76,0,22.49-2.89,27.4-9.24a10.63,10.63,0,0,0,1.78-9.63c-2.22-8.52-20.08-14.55-33.12-19-4.21-1.42-7.85-2.65-10.09-3.69-15.06-7-30-15.16-44.39-23.07l-1.6-.89c-8.34-4.57-16.5-9-24.53-13.18v.59c7.94,4.11,16,8.53,24.27,13.06l1.61.88c14.42,7.91,29.34,16.09,44.42,23.09,2.26,1.05,5.92,2.29,10.14,3.71,12.2,4.12,30.63,10.34,32.78,18.6a10.07,10.07,0,0,1-1.69,9.16c-4.8,6.21-17.35,9-27,9-11.12,0-21.93-2.78-33.07-8.48-9.78-5-19.6-12.46-29.11-19.67C576.5,296.57,569.12,291,561,285.7v.63c8,5.22,15.24,10.73,22,15.87C592.58,309.42,602.42,316.88,612.24,321.91Z" transform="translate(-561.03 -131.16)"/><path class="cls-4" d="M873.1,141.69c.88-3.55,1.74-7.05,2.55-10.53h-.9c-.8,3.41-1.64,6.84-2.5,10.32-1.62,6.52-3.29,13.26-4.64,20.14-4.5,22.95-8.39,53,1.66,82.23,4.08,11.87,14.25,21.56,23.22,30.11,8,7.61,14.89,14.19,14.27,19.71-.29,2.54-2.15,4.8-5.68,6.91-1.63,1-4.42,1.46-8.28,1.46-13.5,0-37.32-6-54.93-11.86-19.16-6.43-42.77-16.66-46.43-28.93-1.17-3.91-.21-7.85,2.85-11.73A181,181,0,0,1,806.48,236c8-8.32,15.56-16.18,20.57-27.85a72.91,72.91,0,0,0,2.57-51.56c-1.31-4.26-2.64-8.19-3.81-11.65-1.73-5.12-3.23-9.59-4.25-13.73h-.92c1,4.23,2.58,8.78,4.34,14,1.17,3.46,2.49,7.38,3.8,11.63a72,72,0,0,1-2.54,51c-4.94,11.51-12.45,19.32-20.39,27.58A180.73,180.73,0,0,0,793.6,249c-3.25,4.12-4.25,8.33-3,12.53,3.77,12.63,27.63,23,47,29.51,17.68,5.93,41.61,11.91,55.21,11.91,4,0,7-.53,8.73-1.59,3.79-2.25,5.78-4.73,6.1-7.56.67-6-6.37-12.67-14.53-20.44-8.9-8.49-19-18.1-23-29.77-10-29-6.11-58.93-1.63-81.77C869.82,154.93,871.49,148.2,873.1,141.69Z" transform="translate(-561.03 -131.16)"/><path class="cls-4" d="M727.43,553c-.88,1.45-1.71,2.83-2.43,3.84-8.89,12.54-19.42,23.65-31.27,35.85-1.6,1.64-3.24,3.3-4.9,5-9.78,9.88-19.9,20.1-26,32.18-2.35,4.69-3.07,8.34-2.09,10.57a3.41,3.41,0,0,0,2.3,2,5.32,5.32,0,0,0,1.49.2c2.17,0,5-1.05,8.32-3A192.25,192.25,0,0,0,691.56,626c4.89-3.86,10-7.84,15.18-11.3,21-14,35-23.17,41.46-49.18,1.34-5.39,2.13-17.68-2-23a6.41,6.41,0,0,0-5.65-2.59C735.11,540.23,730.67,547.59,727.43,553Zm13.5-12.49a5.85,5.85,0,0,1,4.82,2.41c4.06,5.18,3.26,17.25,1.93,22.56-6.45,25.81-20.29,35-41.24,48.86-5.23,3.47-10.3,7.46-15.21,11.32a188,188,0,0,1-18.61,13.47c-3.94,2.39-7.3,3.38-9.39,2.78a3,3,0,0,1-2-1.7c-.9-2-.16-5.65,2.08-10.12,6-12,16.1-22.2,25.86-32,1.66-1.68,3.3-3.34,4.9-5,11.86-12.21,22.4-23.35,31.32-35.92.73-1,1.57-2.41,2.45-3.87,3.18-5.27,7.53-12.48,12.67-12.75Z" transform="translate(-561.03 -131.16)"/><path class="cls-4" d="M617.77,311.11c3.5,1.8,13.36,5,20.51,5a10.71,10.71,0,0,0,5.78-1.26c2.79-1.81,4-3.5,3.76-5.18-.57-3.71-8.62-5.95-15.1-7.74a49.06,49.06,0,0,1-6.27-2c-15.44-7.16-30.53-15.44-45.12-23.45l-1.62-.88c-6.33-3.47-12.55-6.88-18.68-10.13v1c6,3.17,12.08,6.51,18.27,9.9l1.61.89c14.6,8,29.71,16.29,45.17,23.47a50.88,50.88,0,0,0,6.41,2c5.9,1.64,14,3.89,14.46,7,.2,1.28-.93,2.74-3.37,4.32a10,10,0,0,1-5.3,1.11c-6.92,0-16.77-3.2-20.11-4.91-8.8-4.51-18.17-11.61-27.25-18.5-8.67-6.57-18.53-14-29.89-20.83v1c11.15,6.71,20.84,14.05,29.38,20.52C599.5,299.44,608.9,306.57,617.77,311.11Z" transform="translate(-561.03 -131.16)"/><path class="cls-4" d="M591.38,645.58c2.1-45.58,33.51-81.5,58.75-110.36l2-2.28c30-34.36,28.79-46.35,14.71-60.25a544.57,544.57,0,0,0-72.71-61c-11.25-7.79-22.37-14.91-33.09-21.26v1c10.56,6.27,21.51,13.29,32.58,21a542.09,542.09,0,0,1,72.6,60.87c13.68,13.49,14.79,25.22-14.75,59l-2,2.28c-25.33,29-56.85,65-59,110.9-2,43.07-18.21,55.71-29.47,59.26v.92C572.55,702.21,589.35,689.5,591.38,645.58Z" transform="translate(-561.03 -131.16)"/><path class="cls-4" d="M1101,869.3c-5.17-11-26-13.32-42.66-13.32-5.83,0-12.15.28-18.78.83-18.46,1.52-37.77,5.19-59,11.2-3,.84-5.93,1.75-8.78,2.69-18.29,6.07-32.36,14.85-43,26.85a85.27,85.27,0,0,0-15.24,24.89H914c10.17-25.11,28.93-41.64,57.84-51.24,2.85-.94,5.79-1.84,8.76-2.68,21.22-6,40.49-9.66,58.93-11.19,6.61-.55,12.91-.82,18.73-.82,16.46,0,37.13,2.25,42.18,13,5.53,11.79-7.92,24.44-16.83,32.81-1.51,1.42-2.94,2.77-4.14,4-5.72,5.76-10.67,10.73-14,15.33l-.58.8h.65l.36-.49c3.36-4.57,8.28-9.53,14-15.27,1.2-1.2,2.62-2.54,4.14-4C1093,894.25,1106.65,881.44,1101,869.3Z" transform="translate(-561.03 -131.16)"/><path class="cls-4" d="M738.71,840.9c-7.83-2-16.24-2.14-24.37-2.26-4.69-.08-9.54-.15-14.17-.59-22.14-2.11-41.12-7.23-59.71-16.11a450.72,450.72,0,0,1-46.13-25.7,23.36,23.36,0,0,0-12.25-3.91c-7.35,0-15,4.81-21.05,12.86v.88c6.06-8.25,13.69-13.21,21.05-13.21a22.89,22.89,0,0,1,12,3.83,450.31,450.31,0,0,0,46.18,25.73c18.64,8.91,37.67,14,59.88,16.15,4.65.45,9.51.52,14.22.6,8.1.12,16.47.25,24.24,2.24,12.08,3.11,11.65,11.94,9.93,22.29-2,12.36-3.74,24.6-2.06,38.51a179.26,179.26,0,0,0,3.75,20.23h.54A178.11,178.11,0,0,1,747,902.15c-1.68-13.84,0-26,2-38.36C750.73,853.56,751.21,844.12,738.71,840.9Z" transform="translate(-561.03 -131.16)"/><path class="cls-4" d="M785.46,146.37c12.06,37.53,16.95,57.92-13,75.2a56.23,56.23,0,0,1-16.56,6.23,81,81,0,0,1-16.85,1.66c-55.59,0-132-46.46-173-71.42l-1.39-.85L561,155v1l3.22,2,1.4.85c41.1,25,117.6,71.54,173.44,71.55a82.09,82.09,0,0,0,17-1.68,57,57,0,0,0,16.82-6.33c30.5-17.62,25.56-38.26,13.36-76.23-1.54-4.81-3.15-9.82-4.62-14.94h-.91C782.26,136.37,783.89,141.47,785.46,146.37Z" transform="translate(-561.03 -131.16)"/><path class="cls-4" d="M715.28,141c.35,1.32.84,3,1.4,4.78,1.59,5.2,1.31,8.71-.84,10.42a7.32,7.32,0,0,1-4.67,1.3c-8.58,0-22.87-7.66-27.56-10.17-2.3-1.23-4-2.15-5.38-2.83L671,141q-9.91-4.86-19.31-9.79h-1.13q9.79,5.16,20.21,10.26L678,145c1.34.67,3.07,1.6,5.36,2.82,4.72,2.53,19.1,10.24,27.81,10.24a7.89,7.89,0,0,0,5-1.41c2.33-1.87,2.67-5.57,1-11-.56-1.83-1.05-3.45-1.41-4.78-.84-3.18-1.7-6.4-2.49-9.7h-.54C713.55,134.51,714.42,137.78,715.28,141Z" transform="translate(-561.03 -131.16)"/><path class="cls-4" d="M768.89,151.69c4.88,15.19,9.55,34.25,2.25,46.84-3.61,6.23-9.94,10.35-18.82,12.24a63.59,63.59,0,0,1-13.23,1.28c-50.72,0-124.37-44.81-163.94-68.88l-7.3-4.43c-2.24-1.36-4.51-2.62-6.82-3.81v.59c2.21,1.15,4.4,2.37,6.55,3.67l7.3,4.43c39.61,24.1,113.34,68.95,164.21,69a64.65,64.65,0,0,0,13.34-1.29c9-1.92,15.48-6.13,19.17-12.5,7.4-12.76,2.71-32-2.21-47.26-2.1-6.56-4.19-13.38-6-20.37h-.54C764.66,138.21,766.77,145.08,768.89,151.69Z" transform="translate(-561.03 -131.16)"/><path class="cls-4" d="M727.17,137.84c.32,1.2.77,2.67,1.29,4.36,2.55,8.37,6.41,21,2.76,26.85a10.4,10.4,0,0,1-6.85,4.62,19.21,19.21,0,0,1-4.09.41c-12.85,0-32.13-10.34-42.49-15.9-2-1.07-3.75-2-5-2.65l-.9-.45L669,153.67,665.6,152c-14-6.86-27.3-13.87-39.55-20.84H625c12.48,7.12,26.06,14.3,40.37,21.31l3.4,1.67,2.84,1.41.9.45c1.3.64,3,1.57,5,2.65,10.4,5.58,29.76,16,42.74,16a19.67,19.67,0,0,0,4.21-.43,10.91,10.91,0,0,0,7.18-4.85c3.77-6-.13-18.82-2.71-27.28-.52-1.69-1-3.15-1.28-4.34-.57-2.16-1.15-4.35-1.71-6.55h-.54C726,133.41,726.59,135.64,727.17,137.84Z" transform="translate(-561.03 -131.16)"/><path class="cls-4" d="M739.07,134.68c2.5,9.38,5.08,19.08,5.35,29.09.35,12.94-4.69,20.35-15,22a31,31,0,0,1-5,.37c-17.88,0-43.47-12.76-57.22-19.62l-3.69-1.83-3.39-1.66c-21.39-10.48-41.21-21.34-58.24-31.89h-1c17.2,10.7,37.3,21.73,59,32.36l3.39,1.67L667,167c13.79,6.88,39.46,19.68,57.46,19.68a32,32,0,0,0,5-.38c10.6-1.72,15.79-9.31,15.43-22.56-.28-10.07-2.87-19.8-5.37-29.21l-.9-3.38h-.54Z" transform="translate(-561.03 -131.16)"/><path class="cls-4" d="M757.17,155.45c.26.81.53,1.61.79,2.42,2.81,8.55,5.72,17.4,1,25.94-3.91,7.12-11.85,12.89-20.21,14.71a26,26,0,0,1-2.57.43,57.37,57.37,0,0,1-6.53.37c-23.61,0-51.3-13.62-71.53-23.55l-3.38-1.67c-26-12.72-51.08-28-73.21-41.45l-2.47-1.49h-1l3.2,1.94c22.15,13.47,47.25,28.74,73.26,41.48l3.38,1.66c20.27,10,48,23.6,71.76,23.6a56.49,56.49,0,0,0,6.6-.37c.86-.1,1.74-.25,2.61-.43,8.51-1.85,16.58-7.73,20.57-15,4.8-8.74,1.86-17.69-1-26.35-.26-.81-.53-1.62-.79-2.42-2.47-7.71-4.91-15.78-6.92-24.13h-.55C752.23,139.57,754.68,147.69,757.17,155.45Z" transform="translate(-561.03 -131.16)"/><path class="cls-4" d="M738,523.69c-7.71,1.91-14.46,12.59-19.88,21.17-1.9,3-3.69,5.83-5.26,7.86-8.73,11.27-18.58,21.42-28.11,31.22-2.48,2.56-5.6,5.45-8.9,8.51-9.81,9.09-22,20.41-25.74,30.77-3.12,8.71-1.28,17,.5,25,1.46,6.6,3,13.41,1.78,20.49-.74,4.39-3.4,8.72-6.22,13.3-3.37,5.48-6.86,11.15-7.07,17.24a16.46,16.46,0,0,0,1,6.09c2.33,6.51,4.75,9.55,7.63,9.55s6-3,10.56-10.24c4.39-6.94,6.12-15,7.79-22.76s3.41-15.88,7.84-22.87c8.44-13.3,23.31-23.09,36.44-31.74l3.29-2.17c21.79-14.44,39-25.84,46.68-56.56,2-8.13,1.5-28.83-6.77-39.42C749.52,524,744.25,522.16,738,523.69Zm14.82,6c7.41,9.5,8.88,29.56,6.61,38.67-7.6,30.38-24.68,41.7-46.32,56l-3.28,2.17c-13.2,8.69-28.17,18.54-36.7,32-4.51,7.12-6.26,15.27-8,23.16-1.65,7.7-3.36,15.66-7.67,22.47-3.08,4.86-6.65,9.83-9.82,9.83-2.42,0-4.65-2.94-6.8-9a15.12,15.12,0,0,1-.9-5.76c.2-5.86,3.62-11.43,6.94-16.81,2.86-4.65,5.56-9,6.33-13.61,1.23-7.25-.3-14.15-1.78-20.83-1.83-8.27-3.57-16.09-.53-24.56,3.64-10.15,15.76-21.39,25.5-30.42,3.32-3.06,6.44-6,8.94-8.53,9.55-9.83,19.42-20,28.17-31.3,1.6-2.06,3.4-4.91,5.31-7.93,5.34-8.45,12-19,19.35-20.78a16.19,16.19,0,0,1,3.87-.5C746.3,524.05,749.91,526,752.85,529.71Z" transform="translate(-561.03 -131.16)"/><path class="cls-4" d="M746.12,485.51c-4.19-6-7.83-6.81-11.69-7.63a19.27,19.27,0,0,1-8.55-3.53l-.27-.29c-9-10-39-42.78-49.23-42.78a3.29,3.29,0,0,0-2.77,1.27c-1.36,1.77-1.3,5.35.21,10.92.89,3.31,9.41,7.88,18.42,12.72,7.51,4,15.28,8.2,17.91,11.33,2.36,2.81,5.47,6.69,5.19,8-.07.36-.47.58-1.16.92-1.57.78-3.95,2-2.68,7.51.87,3.84,3.25,7.65,5.54,11.33,2.14,3.44,4.16,6.68,5,9.83,2.26,8.65-11.91,24.53-21.29,35-3.09,3.46-5.76,6.46-7.46,8.71-6.83,9.06-15.35,17.45-23.58,25.57-16,15.78-32.57,32.1-38.4,54.64-8.7,33.67-10.43,63.41-5.15,88.38,2.81,13.32,12.52,31.9,21.93,31.9,5.86,0,10.13-7,12.68-20.93,9.85-53.49,36.71-71.29,62.68-88.5,23-15.25,44.76-29.66,54.11-67.06,3.52-14.11-1.9-35.82-8.95-47.83-3.14-5.36-7.11-8.37-10.94-11.29-3.36-2.56-6.54-5-9-8.84-1.74-2.73-1.43-5.91-1.1-9.29S748.24,488.57,746.12,485.51Zm1.49,20.09c2.58,4,5.84,6.53,9.3,9.16,3.73,2.84,7.6,5.78,10.62,10.93,6.92,11.81,12.26,33.1,8.81,46.91-9.23,36.94-30.78,51.22-53.59,66.33-26.19,17.36-53.27,35.3-63.21,89.31-2.4,13-6.37,19.92-11.47,19.92-8,0-17.71-16.63-20.73-30.93-5.24-24.78-3.51-54.33,5.15-87.81,5.73-22.21,22.17-38.41,38.06-54.07,8.27-8.15,16.81-16.57,23.7-25.71,1.67-2.21,4.32-5.19,7.4-8.63,10.12-11.35,24-26.88,21.57-36.17-.87-3.33-2.94-6.65-5.13-10.17s-4.56-7.32-5.39-10.95c-1.05-4.61.58-5.42,2-6.14.79-.39,1.62-.8,1.82-1.77.26-1.29-.55-3.26-5.46-9.08-2.78-3.31-10.65-7.53-18.27-11.62-8-4.3-17.06-9.16-17.81-12-1.72-6.36-1.18-8.87-.43-9.85a2.12,2.12,0,0,1,1.8-.79c7.69,0,30,21.89,48.32,42.37.22.25.35.38.36.39a20.7,20.7,0,0,0,9.11,3.82c3.77.8,7,1.49,10.94,7.13,1.86,2.68,1.54,5.9,1.21,9.31S745.64,502.51,747.61,505.6Z" transform="translate(-561.03 -131.16)"/><path class="cls-4" d="M561,371.37c59.29,33.55,123.2,86.94,134.83,113.47,7,15.94-10,35-31.39,59.09-24.37,27.39-54.69,61.49-56.58,102.41-2.3,49.88-27,70.37-46.86,76.56v1.29c20.29-6.18,45.74-26.94,48.09-77.79,1.87-40.49,32-74.4,56.27-101.65,21.73-24.44,38.9-43.74,31.6-60.4-11.72-26.74-76.24-80.58-136-114.3Z" transform="translate(-561.03 -131.16)"/><path class="cls-4" d="M859.72,131.25l.09-.09h-.72a14.09,14.09,0,0,0-3,4.21c-2.19,5.13-1.56,10.48-1,15.65a54.79,54.79,0,0,1,.54,8.78,99,99,0,0,1-2.06,13.94c-.75,3.8-1.52,7.72-1.89,11.55-2.25,23.25-.21,44.29,6.06,62.51,1.3,3.78,6.39,9.6,11.79,15.76,6.9,7.87,14,16,14.32,21a3.36,3.36,0,0,1-.87,2.65c-1.86,2-6.86,2.34-14.85,1.08-5.81-.92-11.4-3.35-16.8-5.7-3.15-1.37-6.41-2.79-9.67-3.88l-2.85-.94c-11.69-3.86-27.7-9.15-30-18.4-1.09-4.42,1-9.46,6.38-15,8.39-8.73,17.07-17.75,23-31.44,5.63-13.13,12.11-38.68,9.63-52.51a17.68,17.68,0,0,0-2.84-6.6c-1.53-2.48-3-4.81-2.31-9.05a15,15,0,0,1,2.77-6.57c1.29-1.94,2.41-3.69,2.1-7H847c.31,3.15-.73,4.78-2,6.71a15.57,15.57,0,0,0-2.86,6.78c-.69,4.43.81,6.85,2.39,9.41a17.27,17.27,0,0,1,2.77,6.41c2.46,13.73-4,39.14-9.6,52.21-5.83,13.61-14.48,22.59-22.84,31.28-5.46,5.68-7.65,10.89-6.51,15.49,2.37,9.54,18.54,14.88,30.34,18.78l2.85.94c3.24,1.09,6.49,2.5,9.63,3.87,5.43,2.36,11.05,4.8,16.92,5.73a52.93,52.93,0,0,0,8.07.75c3.62,0,6-.65,7.25-2a3.91,3.91,0,0,0,1-3.05c-.29-5.13-7.49-13.34-14.44-21.28-5.36-6.12-10.43-11.9-11.69-15.58-6.25-18.15-8.28-39.11-6-62.29.37-3.8,1.13-7.71,1.88-11.5a99.61,99.61,0,0,0,2.06-14,54.49,54.49,0,0,0-.54-8.86c-.62-5.34-1.21-10.38.93-15.39A14.38,14.38,0,0,1,859.72,131.25Z" transform="translate(-561.03 -131.16)"/><path class="cls-4" d="M802,141c11.13,34.66,22.63,70.49-20.82,95.61a74.19,74.19,0,0,1-21.65,8.18,98.84,98.84,0,0,1-20.48,2c-58.75,0-132.24-43.69-178.06-71.53v1.44c46,27.93,119.24,71.33,178.06,71.33A99.79,99.79,0,0,0,759.82,246a75,75,0,0,0,22-8.32c44.32-25.61,32.66-61.93,21.38-97-1-3.2-2-6.37-3-9.51h-1.29C799.91,134.42,801,137.72,802,141Z" transform="translate(-561.03 -131.16)"/><path class="cls-4" d="M729.6,857.57c-6.4-5.92-16-6.42-24.41-6.86-2.17-.11-4.21-.22-6.19-.41-23.62-2.25-43.91-7.73-63.84-17.25-17.15-8.19-30.44-15.66-41.81-23.51a16.63,16.63,0,0,0-9.47-3.24c-7.21,0-14,5.65-18.15,15.12-1.57,3.58-3.12,7.09-4.7,10.57v1.27c1.75-3.82,3.46-7.69,5.18-11.63,4.07-9.27,10.68-14.8,17.67-14.8a16.07,16.07,0,0,1,9.17,3.14c11.4,7.87,24.71,15.35,41.88,23.56,20,9.55,40.33,15,64,17.3,2,.19,4,.29,6.22.41,8.35.43,17.82.93,24.08,6.72,7.25,6.71,6.23,19.46,5.33,30.7-.44,5.53-.86,10.76-.35,15a141.5,141.5,0,0,0,3.91,18.75h.54a142.74,142.74,0,0,1-3.92-18.81c-.51-4.22-.1-9.42.34-14.93C736,877.34,737.05,864.46,729.6,857.57Z" transform="translate(-561.03 -131.16)"/><path class="cls-4" d="M565.26,888.09c-1.54-.62-3-1.19-4.23-1.84v.59c1.24.62,2.59,1.17,4,1.74l2.29.93c11.31,4.77,19.95,9.27,27.19,14.14,9.07,6.12,19.32,12.43,30.45,18.79h1.06c-11.42-6.5-21.93-13-31.22-19.22-7.27-4.9-15.93-9.41-27.28-14.2C566.77,888.69,566,888.39,565.26,888.09Z" transform="translate(-561.03 -131.16)"/><path class="cls-4" d="M587.66,913.86c4.19,2.83,8.63,5.69,13.27,8.58h1c-4.89-3-9.57-6.05-14-9-6.21-4.18-16.66-9.57-26.93-13.79v.57C571.2,904.4,581.52,909.73,587.66,913.86Z" transform="translate(-561.03 -131.16)"/><path class="cls-4" d="M577.46,497.22c-.87-5.66-4.78-10.73-12-15.49-1.47-1-3-2-4.47-3v.63c1.4.95,2.8,1.88,4.18,2.79,7,4.67,10.88,9.62,11.72,15.13,1.4,9.12-5.53,18.53-14,29-.58.71-1.21,1.58-1.87,2.52v.91c.82-1.17,1.59-2.24,2.28-3.09C571.89,516.06,578.88,506.56,577.46,497.22Z" transform="translate(-561.03 -131.16)"/><path class="cls-4" d="M574.23,919.51h0A120.91,120.91,0,0,0,561,912.6v.57A125.3,125.3,0,0,1,574,920l4.1,2.49h1C575.47,920.24,574.51,919.66,574.23,919.51Z" transform="translate(-561.03 -131.16)"/><path class="cls-4" d="M680.93,132.9c3.3,1.67,7.82,4,11.8,4a7.49,7.49,0,0,0,4.31-1.23l.29-.21a8.43,8.43,0,0,0,2.67-4.26h-.92a7.48,7.48,0,0,1-2.29,3.57l-.24.18a6.63,6.63,0,0,1-3.82,1.07c-3.77,0-8.18-2.24-11.4-3.86l-1.36-.69-.57-.27h-2l2.17,1.06Z" transform="translate(-561.03 -131.16)"/><path class="cls-4" d="M689.2,906.62a6.93,6.93,0,0,0-.61-5.88c-2.58-4-9.55-5-14.64-5.75-.85-.12-1.64-.24-2.32-.36-.24,0-.62-.11-1.13-.22a71.33,71.33,0,0,0-12.35-1.64c-2.47,0-4.06.4-4.84,1.21a2,2,0,0,0-.54,1.51c.24,4.54,7.21,7.34,11.38,9,.65.26,1.23.49,1.71.71,1.13.48,2.4,1.12,3.74,1.79,4.3,2.13,9.17,4.55,13.34,4.55a9.61,9.61,0,0,0,1.54-.12C686.82,911,688.41,909.42,689.2,906.62Zm-4.89,3.82a8.54,8.54,0,0,1-1.37.11c-3.94,0-8.69-2.37-12.88-4.45-1.36-.68-2.64-1.31-3.79-1.82-.49-.21-1.09-.45-1.75-.71-3.94-1.59-10.53-4.24-10.74-8.13a1,1,0,0,1,.27-.76c.39-.41,1.42-.9,4.1-.9a69.81,69.81,0,0,1,12.15,1.63l1.15.22c.7.12,1.5.24,2.36.37,4.61.67,11.59,1.69,13.93,5.29a5.89,5.89,0,0,1,.49,5.05C687.54,908.77,686.26,910.11,684.31,910.44Z" transform="translate(-561.03 -131.16)"/><path class="cls-4" d="M723.46,883.11c.84-5.17,1.71-10.52-1.7-14.58-4.08-4.85-10.73-5.19-16.6-5.5l-.61,0c-2.08-.11-4.45-.23-6.72-.44-25.1-2.39-46.7-8.24-68-18.4-6.7-3.2-13.28-6.85-19.65-10.38-3.49-1.94-7.11-3.94-10.71-5.85l-.24-.13c-4.22-2.24-8.58-4.55-13.07-4.55a11.63,11.63,0,0,0-6.53,2c-7.16,4.66-10.6,13.7-13.92,22.44a99.81,99.81,0,0,1-4.7,11v1.1a90.76,90.76,0,0,0,5.19-11.92c3.3-8.67,6.7-17.62,13.72-22.19a11.14,11.14,0,0,1,6.24-1.88c4.36,0,8.66,2.29,12.82,4.5l.25.13c3.59,1.9,7.2,3.91,10.7,5.84,6.37,3.53,13,7.19,19.68,10.39,21.33,10.19,43,16.06,68.15,18.45,2.28.22,4.65.34,6.74.45l.61,0c5.76.3,12.29.63,16.22,5.31,3.26,3.88,2.41,9.1,1.59,14.15-.26,1.63-.51,3.16-.63,4.68-.47,5.88-1,12-.3,17.47a139.59,139.59,0,0,0,3.41,17.27H726a137.29,137.29,0,0,1-3.43-17.33c-.66-5.45-.18-11.51.3-17.39C723,886.25,723.2,884.72,723.46,883.11Z" transform="translate(-561.03 -131.16)"/><path class="cls-4" d="M593,503.18c4.57-12.84,0-18-20.72-31.71-1.65-1.09-3.3-2.18-5-3.33-2.17-1.47-4.23-2.87-6.27-4.27v.64c1.94,1.33,3.92,2.68,6,4.08,1.67,1.13,3.32,2.23,5,3.32,20.42,13.52,25,18.59,20.52,31.09-4,11.32-11.82,20.91-20.07,31.06-3.84,4.72-7.75,9.55-11.42,14.7v.91c3.78-5.37,7.85-10.38,11.83-15.28C581.14,524.2,589,514.58,593,503.18Z" transform="translate(-561.03 -131.16)"/><path class="cls-4" d="M700.09,876.19c-5.55-2.42-11.62-3-17.48-3.56a98.25,98.25,0,0,1-10.1-1.32,206.74,206.74,0,0,1-48-16c-7-3.35-13.78-7.09-20.31-10.71-.93-.52-2-1.21-3.15-1.93-3.77-2.41-8.46-5.4-12.65-5.4a7.15,7.15,0,0,0-4.18,1.27c-3.21,2.24-4.72,6.76-6,10.74-.33,1-.65,1.93-1,2.79a53.16,53.16,0,0,1-2.92,5.76c-2.92,5.31-6.56,11.91-5.25,15.88s6.54,6.2,10.74,8c1,.4,1.85.78,2.62,1.14a144.7,144.7,0,0,1,19,10.68,543.58,543.58,0,0,0,49.17,29h1.13a543.06,543.06,0,0,1-50-29.43,146.42,146.42,0,0,0-19.05-10.72c-.78-.37-1.69-.75-2.64-1.15-4.1-1.72-9.2-3.87-10.45-7.64s2.34-10.25,5.21-15.46a53.33,53.33,0,0,0,3-5.83c.33-.87.64-1.81,1-2.81,1.31-3.91,2.79-8.34,5.85-10.48a6.61,6.61,0,0,1,3.88-1.17c4,0,8.66,2.94,12.37,5.31,1.15.73,2.23,1.43,3.19,2,6.52,3.61,13.28,7.35,20.32,10.72a206.89,206.89,0,0,0,48.09,16.08,96.87,96.87,0,0,0,10.15,1.33c5.82.56,11.84,1.14,17.32,3.53,9.68,4.22,9.64,12.48,9.6,21.23a68.89,68.89,0,0,0,.32,8.74,136.59,136.59,0,0,0,3,15.79h.54a138,138,0,0,1-3-15.85,71.74,71.74,0,0,1-.32-8.68C710.05,889,710.09,880.55,700.09,876.19Z" transform="translate(-561.03 -131.16)"/><path class="cls-4" d="M676.52,921c-26.06-12.76-49.52-26-67.84-38.37a76.41,76.41,0,0,0-7.55-4.28,53.34,53.34,0,0,1-10.19-6.28c-4.17-3.53-5.25-7-3.48-11.28,1.38-3.34,3.71-5,7.13-5,5.69,0,13.27,4.62,18.81,8,2.18,1.32,4.07,2.47,5.54,3.17a219.75,219.75,0,0,0,51,17.06,108.86,108.86,0,0,0,11.44,1.52l2,.17c4.42.34,9.43.74,12.41,4s3.27,10,3.5,15.31c.06,1.48.12,2.88.23,4.11l.06.66c.33,3.53.81,8.77-.45,12.59H700c1.21-4,.74-9.15.41-12.67l-.06-.66c-.11-1.21-.17-2.6-.23-4.07-.24-5.49-.53-12.33-3.73-15.86s-8.41-3.95-13-4.31l-1.95-.17a108.85,108.85,0,0,1-11.34-1.5,219,219,0,0,1-50.79-17c-1.43-.68-3.3-1.82-5.46-3.14-5.63-3.42-13.33-8.1-19.27-8.1-3.76,0-6.43,1.85-7.94,5.51-1.91,4.61-.73,8.51,3.72,12.28a53.8,53.8,0,0,0,10.35,6.39,76.51,76.51,0,0,1,7.47,4.23C626.54,895.75,650,909,676.13,921.81l1.27.63h2Z" transform="translate(-561.03 -131.16)"/><path class="cls-4" d="M731.71,569.46h-.12c-2.5,0-5,3.17-6.87,5.49-.4.5-.76.95-1.07,1.3-1.75,2-3.42,4.09-5,6.12-1.05,1.31-2.1,2.62-3.17,3.91l-.13.15c-3.51,4.17-4.94,6.88-4.38,8.29a1.64,1.64,0,0,0,1.49,1,3,3,0,0,0,.42,0h.09c7-.15,12.73-6.52,15.5-10.31a29.55,29.55,0,0,0,5.19-10.68c.15-.74.57-3.26-.42-4.54A1.93,1.93,0,0,0,731.71,569.46Zm1,5.1a28.78,28.78,0,0,1-5,10.34c-2.67,3.66-8.15,9.81-14.81,10l-.07.44v-.43l-.32,0c-.63-.08-.74-.35-.77-.44-.2-.49-.17-2.18,4.23-7.4l.14-.16q1.6-2,3.18-3.92c1.62-2,3.29-4.11,5-6.09.32-.36.68-.82,1.09-1.33,1.64-2,4.11-5.16,6.27-5.16h0a1,1,0,0,1,.82.4C733.1,571.52,733,573.28,732.75,574.56Z" transform="translate(-561.03 -131.16)"/><path class="cls-4" d="M917.22,747.59c23.33-2.65,48.36-29.67,48.68-52.56.5-35.1-19.68-63.14-39.2-90.26-3.32-4.6-6.74-9.36-10-14l-1.94-2.81c-9.19-13.23-19.6-28.22-23-44.42-2.87-13.74-7.25-45.67-2.48-56.72,3.5-8.08,13.45-12.7,23.08-17.18,6.65-3.09,12.93-6,17.34-10l.2-.19c15.1-13.67,15.1-13.67,25.38-14,3.11-.11,7-.24,12.45-.76a91.5,91.5,0,0,0,14.82-2.53,21,21,0,0,1,4.75-.85c3.18,0,5.83,2.24,14.6,9.67,25.94,22,25.45,60.16,25,97.1-.59,46.48-1.21,94.54,51.39,109.76a79.05,79.05,0,0,0,21.89,3.3c19.78,0,36.62-8.84,48.7-25.55,17.73-24.53,22.44-62.8,11.72-95.24-24.73-74.88-83.86-117.7-147.45-158.49-57.79-37.08-112.84-47.3-159.9-54a69.37,69.37,0,0,0-9.63-.72c-19.08,0-28.16,9.7-39.64,22a202.63,202.63,0,0,1-14.6,14.54c-6.46,5.68-14.69,9.57-22.64,13.33-13,6.14-25.24,11.93-30.3,24.82-10.75,27.34,15.65,48.65,38.94,67.44,10.79,8.7,21,16.92,26.94,25.14,23.65,32.57,16.58,87.48-4.88,118.34-6.69,9.63-19.53,21.54-33.12,34.16-22.5,20.89-48,44.57-52.52,64.46-2.12,9.36-1.56,15.89,1.69,20,2.73,3.4,7.31,5.06,14,5.06,11.05,0,26.89-4.56,43.65-9.38,20.49-5.89,43.71-12.57,63.51-12.57,9.45,0,17.26,1.46,23.9,4.48,7.63,3.48,14.1,8.5,20.35,13.37,10.31,8,20,15.59,33.84,15.59A39.25,39.25,0,0,0,917.22,747.59ZM859,718.09c-6.75-3.07-14.68-4.56-24.26-4.56-19.93,0-43.21,6.7-63.75,12.61-16.71,4.8-32.48,9.34-43.41,9.34-6.43,0-10.8-1.55-13.34-4.73-3.08-3.85-3.58-10.14-1.52-19.22,4.44-19.63,29.85-43.21,52.26-64,13.63-12.64,26.5-24.59,33.25-34.3,21.62-31.1,28.73-86.49,4.86-119.36-6-8.31-16.26-16.56-27.09-25.3-23.06-18.61-49.19-39.7-38.68-66.44,4.93-12.56,17-18.28,29.85-24.34,8-3.79,16.3-7.71,22.85-13.47a202.25,202.25,0,0,0,14.66-14.6c11.34-12.13,20.3-21.71,39-21.71a69.18,69.18,0,0,1,9.51.71c47,6.66,101.9,16.86,159.55,53.84,63.45,40.7,122.44,83.42,147.09,158,10.63,32.19,6,70.15-11.6,94.45-11.91,16.48-28.5,25.19-48,25.19a78.37,78.37,0,0,1-21.64-3.26c-23.31-6.75-38.06-20.59-45.08-42.34-6.28-19.46-6-43.41-5.68-66.57.47-37.15,1-75.55-25.29-97.78-12.55-10.63-12.88-10.79-20.13-9a90.55,90.55,0,0,1-14.69,2.52c-5.44.51-9.3.64-12.4.75-10.61.36-10.61.36-25.94,14.25l-.2.18c-4.32,3.91-10.54,6.8-17.12,9.86-9.78,4.55-19.89,9.25-23.51,17.64-4.86,11.23-.47,43.42,2.42,57.24,3.42,16.37,13.88,31.44,23.11,44.74l2,2.81c3.24,4.68,6.67,9.45,10,14.06,19.44,27,39.54,54.92,39,89.72-.32,22.52-24.94,49.1-47.9,51.71a37.48,37.48,0,0,1-4.33.25c-13.48,0-23.11-7.48-33.3-15.41C873.2,726.67,866.69,721.61,859,718.09Z" transform="translate(-561.03 -131.16)"/><path class="cls-4" d="M1352.31,134.93c-2.64-1.37-5.33-2.62-8.08-3.77h-1.43q4.86,2,9.51,4.36Z" transform="translate(-561.03 -131.16)"/><path class="cls-4" d="M1328.38,476.83c-.89-.65-2.27-1.85-4-3.38-6.69-5.83-17.88-15.59-25.78-15.59a7.24,7.24,0,0,0-6.85,4.44c-1.84,3.7,2.2,12.28,4.87,17.95.65,1.39,1.21,2.59,1.56,3.46.72,1.76,1.38,3.39,1.94,4.85,3.73,9.77,7.6,19.87,10.46,30.83.3,1.15.59,2.44.9,3.81,1.31,5.85,2.94,13.13,7,16.69a12.58,12.58,0,0,0,4.55,2.74,7.12,7.12,0,0,0,2,.3c4.79,0,8.07-5.44,11.25-10.7.73-1.19,1.48-2.43,2.23-3.57l.71-1.08c12.11-18.45,19.43-29.59-2.85-45.06C1334.12,481,1331.31,479,1328.38,476.83Zm10,50.27-.71,1.08c-.76,1.15-1.51,2.39-2.24,3.6-3,5.05-6.21,10.27-10.5,10.27a6.12,6.12,0,0,1-1.71-.26,11.75,11.75,0,0,1-4.21-2.56c-3.84-3.37-5.43-10.5-6.72-16.22-.3-1.38-.6-2.69-.9-3.84-2.87-11-6.74-21.13-10.49-30.93-.56-1.45-1.22-3.09-1.94-4.87-.36-.88-.93-2.09-1.59-3.49-2.44-5.19-6.52-13.87-4.87-17.19a6.34,6.34,0,0,1,6.06-3.95c7.57,0,18.61,9.62,25.21,15.38,1.76,1.53,3.15,2.75,4.07,3.42,2.94,2.14,5.75,4.19,7.93,5.71C1357.36,498.22,1350.22,509.09,1338.4,527.1Z" transform="translate(-561.03 -131.16)"/><path class="cls-4" d="M1342.79,457.09c-3.88-2.83-7.75-6-11.85-9.35-12.53-10.23-26.73-21.83-39.5-21.83a20.34,20.34,0,0,0-7.31,1.35c-22.54,8.52-19.31,32.36-15.37,45.82,2.4,8.22,5.51,16.34,8.51,24.21,3.5,9.16,7.12,18.64,9.64,28.29a139.52,139.52,0,0,1,3,17.89c2.27,18.19,4.41,35.38,28.67,35.38,1.93,0,4-.11,6.16-.32a34.16,34.16,0,0,0,7-1.33c6.45-2.08,8.38-6,11.3-11.92.89-1.79,1.89-3.82,3.13-6,1.91-3.36,4-6.54,6.14-9.61v-.91a117.51,117.51,0,0,0-6.6,10.26c-1.25,2.19-2.25,4.23-3.14,6-2.86,5.8-4.75,9.64-11,11.65a33,33,0,0,1-6.85,1.3c-2.14.21-4.2.32-6.11.32-23.8,0-25.81-16.18-28.15-34.92a141,141,0,0,0-3-17.95c-2.53-9.69-6.16-19.18-9.67-28.35-3-7.85-6.1-16-8.5-24.17-3.88-13.28-7.09-36.8,15.06-45.17a19.69,19.69,0,0,1,7.12-1.32c12.58,0,26.7,11.54,39.17,21.71,4.1,3.36,8,6.52,11.87,9.36,2.93,2.14,5.52,4,7.45,5.37l2.38,1.63v-.64l-2.08-1.42C1348.3,461.11,1345.72,459.23,1342.79,457.09Z" transform="translate(-561.03 -131.16)"/><path class="cls-4" d="M1328.9,849.91a372.91,372.91,0,0,1-24,32.32c-.39.48-.82,1-1.26,1.5-3.16,3.71-7.1,8.32-4.32,13,2.69,4.49,10.38,5.39,16,6,1,.12,2,.23,2.77.36a129.64,129.64,0,0,1,34.2,10.06v-.57a130.48,130.48,0,0,0-34.12-10c-.82-.12-1.78-.23-2.79-.35-5.5-.65-13-1.53-15.6-5.8s1.22-8.78,4.27-12.36c.44-.52.87-1,1.26-1.51a367.46,367.46,0,0,0,24-32.37c6.88-10.7,11.74-21.77,16.89-33.5a55.3,55.3,0,0,1,6.08-10.62v-.88a55.7,55.7,0,0,0-6.57,11.29C1340.61,828.19,1335.75,839.24,1328.9,849.91Z" transform="translate(-561.03 -131.16)"/><path class="cls-4" d="M1140.77,140.42c2.75,9.28,22.38,14.41,34.9,14.41,17.87,0,36.6-3.52,56.43-7.24,20-3.77,40.73-7.66,60.88-7.66,22.08,0,40.62,4.73,56.68,14.45l2.65,1.61v-1l-2.19-1.33c-16.21-9.81-34.9-14.58-57.14-14.58-20.23,0-41,3.9-61,7.67-19.79,3.72-38.48,7.24-56.27,7.24-12.52,0-31.53-5.25-34.06-13.79q-1.26-4.29,3.05-9h-1.16C1140.81,134.34,1139.88,137.44,1140.77,140.42Z" transform="translate(-561.03 -131.16)"/><path class="cls-4" d="M1289.09,201.38c-2.31,0-4.56,0-6.77,0l-6.27,0c-12,0-21.53.64-32.06,3.83a97.18,97.18,0,0,0-15.64,6.84c-8.32,4.24-16.18,8.24-25.59,8.24a32.31,32.31,0,0,1-4.7-.34c-7-1-12.14-5.1-17.17-9-5.65-4.45-11-8.65-18.47-8.65a20.66,20.66,0,0,0-2.07.11c-4.62.47-12,4.62-19.16,8.64a99.93,99.93,0,0,1-12,6.16,83.58,83.58,0,0,1-10.29,3c-7.39,1.76-8.33,2.41-11.92,16-1,3.76-1.71,7.27-2.41,10.68-2.58,12.62-4.63,22.59-18.08,32.11-9.08,6.41-20.6,9.52-35.22,9.53s-29.63-3-43-5.71c-7-1.4-13.59-2.72-18.49-3.25-2.85-.3-7.24-.48-11.74-.48-12.91,0-28,4.72-29.08,11.5-.5,3.22,2,8,16.8,12.77l1.65.53c56.39,18.08,95.72,41.69,135.75,81.47,11,11,19.48,16.08,26.54,16.08a13.83,13.83,0,0,0,4.82-.86c7.51-2.81,13-12.28,19.33-23.25,3.27-5.67,7-12.09,11.37-18.27,21.23-29.93,51.71-51.8,85.81-61.58a106.2,106.2,0,0,1,29.2-4.35c30.37,0,51.8,14.87,72.09,30.17v-1.1c-20.25-15.25-41.7-29.95-72.09-29.95a107.11,107.11,0,0,0-29.44,4.38c-34.29,9.84-64.94,31.83-86.29,61.92-4.41,6.21-8.13,12.66-11.41,18.34-6.26,10.82-11.66,20.17-18.87,22.86a12.9,12.9,0,0,1-4.52.81c-6.81,0-15-5-25.92-15.83-40.13-39.88-79.56-63.55-136.1-81.68l-1.65-.53c-11.08-3.54-16.84-7.73-16.2-11.79.87-5.63,14.32-10.76,28.21-10.76,4.48,0,8.83.18,11.65.48,4.86.52,11.44,1.83,18.41,3.23,13.4,2.68,28.59,5.73,43.16,5.72,14.81,0,26.49-3.16,35.73-9.68,13.73-9.73,15.81-19.85,18.43-32.66.7-3.39,1.41-6.89,2.4-10.63,3.58-13.56,4.31-13.73,11.27-15.39a84.07,84.07,0,0,0,10.39-3.06,101.92,101.92,0,0,0,12.15-6.22c6.74-3.79,14.38-8.09,18.82-8.54a18.89,18.89,0,0,1,2-.1c7.18,0,12.4,4.11,17.93,8.46,5.12,4,10.41,8.19,17.58,9.23a34.12,34.12,0,0,0,4.83.35c9.62,0,17.94-4.24,26-8.34a95.68,95.68,0,0,1,15.5-6.77c10.42-3.17,19.89-3.8,31.8-3.8l6.26,0c2.21,0,4.47,0,6.78,0a105.8,105.8,0,0,1,29.39,3.83,223,223,0,0,1,33.83,13.12v-1a222.06,222.06,0,0,0-33.59-13A106.73,106.73,0,0,0,1289.09,201.38Z" transform="translate(-561.03 -131.16)"/><path class="cls-4" d="M1333.26,864.29c-5.69,6.84-12.15,14.59-11.84,22,.23,5.71,5.77,6.68,10.65,7.53,1.18.2,2.29.4,3.33.65a120.7,120.7,0,0,1,16.91,5.73v-.57a121.37,121.37,0,0,0-16.78-5.68c-1.07-.25-2.18-.45-3.37-.65-4.91-.86-10-1.74-10.21-7-.3-7.21,6.08-14.88,11.72-21.64a87.27,87.27,0,0,0,6-7.78,188.5,188.5,0,0,0,12.61-23.59V832a190.89,190.89,0,0,1-13,24.57A86.38,86.38,0,0,1,1333.26,864.29Z" transform="translate(-561.03 -131.16)"/><path class="cls-4" d="M1343.21,472.56c-2-1.42-4.79-3.43-7.68-5.53-4.14-3-8.13-6.28-12.38-9.75-1-.78-2-1.67-3.1-2.61-7.09-6-16.79-14.24-25.72-14.24a12.66,12.66,0,0,0-6.79,1.91c-15.44,9.54-6.16,32.33-.61,46,.67,1.65,1.31,3.22,1.84,4.6,3.62,9.47,7.36,19.26,10,29.58.51,1.94,1,4.22,1.55,6.63,2.46,11,5.83,26.18,14.29,31.63a10.75,10.75,0,0,0,4.36,1.67,10.4,10.4,0,0,0,1.37.1c10.34,0,20.65-15.71,28.18-27.18,1.36-2.08,2.6-4,3.74-5.6v-.91c-1.25,1.77-2.64,3.87-4.18,6.22-7.46,11.37-17.69,26.94-27.74,26.94a9.36,9.36,0,0,1-1.3-.09,10.23,10.23,0,0,1-4.14-1.59c-8.28-5.34-11.62-20.35-14.06-31.31-.54-2.41-1.05-4.7-1.55-6.64-2.71-10.35-6.45-20.16-10.08-29.64-.53-1.38-1.17-2.95-1.85-4.61-5.48-13.47-14.65-36,.4-45.31a12.24,12.24,0,0,1,6.52-1.82c8.73,0,18.35,8.16,25.37,14.11,1.12.95,2.16,1.83,3.14,2.64,4.24,3.45,8.23,6.71,12.38,9.74,2.89,2.11,5.65,4.12,7.69,5.54,2.75,1.9,5.52,3.78,8.48,5.78l.92.61v-.63l-.64-.43C1348.73,476.33,1346,474.46,1343.21,472.56Z" transform="translate(-561.03 -131.16)"/><path class="cls-4" d="M1251.81,597.35c1,1.3,2.87,3.08,7.56,3.47,17.58,1.43,44.14,3.61,66.57,24l.25.23a77.49,77.49,0,0,1,18.51,26.34c1.28,2.89,3.35,4.55,5.68,4.55a5.12,5.12,0,0,0,1.93-.39V655a4.56,4.56,0,0,1-1.93.49c-2.11,0-4-1.54-5.2-4.23a78.06,78.06,0,0,0-18.63-26.52l-.26-.23c-22.56-20.56-49.23-22.74-66.87-24.18-4.49-.37-6.25-2-7.19-3.26a13.65,13.65,0,0,1-2.27-8.83c2.45-10.76,5.49-24.16,4.35-38.82-1.93-24.81-11.85-46.13-21.44-66.76-7.7-16.54-16.43-35.3-13.4-43.85,5.39-15.22,27.44-37,36.67-45.71a29.4,29.4,0,0,1,20.71-8.31,35.87,35.87,0,0,1,10.86,1.75c16.17,5.21,39.07,17.16,64.6,33.56v-.62C1326.86,403.1,1304,391.2,1287.87,386a36.78,36.78,0,0,0-11-1.76,29.88,29.88,0,0,0-21.07,8.45c-9.26,8.7-31.37,30.59-36.81,45.91-3.1,8.76,5.67,27.62,13.42,44.26,9.57,20.58,19.47,41.85,21.39,66.58,1.14,14.57-1.9,27.93-4.33,38.67A14.18,14.18,0,0,0,1251.81,597.35Z" transform="translate(-561.03 -131.16)"/><path class="cls-4" d="M1350.75,861.41c-2.84,4.64-6,9.9-5.27,15.62s3.32,8,6.83,9.81v-.59c-3.31-1.71-5.6-4-6.31-9.29-.75-5.54,2.41-10.71,5.2-15.27l.52-.87c.21-.34.39-.71.59-1.07v-1.09c-.34.64-.67,1.29-1,1.89Z" transform="translate(-561.03 -131.16)"/><path class="cls-4" d="M1121.59,158.43c15.18,9.53,32.87,14.16,54.08,14.16,19.52,0,39.95-3.84,59.71-7.55,19.23-3.61,39.11-7.35,57.6-7.35,18.74,0,34.28,3.89,47.49,11.88l7.25,4.41,4.59,2.79v-1.44l-4-2.4-7.26-4.41c-13.4-8.12-29.15-12.06-48.12-12.06-18.6,0-38.54,3.75-57.83,7.37-19.7,3.7-40.07,7.53-59.48,7.53-21,0-38.45-4.57-53.42-14-10.06-6.31-14.91-12.95-14.43-19.73a15.41,15.41,0,0,1,2.08-6.5h-1.37a16.21,16.21,0,0,0-1.94,6.41C1106.08,144.84,1111.12,151.86,1121.59,158.43Z" transform="translate(-561.03 -131.16)"/><path class="cls-4" d="M1284.91,581.41c4,2.2,9.5,3.13,14.82,4A69.65,69.65,0,0,1,1311,588a71.91,71.91,0,0,1,6.85,3.1c5,2.48,10.76,5.3,16,5.3a12.69,12.69,0,0,0,2.87-.31l.72-.19c7.45-2.22,11.43-11.56,14.86-20.15v-1.43l-.06.16c-3.48,8.75-7.43,18.67-15,20.92l-.68.17a12.35,12.35,0,0,1-2.76.31c-5.09,0-10.74-2.79-15.74-5.25a68.38,68.38,0,0,0-6.9-3.12,69.37,69.37,0,0,0-11.4-2.59c-5.28-.89-10.73-1.82-14.65-4-8.69-4.76-7.78-13.48-6.82-22.71a62.64,62.64,0,0,0,.5-10.77c-2.27-29.26-13.14-52.62-23.65-75.21a39.19,39.19,0,0,1-1-31.66c4.48-11,13.87-19.87,25.76-24.36a32.31,32.31,0,0,1,11.47-2.11c17,0,32.9,13,47,24.49,4,3.25,7.74,6.32,11.35,8.95l2.57,1.88v-.66l-2.26-1.65c-3.6-2.62-7.35-5.68-11.33-8.93-14.12-11.53-30.13-24.61-47.28-24.61a32.93,32.93,0,0,0-11.66,2.15c-12,4.54-21.52,13.53-26.06,24.65a39.75,39.75,0,0,0,1,32.08c10.49,22.55,21.34,45.87,23.6,75a60.57,60.57,0,0,1-.5,10.67C1276.89,567.18,1275.92,576.48,1284.91,581.41Z" transform="translate(-561.03 -131.16)"/><path class="cls-4" d="M1289.09,219.14c-14.79,0-30.52,2.68-47.19,5.52-18.77,3.2-38.17,6.51-58.84,6.52-1.49,0-3,0-4.39-.06a107.16,107.16,0,0,1-18.62-2.39,66.7,66.7,0,0,0-12.5-1.69c-9.14,0-15.86,4.81-23.19,16.61-3.53,5.68-6.11,12.48-8.61,19-4.41,11.62-9,23.64-19.06,30.76-3.47,2.46-10.12,4.35-17.15,6.36-12.29,3.51-26.22,7.49-28.12,15.79-2.35,10.4,19,24.64,30.5,32.29,2.14,1.42,4,2.65,5.2,3.54,13.46,9.87,24.6,16.45,35.18,16.45a23.52,23.52,0,0,0,4.29-.38c8.44-1.51,16.11-7.48,24.13-18.79,23.56-33.2,57.44-57.49,95.41-68.37a123.67,123.67,0,0,1,34.09-5c30.33,0,52.78,12.25,72.09,25.9v-.65c-19.3-13.61-41.76-25.78-72.09-25.78a124.37,124.37,0,0,0-34.24,5.06c-38.08,10.92-72.06,35.28-95.69,68.58-7.93,11.18-15.49,17.08-23.79,18.58a24.38,24.38,0,0,1-4.2.36c-10.44,0-21.49-6.53-34.87-16.35-1.22-.89-3.07-2.13-5.21-3.55-11.38-7.58-32.56-21.69-30.28-31.74,1.82-8,15.59-11.92,27.74-15.39,7.08-2,13.77-3.93,17.32-6.44,10.21-7.21,14.8-19.31,19.25-31,2.48-6.55,5-13.32,8.56-19,7.22-11.62,13.81-16.36,22.74-16.36a67.27,67.27,0,0,1,12.39,1.67,107,107,0,0,0,18.72,2.41c1.43,0,2.91,0,4.4,0,20.71,0,40.14-3.31,59-6.52,16.63-2.84,32.34-5.52,47.08-5.52a88.67,88.67,0,0,1,24.61,3.17c12.77,3.65,25.57,9.22,38.61,15.74V238c-13-6.49-25.73-12-38.47-15.66A89.26,89.26,0,0,0,1289.09,219.14Z" transform="translate(-561.03 -131.16)"/><path class="cls-4" d="M1273.52,590.88c3.6.91,7.12,1.72,10.51,2.51,18.39,4.26,34.27,8,50.14,22.32l.32.29c3.65,3.3,6.53,4.91,8.81,4.91a4.4,4.4,0,0,0,1-.12c3.45-.8,5.17-5.61,7.06-11.82.29-1,.61-1.91.92-2.87v-1.73c-.49,1.48-1,3-1.43,4.45-1.83,6-3.49,10.72-6.67,11.46-2.28.53-5.3-1-9.37-4.68l-.31-.28c-16-14.47-31.92-18.16-50.38-22.44-3.39-.79-6.9-1.61-10.5-2.51-12.89-3.23-10.71-15.36-8.6-27.08.92-5.13,1.87-10.43,1.53-14.86-2.1-27-12.49-49.38-22.55-71-1.2-2.58-2.49-5.1-3.74-7.55-6.46-12.67-12-23.61-4.06-37.08,6-10.14,15-18.43,23.69-26.45l4.66-4.33c3.36-3.15,7.92-4.75,13.58-4.75,21.66,0,55,23.06,74.15,37v-.65c-19.27-13.95-52.45-36.82-74.15-36.82-5.79,0-10.48,1.64-13.94,4.89-1.53,1.44-3.09,2.87-4.66,4.32-8.72,8.05-17.74,16.37-23.78,26.57-8.13,13.72-2.22,25.32,4,37.59,1.25,2.44,2.53,5,3.73,7.54,10,21.57,20.41,43.87,22.5,70.81.34,4.37-.61,9.63-1.52,14.72C1262.38,575.16,1260.15,587.53,1273.52,590.88Z" transform="translate(-561.03 -131.16)"/><path class="cls-4" d="M903.48,844.12c-4.45,6.71-10,15.06-8.07,20.82.78,2.36,2.74,4.11,5.83,5.23a5.93,5.93,0,0,0,1.91.31c6.8,0,17.55-10.49,27-19.75,6-5.89,11.74-11.45,15.17-13,16.4-7.43,39-11,58.94-14.09,7.87-1.23,15.31-2.4,22.17-3.74a234.58,234.58,0,0,1,44.91-4.62c46.31,0,85.2,16.66,115.58,49.53,3.41,3.68,8.36,5.55,14.73,5.55,19.84,0,53.85-19.31,77.82-55.09,14.33-21.4,35.14-65.16,13.5-117.73-8.68-21.07-21.56-30.88-40.57-30.88-14.46,0-31,5.32-50,11.47-23.49,7.58-50.13,16.16-78.78,16.16A129.92,129.92,0,0,1,1061,678.55c-61.19-32.63-63-92.15-57.69-140.37,2.05-18.75-1.28-33.59-9.64-42.91a30.33,30.33,0,0,0-23.27-10.07c-17.66,0-39.69,13.7-47.64,39.9-7.48,24.65,10.25,47.07,30.78,73,23.15,29.26,49.39,62.43,44.3,106.69-2.53,21.93-10.54,43-21.44,56.32-8.26,10.1-15.56,11-23.29,12-5.91.73-12,1.48-19.17,6-5.46,3.47-7.18,9.37-9,15.62-1.26,4.31-2.55,8.76-5.18,12.41-1.44,2-4,2.43-6.6,2.89-3.5.61-7.47,1.3-9.57,5.83-1.47,3.15.46,6.86,2.33,10.44,1.56,3,3.17,6.08,2.69,8.65C908.2,837,906,840.3,903.48,844.12Zm3.32-18.3c-1.83-3.52-3.57-6.85-2.32-9.55,1.88-4,5.42-4.65,8.83-5.25,2.74-.47,5.57-1,7.25-3.3,2.74-3.79,4.05-8.33,5.33-12.72,1.76-6.06,3.42-11.78,8.56-15,7-4.42,13-5.16,18.75-5.87,7.94-1,15.44-1.9,24-12.32,11-13.47,19.11-34.72,21.66-56.85,5.14-44.67-21.24-78-44.51-107.43-20.35-25.73-37.93-48-30.61-72.1,7.81-25.72,29.39-39.18,46.67-39.18A29.34,29.34,0,0,1,992.88,496c8.16,9.1,11.41,23.67,9.39,42.12-5.32,48.53-3.5,108.46,58.22,141.38a130.91,130.91,0,0,0,63.12,15.84c28.81,0,55.53-8.61,79.1-16.2,19-6.13,35.43-11.42,49.73-11.42,18.8,0,31,9.33,39.63,30.25,21.47,52.13.82,95.54-13.41,116.77-22.9,34.21-57.12,54.65-77,54.65-6.07,0-10.78-1.76-14-5.23-30.59-33.08-69.72-49.86-116.33-49.86a235.77,235.77,0,0,0-45.1,4.64c-6.85,1.34-14.27,2.51-22.13,3.74-20,3.13-42.68,6.68-59.21,14.17-3.59,1.63-9.09,7-15.46,13.2-9.35,9.13-20,19.47-26.33,19.47a4.66,4.66,0,0,1-1.57-.26c-2.82-1-4.52-2.51-5.21-4.59-1.75-5.29,3.63-13.42,8-19.94,2.6-3.92,4.84-7.3,5.26-9.56C910.13,832.21,908.44,829,906.8,825.82Z" transform="translate(-561.03 -131.16)"/><path class="cls-4" d="M794.31,847c7.93-7.17,20.49-13.46,35-20.74,10.16-5.08,23.79-17.56,23-27.78-.44-5.58-4.93-9.75-13.34-12.4a36.09,36.09,0,0,0-11.06-1.55c-10.77,0-22.89,3.57-33.58,6.72-4.89,1.44-9.51,2.81-13.72,3.76-35.38,8-56.74,12.88-75.88,12.88-17,0-31.81-3.79-51.3-13.1a425.92,425.92,0,0,1-43.25-24.13c-16.06-9.95-23.57-14.35-33.07-14.35-4.43,0-9.72,1-16.07,3v.92c6.36-2,11.67-3,16.07-3,9.26,0,16.69,4.36,32.62,14.22A424,424,0,0,0,653,795.6c19.62,9.37,34.59,13.19,51.68,13.19,19.24,0,40.63-4.85,76.08-12.9,4.23-1,8.86-2.33,13.76-3.77,10.64-3.14,22.7-6.69,33.34-6.69a35.37,35.37,0,0,1,10.8,1.51c8,2.53,12.31,6.44,12.73,11.63.78,9.83-12.56,21.95-22.49,26.93-14.59,7.3-27.2,13.62-35.22,20.87-24.19,21.87-20.29,50.43-13,76.07h.91C774.37,897,770.42,868.62,794.31,847Z" transform="translate(-561.03 -131.16)"/><path class="cls-4" d="M1328.47,724.11c2.26,1.44,5.93,2.24,10.33,2.24a46.89,46.89,0,0,0,13.51-2.16V722.9a45.9,45.9,0,0,1-13.51,2.22c-4.11,0-7.63-.75-9.66-2-10.33-6.6-14.9-18.24-19.73-30.57-4.18-10.65-8.49-21.65-16.86-29.41l0-.36h-.36c-9.63-8.49-22.6-12.62-39.66-12.62-16.62,0-34.12,4-48.19,7.2-9.6,2.19-17.9,4.08-23.23,4.08-3.14,0-5-.64-5.83-2-1-1.77-.26-5.08,2.34-9.83,12.15-22.19,36.69-75.09,35-97-1.34-17.28-9.64-35.11-17.66-52.36-11.63-25-23.64-50.81-14.89-75.49,10-28.15,54-78.47,85.25-82.74a43.5,43.5,0,0,1,5.85-.37c20.36,0,50.14,12.13,81.18,29.7v-1.32c-31-17.52-60.81-29.61-81.18-29.61a45.69,45.69,0,0,0-6,.38c-31.7,4.33-76.18,55.13-86.26,83.55-8.91,25.15,3.21,51.21,14.94,76.42,8,17.15,16.23,34.88,17.56,51.93,1.51,19.52-19.9,69-34.84,96.28-2.91,5.32-3.65,8.83-2.33,11.06,1,1.73,3.28,2.57,6.89,2.57,5.47,0,13.83-1.9,23.51-4.11,14-3.2,31.42-7.17,47.91-7.17,16.85,0,29.62,4.08,39,12.47h0c8.28,7.57,12.58,18.52,16.73,29.11C1313.17,705.47,1317.81,717.3,1328.47,724.11Z" transform="translate(-561.03 -131.16)"/><path class="cls-4" d="M1318.21,804.39c-4.65,10.59-9,20.6-14.6,29.25-32.42,50.41-68.55,58.9-106.8,67.9-2.91.68-6,1.33-8.93,2-12.74,2.72-25.92,5.52-36.66,12.49a35.24,35.24,0,0,0-7.72,6.45h1.15a36.46,36.46,0,0,1,7-5.71c10.6-6.88,23.7-9.67,36.36-12.37,3-.63,6-1.28,9-2,38.43-9,74.73-17.57,107.34-68.27,5.6-8.71,10-18.75,14.67-29.4,7.41-16.87,15.8-36,27.41-42.39,2.06-.79,4-1.47,5.88-2.07v-.92q-3,.95-6.25,2.19C1334.14,768.09,1325.68,787.36,1318.21,804.39Z" transform="translate(-561.03 -131.16)"/><path class="cls-4" d="M1135.4,903.36c20.73-9.24,39.49-13.65,57.62-17.91,36.43-8.57,67.89-16,96.69-60.75,4.85-7.54,9-17,13.36-27,9.15-20.85,18.61-42.41,36.17-51.31a123.09,123.09,0,0,1,13.07-4.31v-1.26a120.89,120.89,0,0,0-13.64,4.48c-17.94,9.09-27.49,30.86-36.72,51.91-4.36,9.93-8.48,19.31-13.28,26.78-28.53,44.36-59.76,51.71-95.93,60.21-18.19,4.28-37,8.7-57.84,18-13.56,6-22.61,13-26.37,20.2h1.37C1113.68,915.74,1122.44,909.14,1135.4,903.36Z" transform="translate(-561.03 -131.16)"/><path class="cls-4" d="M1139.47,861.3c-3.26-10.31-17.53-18-42.41-22.88a260.13,260.13,0,0,0-49.76-4.83A270.81,270.81,0,0,0,973.7,844c-3.3.93-6.62,1.95-9.85,3-42.08,14-66.36,37.24-77.27,75.43h1.3c10.85-37.56,34.86-60.49,76.35-74.27,3.22-1.06,6.52-2.08,9.81-3a269.11,269.11,0,0,1,73.26-10.35,258.62,258.62,0,0,1,49.53,4.81c24.4,4.78,38.35,12.19,41.46,22,2.39,7.54-1.56,16.75-11.74,27.36-10.53,11-21.17,22.07-30.73,33.41h1.62c9.36-11,19.73-21.86,30-32.56C1138,878.92,1142,869.3,1139.47,861.3Z" transform="translate(-561.03 -131.16)"/><path class="cls-4" d="M1041.92,763.48a4.7,4.7,0,0,0,2.3.6c3.12,0,6.19-3.05,8.9-5.74a20.09,20.09,0,0,1,4.27-3.62,10.45,10.45,0,0,1,4.52-1.12c2.79,0,5.16,1.33,7.91,2.88,1,.55,2,1.12,3.09,1.66a17.49,17.49,0,0,0,7.84,1.92,31.74,31.74,0,0,0,7.76-1.25,39.1,39.1,0,0,1,8.83-1.43h.42c6.68,0,12.8,3.47,18.72,6.81s12,6.77,18.6,6.77a20.19,20.19,0,0,0,9.34-2.34,33.11,33.11,0,0,0,6-4.2c2.73-2.24,5.08-4.18,9.06-4.18a16.36,16.36,0,0,1,3.79.49c11.3,2.66,16.26,13,21.06,23.08,2.26,4.71,4.58,9.58,7.52,13.46,5.89,7.78,13.49,12.07,21.4,12.07h.41c7.93-.15,15.55-4.52,21.44-12.31,8-10.57,22.54-45,16.52-62.15a14,14,0,0,0-10.17-9.52,19.77,19.77,0,0,0-5-.66c-5.14,0-9,2.29-13.43,4.95-1,.6-2,1.22-3.13,1.84-9,5.1-18,6.16-27.42,7.27-3.72.44-7.56.9-11.45,1.61a66.14,66.14,0,0,0-12,3.77c-5,1.92-9.64,3.73-14.79,3.73a23.13,23.13,0,0,1-10.39-2.57c-7.24-3.56-15.15-6.85-23.87-6.85a36.93,36.93,0,0,0-8.66,1c-1.34.32-2.65.66-3.94,1-5,1.29-9.81,2.5-14.65,2.5a26.38,26.38,0,0,1-11.26-2.49l-1.56-.72c-6.64-3.07-13.51-6.25-20.54-6.25a22.08,22.08,0,0,0-11,2.89c-4.4,2.44-10.29,12.71-10.28,19.87C1038.2,759.65,1039.49,762.14,1041.92,763.48Zm7-26.32a21.14,21.14,0,0,1,10.53-2.78c6.83,0,13.61,3.14,20.17,6.17l1.56.72a27.32,27.32,0,0,0,11.63,2.57c5,0,9.76-1.23,14.87-2.52,1.28-.33,2.59-.66,3.92-1a35.77,35.77,0,0,1,8.46-1c8.54,0,16.33,3.25,23.48,6.76a24,24,0,0,0,10.78,2.66c5.31,0,10.07-1.84,15.11-3.8a65.37,65.37,0,0,1,11.83-3.71c3.86-.72,7.69-1.17,11.39-1.6,9.56-1.13,18.58-2.19,27.76-7.39,1.09-.62,2.13-1.24,3.14-1.84,4.34-2.59,8.08-4.83,13-4.83a18.94,18.94,0,0,1,4.75.63,13.14,13.14,0,0,1,9.56,9c5.92,16.86-8.48,50.88-16.39,61.33-5.73,7.57-13.1,11.82-20.76,12h-.39c-7.63,0-15-4.16-20.7-11.72-2.88-3.81-5.09-8.42-7.42-13.3-4.89-10.23-10-20.81-21.66-23.57a17.45,17.45,0,0,0-4-.51c-4.29,0-6.76,2-9.62,4.38a31.79,31.79,0,0,1-5.88,4.09,19.3,19.3,0,0,1-8.94,2.25c-6.39,0-12.11-3.23-18.17-6.65s-12.24-6.93-19.15-6.93h-.44a39.75,39.75,0,0,0-9,1.46,31.4,31.4,0,0,1-7.55,1.23,16.36,16.36,0,0,1-7.45-1.84c-1.07-.53-2.07-1.09-3-1.64-2.73-1.54-5.32-3-8.34-3a11.33,11.33,0,0,0-4.9,1.21,20.17,20.17,0,0,0-4.51,3.79c-2.58,2.57-5.52,5.48-8.28,5.48a3.85,3.85,0,0,1-1.88-.49c-2.16-1.19-3.26-3.36-3.26-6.45C1039.07,749,1045.2,739.21,1048.91,737.16Z" transform="translate(-561.03 -131.16)"/><path class="cls-4" d="M928.5,825.64a26.29,26.29,0,0,0,5.7.45c5.35,0,25.2-.79,56.16-11,25.89-8.55,56.16-13.25,85.24-13.25,47.86,0,79.66,7.17,120.61,46.37,2.91,2.78,6.81,4.19,11.58,4.19,17.8,0,44.72-19.37,61.29-44.11,12.94-19.32,31.75-58.78,12.32-106-8.36-20.31-18.86-23.11-29-23.11-12.48,0-28.09,5-46.19,10.87-24.38,7.86-52,16.76-82.64,16.76a142.36,142.36,0,0,1-68.55-17.2c-68.6-36.58-69.53-104.73-64.26-152.81,1.63-14.89-.68-26.67-6.51-33.17a17.89,17.89,0,0,0-13.92-5.9c-13,0-29.45,10.65-35.62,31-5.58,18.38,10.26,38.4,28.61,61.59,23.44,29.63,52.6,66.49,46.92,115.9a128.34,128.34,0,0,1-11.23,40c-9.26,19.7-21.51,36.42-36.4,49.7-9.83,8.76-19.69,14.89-26.89,19.36-6.56,4.07-10.52,6.53-10.23,8.4C925.66,824.53,926.6,825.15,928.5,825.64Zm7.54-9.9c7.21-4.49,17.1-10.63,27-19.42,15-13.32,27.24-30.1,36.53-49.87a128.84,128.84,0,0,0,11.28-40.15c5.7-49.63-23.54-86.6-47-116.3-18.25-23.07-34-43-28.52-61.11,6.1-20.09,22.28-30.61,35.12-30.61A17.37,17.37,0,0,1,983.9,504c5.72,6.39,8,18,6.38,32.76C985,585,985.93,653.36,1054.81,690.1a142.9,142.9,0,0,0,68.8,17.26c30.71,0,58.38-8.92,82.82-16.8,18-5.81,33.61-10.83,46-10.83,9.92,0,20.23,2.76,28.48,22.78,19.33,47,.6,86.23-12.28,105.47-16.2,24.19-43.5,43.88-60.85,43.88-4.63,0-8.41-1.36-11.21-4.05-19.85-19-38.32-31.08-58.13-38-17-6-35.84-8.51-62.85-8.51-29.13,0-59.46,4.72-85.4,13.28-30.89,10.2-50.67,11-56,11a25.7,25.7,0,0,1-5.57-.44c-1.62-.41-2.49-.93-2.58-1.52C925.82,822.08,930.1,819.42,936,815.74Z" transform="translate(-561.03 -131.16)"/><path class="cls-4" d="M970.37,509.88c-9.44,0-19.79,9.54-23.19,18.1-2.24,5.67-.53,15.37,4.59,25.95,4.83,10,11.25,17.63,16,19.06a7.17,7.17,0,0,0,4.51-.07c6.12-2.14,6-5.89,5.68-14.12a135.37,135.37,0,0,1,.6-21.52c1.4-12.78-.6-22.52-3.3-25.53C974.39,510.78,973.2,509.88,970.37,509.88Zm7.31,27.31a136.89,136.89,0,0,0-.6,21.64c.3,8.25.42,11.34-5.09,13.26a6.41,6.41,0,0,1-4,.06c-4.52-1.36-10.73-8.83-15.46-18.6-5-10.36-6.72-19.8-4.56-25.25,3.29-8.29,13.29-17.54,22.37-17.54,2.48,0,3.5.76,4.23,1.57C977.17,515.2,979.06,524.66,977.68,537.19Z" transform="translate(-561.03 -131.16)"/><path class="cls-4" d="M1183.22,764.71a32.72,32.72,0,0,1,4.47,2.2c.56.31,1.16.65,1.88,1a104.94,104.94,0,0,1,17.56,11.43c2.41,2,4.38,3,6,3,2.42,0,3.83-2,5-4,4.25-7.25,5.75-12.84,7.5-22.64a5,5,0,0,0-.75-4.08c-1.27-1.52-3.79-1.78-7.48-.76-11.15,3.09-18.66,4.51-28.18,6.31l-5.18,1a3.91,3.91,0,0,0-3.37,3.14C1180.59,762.05,1180.71,763.7,1183.22,764.71Zm1-5.47,5.18-1c9.54-1.81,17.07-3.23,28.26-6.33a14,14,0,0,1,3.59-.58,3.54,3.54,0,0,1,2.84,1,4.09,4.09,0,0,1,.53,3.25c-1.73,9.67-3.2,15.19-7.38,22.31-1.22,2.08-2.39,3.46-4.08,3.46-1.39,0-3.15-.9-5.36-2.77a105.84,105.84,0,0,0-17.74-11.55c-.71-.38-1.31-.72-1.87-1a35,35,0,0,0-4.58-2.25c-1.32-.53-2-1.37-1.94-2.29A2.94,2.94,0,0,1,1184.21,759.24Z" transform="translate(-561.03 -131.16)"/><path class="cls-4" d="M1021.74,783.23a55.43,55.43,0,0,0,6.09-.41,534.74,534.74,0,0,1,54-3,269,269,0,0,1,28.27,1.31c40.43,4.35,75.42,23.63,92.16,40.8a14.83,14.83,0,0,0,10.93,4.77c9.37,0,20.91-8.16,31.67-22.37,18.84-24.91,24.54-72.57,15.2-91.34-2.47-5-5.94-7.61-10-7.61-.34,0-.68,0-1,.05-7.4.76-17.66,3.77-30.64,7.58-24.32,7.13-57.63,16.9-93.75,17.48-30.86.51-66.13-11.71-78.13-17.56-3.92-1.91-6.45-2.76-8.21-2.76-3.59,0-3.74,3.4-4,9a66.91,66.91,0,0,1-2.67,17.62,222.64,222.64,0,0,1-11.76,29.43c-3.64,7.83-5.85,12.55-4.28,15C1016.41,782.63,1018.32,783.23,1021.74,783.23Zm-1.43-16.72a225.28,225.28,0,0,0,11.78-29.5,66.48,66.48,0,0,0,2.69-17.76c.25-5.5.39-8.53,3.47-8.53,1.65,0,4.19.86,8,2.71,11.8,5.75,46,17.62,76.56,17.62h1.81c36.19-.58,69.54-10.36,93.88-17.51,13-3.8,23.2-6.8,30.55-7.55,4.36-.44,7.91,2,10.52,7.27,9.27,18.64,3.59,66-15.15,90.78-10.66,14.08-22.05,22.16-31.25,22.16a14.35,14.35,0,0,1-10.56-4.6c-16.8-17.25-51.91-36.6-92.47-41a270.26,270.26,0,0,0-28.33-1.31,539.3,539.3,0,0,0-54,3,54.85,54.85,0,0,1-6,.42c-3.18,0-5-.55-5.75-1.71C1014.58,778.79,1016.74,774.17,1020.31,766.51Z" transform="translate(-561.03 -131.16)"/><path class="cls-4" d="M982.38,803.37a18.93,18.93,0,0,0,5.92-1.17c24.62-8.54,53.18-12.69,87.3-12.69,42.5,0,84.61,3.89,132.46,50.94a7.36,7.36,0,0,0,5.37,2h0c13.38,0,38.11-25.63,45.44-41.09q1-2.11,2.16-4.47c9.33-19.14,25-51.18,9-89.92-6.37-15.49-12.33-15.49-17.58-15.49-10.55,0-25.31,4.76-42.42,10.27-25.23,8.14-53.84,17.36-86.41,17.36-27.87,0-50.43-5.12-73.13-16.6-3.51-1.78-6.9-3.73-9.88-5.44-6-3.43-10.7-6.14-13.74-6.14-2.37,0-3.55,1.66-3.59,5.06,0,.54.08,1.41.2,2.62,3.25,33.38-9.67,64.54-38.41,92.61-5,4.9-7.14,8.42-6.31,10.47C979.19,802.8,980.45,803.37,982.38,803.37Zm3-11.74c18.48-18.06,30.59-37.65,36-58.24a95.19,95.19,0,0,0,2.56-34.8c-.11-1.19-.2-2.05-.19-2.56.05-4.07,1.77-4.54,3.06-4.54,2.9,0,7.8,2.81,13.47,6.07,3,1.72,6.39,3.66,9.91,5.45,22.79,11.52,45.41,16.66,73.37,16.66,32.65,0,61.3-9.24,86.58-17.39,17.06-5.49,31.79-10.24,42.25-10.24,5.09,0,10.85,0,17.09,15.16,15.87,38.53.32,70.43-9,89.49-.77,1.57-1.5,3.07-2.17,4.48-7.27,15.34-31.75,40.79-45,40.79a6.85,6.85,0,0,1-5-1.89c-22.23-21.86-45.24-36.17-70.34-43.76-22.38-6.76-43.14-7.33-62.49-7.33-34.18,0-62.8,4.16-87.48,12.72a18.37,18.37,0,0,1-5.74,1.14c-1.19,0-2.7-.23-3.14-1.32S979.07,797.84,985.43,791.63Z" transform="translate(-561.03 -131.16)"/><path class="cls-4" d="M887.87,131.16h-1.29a177,177,0,0,0-5.72,31.26c-2,19.82-3.67,45.79.39,70.83,3,18.24,8.9,26.38,19.26,26.38h0c6.61,0,14.3-3.21,23.2-6.92a171.24,171.24,0,0,1,19.42-7.18l2-.54c19.47-5.22,41.41-6,64.7-2.19a179.41,179.41,0,0,1,18.7,4.45c8.92,2.47,18.15,5,27.53,5.43,5.08.23,8.69-.29,11.26-1.56,7.47-3.73,3.84-13,0-22.88-2.28-5.83-4.63-11.85-5-17.26-2-28.69,14-54.84,35.17-79.82h-1.62c-21,24.94-36.84,51.1-34.78,79.91.4,5.59,2.79,11.7,5.1,17.62,3.8,9.71,7.08,18.1.61,21.32-2.34,1.17-5.88,1.65-10.66,1.44-9.23-.41-18.4-2.94-27.26-5.38a178.31,178.31,0,0,0-18.83-4.48c-23.45-3.8-45.57-3.05-65.21,2.21l-2,.55a170.87,170.87,0,0,0-19.56,7.23c-8.78,3.66-16.36,6.82-22.73,6.82-9.64,0-15.21-7.82-18-25.35-4-24.89-2.33-50.76-.38-70.51A174,174,0,0,1,887.87,131.16Z" transform="translate(-561.03 -131.16)"/><path class="cls-4" d="M872.11,623.24a5,5,0,0,0-3.21-1.59c-2.47,0-4.19,3.13-6.8,7.87a84.91,84.91,0,0,1-12.8,18.42l-1.88,2c-7.34,7.77-10.69,11.33-9.87,13.23.38.87,1.51,1.25,3.68,1.25a72.66,72.66,0,0,0,9.07-.9,40.91,40.91,0,0,1,5.64-.39c15.26,0,28,8.55,37.25,14.79,5.43,3.66,9.72,6.54,12.8,6.54a3.77,3.77,0,0,0,3.13-1.53C918.86,670.44,884.81,634.75,872.11,623.24Zm36.32,59.16a2.91,2.91,0,0,1-2.44,1.19c-2.81,0-7-2.83-12.31-6.4-9.38-6.3-22.22-14.94-37.74-14.94a41.1,41.1,0,0,0-5.76.4,70.76,70.76,0,0,1-8.95.89c-1.7,0-2.66-.24-2.87-.72-.59-1.37,3.5-5.71,9.7-12.28l1.88-2a85.21,85.21,0,0,0,12.93-18.6c2.46-4.46,4.08-7.41,6-7.41a4.24,4.24,0,0,1,2.62,1.36C887.29,638.19,917.06,671.31,908.43,682.4Z" transform="translate(-561.03 -131.16)"/><path class="cls-4" d="M872.35,637.9c-6.15,0-14.08,9.7-14.12,14.31,0,1.89,1.16,3,3.21,3,9.07.16,18.65,5.91,25.65,10.1,4.15,2.49,7.15,4.29,8.92,4.29h0a1.73,1.73,0,0,0,1.34-.53,2.59,2.59,0,0,0,.5-2c-.65-8.45-16.71-25.38-23.22-28.64A5.09,5.09,0,0,0,872.35,637.9Zm24.27,29.25c.06.75-.08,1-.17,1.11s-.12.14-.44.14h0c-1.43,0-4.61-1.91-8.29-4.11-7.11-4.27-16.86-10.11-26.25-10.28-1.4,0-2-.57-2-1.79,0-4.1,7.41-13.09,12.89-13.09a3.82,3.82,0,0,1,1.73.39C881.1,643,896,659.49,896.62,667.15Z" transform="translate(-561.03 -131.16)"/><path class="cls-4" d="M850.6,478.41h0c1.52,0,2.72-2.14,3.9-6.94,4.41-18,19-41.71,41.63-54.34C919,404.34,934.31,401,942.52,399.24c4.07-.89,6.12-1.33,6.61-2.4a1.58,1.58,0,0,0-.19-1.47c-1.57-2.89-30-18.77-70.78-22.06l-1.72-.14c-3.68-.3-6.86-.56-9.91-.56-10.64,0-19.24,3-39.27,19.91-3.17,2.67-6.41,5.15-9.54,7.55-9.7,7.43-18.07,13.85-17.52,21.13.42,5.6,6,11.15,17.43,17.47,12.7,7,20.43,20.88,25.55,30.07C846.43,474.56,848.57,478.41,850.6,478.41Zm-32.72-40.2c-11.14-6.15-16.76-11.72-17.16-17-.52-7,7.75-13.33,17.32-20.67,3.14-2.4,6.38-4.89,9.56-7.57,19.91-16.83,28.42-19.79,38.93-19.79,3,0,6.2.26,9.87.57l1.72.14c39.88,3.21,68.86,19,70.36,21.78.3.56.24.84.17,1-.38.83-2.59,1.31-6.24,2.1-8.24,1.79-23.56,5.12-46.54,17.95-22.77,12.71-37.44,36.62-41.88,54.68-1.09,4.39-2.19,6.53-3.39,6.53h0c-1.72,0-4-4.15-7-9.4C838.5,459.24,830.71,445.28,817.88,438.21Z" transform="translate(-561.03 -131.16)"/><path class="cls-4" d="M853.92,508.6c1.53,0,2.58-1.83,3.33-5.77,4.56-24.21,14.46-58.5,47.54-76.79a151.65,151.65,0,0,1,35.29-13.7c2.72-.72,5.63-2.68,8.45-4.58,3.64-2.46,7.41-5,10.89-5a6.56,6.56,0,0,1,1.18.11,11,11,0,0,1,4.82,2.56c1.58,1.23,3.08,2.39,5.15,2.39a6.59,6.59,0,0,0,2.44-.51,6.5,6.5,0,0,0,3-2.84c1.06-1.56,2-3,5-2.78s4.56,2.51,6.26,4.91a13.88,13.88,0,0,0,4.14,4.37,12.88,12.88,0,0,0,5.57,1.46,3.52,3.52,0,0,0,3-1.11,3.3,3.3,0,0,0,.28-3c-1.16-4.14-10-8-15.93-10.58-1.74-.76-3.24-1.41-4.2-1.92-8.76-4.64-17.5-8.57-24.89-11.8-31.16-13.64-59.57-22-86.84-25.43a64.7,64.7,0,0,0-8.14-.58c-13.42,0-23.83,5.87-44.55,25.14-5.09,4.72-10.32,8.78-15.38,12.71C789,404.7,780,411.64,780.26,420.39c.17,6.89,6.16,14.24,18.84,23.13,20.43,14.29,34,36,43,50.38C847.61,502.75,851.26,508.6,853.92,508.6Zm-54.51-65.52c-12.54-8.78-18.46-16-18.63-22.71-.21-8.47,8.65-15.35,19.86-24.05,5.07-3.94,10.31-8,15.41-12.75,20.61-19.16,30.94-25,44.2-25a63.54,63.54,0,0,1,8.07.58c27.22,3.47,55.58,11.78,86.7,25.39,7.38,3.23,16.11,7.16,24.85,11.79,1,.52,2.49,1.17,4.24,1.93,5.79,2.53,14.54,6.34,15.63,10.24a2.82,2.82,0,0,1-.19,2.5,3.18,3.18,0,0,1-2.55.9,12.31,12.31,0,0,1-5.31-1.4,13.28,13.28,0,0,1-4-4.21c-1.69-2.39-3.44-4.86-6.65-5.13s-4.42,1.4-5.5,3a6.06,6.06,0,0,1-2.75,2.64,6.22,6.22,0,0,1-2.25.47c-1.89,0-3.32-1.11-4.83-2.28a11.47,11.47,0,0,0-5-2.66,6.67,6.67,0,0,0-1.27-.11c-3.64,0-7.48,2.58-11.19,5.08-2.91,2-5.65,3.81-8.29,4.51a152.86,152.86,0,0,0-35.41,13.74c-33.27,18.4-43.22,52.85-47.8,77.16-.68,3.6-1.6,5.34-2.81,5.34-2.36,0-6.15-6.06-11.39-14.45C833.52,479.21,819.92,457.44,799.41,443.08Z" transform="translate(-561.03 -131.16)"/><path class="cls-4" d="M918.88,729.23c12-1.36,23.36-9.63,28.87-21.05,5-10.43,7.76-28.11-7.86-53.16-6.7-10.75-14-21.61-21.09-32.11-20.22-30-39.32-58.38-47.2-86.83-8.92-32.18-1.76-58.72,22.54-83.54,21-21.49,48.85-33.81,76.3-33.81,20.63,0,39,7.26,51.82,20.43,14,14.48,21.07,35.66,20.31,61.25-.18,5.95-.46,12.08-.76,18.58-1.07,23.11-2.27,49.29,1.46,71.08,4.29,25,14.47,40.53,31.11,47.31,8.91,3.63,17.36,5.47,25.11,5.47,14.08,0,26.07-6.15,34.67-17.78,14.61-19.77,18.12-53.65,8.71-84.28-20.18-65.73-68.66-105-140.35-147-54.45-31.91-100.45-41.76-142-47.66a62.85,62.85,0,0,0-8.77-.66c-17.37,0-25.64,8.85-36.11,20a184,184,0,0,1-13.34,13.29A105,105,0,0,1,786.57,390c-7.32,4.5-13.65,8.39-20.62,18.8-13.82,20.66,4.68,33.34,24.26,46.76,10.34,7.09,21,14.42,26.77,23.1,36,54.56,21.48,112.76-4.13,149-7.32,10.37-18,20.16-29.33,30.53-13.84,12.67-28.15,25.78-36.33,40.42-3.53,6.29-4.53,10.57-3.06,13.06,1.07,1.83,3.44,2.72,7.23,2.72h0c6.75,0,17.48-2.8,29.91-6,17.43-4.55,39.11-10.2,58.27-10.2,10.16,0,18.86,1.61,25.87,4.8s12.89,7.78,18.61,12.22c9.4,7.31,18.27,14.22,30.82,14.22A34.56,34.56,0,0,0,918.88,729.23Zm-53.25-26.68c-7.17-3.26-15.7-4.85-26.08-4.85-19.23,0-40.95,5.66-58.4,10.22-12.4,3.23-23.1,6-29.78,6h0c-3.59,0-5.81-.8-6.78-2.45-1.36-2.32-.36-6.43,3.07-12.55,8.14-14.56,22.42-27.64,36.23-40.28,11.34-10.39,22-20.2,29.4-30.62,15-21.26,23.87-45.51,25.62-70.12,2-28.13-5.22-54.88-21.48-79.51-5.79-8.77-16.53-16.13-26.92-23.25-19.35-13.27-37.64-25.8-24.11-46,6.9-10.31,13.18-14.17,20.46-18.65a105.39,105.39,0,0,0,15.75-11.26A187.22,187.22,0,0,0,816,365.89C826.36,354.79,834.56,346,851.7,346a62,62,0,0,1,8.7.66c41.54,5.88,87.48,15.72,141.85,47.59,71.58,41.94,120,81.11,140.12,146.67,9.36,30.49,5.89,64.17-8.64,83.82-8.49,11.49-20.33,17.57-34.24,17.57-7.69,0-16.07-1.83-24.91-5.44-16.46-6.71-26.53-22-30.79-46.91-3.72-21.73-2.52-47.89-1.46-71,.3-6.5.59-12.64.76-18.59.78-25.74-6.3-47.05-20.45-61.63-12.89-13.28-31.43-20.6-52.2-20.6-27.59,0-55.54,12.38-76.68,34-12.9,13.19-20.88,26.79-24.37,41.59-3.11,13.22-2.56,27.1,1.7,42.46,7.91,28.53,27,56.93,47.28,87,7.07,10.49,14.38,21.35,21.08,32.09,15.49,24.84,12.8,42.34,7.83,52.65-5.44,11.26-16.61,19.41-28.46,20.76a35.78,35.78,0,0,1-4,.23c-12.37,0-21.17-6.85-30.5-14.1C878.61,710.37,872.68,705.76,865.63,702.55Z" transform="translate(-561.03 -131.16)"/><path class="cls-4" d="M930.41,707.43a19.47,19.47,0,0,0,8-13.95c2.1-17.3-13.24-42.52-27-58.86-17.18-20.39-34.23-42.17-42.58-63.23-.41-1-1-4-1.84-7.68-2.68-12.51-7.17-33.46-13.67-33.46a3.51,3.51,0,0,0-1.82.54c-2.7,1.6-3.5,4.75-2.44,9.63.87,4,2.86,8.59,4.61,12.65,1.86,4.3,3.47,8,3.44,10.12-.07,5.42-2.6,7.82-5.06,10.14-1.91,1.81-3.89,3.68-4.6,6.92-.91,4.19.82,7.33,2.48,10.38,1.55,2.8,3.14,5.71,2.63,9.45-.93,6.87-22.69,31.66-41.89,53.52-15.89,18.1-29.61,33.73-29.37,36.72a.71.71,0,0,0,.25.53c1.31,1.09,3.7,1.62,7.3,1.62h0c5.68,0,13.58-1.27,22.73-2.74,11.1-1.78,23.67-3.79,34.59-3.79,8.52,0,14.9,1.21,19.5,3.71,2.5,1.36,5.29,3,8.23,4.68,13.11,7.63,29.44,17.11,43.25,17.11A22,22,0,0,0,930.41,707.43Zm-64.47-18.25c-4.68-2.54-11.14-3.77-19.75-3.77-11,0-23.56,2-34.67,3.8-9.13,1.47-17,2.73-22.65,2.73h0c-3.48,0-5.75-.49-7-1.5,0,0,0,0-.06-.16-.22-2.77,14.1-19.07,29.25-36.33,19.25-21.92,41.06-46.77,42-53.8.53-3.91-1.11-6.9-2.69-9.78-1.7-3.09-3.3-6-2.43-10,.67-3.09,2.51-4.82,4.45-6.66,2.53-2.39,5.14-4.87,5.22-10.51,0-2.22-1.6-6-3.48-10.34-1.75-4-3.73-8.61-4.58-12.55-1-4.63-.29-7.59,2.19-9.07a3,3,0,0,1,1.55-.46c6.07,0,10.68,21.49,13.16,33a75.35,75.35,0,0,0,1.86,7.77c8.37,21.13,25.46,42.94,42.67,63.37,13.7,16.26,29,41.33,26.88,58.45A18.89,18.89,0,0,1,930.1,707a21.45,21.45,0,0,1-12.93,3.91c-13.67,0-29.93-9.44-43-17C871.24,692.16,868.45,690.55,865.94,689.18Z" transform="translate(-561.03 -131.16)"/><path class="cls-4" d="M924.4,685.36c1.56-14.48-13.95-37.21-21.71-46A451.8,451.8,0,0,1,873.8,603c-6.12-8.43-9.49-13.08-11.68-13.08-1.5,0-2.32,1.94-2.83,6.7-3.84,35.8-27,55.19-40.83,66.77-6.05,5.08-10.06,8.43-10.22,11.19a2.83,2.83,0,0,0,.84,2.17c1.26,1.34,3.26,2,6.29,2,3.42,0,7.72-.79,12.71-1.71,6.48-1.19,13.82-2.53,21.33-2.53,10.23,0,18.48,2.55,25.24,7.79,9.5,7.38,23.59,15.27,34.6,15.27h0a16.81,16.81,0,0,0,10.11-3A12.48,12.48,0,0,0,924.4,685.36ZM909.25,697h0c-10.88,0-24.84-7.84-34.28-15.17-6.85-5.31-15.21-7.9-25.56-7.9-7.56,0-14.93,1.35-21.42,2.54-5,.91-9.25,1.7-12.62,1.7-2.88,0-4.76-.57-5.91-1.8a2.32,2.32,0,0,1-.7-1.78c.15-2.53,4.3-6,10-10.81,13.9-11.64,37.15-31.11,41-67.13.46-4.3,1.17-6.22,2.3-6.22,1.92,0,5.43,4.84,11.26,12.86a451.62,451.62,0,0,0,28.91,36.45c7.71,8.68,23.13,31.24,21.58,45.54a11.93,11.93,0,0,1-4.82,8.81A16.25,16.25,0,0,1,909.25,697Z" transform="translate(-561.03 -131.16)"/><path class="cls-4" d="M1074.64,540.67c-1.81,27.51,6.09,46.44,14.09,55,3.66,3.91,7.67,6.06,11.3,6.07h0c5.12,0,9-4,10.84-11.34,12-47.08-28.89-96.7-33.91-100.85-1.45-1.19-2.45-1.35-3.1-.64-1.17,1.28-.8,5.48-.14,13.11A243.21,243.21,0,0,1,1074.64,540.67Zm-.13-51.18a.38.38,0,0,1,.31-.14c.25,0,.72.15,1.58.86,5,4.11,45.52,53.3,33.62,99.95-1.76,6.89-5.31,10.68-10,10.68h0c-3.38,0-7.17-2.06-10.66-5.79-7.87-8.41-15.64-27.1-13.85-54.32a244.9,244.9,0,0,0-.92-38.81C1074,495.28,1073.6,490.48,1074.51,489.49Z" transform="translate(-561.03 -131.16)"/><path class="cls-4" d="M1289.09,231.45c-13.75,0-29,2.6-45.12,5.35-19.27,3.28-39.2,6.68-60.91,6.68-1.6,0-3.18,0-4.68,0l-3.82-.1c-3.29-.09-6.39-.17-9.38-.17-18.7,0-30.29,3.81-37.92,23.92-4.83,12.71-10.3,27.12-23.43,36.41-3.71,2.63-7.43,4.87-10.7,6.85-7.6,4.59-13.6,8.22-13.83,13.22-.2,4.61,4.45,10.14,15.1,17.95,10.21,7.49,18.61,11.13,25.68,11.13.64,0,1.28,0,1.9-.08,10.27-1,17.16-9.44,25.88-20.19a198.27,198.27,0,0,1,13.72-15.68,188.9,188.9,0,0,1,81.15-48.17,136.27,136.27,0,0,1,37.49-5.52c29.92,0,53,10.82,72.09,23.33v-.63c-19.1-12.47-42.18-23.23-72.09-23.23a136.53,136.53,0,0,0-37.63,5.54,189.47,189.47,0,0,0-81.38,48.3A199.18,199.18,0,0,0,1147.45,332c-8.65,10.65-15.47,19.06-25.52,20-.61.06-1.23.09-1.85.09-6.95,0-15.25-3.61-25.37-11-10.49-7.7-15.08-13.1-14.88-17.5.22-4.73,6.11-8.29,13.57-12.8,3.28-2,7-4.23,10.74-6.87,13.26-9.38,18.76-23.87,23.61-36.66,7.53-19.82,19-23.58,37.43-23.58,3,0,6.08.09,9.36.18l3.83.1c1.5,0,3.08,0,4.69,0,21.76,0,41.71-3.4,61-6.69,16.11-2.75,31.33-5.35,45-5.35a76.65,76.65,0,0,1,21.23,2.69c13.63,3.9,27.58,10.28,42,17.73v-.59c-14.35-7.41-28.25-13.76-41.85-17.64A76.9,76.9,0,0,0,1289.09,231.45Z" transform="translate(-561.03 -131.16)"/><path class="cls-4" d="M1061,539.09c-2,26.68,3.23,48.27,14.84,60.79,6.07,6.56,13.53,10.17,21,10.17h0c10.65,0,19.17-7.41,21.71-18.86,7.4-33.47-4.06-63.59-15-83-12.83-22.76-29.24-38.86-37.14-44.13-2.89-1.92-4.93-3.12-6.16-3.12a1.36,1.36,0,0,0-1.08.46c-1,1.15-.61,4.4.22,10.89C1060.9,483.8,1063.62,505.16,1061,539.09Zm-1.42-77.3a.85.85,0,0,1,.69-.28c1.09,0,3.14,1.21,5.86,3,17.85,11.9,65.27,66.14,51.9,126.54-2.48,11.2-10.8,18.44-21.19,18.44-7.33,0-14.65-3.55-20.62-10-11.5-12.42-16.72-33.87-14.69-60.4,2.59-34-.13-55.38-1.6-66.87C1059.21,466.34,1058.75,462.76,1059.61,461.79Z" transform="translate(-561.03 -131.16)"/><path class="cls-4" d="M1050.91,540.82c-2,33.2,4.33,59.43,17.9,73.85,7,7.46,15.53,11.41,24.63,11.41h0c17.4,0,32.15-14.09,36.69-35,6.7-30.93.94-61.36-17.12-90.47-18.3-29.48-43.62-48.55-57.09-57.29-6.86-4.46-9.8-6.31-10.92-5-.93,1.12-.33,4.32.88,10.69C1048.49,462.81,1053.92,491.52,1050.91,540.82Zm-5.51-102.16a.76.76,0,0,1,.63-.26c1.42,0,4.5,2,9.6,5.32,44.88,29.13,87.87,83.09,74,147.2-4.48,20.72-19,34.63-36.17,34.63-9,0-17.33-3.89-24.25-11.24-13.46-14.31-19.77-40.4-17.75-73.46,3-49.36-2.43-78.12-5-91.94C1045.3,443.1,1044.63,439.59,1045.4,438.66Z" transform="translate(-561.03 -131.16)"/><path class="cls-4" d="M848.55,430.49c5,0,8.55-4.8,12.36-12,6.67-12.6,20.59-18.69,28.07-22,3.79-1.66,5.2-2.28,5-3.32-.15-.87-1.12-1.24-6.3-1.59-15.57-1.06-50.53,13.8-54.56,25a5.76,5.76,0,0,0,2,6.8c6,5,10,7.09,13.41,7.09ZM834.3,417C838,406.8,870.47,392.8,886,392.8c.55,0,1.07,0,1.58.05a25.59,25.59,0,0,1,5,.6,35.36,35.36,0,0,1-4.08,1.95c-7.62,3.33-21.8,9.53-28.67,22.51-4.32,8.17-7.48,11.35-11.27,11.35-3.08,0-6.86-2-12.62-6.81A4.5,4.5,0,0,1,834.3,417Z" transform="translate(-561.03 -131.16)"/><path class="cls-4" d="M863.86,429.86c12-21.82,33.86-29.44,51.59-33.64,1.7-.4,1.86-1.27,1.8-1.75-.41-3.56-17-10.36-41.79-10.36-2.79,0-5.65.08-8.5.26-11.32.68-38,16.47-47.6,28.16-2.5,3-3.63,5.56-3.36,7.5.66,4.85,5,7,10,9.5,5.29,2.64,11.3,5.63,14.22,12.59,1.7,4.06,3.93,6.12,6.64,6.12C851.44,448.24,857.16,442.05,863.86,429.86ZM841,441.78c-3-7.26-9.21-10.33-14.64-13-4.78-2.38-8.91-4.44-9.51-8.82-.23-1.67.87-4,3.16-6.83,9.49-11.56,35.83-27.17,47-27.85,2.82-.17,5.66-.25,8.44-.25,24.35,0,40.59,6.73,40.92,9.58,0,.45-.69.69-1.14.8-17.9,4.24-40,11.94-52.15,34.06C853,447.82,845.42,452.27,841,441.78Z" transform="translate(-561.03 -131.16)"/><path class="cls-4" d="M1095.22,580.65h0c.93,0,1.74-.65,2.42-1.92,3.43-6.42,3.36-28.64-5.72-42.17-1.18-1.75-2.89-1.52-4.18.69-3.41,5.88-4.84,24.56,4.45,40.85C1093.16,579.79,1094.18,580.65,1095.22,580.65Zm-6.41-42.78c.45-.78.94-1.25,1.3-1.25s.63.4.78.63c8.7,12.94,8.89,34.87,5.67,40.9-.44.82-.91,1.27-1.34,1.27s-1.26-.71-2-1.93C1084.32,561.83,1085.61,543.37,1088.81,537.87Z" transform="translate(-561.03 -131.16)"/><path class="cls-4" d="M1209.6,634.6c1.25,1.81,4.32,2.58,10.24,2.58,3.71,0,8.13-.29,13.25-.63,6.34-.43,13.52-.9,21-.9,23.51,0,39.37,5,49.94,15.76,9.83,7.56,15.25,19.89,20,30.76,5.82,13.22,10.84,24.64,21.93,24.64a17.93,17.93,0,0,0,3.69-.4,26.51,26.51,0,0,0,2.68-.69v-.92c-1,.31-2,.56-2.86.75a17.51,17.51,0,0,1-3.51.38c-10.52,0-15.43-11.17-21.12-24.11-4.83-11-10.3-23.41-20.26-31.07-10.7-10.9-26.76-16-50.52-16-7.46,0-14.66.48-21,.9-5.1.34-9.51.63-13.19.63-5.45,0-8.48-.7-9.52-2.2-.57-.82-.58-1.93,0-3.4,11.19-29.91,20.56-67.76,19.65-79.42-1.59-20.42-10.56-39.7-19.24-58.36-10.61-22.81-20.64-44.35-14.27-62.32,8.86-25,49.3-68.32,71.2-71.31a26.77,26.77,0,0,1,3.5-.21c17.06,0,47.12,12.21,81.18,32.4v-1c-34-20.11-64.06-32.26-81.18-32.26a26.87,26.87,0,0,0-3.62.22c-22.14,3-63,46.72-71.91,71.89-6.49,18.3,3.61,40,14.3,63,8.65,18.59,17.59,37.8,19.16,58.06.8,10.21-7.59,47-19.59,79C1208.81,632.15,1208.85,633.53,1209.6,634.6Z" transform="translate(-561.03 -131.16)"/><path class="cls-4" d="M1293,912.92c-1,0-2.71.11-4.86.25-3.62.23-8.58.55-13.51.55-12.21,0-18.61-2-19-6-.61-6,13.55-14.81,22.92-20.68a83.6,83.6,0,0,0,8.44-5.65,178.63,178.63,0,0,0,32-37.88c6.35-9.88,11-20.53,16-31.8,3.72-8.48,9.64-17.29,17.35-23.37v-.66c-7.94,6.16-14,15.15-17.84,23.82-4.94,11.25-9.6,21.88-15.92,31.72A177.86,177.86,0,0,1,1286.61,881a84.11,84.11,0,0,1-8.38,5.61c-10,6.28-23.81,14.89-23.17,21.18.45,4.33,6.84,6.44,19.55,6.44,5,0,9.92-.32,13.55-.55,2.14-.14,3.83-.25,4.82-.25,18.5,0,35,3,49.83,9h1.42C1329,916.05,1312.06,912.92,1293,912.92Z" transform="translate(-561.03 -131.16)"/><path class="cls-4" d="M953.18,181.46a39.2,39.2,0,0,0,8.35-1.07c3.25-.72,6.31-1.4,9.09-1.78,4.7-.63,9.26-.89,13.31-1.13a27.65,27.65,0,0,0,12.69-3.79c16.37-9.57,23.21-29.15,25.39-37.12.53-1.92,1-3.7,1.56-5.41H1023c-.5,1.67-1,3.4-1.52,5.27-2.16,7.91-8.94,27.33-25.15,36.8A27.2,27.2,0,0,1,983.87,177c-4,.23-8.6.49-13.33,1.13-2.79.38-5.87,1.06-9.12,1.78a38.29,38.29,0,0,1-8.24,1.07c-3.88,0-6.59-1-8.27-3.05-2.49-3-2.85-8.48-1.12-17.12l.28-1.41c2.35-11.89,6.38-21.05,12.73-28.2h-.7c-6.23,7.16-10.22,16.29-12.55,28.1l-.28,1.41c-1.76,8.8-1.37,14.38,1.23,17.55C946.29,180.4,949.13,181.46,953.18,181.46Z" transform="translate(-561.03 -131.16)"/><path class="cls-4" d="M1289.09,243.58c-12.72,0-27.46,2.51-43.08,5.18-19.77,3.37-40.21,6.86-63,6.86-1.66,0-3.32,0-5-.06l-3.87-.1c-3.2-.09-6.21-.17-9-.17-24.63,0-25.85,13.54-27.14,27.88-.71,7.86-1.44,16-5.78,22.9-1.54,2.47-5.7,5.59-10.1,8.9-9.37,7-20,15-14.89,22.48,2.19,3.21,4.83,4.84,7.85,4.84a11.75,11.75,0,0,0,5.32-1.46c8.3-4.28,17.19-17,24.33-27.18,4-5.78,7.55-10.78,9.47-11.93a11.7,11.7,0,0,1,6.17-1.36c.74,0,1.5,0,2.25.06s1.54.05,2.31.05c2.9,0,6-.35,8.72-2.86,3.33-3,3.75-7,4.15-10.75.37-3.42.71-6.64,3-9.36,6.86-8.19,30.91-13.91,46.82-17.7,4.69-1.12,8.73-2.08,11.75-2.95a148.37,148.37,0,0,1,40.83-6c29.4,0,52.91,9.63,72.09,21.16v-1c-19.2-11.47-42.71-21-72.09-21a149.11,149.11,0,0,0-41.08,6c-3,.86-7,1.82-11.7,2.93-17,4.05-40.25,9.58-47.29,18-2.44,2.92-2.82,6.43-3.18,9.82-.41,3.8-.79,7.39-3.87,10.2-2.54,2.31-5.41,2.63-8.13,2.63-.76,0-1.52,0-2.28,0s-1.52-.06-2.28-.06a12.49,12.49,0,0,0-6.62,1.49c-2.08,1.24-5.46,6.07-9.74,12.18-6.71,9.59-15.9,22.71-24,26.9-5,2.55-8.86,1.55-12-3.1-4.63-6.77,5.64-14.48,14.69-21.28,4.66-3.5,8.69-6.53,10.32-9.13,4.44-7.09,5.19-15.33,5.9-23.29,1.31-14.53,2.44-27.08,26.27-27.08,2.83,0,5.84.08,9,.17l3.88.1q2.48.06,5,.06c22.82,0,43.29-3.5,63.11-6.88,15.57-2.65,30.28-5.16,42.92-5.16a64.34,64.34,0,0,1,17.8,2.21c14.37,4.1,29.55,11.4,45.42,19.82v-1c-15.77-8.35-30.85-15.57-45.18-19.67A65.26,65.26,0,0,0,1289.09,243.58Z" transform="translate(-561.03 -131.16)"/><path class="cls-4" d="M956.58,162.91c1.35,2.62,4.26,4,8.66,4a28.39,28.39,0,0,0,3.75-.27c5.16-.69,10-1,14.24-1.22a16.12,16.12,0,0,0,3.6-.59,15.43,15.43,0,0,0,3.66-1.57c9.51-5.56,20.75-21.92,21.13-32.05h-.88c-.39,9.72-11.57,26-20.69,31.29a14.73,14.73,0,0,1-3.46,1.48,15.56,15.56,0,0,1-3.44.56c-4.26.25-9.08.53-14.27,1.23-6.08.82-10-.28-11.52-3.22-2.05-4,.38-11.65,6.36-20a37.48,37.48,0,0,1,13.43-11.31h-1.84A37.5,37.5,0,0,0,963,142C956.74,150.74,954.34,158.57,956.58,162.91Z" transform="translate(-561.03 -131.16)"/><path class="cls-4" d="M1236.15,611.7c3.27,4.7,10.18,5.23,19.74,6l3.2.25c3,.25,6.19.36,9.54.47,15.54.53,33.16,1.14,49.07,15.63l.2.17c8.82,7.73,14.07,21.34,18.7,33.34s8.7,22.55,15.11,22.55c.19,0,.4-.05.6-.06v-.53c-.2,0-.41.06-.6.06-6,0-10-10.29-14.61-22.21s-9.93-25.73-18.85-33.54l-.19-.17c-16-14.62-33.78-15.23-49.41-15.76-3.35-.12-6.51-.23-9.51-.47-1.1-.09-2.17-.18-3.21-.25-9.42-.73-16.22-1.25-19.35-5.74-3-4.26-2.54-12.24,1.37-25.85,3.61-12.61,5-24.12,4.08-35.21-1.75-22.6-11.19-42.9-20.33-62.54-9.54-20.49-18.54-39.85-13.83-53.14,7.85-22.14,45.72-61.21,61.4-63.35a15.85,15.85,0,0,1,1.86-.1c13.1,0,42.75,10.9,81.18,34.44V405c-38.4-23.47-68-34.35-81.18-34.35a14.54,14.54,0,0,0-1.93.11c-15.8,2.16-53.94,41.44-61.83,63.69-4.78,13.49,4.27,32.95,13.86,53.56,9.11,19.58,18.53,39.84,20.28,62.34.86,11-.47,22.48-4.07,35C1233.43,599.37,1233.05,607.24,1236.15,611.7Z" transform="translate(-561.03 -131.16)"/><path class="cls-4" d="M915.53,770.71c26.17-3,57.35-34.09,65.71-57.86C995.75,671.57,970,638.34,945,606.2c-24.08-31-46.83-60.32-35.77-96,9.64-31.08,40.76-47.85,65.15-47.85,13.15,0,24.52,4.66,32,13.13,8.91,10.06,12.42,25.33,10.13,44.18-7.86,64.77-10.2,135.61,62,156.49a87.62,87.62,0,0,0,24.31,3.61c30.4,0,49.8-17.41,60.73-32,20.94-28,28.21-69.91,18.09-104.26-8.58-29.13-25.47-57.37-51.63-86.35-38.88-43.08-91.84-80.12-161.89-113.23l-3-1.44c-29.47-13.94-60-28.35-92-36.3-1.9-.47-4-1-6.26-1.63-9.91-2.63-22.24-5.91-32.83-5.91a32.73,32.73,0,0,0-10.9,1.62c-4.57,1.64-7.14,4.76-9.63,7.79A26.68,26.68,0,0,1,807,314.3a71.5,71.5,0,0,1-8.92,3.84c-5.94,2.29-12.08,4.66-14,6.94-3.75,4.39-2.72,7-1.72,9.6.72,1.83,1.39,3.57.51,6.15l-.69,2c-5.33,15.67-5.33,15.67-17.61,19.23-2.37.68-5.32,1.54-8.81,2.65-10.12,3.22-14.27,8.18-18.28,13-3.09,3.69-6,7.18-11.49,10a3.85,3.85,0,0,0-.49,0c-6.34,0-54.34,3.16-58,15-1,3.18,1.17,6.63,6.42,10.27,6.58,4.54,11.56,5.07,14.74,5.07,1.54,0,2.94-.13,4.3-.26a32.43,32.43,0,0,1,3.29-.22c3.86,0,7.77,1.09,13.13,14.3,1.31,3.25,2.33,5.91,3.17,8.12,4.15,10.86,4.29,11,14.83,15.51,2.62,1.11,5.87,2.5,10,4.41,13.57,6.26,16.35,13.37,19.87,22.37a80.83,80.83,0,0,0,8,16.21c4.28,6.49,9.29,11.71,14.15,16.76,8.59,8.95,16.72,17.4,19.3,31.52,4.48,24.46-8.8,47.81-23.81,69.4-7.28,10.48-22.24,22.66-38.08,35.57-26.9,21.91-57.39,46.75-57.5,69.76-.06,13.13,3.32,23.21,10,30,7.31,7.35,18.43,10.92,34,10.92,22.55,0,50.27-7.61,74.73-14.32,19.26-5.28,35.89-9.84,46.52-9.84a21.64,21.64,0,0,1,6,.72c10.25,3.05,18.38,9.56,26.25,15.85C887.18,763.08,897,771,911.13,771A38.73,38.73,0,0,0,915.53,770.71Zm-64.68-33a22.54,22.54,0,0,0-6.4-.77c-10.8,0-27.5,4.58-46.84,9.88-24.39,6.69-52,14.27-74.41,14.28-15.21,0-26.05-3.46-33.12-10.56-6.47-6.51-9.73-16.29-9.67-29.09.11-22.42,30.36-47.06,57.05-68.81,15.91-13,30.93-25.2,38.31-35.81,15.17-21.82,28.57-45.43,24-70.33-2.65-14.48-10.9-23.07-19.63-32.15-4.81-5-9.79-10.2-14-16.59a79.86,79.86,0,0,1-7.84-16c-3.62-9.26-6.48-16.57-20.5-23-4.16-1.91-7.42-3.31-10-4.42C717.61,450,717.61,450,713.6,439.5c-.84-2.22-1.86-4.89-3.18-8.14-5.11-12.61-9.1-15.07-14.27-15.07-1.1,0-2.22.11-3.41.22a41.66,41.66,0,0,1-4.18.26c-3.27,0-7.82-.55-14-4.86-4.76-3.29-6.75-6.28-5.94-8.89,3.2-10.26,47.95-14.1,56.85-14.1l.43,0,.14-.57.27.54c5.85-3,9-6.74,12.08-10.41,4.08-4.87,7.93-9.47,17.71-12.59,3.48-1.11,6.42-2,8.79-2.64,12.77-3.7,12.94-3.88,18.43-20l.69-2c1-3,.2-5.12-.53-7-1-2.42-1.76-4.52,1.5-8.35,1.75-2,8-4.46,13.53-6.59a71.15,71.15,0,0,0,9.12-3.94,27.53,27.53,0,0,0,6.83-6.53c2.49-3,4.84-5.89,9.09-7.41A31.36,31.36,0,0,1,834,299.86c10.42,0,22.68,3.26,32.52,5.87,2.25.6,4.36,1.16,6.27,1.63,32,7.92,62.39,22.31,91.8,36.22l3,1.44c69.91,33,122.73,70,161.51,112.94,26,28.84,42.83,56.93,51.36,85.88,10,34,2.83,75.46-17.9,103.17-10.75,14.39-29.85,31.53-59.74,31.53a86.23,86.23,0,0,1-24-3.56c-71.28-20.61-68.93-90.9-61.13-155.16,2.33-19.21-1.27-34.82-10.42-45.15-7.74-8.73-19.44-13.54-33-13.54-24.83,0-56.51,17.07-66.33,48.71-11.24,36.28,12.76,67.21,36,97.11,24.75,31.88,50.34,64.85,36.05,105.49-8.25,23.44-38.94,54.12-64.69,57a38.74,38.74,0,0,1-4.26.25c-13.66,0-23.35-7.76-33.61-16C869.56,747.41,861.33,740.83,850.85,737.71Z" transform="translate(-561.03 -131.16)"/><path class="cls-4" d="M945.8,195.16c6,0,12.58-1.46,18.4-2.75,3-.67,5.81-1.29,8.06-1.6,4.25-.57,8.38-.81,12.38-1,8.31-.48,16.17-.93,22.41-4.48,5-2.85,8.69-7.56,11.2-14.39,4.51-12.28,10.08-26.07,18-39.74h-.61c-7.84,13.62-13.38,27.34-17.88,39.56-2.47,6.7-6,11.32-11,14.12-6.13,3.48-13.93,3.93-22.18,4.4-4,.24-8.15.47-12.42,1-2.28.31-5.11.94-8.1,1.6-5.8,1.29-12.37,2.75-18.29,2.75s-9.93-1.42-12.59-4.33c-6.47-7.08-3.23-23.27-1.49-32L932,157a77.09,77.09,0,0,1,9.63-25.82H941a77.89,77.89,0,0,0-9.52,25.71l-.28,1.38c-1.76,8.78-5,25.13,1.62,32.42C935.58,193.69,939.83,195.16,945.8,195.16Z" transform="translate(-561.03 -131.16)"/><path class="cls-4" d="M1081.92,131.16h-1.21a70.89,70.89,0,0,0-5.47,6.38c-19.39,26.37-28,50.7-26.3,74.4.66,9.22-.47,15.32-3.46,18.65-1.9,2.12-4.62,3.15-8.3,3.15-5.11,0-11.42-2-18.09-4-6.06-1.87-12.33-3.81-18.24-4.46a125.7,125.7,0,0,0-13.62-.72c-14.9,0-29.06,2.37-44.05,4.88q-3.78.65-7.59,1.26l-.19,0a107.14,107.14,0,0,1-17,1.83c-11,0-18-3.64-21.47-11.13-7.25-15.63-5.22-34.46-3.43-51.06.24-2.24.48-4.46.69-6.64a156.54,156.54,0,0,1,6.39-32.56h-.94a158.26,158.26,0,0,0-6.32,32.48c-.22,2.17-.46,4.39-.7,6.62-1.8,16.72-3.84,35.68,3.52,51.53,3.63,7.83,10.91,11.64,22.26,11.64a108.4,108.4,0,0,0,17.17-1.84l.19,0c2.54-.41,5.07-.84,7.59-1.26,15-2.5,29.08-4.87,43.91-4.87a121.39,121.39,0,0,1,13.52.72c5.83.63,12.06,2.56,18.08,4.42,6.74,2.09,13.1,4.05,18.35,4.05,4,0,6.88-1.12,9-3.44,3.15-3.52,4.36-9.83,3.68-19.31-1.68-23.47,6.86-47.62,26.12-73.81A77.41,77.41,0,0,1,1081.92,131.16Z" transform="translate(-561.03 -131.16)"/><path class="cls-4" d="M1076.2,264.45c-6,4.21-14.12,6.26-25,6.26-12.72,0-27-2.85-39.5-5.37-7.4-1.48-14.39-2.88-20.1-3.49a194.7,194.7,0,0,0-19.54-1c-17.13,0-39.1,2.32-46.49,13.38-3.21,4.81-3.34,10.85-.39,18,1.39,3.34,5,5.15,8.44,6.91,2.74,1.38,5.58,2.82,7.15,5,1.87,2.53,3,6.09,4,9.53,1.42,4.57,2.88,9.31,6.21,12.1a21,21,0,0,0,14.25,5.09,61.24,61.24,0,0,0,11.7-1.55,60.69,60.69,0,0,1,11.52-1.53,20.7,20.7,0,0,1,9.68,2.21c7,3.6,9.93,8.45,12.77,13.14,3.71,6.12,7.21,11.89,18.75,14.59,24.15,5.65,30.77,11.56,46.76,25.82,2.06,1.84,4.28,3.82,6.7,5.95,5.76,5.05,10,10.81,14.12,16.39a111.77,111.77,0,0,0,12.33,14.81c6,5.78,11.66,8.35,17.13,10.84,7.29,3.31,14.17,6.44,20.41,17.16l1,1.69c7.85,13.58,15.79,26.15,20.67,26.15a2.66,2.66,0,0,0,2-.92c1.76-1.92,2.23-7,1.45-15.65-.46-5-4.1-9.54-7.62-13.9-3.8-4.7-7.39-9.14-7.18-14.05.26-5.88,3.82-8.77,7.58-11.83,2.76-2.25,5.61-4.56,7.27-8.16,4-8.62,5-16.35,5.92-23.82,1.31-10.4,2.54-20.23,11.85-31.34,16.66-19.89,40-34.91,65.81-42.3a87.38,87.38,0,0,1,24.29-3.66c26.33,0,45.22,14.32,65.23,29.49,2.26,1.71,4.55,3.44,6.86,5.16V344q-3.09-2.31-6.12-4.61c-20.17-15.3-39.23-29.74-66-29.74a88.62,88.62,0,0,0-24.63,3.7c-26,7.46-49.6,22.63-66.41,42.7-9.54,11.39-10.8,21.39-12.13,32-.93,7.38-1.88,15-5.81,23.47-1.55,3.33-4.29,5.56-6.94,7.71-3.81,3.1-7.75,6.31-8,12.74-.23,5.37,3.67,10.2,7.45,14.87,3.41,4.22,6.93,8.58,7.36,13.25.91,10.12-.12,13.58-1.14,14.7a1.43,1.43,0,0,1-1.11.52c-4.84,0-15.19-17.9-19.61-25.54l-1-1.69c-6.45-11.05-13.5-14.26-21-17.66-5.38-2.44-10.93-5-16.78-10.6a110.5,110.5,0,0,1-12.2-14.66c-4.15-5.63-8.44-11.45-14.3-16.59-2.42-2.13-4.63-4.1-6.69-5.94-16.16-14.41-22.84-20.37-47.3-26.1-11-2.58-14.41-8.14-18-14-2.94-4.83-6-9.83-13.27-13.6a21.88,21.88,0,0,0-10.24-2.34A61.75,61.75,0,0,0,976.77,328a60.16,60.16,0,0,1-11.46,1.52,19.83,19.83,0,0,1-13.46-4.79c-3.05-2.56-4.46-7.12-5.82-11.53-1.1-3.53-2.23-7.19-4.22-9.89-1.74-2.38-4.71-3.88-7.58-5.33-3.42-1.73-6.65-3.36-7.86-6.28-2.78-6.71-2.69-12.36.28-16.8,7.08-10.61,28.63-12.84,45.46-12.84a188.82,188.82,0,0,1,19.41,1c5.65.6,12.62,2,20,3.47,12.61,2.53,26.9,5.39,39.74,5.39,11.09,0,19.48-2.12,25.66-6.49,15.39-10.88,11-27.28,6.71-43.15-4.56-17-9.28-34.48,9.68-45.92a17.42,17.42,0,0,1,9-2.07c11.33,0,27.3,6.2,42.74,12.19,13.45,5.22,26.15,10.15,34.41,10.34,1.19,0,2.38,0,3.57,0h0c17.76,0,35.72-3.07,53.08-6s35.26-6,52.95-6a122.89,122.89,0,0,1,34.17,4.5,224.12,224.12,0,0,1,29,10.73v-1.34a223.61,223.61,0,0,0-28.72-10.57,124.08,124.08,0,0,0-34.5-4.55c-17.8,0-35.78,3.06-53.16,6s-35.21,6-52.87,6c-1.2,0-2.37,0-3.55,0-8-.19-20.65-5.08-34-10.26-15.54-6-31.62-12.27-43.18-12.27a18.34,18.34,0,0,0-9.67,2.25c-19.75,11.91-14.91,29.9-10.23,47.29C1086.78,238.79,1090.89,254.07,1076.2,264.45Z" transform="translate(-561.03 -131.16)"/><path class="cls-4" d="M926.65,219.54a89.48,89.48,0,0,0,14.6-1.55,302.94,302.94,0,0,1,51.25-4c4.66,0,9.45.08,14.65.24,1.8.05,3.37.08,4.8.08,8.59,0,13.61-1,17.31-3.6,4.42-3.05,7-8.41,8.78-17.91,4-21.8,12.72-41.4,27.49-61.61h-.65c-14.68,20.17-23.4,39.74-27.36,61.51-1.71,9.35-4.27,14.61-8.56,17.58-3.6,2.49-8.53,3.5-17,3.5-1.42,0-3,0-4.79-.08-5.19-.16-10-.24-14.66-.24a303,303,0,0,0-51.34,4A88.35,88.35,0,0,1,926.65,219c-10.6,0-18.2-3.55-20.85-20.88-2.53-16.58-.29-34.12,2-45.92a115.21,115.21,0,0,1,6.2-21.05h-.56a114.2,114.2,0,0,0-6.15,21c-2.34,11.84-4.59,29.45-2.05,46.09C907.59,213.36,913.78,219.54,926.65,219.54Z" transform="translate(-561.03 -131.16)"/><path class="cls-4" d="M933.9,206.32h0a31.66,31.66,0,0,0,5.31-.47,317.41,317.41,0,0,1,44.46-4.1c3.62-.09,7.1,0,10.42.09,2.23.06,4.34.11,6.39.11,6.33,0,12.87-.49,17.93-4,4.19-2.95,7.18-7.82,9.12-14.92a180.5,180.5,0,0,1,23.07-51.84H1050a181.27,181.27,0,0,0-23,51.7c-1.91,7-4.83,11.76-8.91,14.62-4.94,3.47-11.39,3.94-17.63,3.94-2,0-4.15,0-6.38-.11-3.32-.09-6.81-.18-10.44-.09a317,317,0,0,0-44.54,4.11c-8,1.35-14-.26-17.74-4.8-8.49-10.32-3.92-33.49-1.46-45.94a94.77,94.77,0,0,1,7.67-23.43H927a96.49,96.49,0,0,0-7.59,23.33c-2.47,12.53-7.07,35.86,1.57,46.38C924,204.49,928.3,206.32,933.9,206.32Z" transform="translate(-561.03 -131.16)"/></g></g></svg>