<?xml version="1.0" encoding="utf-8"?>
<!-- Generator: Adobe Illustrator 24.2.1, SVG Export Plug-In . SVG Version: 6.00 Build 0)  -->
<svg version="1.1" id="Ebene_1" xmlns="http://www.w3.org/2000/svg" xmlns:xlink="http://www.w3.org/1999/xlink" x="0px" y="0px"
	 viewBox="0 0 26 26" style="enable-background:new 0 0 26 26;" xml:space="preserve">
<style type="text/css">
	.st0{fill:#304351;}
</style>
<path class="st0" d="M23.3,6.5c-0.8,0.3-1.6,0.6-2.4,0.7c0.9-0.5,1.5-1.4,1.9-2.4c-0.8,0.5-1.7,0.8-2.7,1C19.3,5,18.2,4.5,17,4.5
	c-2.7,0-4.8,2.6-4.1,5.3C9.3,9.6,6.2,7.9,4.1,5.3C3,7.2,3.5,9.7,5.4,11c-0.7,0-1.3-0.2-1.9-0.5c0,2,1.4,3.8,3.4,4.3
	C6.3,15,5.6,15,5,14.9c0.5,1.7,2.1,2.9,4,3c-1.8,1.4-4,2-6.3,1.8c1.9,1.2,4.1,1.9,6.5,1.9c7.9,0,12.3-6.7,12.1-12.8
	C22,8.1,22.8,7.4,23.3,6.5z"/>
</svg>
