<svg id="Layer_1" data-name="Layer 1" xmlns="http://www.w3.org/2000/svg" viewBox="0 0 216 216"><defs><style>.cls-1{fill:#fff;}</style></defs><rect y="-0.08" width="216" height="216" rx="108"/><path class="cls-1" d="M84,100.24V64.88a5,5,0,0,1,.9-2.9l.68-1a3.83,3.83,0,0,1,6.22-.29h0a5,5,0,0,1,1.12,3.18V86.07l.59-30a7.15,7.15,0,0,1,.12-1.12,3.81,3.81,0,0,1,3.93-3.16h0c1.15.08,4.7,0,5.14,6.06V87.06l.4-24.65A5.06,5.06,0,0,1,105,58.47h0a4,4,0,0,1,5.78.88l.57.76a5.33,5.33,0,0,1,1,3.15V90.81l.4-20.07a4.55,4.55,0,0,1,1.47-3.33h0a3,3,0,0,1,.27-.23c2.13-1.6,5-.21,5.71,2.58l.14.59c.1.4.21.79.33,1.18a15.37,15.37,0,0,1,.68,4v.27l.81,42.07a9.25,9.25,0,0,1-2.25,6.12l-.5.57a9.29,9.29,0,0,0-2.24,6.57l2.1,31.69a5.42,5.42,0,0,1-3.41,5.46,39.4,39.4,0,0,1-25.93,0,5.41,5.41,0,0,1-3.31-5.4l2.07-37-3.23-3.5a126.79,126.79,0,0,1-17.07-23.8c-.08-.16-.17-.3-.24-.42a27.92,27.92,0,0,1-2.19-3c-1.74-3.34-1.4-5.43.55-7.25h0a4.11,4.11,0,0,1,6.59,1L78,97a5.06,5.06,0,0,0,3.09,2.34l.14,0c6.25,1.54,11.44,6.42,13.91,13.08.47,1.29.8,2.17.8,2.17"/><path d="M102.72,171.67a38.91,38.91,0,0,1-13.22-2.29,6.65,6.65,0,0,1-4.12-6.6l1.88-32.22a10.31,10.31,0,0,0-2.72-7.38h0a128.3,128.3,0,0,1-17.23-24c-.07-.14-.15-.26-.21-.36s-.4-.54-.66-.86a13.16,13.16,0,0,1-1.58-2.27C63,92,63.2,89.24,65.65,87a5.44,5.44,0,0,1,4.48-1.5,5.69,5.69,0,0,1,4,2.78l4.92,8.07a3.85,3.85,0,0,0,2.34,1.8l.14,0c.41.1.81.22,1.22.34V64.88a6.22,6.22,0,0,1,1.12-3.6l.68-1a5.2,5.2,0,0,1,4-2.26,5,5,0,0,1,3.62,1.35L92.25,56a7.47,7.47,0,0,1,.15-1.31,5,5,0,0,1,5.21-4.17h.2c1.39.09,5.61.33,6.11,7.18v0l.3-.25a5.12,5.12,0,0,1,3.89-1.08,5.4,5.4,0,0,1,3.62,2.19l.57.76a6.54,6.54,0,0,1,1.25,3.88v3.09l.18-.14a4.47,4.47,0,0,1,4.27-.65,5.45,5.45,0,0,1,3.37,3.92l.14.59c.08.34.18.7.3,1.1a16.92,16.92,0,0,1,.74,4.3c0,.13,0,.23,0,.31l.8,42a10.46,10.46,0,0,1-2.55,7l-.51.57a8.09,8.09,0,0,0-1.93,5.7l2.1,31.69a6.67,6.67,0,0,1-4.24,6.68A42.34,42.34,0,0,1,102.72,171.67ZM69.41,87.85a3.13,3.13,0,0,0-2.1.9c-1.37,1.28-1.9,2.69-.29,5.79a12.22,12.22,0,0,0,1.31,1.85,11.44,11.44,0,0,1,.82,1.08c.09.14.19.3.29.48a125.74,125.74,0,0,0,16.9,23.57l.68.74a10.29,10.29,0,0,1,2.72,7.39l-1.92,33.23a4.19,4.19,0,0,0,2.5,4.2,38.25,38.25,0,0,0,25.12,0,4.22,4.22,0,0,0,2.59-4.26l-2.1-31.69a10.54,10.54,0,0,1,2.54-7.43l.51-.57a8.1,8.1,0,0,0,1.94-5.31l-.81-42V75.6a14.28,14.28,0,0,0-.63-3.71c-.14-.45-.25-.86-.35-1.25l-.14-.59a3,3,0,0,0-1.82-2.19,2,2,0,0,0-2,.3l-.19.16A3.38,3.38,0,0,0,114,70.77l-.37,18.85a1.25,1.25,0,0,1-1.25,1.21h0a1.24,1.24,0,0,1-1.22-1.24V63.26a4.06,4.06,0,0,0-.77-2.42l-.57-.76a3,3,0,0,0-2-1.23,2.75,2.75,0,0,0-2.06.58,3.87,3.87,0,0,0-1.4,3l-.38,23.43a1.24,1.24,0,0,1-1.24,1.21h0a1.23,1.23,0,0,1-1.22-1.23v-28c-.35-4.68-2.6-4.81-3.81-4.88h-.24a2.6,2.6,0,0,0-2.63,2.16,4.84,4.84,0,0,0-.1.9l-.57,28.84a1.22,1.22,0,0,1-1.24,1.2h0a1.22,1.22,0,0,1-1.22-1.23V63.91a3.75,3.75,0,0,0-.84-2.4,2.65,2.65,0,0,0-2.16-1,2.72,2.72,0,0,0-2.12,1.23l-.69,1a3.83,3.83,0,0,0-.67,2.19V99.45A22.28,22.28,0,0,1,96.29,112l.38,1a1.22,1.22,0,0,1-.72,1.57h0a1.23,1.23,0,0,1-1.57-.72l-.38-1c-2.32-6.27-7.2-10.88-13-12.32l-.14,0A6.29,6.29,0,0,1,77,97.59L72,89.51a3.18,3.18,0,0,0-2.26-1.63A2.22,2.22,0,0,0,69.41,87.85Z"/><path class="cls-1" d="M54.71,140.26V121.57A2.61,2.61,0,0,1,55.2,120l.38-.51a2.13,2.13,0,0,1,3.4-.15h0a2.54,2.54,0,0,1,.62,1.68v11.71l.32-15.87a4,4,0,0,1,0-.44,2.13,2.13,0,0,1,2.18-1.82h0c.63,0,2.57,0,2.81,3.2v15.45l.22-13a2.63,2.63,0,0,1,1-2.08h0a2.24,2.24,0,0,1,3.17.46l.31.4a2.81,2.81,0,0,1,.55,1.67v14.56l.22-10.61a2.39,2.39,0,0,1,.8-1.76h0l.15-.12a2.29,2.29,0,0,1,3.45,1.13l.15.42a9.45,9.45,0,0,1,.21,2.13c0,.11,0,.22,0,.3l.39,22.79a4.79,4.79,0,0,1-1.24,3.24l-.27.3a4.83,4.83,0,0,0-1.23,3.47L74,166.41a2.85,2.85,0,0,1-1.87,2.88,22.29,22.29,0,0,1-14.2,0,2.87,2.87,0,0,1-1.82-2.86l1.13-12.63-1.77-1.85a66.89,66.89,0,0,1-9.34-12.58l-.14-.21a15.64,15.64,0,0,1-1.2-1.61c-.95-1.76-.77-2.87.3-3.83h0a2.3,2.3,0,0,1,3.61.54l2.7,4.27a2.78,2.78,0,0,0,1.7,1.24l.07,0a11,11,0,0,1,7.62,6.91l.45,1.15"/><path d="M65,171.67a22.37,22.37,0,0,1-7.41-1.24,4.09,4.09,0,0,1-2.64-4.06L56,154.78a1.23,1.23,0,0,0-.34-.89l-1-1.1A68.58,68.58,0,0,1,45.11,140a1,1,0,0,0-.09-.15c-.07-.1-.2-.25-.33-.41a7.16,7.16,0,0,1-.93-1.3c-1.18-2.18-1-3.92.55-5.32a3.61,3.61,0,0,1,2.91-.92,3.71,3.71,0,0,1,2.56,1.72l2.7,4.27a1.55,1.55,0,0,0,.94.7l.07,0v-17a3.83,3.83,0,0,1,.73-2.25l.37-.51a3.42,3.42,0,0,1,2.62-1.42,3.35,3.35,0,0,1,1.47.28l0-.79a3.88,3.88,0,0,1,.06-.61,3.37,3.37,0,0,1,3.46-2.85h.11a3.8,3.8,0,0,1,3.74,3.42,3.48,3.48,0,0,1,4.28,1.06l.31.4a3.91,3.91,0,0,1,.81,2.41v.66a3.44,3.44,0,0,1,2.24-.06A3.51,3.51,0,0,1,76,123.5l.15.43a6,6,0,0,1,.25,1.89c0,.2,0,.38,0,.55a3,3,0,0,1,0,.4l.39,22.77a6,6,0,0,1-1.56,4.09l-.27.3a3.56,3.56,0,0,0-.91,2.58l1.15,9.84a4.08,4.08,0,0,1-2.7,4.1A24.31,24.31,0,0,1,65,171.67ZM46.74,134.29a1.18,1.18,0,0,0-.8.34c-.42.38-.87.78,0,2.33a5.31,5.31,0,0,0,.65.89,7,7,0,0,1,.49.62c.05.08.11.17.17.28A66,66,0,0,0,56.4,151.1L58.17,153a1.18,1.18,0,0,1,.33.89l-1.13,12.64a1.65,1.65,0,0,0,1,1.64,21.06,21.06,0,0,0,13.42,0,1.63,1.63,0,0,0,1-1.67l-1.15-10.88c-.08-1.62.49-2.15,1.55-3.3l.27-.31a3.55,3.55,0,0,0,.91-2.41L74,126.79v-.24c0-.21,0-.43,0-.66a4.63,4.63,0,0,0-.11-1.14l-.15-.42a1.13,1.13,0,0,0-.72-.68,1,1,0,0,0-.86.13l-.07,0a1.21,1.21,0,0,0-.38.87l-.19,9.39a1.23,1.23,0,0,1-1.24,1.2h0A1.22,1.22,0,0,1,69,134.07V120.72a1.54,1.54,0,0,0-.3-.92l-.31-.4a1,1,0,0,0-1.47-.24,1.45,1.45,0,0,0-.54,1.13l-.2,11.81A1.23,1.23,0,0,1,65,133.31h0a1.22,1.22,0,0,1-1.21-1.22V117.89c-.16-1.94-.93-2-1.56-2h-.11a.9.9,0,0,0-.91.79,1.33,1.33,0,0,0,0,.25l-.3,14.69a1.22,1.22,0,0,1-1.23,1.2h0a1.23,1.23,0,0,1-1.21-1.23v-10.5a1.36,1.36,0,0,0-.32-.88.94.94,0,0,0-.75-.35,1,1,0,0,0-.75.42l-.37.52a1.32,1.32,0,0,0-.26.8v17.9a12.5,12.5,0,0,1,6,6.78h0a1.23,1.23,0,0,1-.7,1.58h0a1.22,1.22,0,0,1-1.58-.7h0A9.79,9.79,0,0,0,52.93,141l-.07,0a4,4,0,0,1-2.45-1.78l-2.7-4.26a1.22,1.22,0,0,0-.84-.61Z"/><path class="cls-1" d="M157.1,122.38V96.24a3.62,3.62,0,0,0-.69-2.14l-.52-.71a3,3,0,0,0-4.77-.22h0a3.62,3.62,0,0,0-.86,2.36v16.38l-.45-22.2a4,4,0,0,0-.37-1.39,2.84,2.84,0,0,0-1.95-1.71,2.62,2.62,0,0,0-.81-.06c-.88.06-3.6,0-3.93,4.48v21.61l-.31-18.22A3.7,3.7,0,0,0,141,91.51h0a3.15,3.15,0,0,0-4.44.65l-.43.56a3.81,3.81,0,0,0-.78,2.32v20.37l-.3-14.83a3.33,3.33,0,0,0-1.13-2.47h0a1.56,1.56,0,0,0-.2-.16,2.86,2.86,0,0,0-4.38,1.9l-.23.9v0a17.08,17.08,0,0,0-.56,3.76l-.71,30.86a6.72,6.72,0,0,0,1.72,4.53l.39.42a6.73,6.73,0,0,1,1.71,4.85l-1.61,19.61a4,4,0,0,0,2.62,4,31.2,31.2,0,0,0,19.87,0,4,4,0,0,0,2.53-4l-1.58-23.51,2.48-2.59a94.08,94.08,0,0,0,13.07-17.59l.19-.31a21.6,21.6,0,0,0,1.68-2.24c1.33-2.47,1.07-4-.42-5.36h0a3.23,3.23,0,0,0-5.06.76l-3.77,6a3.91,3.91,0,0,1-2.37,1.73l-.11,0a15.43,15.43,0,0,0-10.66,9.67l-.61,1.61"/><path d="M142.73,171.67A33.53,33.53,0,0,1,132.29,170a5.23,5.23,0,0,1-3.45-5.25l1.61-19.6a5.51,5.51,0,0,0-1.39-4l-.39-.42a7.89,7.89,0,0,1-2-5.36l.72-30.89a18.18,18.18,0,0,1,.59-4l0-.08.21-.87a4.4,4.4,0,0,1,2.72-3.1,3.77,3.77,0,0,1,3.26.3V95a5.11,5.11,0,0,1,1-3.07l.44-.56a4.38,4.38,0,0,1,6-1c.38-3.21,2-4.91,4.9-5.07h.12a3.7,3.7,0,0,1,1.16.09,4.07,4.07,0,0,1,2.81,2.43,5.09,5.09,0,0,1,.47,1.86l0,1.89a4.21,4.21,0,0,1,5.8,1.06l.53.72a4.9,4.9,0,0,1,.92,2.86v24.43c.2-.06.39-.11.59-.15l.11,0a2.66,2.66,0,0,0,1.62-1.19l3.77-6a4.69,4.69,0,0,1,3.23-2.19,4.55,4.55,0,0,1,3.67,1.16c2,1.82,2.23,4,.68,6.86a9.68,9.68,0,0,1-1.25,1.73,7.24,7.24,0,0,0-.48.61,2.52,2.52,0,0,0-.15.24,95.42,95.42,0,0,1-13.25,17.83h0a7.19,7.19,0,0,0-2,5.27l1.44,19.93A5.23,5.23,0,0,1,153,170,31.07,31.07,0,0,1,142.73,171.67ZM130.31,101v0a15.12,15.12,0,0,0-.53,3.49l-.71,30.86a5.48,5.48,0,0,0,1.4,3.67l.39.42a8,8,0,0,1,2,5.74l-1.61,19.6a2.76,2.76,0,0,0,1.78,2.82,30,30,0,0,0,19.09,0,2.75,2.75,0,0,0,1.71-2.78l-1.47-21a7.14,7.14,0,0,1,2-5.27l.72-.75A93.26,93.26,0,0,0,168,120.51c.08-.14.16-.26.23-.37.33-.49.8-1,1.23-1.55a4.34,4.34,0,0,0,.41-.64c1.22-2.28.61-3.11-.19-3.82a2,2,0,0,0-1.68-.57,2.19,2.19,0,0,0-1.52,1.07l-3.78,6a5.1,5.1,0,0,1-3.12,2.27l-.1,0a14.2,14.2,0,0,0-9.8,8.92l-.18.47a1.23,1.23,0,0,1-1.58.7h0a1.22,1.22,0,0,1-.7-1.58l.17-.46a17.06,17.06,0,0,1,8.49-9.36V96.24a2.45,2.45,0,0,0-.45-1.42l-.53-.71a1.77,1.77,0,0,0-2.85-.14,2.34,2.34,0,0,0-.57,1.56V110.7a1.21,1.21,0,0,1-1.2,1.22h0a1.22,1.22,0,0,1-1.23-1.2l-.43-21a2.62,2.62,0,0,0-.28-.95,1.62,1.62,0,0,0-1.09-1,1.65,1.65,0,0,0-.45,0h-.16c-1,0-2.39.13-2.64,3.29v20.36a1.22,1.22,0,0,1-1.21,1.22h0a1.24,1.24,0,0,1-1.24-1.2l-.28-17a2.5,2.5,0,0,0-.95-2,1.93,1.93,0,0,0-2.73.42l-.43.57a2.54,2.54,0,0,0-.53,1.57V114.2a1.21,1.21,0,0,1-1.2,1.22h0a1.21,1.21,0,0,1-1.23-1.19l-.28-13.63a2.17,2.17,0,0,0-.7-1.57l-.13-.1a1.35,1.35,0,0,0-1.3-.17,2,2,0,0,0-1.18,1.39Z"/><path class="cls-1" d="M75.75,68.27A4.76,4.76,0,0,0,71,63.51a4.47,4.47,0,0,0-4.75,4.14,4.47,4.47,0,0,0-4.75-4.14,4.76,4.76,0,0,0-3.62,7.85l8.38,10.5,8.36-10.5A4.74,4.74,0,0,0,75.75,68.27Z"/><path class="cls-1" d="M129.83,47A2.83,2.83,0,0,0,127,44.17a2.66,2.66,0,0,0-2.82,2.46,2.65,2.65,0,0,0-2.82-2.46,2.82,2.82,0,0,0-2.14,4.66l5,6.23,5-6.23A2.83,2.83,0,0,0,129.83,47Z"/></svg>